<svg width="135" height="40" viewBox="0 0 135 40" fill="none" xmlns="http://www.w3.org/2000/svg">
<path d="M134.105 35.2778C134.105 35.7813 134.005 36.2798 133.812 36.7448C133.62 37.2099 133.337 37.6324 132.981 37.9882C132.624 38.344 132.202 38.6261 131.736 38.8184C131.271 39.0107 130.772 39.1094 130.268 39.1089H4.7317C3.71422 39.11 2.73797 38.707 2.01766 37.9885C1.29735 37.2701 0.891951 36.2951 0.890625 35.2778V4.72644C0.89195 3.70876 1.29719 2.73321 2.01736 2.01398C2.73752 1.29476 3.71376 0.890645 4.7317 0.890381H130.267C130.771 0.890381 131.27 0.989611 131.736 1.1824C132.201 1.37519 132.624 1.65777 132.98 2.014C133.337 2.37022 133.619 2.79311 133.812 3.25852C134.005 3.72392 134.104 4.22273 134.104 4.72644L134.105 35.2778Z" fill="white"/>
<path d="M130.268 40H4.73155C3.47813 39.9997 2.27601 39.5024 1.38896 38.6171C0.501907 37.7318 0.00238491 36.5308 0 35.2777L0 4.7273C0.00185425 3.47359 0.501047 2.27181 1.38807 1.38558C2.27509 0.499356 3.47751 0.00105818 4.73155 0L130.267 0C131.521 0.00158618 132.723 0.500054 133.61 1.38616C134.497 2.27228 134.996 3.47375 134.999 4.7273V35.2777C135.001 37.8824 132.875 40 130.268 40Z" fill="#A6A6A6"/>
<path d="M134.105 35.2778C134.105 35.7813 134.005 36.2798 133.812 36.7448C133.62 37.2099 133.337 37.6324 132.981 37.9882C132.624 38.344 132.202 38.6261 131.736 38.8184C131.271 39.0107 130.772 39.1094 130.268 39.1089H4.7317C3.71422 39.11 2.73797 38.707 2.01766 37.9885C1.29735 37.2701 0.891951 36.2951 0.890625 35.2778V4.72644C0.89195 3.70876 1.29719 2.73321 2.01736 2.01398C2.73752 1.29476 3.71376 0.890645 4.7317 0.890381H130.267C130.771 0.890381 131.27 0.989611 131.736 1.1824C132.201 1.37519 132.624 1.65777 132.98 2.014C133.337 2.37022 133.619 2.79311 133.812 3.25852C134.005 3.72392 134.104 4.22273 134.104 4.72644L134.105 35.2778Z" fill="black"/>
<path d="M30.1443 19.7895C30.1153 16.5656 32.7847 14.9972 32.9068 14.9241C31.395 12.7205 29.0517 12.4195 28.2283 12.3955C26.2602 12.1884 24.3512 13.5728 23.3486 13.5728C22.3261 13.5728 20.7822 12.4155 19.1183 12.4495C16.9772 12.4825 14.9741 13.7218 13.8755 15.6463C11.6083 19.5704 13.2992 25.337 15.4714 28.5089C16.558 30.0633 17.8276 31.7968 19.4895 31.7358C21.1154 31.6698 21.7227 30.7005 23.6848 30.7005C25.6289 30.7005 26.1992 31.7358 27.8941 31.6968C29.639 31.6698 30.7376 30.1363 31.7862 28.5689C33.0419 26.7894 33.5461 25.0349 33.5661 24.9449C33.5261 24.9309 30.1783 23.6525 30.1443 19.7895ZM26.9426 10.3089C27.817 9.21557 28.4154 7.72817 28.2493 6.21875C26.9836 6.27477 25.4007 7.09399 24.4892 8.16329C23.6828 9.10554 22.9624 10.65 23.1485 12.1024C24.5703 12.2084 26.0301 11.3852 26.9426 10.3089Z" fill="white"/>
<path d="M130.269 0H63.0273L89.3646 40H130.269C131.522 39.9989 132.724 39.5009 133.611 38.6151C134.498 37.7293 134.998 36.5281 135 35.2747V4.7273C134.998 3.47367 134.499 2.27204 133.612 1.38587C132.725 0.499705 131.523 0.00132228 130.269 0Z" fill="url(#paint0_linear_414_21049)"/>
<path d="M53.6942 31.5129H51.422L50.1773 27.6028H45.851L44.6653 31.5129H42.4531L46.7404 18.2012H49.3879L53.6942 31.5129ZM49.8021 25.9623L48.6765 22.4864C48.5574 22.1313 48.3333 21.2951 48.0051 19.9787H47.9651C47.833 20.5448 47.6219 21.3811 47.3328 22.4864L46.2262 25.9623H49.8021ZM64.6981 26.5955C64.6981 28.228 64.2549 29.5183 63.3674 30.4656C62.573 31.3088 61.5855 31.7299 60.4078 31.7299C59.1361 31.7299 58.2216 31.2768 57.6663 30.3686V35.4049H55.5332V25.0691C55.5332 24.0438 55.5062 22.9925 55.4541 21.9142H57.3302L57.4492 23.4356H57.4892C58.2006 22.2893 59.2802 21.7162 60.729 21.7162C61.8616 21.7162 62.8071 22.1633 63.5635 23.0585C64.3189 23.9558 64.6981 25.1341 64.6981 26.5955ZM62.525 26.6735C62.525 25.7393 62.3148 24.9691 61.8926 24.3619C61.4314 23.7307 60.812 23.4146 60.0356 23.4146C59.5093 23.4146 59.0311 23.5907 58.6038 23.9378C58.1756 24.2879 57.8955 24.745 57.7644 25.3112C57.7059 25.5229 57.6726 25.7408 57.6653 25.9603V27.5618C57.6653 28.259 57.8795 28.8481 58.3077 29.3303C58.7359 29.8104 59.2922 30.0515 59.9766 30.0515C60.78 30.0515 61.4054 29.7404 61.8526 29.1232C62.3008 28.504 62.525 27.6878 62.525 26.6735ZM75.7411 26.5955C75.7411 28.228 75.2979 29.5183 74.4104 30.4656C73.615 31.3088 72.6284 31.7299 71.4498 31.7299C70.1781 31.7299 69.2636 31.2768 68.7083 30.3686V35.4049H66.5752V25.0691C66.5752 24.0438 66.5481 22.9925 66.4961 21.9142H68.3721L68.4912 23.4356H68.5312C69.2416 22.2893 70.3212 21.7162 71.771 21.7162C72.9026 21.7162 73.8481 22.1633 74.6065 23.0585C75.3609 23.9558 75.7411 25.1341 75.7411 26.5955ZM73.5669 26.6735C73.5669 25.7393 73.3558 24.9691 72.9336 24.3619C72.4723 23.7307 71.855 23.4146 71.0786 23.4146C70.5523 23.4146 70.074 23.5907 69.6448 23.9378C69.2166 24.2879 68.9374 24.745 68.8064 25.3112C68.7413 25.5752 68.7063 25.7903 68.7063 25.9603V27.5618C68.7063 28.259 68.9214 28.8481 69.3476 29.3303C69.7759 29.8094 70.3322 30.0515 71.0186 30.0515C71.823 30.0515 72.4483 29.7404 72.8946 29.1232C73.3428 28.504 73.5669 27.6878 73.5669 26.6735ZM88.0878 27.7788C88.0878 28.9122 87.6916 29.8334 86.9041 30.5446C86.0377 31.3208 84.828 31.7099 83.2772 31.7099C81.8444 31.7099 80.6958 31.4338 79.8293 30.8807L80.3226 29.1032C81.2581 29.6574 82.2856 29.9334 83.4042 29.9334C84.2087 29.9334 84.834 29.7514 85.2803 29.3903C85.7275 29.0282 85.9536 28.544 85.9536 27.9399C85.9536 27.3987 85.7665 26.9456 85.3993 26.5765C85.0301 26.2084 84.4198 25.8653 83.5623 25.5502C81.2311 24.681 80.0644 23.4096 80.0644 21.7372C80.0644 20.6449 80.4767 19.7506 81.2991 19.0514C82.1215 18.3532 83.2121 18.0042 84.5689 18.0042C85.7805 18.0042 86.7901 18.2152 87.5915 18.6363L87.0562 20.3748C86.3018 19.9667 85.4503 19.7626 84.4978 19.7626C83.7454 19.7626 83.1551 19.9477 82.7329 20.3158C82.3777 20.6449 82.1976 21.046 82.1976 21.5221C82.1976 22.0473 82.4027 22.4834 82.8109 22.8255C83.1651 23.1406 83.8115 23.4837 84.746 23.8518C85.8926 24.3139 86.735 24.852 87.2743 25.4702C87.8176 26.0884 88.0878 26.8596 88.0878 27.7788ZM95.1586 23.5147H92.8073V28.1749C92.8073 29.3603 93.2215 29.9514 94.052 29.9514C94.4332 29.9514 94.7494 29.9194 94.9995 29.8524L95.0585 31.4719C94.6383 31.6289 94.085 31.7079 93.3996 31.7079C92.5572 31.7079 91.8988 31.4508 91.4236 30.9367C90.9503 30.4226 90.7122 29.5613 90.7122 28.349V23.5107H89.3114V21.9102H90.7122V20.1527L92.8073 19.5206V21.9102H95.1586V23.5147ZM105.746 26.6345C105.746 28.1099 105.324 29.3213 104.482 30.2685C103.6 31.2438 102.428 31.7299 100.966 31.7299C99.555 31.7299 98.4333 31.2628 97.5969 30.3295C96.7604 29.3943 96.3422 28.216 96.3422 26.7946C96.3422 25.3072 96.7745 24.0888 97.6359 23.1416C98.4994 22.1933 99.662 21.7192 101.124 21.7192C102.533 21.7192 103.664 22.1873 104.521 23.1216C105.339 24.0278 105.746 25.1981 105.746 26.6345ZM103.535 26.6835C103.535 25.8043 103.345 25.0501 102.964 24.4189C102.517 23.6567 101.876 23.2756 101.047 23.2756C100.192 23.2756 99.5369 23.6567 99.0907 24.4189C98.7085 25.0501 98.5184 25.8173 98.5184 26.7235C98.5184 27.6038 98.7085 28.36 99.0907 28.9892C99.552 29.7514 100.195 30.1325 101.029 30.1325C101.844 30.1325 102.484 29.7434 102.946 28.9702C103.338 28.324 103.535 27.5648 103.535 26.6835ZM112.683 23.7897C112.461 23.7497 112.236 23.7299 112.011 23.7307C111.26 23.7307 110.68 24.0128 110.272 24.581C109.918 25.0811 109.739 25.7133 109.739 26.4765V31.5129H107.606V24.9371C107.608 23.9294 107.588 22.9219 107.544 21.9152H109.402L109.48 23.7517H109.539C109.765 23.1206 110.12 22.6114 110.606 22.2303C111.051 21.8973 111.592 21.717 112.148 21.7162C112.345 21.7162 112.523 21.7302 112.681 21.7552L112.683 23.7897ZM122.223 26.2594C122.229 26.5836 122.202 26.9076 122.145 27.2267H115.746C115.77 28.1749 116.08 28.9011 116.674 29.4013C117.213 29.8474 117.911 30.0715 118.767 30.0715C119.715 30.0715 120.579 29.9214 121.357 29.6183L121.691 31.0978C120.782 31.4939 119.71 31.6909 118.472 31.6909C116.983 31.6909 115.815 31.2528 114.964 30.3786C114.116 29.5033 113.691 28.327 113.691 26.8536C113.691 25.4072 114.086 24.2019 114.877 23.2406C115.706 22.2143 116.825 21.7012 118.234 21.7012C119.618 21.7012 120.665 22.2143 121.377 23.2406C121.94 24.0538 122.223 25.0621 122.223 26.2594ZM120.189 25.7063C120.204 25.0731 120.064 24.5279 119.775 24.0668C119.406 23.4727 118.837 23.1766 118.076 23.1766C117.379 23.1766 116.81 23.4657 116.378 24.0458C116.023 24.5069 115.812 25.0611 115.747 25.7043L120.189 25.7063Z" fill="white"/>
<path d="M45.235 13.4948C44.6417 13.4948 44.1284 13.4658 43.7012 13.4168V6.98105C44.2987 6.88877 44.9025 6.84328 45.5071 6.84501C47.9535 6.84501 49.0801 8.04834 49.0801 10.0099C49.0801 12.2725 47.7494 13.4948 45.235 13.4948ZM45.5932 7.67024C45.263 7.67024 44.9819 7.69024 44.7487 7.73826V12.6306C44.8748 12.6506 45.1169 12.6596 45.4571 12.6596C47.06 12.6596 47.9725 11.7474 47.9725 10.0389C47.9725 8.51547 47.147 7.67024 45.5932 7.67024ZM52.591 13.5439C51.2122 13.5439 50.3187 12.5146 50.3187 11.1172C50.3187 9.66079 51.2312 8.6225 52.669 8.6225C54.0277 8.6225 54.9412 9.60277 54.9412 11.0402C54.9412 12.5146 53.9997 13.5439 52.591 13.5439ZM52.631 9.38871C51.8736 9.38871 51.3883 10.0969 51.3883 11.0872C51.3883 12.0584 51.8836 12.7666 52.621 12.7666C53.3584 12.7666 53.8537 12.0094 53.8537 11.0672C53.8537 10.1069 53.3684 9.38871 52.631 9.38871ZM62.8035 8.71953L61.3277 13.4368H60.3662L59.7548 11.3883C59.6028 10.8872 59.4763 10.3787 59.3756 9.86484H59.3556C59.2786 10.379 59.1325 10.8941 58.9774 11.3883L58.3271 13.4368H57.3555L55.9668 8.71953H57.0444L57.5787 10.9621C57.7047 11.4963 57.8108 12.0004 57.8988 12.4766H57.9188C57.9959 12.0795 58.122 11.5833 58.3071 10.9721L58.9774 8.72053H59.8319L60.4732 10.9241C60.6283 11.4583 60.7544 11.9824 60.8524 12.4776H60.8804C60.9485 11.9924 61.0555 11.4773 61.2006 10.9241L61.7739 8.72053L62.8035 8.71953ZM68.2364 13.4368H67.1878V10.7281C67.1878 9.89385 66.8677 9.47573 66.2363 9.47573C65.615 9.47573 65.1878 10.0099 65.1878 10.6311V13.4368H64.1392V10.0679C64.1392 9.65078 64.1292 9.20366 64.1002 8.71853H65.0227L65.0717 9.44673H65.1007C65.3829 8.94259 65.9552 8.6225 66.5965 8.6225C67.5871 8.6225 68.2374 9.37971 68.2374 10.612L68.2364 13.4368ZM71.128 13.4368H70.0784V6.55493H71.128V13.4368ZM74.951 13.5439C73.5733 13.5439 72.6788 12.5146 72.6788 11.1172C72.6788 9.66079 73.5913 8.6225 75.0281 8.6225C76.3878 8.6225 77.3003 9.60277 77.3003 11.0402C77.3013 12.5146 76.3588 13.5439 74.951 13.5439ZM74.9901 9.38871C74.2326 9.38871 73.7474 10.0969 73.7474 11.0872C73.7474 12.0584 74.2437 12.7666 74.9791 12.7666C75.7175 12.7666 76.2117 12.0094 76.2117 11.0672C76.2127 10.1069 75.7285 9.38871 74.9901 9.38871ZM81.4345 13.4368L81.3585 12.8937H81.3305C81.0103 13.3308 80.5431 13.5439 79.9507 13.5439C79.1053 13.5439 78.505 12.9517 78.505 12.1555C78.505 10.9912 79.5145 10.389 81.2624 10.389V10.302C81.2624 9.68079 80.9333 9.36971 80.2829 9.36971C79.8177 9.36971 79.4094 9.48674 79.0503 9.7198L78.8371 9.03061C79.2734 8.75854 79.8177 8.6225 80.457 8.6225C81.6897 8.6225 82.312 9.27268 82.312 10.574V12.3115C82.312 12.7876 82.333 13.1567 82.38 13.4378L81.4345 13.4368ZM81.2905 11.0872C80.1258 11.0872 79.5415 11.3693 79.5415 12.0384C79.5415 12.5336 79.8427 12.7756 80.2609 12.7756C80.7942 12.7756 81.2905 12.3685 81.2905 11.8154V11.0872ZM87.4038 13.4368L87.3547 12.6796H87.3257C87.0246 13.2518 86.5183 13.5439 85.8109 13.5439C84.6733 13.5439 83.8308 12.5436 83.8308 11.1362C83.8308 9.66079 84.7043 8.6215 85.8969 8.6215C86.5283 8.6215 86.9755 8.83456 87.2277 9.26268H87.2487V6.55493H88.2982V12.1655C88.2982 12.6216 88.3092 13.0487 88.3373 13.4368H87.4038ZM87.2487 10.6611C87.2487 10.0009 86.8114 9.43773 86.1441 9.43773C85.3667 9.43773 84.8914 10.1269 84.8914 11.0972C84.8914 12.0484 85.3847 12.6996 86.1231 12.6996C86.7824 12.6996 87.2487 12.1265 87.2487 11.4473V10.6611ZM94.9528 13.5439C93.5751 13.5439 92.6816 12.5146 92.6816 11.1172C92.6816 9.66079 93.5941 8.6225 95.0309 8.6225C96.3906 8.6225 97.3031 9.60277 97.3031 11.0402C97.3041 12.5146 96.3626 13.5439 94.9528 13.5439ZM94.9919 9.38871C94.2354 9.38871 93.7502 10.0969 93.7502 11.0872C93.7502 12.0584 94.2454 12.7666 94.9818 12.7666C95.7202 12.7666 96.2145 12.0094 96.2145 11.0672C96.2165 10.1069 95.7313 9.38871 94.9919 9.38871ZM102.942 13.4368H101.893V10.7281C101.893 9.89385 101.572 9.47573 100.941 9.47573C100.32 9.47573 99.8935 10.0099 99.8935 10.6311V13.4368H98.8439V10.0679C98.8439 9.65078 98.8339 9.20366 98.8049 8.71853H99.7274L99.7764 9.44673H99.8055C100.087 8.94259 100.66 8.6215 101.3 8.6215C102.291 8.6215 102.942 9.37871 102.942 10.611V13.4368ZM109.997 9.50574H108.843V11.7964C108.843 12.3795 109.045 12.6706 109.454 12.6706C109.639 12.6706 109.794 12.6506 109.919 12.6216L109.948 13.4178C109.745 13.4958 109.473 13.5349 109.134 13.5349C108.308 13.5349 107.814 13.0787 107.814 11.8844V9.50574H107.125V8.71953H107.814V7.85529L108.843 7.5442V8.71853H109.997V9.50574ZM115.548 13.4368H114.5V10.7481C114.5 9.90385 114.181 9.47674 113.549 9.47674C113.006 9.47674 112.499 9.84584 112.499 10.593V13.4368H111.452V6.55493H112.499V9.38871H112.52C112.85 8.87457 113.329 8.6215 113.939 8.6215C114.938 8.6215 115.548 9.39771 115.548 10.6311V13.4368ZM121.235 11.3302H118.088C118.108 12.2235 118.7 12.7276 119.575 12.7276C120.04 12.7276 120.469 12.6496 120.847 12.5046L121.01 13.2328C120.564 13.4268 120.038 13.5238 119.427 13.5238C117.951 13.5238 117.078 12.5916 117.078 11.1462C117.078 9.6998 117.972 8.6125 119.309 8.6125C120.515 8.6125 121.271 9.50574 121.271 10.8551C121.278 11.0144 121.266 11.1738 121.235 11.3302ZM120.273 10.583C120.273 9.85484 119.906 9.3407 119.236 9.3407C118.634 9.3407 118.157 9.86484 118.089 10.583H120.273Z" fill="white"/>
<defs>
<linearGradient id="paint0_linear_414_21049" x1="99.0127" y1="40.1062" x2="99.0127" y2="-104.153" gradientUnits="userSpaceOnUse">
<stop stop-color="#1A1A1A" stop-opacity="0.1"/>
<stop offset="0.123" stop-color="#212121" stop-opacity="0.151"/>
<stop offset="0.308" stop-color="#353535" stop-opacity="0.227"/>
<stop offset="0.532" stop-color="#575757" stop-opacity="0.318"/>
<stop offset="0.783" stop-color="#858585" stop-opacity="0.421"/>
<stop offset="1" stop-color="#B3B3B3" stop-opacity="0.51"/>
</linearGradient>
</defs>
</svg>
