<svg width="1960" height="679" viewBox="0 0 1960 679" fill="none" xmlns="http://www.w3.org/2000/svg">
<rect x="20.5642" width="1917.8" height="676.017" fill="url(#paint0_linear_279_5863)"/>
<mask id="mask0_279_5863" style="mask-type:alpha" maskUnits="userSpaceOnUse" x="0" y="2" width="1961" height="677">
<rect x="0.316406" y="2.21289" width="1959.68" height="676.017" fill="url(#paint1_linear_279_5863)"/>
</mask>
<g mask="url(#mask0_279_5863)">
<mask id="mask1_279_5863" style="mask-type:alpha" maskUnits="userSpaceOnUse" x="184" y="2" width="1960" height="677">
<rect x="184.037" y="2.21289" width="1959.68" height="676.017" fill="url(#paint2_linear_279_5863)"/>
</mask>
<g mask="url(#mask1_279_5863)">
</g>
<g opacity="0.3" clip-path="url(#clip0_279_5863)">
<rect x="115.965" y="36.916" width="1728" height="676.017" fill="url(#paint3_linear_279_5863)"/>
<g style="mix-blend-mode:overlay">
<g style="mix-blend-mode:overlay" opacity="0.35">
<g style="mix-blend-mode:overlay">
<path d="M808.441 41.7659L773.503 8.56591L785.507 -37.5417L832.45 -50.4492L867.388 -17.2492L855.384 28.8584L808.441 41.7659ZM776.839 7.64546L809.297 38.4909L852.904 26.5037L864.052 -16.3288L831.594 -47.1742L787.987 -35.187L776.839 7.64546Z" fill="white"/>
<path d="M833.021 126.767L798.083 93.5669L810.087 47.4593L857.03 34.5518L891.968 67.7518L879.963 113.859L833.021 126.767ZM801.396 92.6464L833.855 123.492L877.461 111.505L888.61 68.6722L856.152 37.8268L812.545 49.8139L801.396 92.6464Z" fill="white"/>
<path d="M857.578 211.769L822.64 178.569L834.645 132.461L881.587 119.554L916.525 152.754L904.521 198.861L857.578 211.769ZM825.976 177.648L858.434 208.494L902.041 196.507L913.19 153.674L880.731 122.829L837.124 134.816L825.976 177.648Z" fill="white"/>
<path d="M882.158 296.77L847.22 263.57L859.224 217.462L906.167 204.555L941.105 237.755L929.1 283.862L882.158 296.77ZM850.556 262.649L883.014 293.495L926.621 281.508L937.769 238.675L905.311 207.83L861.704 219.817L850.556 262.649Z" fill="white"/>
<path d="M906.715 381.772L871.777 348.572L883.782 302.464L930.724 289.557L965.663 322.757L953.658 368.864L906.715 381.772ZM875.113 347.651L907.571 378.497L951.178 366.51L962.327 323.677L929.868 292.832L886.262 304.819L875.113 347.651Z" fill="white"/>
<path d="M931.295 466.773L896.357 433.573L908.361 387.465L955.304 374.558L990.242 407.758L978.238 453.865L931.295 466.773ZM899.693 432.652L932.151 463.498L975.758 451.511L986.906 408.678L954.448 377.833L910.841 389.82L899.693 432.652Z" fill="white"/>
<path d="M955.853 551.753L920.915 518.553L932.919 472.446L979.862 459.538L1014.8 492.738L1002.8 538.846L955.853 551.753ZM924.251 517.654L956.709 548.5L1000.32 536.512L1011.46 493.68L979.006 462.834L935.399 474.822L924.251 517.654Z" fill="white"/>
<path d="M980.432 636.754L945.494 603.554L957.499 557.447L1004.44 544.539L1039.38 577.739L1027.37 623.847L980.432 636.754ZM948.83 602.634L981.288 633.479L1024.9 621.492L1036.04 578.66L1003.59 547.814L959.979 559.801L948.83 602.634Z" fill="white"/>
<path d="M1005.01 721.756L970.074 688.556L982.078 642.449L1029.02 629.541L1063.96 662.741L1051.95 708.849L1005.01 721.756ZM973.388 687.636L1005.85 718.481L1049.45 706.494L1060.6 663.661L1028.14 632.816L984.536 644.803L973.388 687.636Z" fill="white"/>
<path d="M896.203 63.514L861.265 30.3139L873.27 -15.7936L920.212 -28.7012L955.15 4.49883L943.146 50.6064L896.203 63.514ZM864.601 29.3935L897.059 60.2389L940.666 48.2518L951.815 5.41929L919.356 -25.4261L875.75 -13.439L864.601 29.3935Z" fill="white"/>
<path d="M920.761 148.515L885.823 115.315L897.827 69.2074L944.77 56.2998L979.708 89.4998L967.703 135.607L920.761 148.515ZM889.159 114.394L921.617 145.24L965.224 133.253L976.372 90.4203L943.914 59.5749L900.307 71.562L889.159 114.394Z" fill="white"/>
<path d="M945.341 233.517L910.402 200.317L922.407 154.209L969.349 141.302L1004.29 174.502L992.283 220.609L945.341 233.517ZM913.738 199.396L946.196 230.242L989.803 218.255L1000.95 175.422L968.494 144.577L924.887 156.564L913.738 199.396Z" fill="white"/>
<path d="M969.898 318.518L934.96 285.318L946.965 239.21L993.907 226.303L1028.85 259.503L1016.84 305.61L969.898 318.518ZM938.296 284.397L970.754 315.243L1014.36 303.256L1025.51 260.423L993.051 229.578L949.444 241.565L938.296 284.397Z" fill="white"/>
<path d="M994.478 403.498L959.54 370.298L971.544 324.191L1018.49 311.283L1053.43 344.483L1041.42 390.591L994.478 403.498ZM962.876 369.399L995.334 400.245L1038.94 388.258L1050.09 345.425L1017.63 314.58L974.024 326.567L962.876 369.399Z" fill="white"/>
<path d="M1019.06 488.5L984.119 455.3L996.124 409.193L1043.07 396.285L1078 429.485L1066 475.593L1019.06 488.5ZM987.433 454.38L1019.89 485.225L1063.5 473.238L1074.65 430.406L1042.19 399.56L998.582 411.547L987.433 454.38Z" fill="white"/>
<path d="M1043.62 573.501L1008.68 540.301L1020.68 494.194L1067.62 481.286L1102.56 514.486L1090.56 560.594L1043.62 573.501ZM1012.01 539.381L1044.47 570.226L1088.08 558.239L1099.23 515.407L1066.77 484.561L1023.16 496.548L1012.01 539.381Z" fill="white"/>
<path d="M1068.19 658.503L1033.26 625.303L1045.26 579.196L1092.2 566.288L1127.14 599.488L1115.14 645.596L1068.19 658.503ZM1036.59 624.383L1069.05 655.228L1112.66 643.241L1123.81 600.409L1091.35 569.563L1047.74 581.55L1036.59 624.383Z" fill="white"/>
<path d="M983.944 85.262L949.006 52.062L961.01 5.95442L1007.95 -6.95312L1042.89 26.2469L1030.89 72.3544L983.944 85.262ZM952.341 51.1416L984.8 81.9869L1028.41 69.9998L1039.56 27.1673L1007.1 -3.67808L963.49 8.30901L952.341 51.1416Z" fill="white"/>
<path d="M1008.52 170.263L973.585 137.063L985.59 90.9554L1032.53 78.0479L1067.47 111.248L1055.47 157.355L1008.52 170.263ZM976.921 136.143L1009.38 166.988L1052.99 155.001L1064.13 112.168L1031.68 81.3229L988.07 93.31L976.921 136.143Z" fill="white"/>
<path d="M1033.1 255.243L998.165 222.043L1010.17 175.936L1057.11 163.028L1092.05 196.228L1080.05 242.336L1033.1 255.243ZM1001.48 221.144L1033.94 251.99L1077.54 240.003L1088.69 197.17L1056.23 166.325L1012.63 178.312L1001.48 221.144Z" fill="white"/>
<path d="M1057.66 340.244L1022.72 307.044L1034.73 260.937L1081.67 248.029L1116.61 281.229L1104.6 327.337L1057.66 340.244ZM1026.06 306.124L1058.52 336.969L1102.12 324.982L1113.27 282.15L1080.81 251.304L1037.21 263.291L1026.06 306.124Z" fill="white"/>
<path d="M1082.24 425.246L1047.3 392.046L1059.31 345.939L1106.25 333.031L1141.19 366.231L1129.18 412.339L1082.24 425.246ZM1050.64 391.126L1083.1 421.971L1126.7 409.984L1137.85 367.152L1105.39 336.306L1061.79 348.293L1050.64 391.126Z" fill="white"/>
<path d="M1106.8 510.248L1071.86 477.048L1083.86 430.941L1130.81 418.033L1165.74 451.233L1153.74 497.341L1106.8 510.248ZM1075.2 476.128L1107.65 506.973L1151.26 494.986L1162.41 452.154L1129.95 421.308L1086.34 433.295L1075.2 476.128Z" fill="white"/>
<path d="M1131.38 595.249L1096.44 562.049L1108.44 515.942L1155.39 503.034L1190.32 536.234L1178.32 582.342L1131.38 595.249ZM1099.78 561.129L1132.23 591.974L1175.84 579.987L1186.99 537.155L1154.53 506.309L1110.92 518.296L1099.78 561.129Z" fill="white"/>
<path d="M1155.93 680.251L1121 647.051L1133 600.944L1179.94 588.036L1214.88 621.236L1202.88 667.344L1155.93 680.251ZM1124.33 646.131L1156.79 676.976L1200.4 664.989L1211.55 622.157L1179.09 591.311L1135.48 603.298L1124.33 646.131Z" fill="white"/>
<path d="M1047.15 22.0081L1012.21 -11.1919L1024.21 -57.2995L1071.16 -70.207L1106.1 -37.007L1094.09 9.10056L1047.15 22.0081ZM1015.55 -12.1124L1048 18.7331L1091.61 6.74593L1102.76 -36.0866L1070.3 -66.932L1026.69 -54.9449L1015.55 -12.1124Z" fill="white"/>
<path d="M1071.71 106.989L1036.77 73.7885L1048.77 27.681L1095.71 14.7734L1130.65 47.9734L1118.65 94.081L1071.71 106.989ZM1040.1 72.8895L1072.56 103.735L1116.17 91.7478L1127.32 48.9153L1094.86 18.0699L1051.25 30.057L1040.1 72.8895Z" fill="white"/>
<path d="M1096.29 191.991L1061.35 158.79L1073.35 112.683L1120.29 99.7754L1155.23 132.975L1143.23 179.083L1096.29 191.991ZM1064.68 157.87L1097.14 188.715L1140.75 176.728L1151.9 133.896L1119.44 103.05L1075.83 115.038L1064.68 157.87Z" fill="white"/>
<path d="M1120.84 276.991L1085.91 243.792L1097.91 197.684L1144.85 184.776L1179.79 217.976L1167.79 264.084L1120.84 276.991ZM1089.24 242.871L1121.7 273.716L1165.31 261.729L1176.45 218.897L1144 188.051L1100.39 200.039L1089.24 242.871Z" fill="white"/>
<path d="M1145.42 361.993L1110.48 328.792L1122.49 282.685L1169.43 269.777L1204.37 302.977L1192.37 349.085L1145.42 361.993ZM1113.82 327.872L1146.28 358.717L1189.89 346.73L1201.03 303.898L1168.58 273.052L1124.97 285.04L1113.82 327.872Z" fill="white"/>
<path d="M1170 446.994L1135.06 413.794L1147.07 367.687L1194.01 354.779L1228.95 387.979L1216.94 434.087L1170 446.994ZM1138.38 412.874L1170.84 443.719L1214.44 431.732L1225.59 388.9L1193.13 358.054L1149.53 370.041L1138.38 412.874Z" fill="white"/>
<path d="M1194.56 531.996L1159.62 498.796L1171.63 452.689L1218.57 439.781L1253.51 472.981L1241.5 519.089L1194.56 531.996ZM1162.96 497.876L1195.42 528.721L1239.02 516.734L1250.17 473.902L1217.71 443.056L1174.11 455.043L1162.96 497.876Z" fill="white"/>
<path d="M1219.14 616.997L1184.2 583.797L1196.21 537.69L1243.15 524.782L1278.09 557.982L1266.08 604.09L1219.14 616.997ZM1187.52 582.877L1219.97 613.722L1263.58 601.735L1274.73 558.903L1242.27 528.057L1198.66 540.044L1187.52 582.877Z" fill="white"/>
<path d="M1134.89 43.7347L1099.95 10.5347L1111.95 -35.5729L1158.9 -48.4805L1193.84 -15.2804L1181.83 30.8271L1134.89 43.7347ZM1103.29 9.61421L1135.74 40.4596L1179.35 28.4725L1190.5 -14.36L1158.04 -45.2054L1114.43 -33.2183L1103.29 9.61421Z" fill="white"/>
<path d="M1159.47 128.737L1124.53 95.5366L1136.53 49.429L1183.48 36.5215L1218.42 69.7215L1206.41 115.829L1159.47 128.737ZM1127.87 94.6162L1160.32 125.462L1203.93 113.474L1215.08 70.6419L1182.62 39.7965L1139.01 51.7836L1127.87 94.6162Z" fill="white"/>
<path d="M1184.03 213.739L1149.09 180.539L1161.09 134.431L1208.03 121.523L1242.97 154.723L1230.97 200.831L1184.03 213.739ZM1152.42 179.618L1184.88 210.464L1228.49 198.476L1239.64 155.644L1207.18 124.798L1163.57 136.786L1152.42 179.618Z" fill="white"/>
<path d="M1208.61 298.74L1173.67 265.54L1185.67 219.432L1232.61 206.524L1267.55 239.724L1255.55 285.832L1208.61 298.74ZM1177 264.619L1209.46 295.464L1253.07 283.477L1264.22 240.645L1231.76 209.799L1188.15 221.787L1177 264.619Z" fill="white"/>
<path d="M1233.19 383.741L1198.25 350.541L1210.25 304.433L1257.19 291.525L1292.13 324.725L1280.13 370.833L1233.19 383.741ZM1201.58 349.62L1234.04 380.466L1277.65 368.478L1288.8 325.646L1256.34 294.8L1212.73 306.788L1201.58 349.62Z" fill="white"/>
<path d="M1257.74 468.743L1222.8 435.542L1234.81 389.435L1281.75 376.527L1316.69 409.727L1304.69 455.835L1257.74 468.743ZM1226.14 434.622L1258.6 465.467L1302.21 453.48L1313.35 410.648L1280.9 379.802L1237.29 391.79L1226.14 434.622Z" fill="white"/>
<path d="M1282.32 553.744L1247.38 520.544L1259.39 474.437L1306.33 461.529L1341.27 494.729L1329.26 540.837L1282.32 553.744ZM1250.72 519.624L1283.18 550.469L1326.79 538.482L1337.93 495.65L1305.48 464.804L1261.87 476.791L1250.72 519.624Z" fill="white"/>
<path d="M1306.88 638.745L1271.94 605.545L1283.95 559.438L1330.89 546.53L1365.83 579.73L1353.82 625.838L1306.88 638.745ZM1275.28 604.625L1307.74 635.47L1351.34 623.483L1362.49 580.651L1330.03 549.805L1286.43 561.792L1275.28 604.625Z" fill="white"/>
<path d="M1222.65 65.4827L1187.71 32.2827L1199.72 -13.8249L1246.66 -26.7324L1281.6 6.46758L1269.59 52.5752L1222.65 65.4827ZM1191.05 31.3623L1223.51 62.2077L1267.11 50.2205L1278.26 7.38804L1245.8 -23.4574L1202.2 -11.4703L1191.05 31.3623Z" fill="white"/>
<path d="M1247.23 150.485L1212.29 117.285L1224.3 71.1771L1271.24 58.2695L1306.18 91.4696L1294.17 137.577L1247.23 150.485ZM1215.63 116.364L1248.09 147.21L1291.69 135.223L1302.84 92.39L1270.38 61.5446L1226.78 73.5317L1215.63 116.364Z" fill="white"/>
<path d="M1271.79 235.487L1236.85 202.287L1248.85 156.179L1295.8 143.271L1330.74 176.471L1318.73 222.579L1271.79 235.487ZM1240.19 201.366L1272.64 232.212L1316.25 220.224L1327.4 177.392L1294.94 146.547L1251.33 158.534L1240.19 201.366Z" fill="white"/>
<path d="M1296.37 320.488L1261.43 287.288L1273.43 241.18L1320.38 228.272L1355.31 261.472L1343.31 307.58L1296.37 320.488ZM1264.77 286.367L1297.22 317.213L1340.83 305.225L1352 262.393L1319.54 231.548L1275.94 243.535L1264.79 286.367H1264.77Z" fill="white"/>
<path d="M1320.93 405.489L1285.99 372.289L1297.99 326.181L1344.93 313.273L1379.87 346.473L1367.87 392.581L1320.93 405.489ZM1289.32 371.368L1321.78 402.214L1365.39 390.226L1376.54 347.394L1344.08 316.548L1300.47 328.536L1289.32 371.368Z" fill="white"/>
<path d="M1345.5 490.491L1310.57 457.291L1322.57 411.183L1369.51 398.275L1404.45 431.475L1392.45 477.583L1345.5 490.491ZM1313.9 456.37L1346.36 487.216L1389.97 475.228L1401.12 432.396L1368.66 401.55L1325.05 413.538L1313.9 456.37Z" fill="white"/>
<path d="M1370.08 575.492L1335.15 542.292L1347.15 496.185L1394.09 483.277L1429.03 516.477L1417.03 562.585L1370.08 575.492ZM1338.46 541.372L1370.92 572.217L1414.53 560.23L1425.67 517.398L1393.22 486.552L1349.61 498.539L1338.46 541.372Z" fill="white"/>
<path d="M1285.83 2.22979L1250.9 -30.9702L1262.9 -77.0778L1309.84 -89.9854L1344.78 -56.7853L1332.78 -10.6778L1285.83 2.22979ZM1254.23 -31.8907L1286.69 -1.04526L1330.3 -13.0324L1341.44 -55.8649L1308.99 -86.7103L1265.38 -74.7232L1254.23 -31.8907Z" fill="white"/>
<path d="M1310.41 87.2308L1275.48 54.0307L1287.48 7.92317L1334.42 -4.98438L1369.36 28.2156L1357.36 74.3232L1310.41 87.2308ZM1278.81 53.1103L1311.27 83.9557L1354.88 71.9686L1366.02 29.1361L1333.57 -1.70933L1289.96 10.2778L1278.81 53.1103Z" fill="white"/>
<path d="M1334.97 172.233L1300.03 139.033L1312.04 92.9251L1358.98 80.0176L1393.92 113.218L1381.91 159.325L1334.97 172.233ZM1303.37 138.112L1335.83 168.958L1379.43 156.971L1390.58 114.138L1358.12 83.2926L1314.52 95.2798L1303.37 138.112Z" fill="white"/>
<path d="M1359.55 257.234L1324.61 224.034L1336.62 177.926L1383.56 165.019L1418.5 198.219L1406.49 244.326L1359.55 257.234ZM1327.95 223.113L1360.41 253.959L1404.01 241.972L1415.16 199.139L1382.7 168.294L1339.1 180.281L1327.95 223.113Z" fill="white"/>
<path d="M1384.11 342.236L1349.17 309.036L1361.17 262.928L1408.12 250.021L1443.06 283.22L1431.05 329.328L1384.11 342.236ZM1352.51 308.115L1384.96 338.961L1428.57 326.973L1439.72 284.141L1407.26 253.296L1363.65 265.283L1352.51 308.115Z" fill="white"/>
<path d="M1408.69 427.237L1373.75 394.037L1385.75 347.929L1432.7 335.021L1467.63 368.222L1455.63 414.329L1408.69 427.237ZM1377.09 393.116L1409.54 423.962L1453.15 411.974L1464.3 369.142L1431.84 338.297L1388.23 350.284L1377.09 393.116Z" fill="white"/>
<path d="M1433.27 512.239L1398.33 479.039L1410.33 432.931L1457.28 420.023L1492.21 453.223L1480.21 499.331L1433.27 512.239ZM1401.66 478.118L1434.12 508.964L1477.73 496.976L1488.88 454.144L1456.42 423.298L1412.81 435.286L1401.66 478.118Z" fill="white"/>
<path d="M1457.82 597.241L1422.89 564.04L1434.89 517.933L1481.83 505.025L1516.77 538.225L1504.77 584.333L1457.82 597.241ZM1426.22 563.12L1458.68 593.965L1502.29 581.978L1513.44 539.146L1480.98 508.3L1437.37 520.287L1426.22 563.12Z" fill="white"/>
<path d="M1373.6 23.9778L1338.66 -9.2222L1350.66 -55.3298L1397.6 -68.2373L1432.54 -35.0373L1420.54 11.0703L1373.6 23.9778ZM1341.99 -10.1426L1374.45 20.7028L1418.06 8.71566L1429.21 -34.1168L1396.75 -64.9623L1353.14 -52.9751L1341.99 -10.1426Z" fill="white"/>
<path d="M1398.18 108.979L1363.24 75.7788L1375.24 29.6713L1422.18 16.7637L1457.12 49.9637L1445.12 96.0713L1398.18 108.979ZM1366.55 74.8583L1399.01 105.704L1442.62 93.7167L1453.76 50.8841L1421.31 20.0388L1377.7 32.0258L1366.55 74.8583Z" fill="white"/>
<path d="M1422.73 193.981L1387.8 160.781L1399.8 114.673L1446.74 101.766L1481.68 134.966L1469.68 181.073L1422.73 193.981ZM1391.13 159.86L1423.59 190.706L1467.2 178.719L1478.34 135.886L1445.89 105.041L1402.28 117.028L1391.11 159.86H1391.13Z" fill="white"/>
<path d="M1447.31 278.982L1412.37 245.782L1424.38 199.674L1471.32 186.767L1506.26 219.967L1494.26 266.074L1447.31 278.982ZM1415.71 244.861L1448.17 275.707L1491.78 263.72L1502.92 220.887L1470.47 190.042L1426.86 202.029L1415.71 244.861Z" fill="white"/>
<path d="M1471.87 363.984L1436.93 330.784L1448.94 284.676L1495.88 271.769L1530.82 304.969L1518.81 351.076L1471.87 363.984ZM1440.27 329.863L1472.73 360.709L1516.33 348.721L1527.48 305.889L1495.02 275.044L1451.42 287.031L1440.27 329.863Z" fill="white"/>
<path d="M1496.45 448.985L1461.51 415.785L1473.52 369.677L1520.46 356.77L1555.4 389.97L1543.39 436.077L1496.45 448.985ZM1464.85 414.864L1497.31 445.71L1540.91 433.722L1552.06 390.89L1519.6 360.045L1476 372.032L1464.85 414.864Z" fill="white"/>
<path d="M1521.01 533.987L1486.07 500.787L1498.07 454.679L1545.02 441.771L1579.95 474.972L1567.95 521.079L1521.01 533.987ZM1489.41 499.866L1521.86 530.712L1565.47 518.724L1576.62 475.892L1544.16 445.047L1500.55 457.034L1489.41 499.866Z" fill="white"/>
<path d="M1461.36 45.7259L1426.42 12.5258L1438.42 -33.5817L1485.37 -46.4893L1520.31 -13.2893L1508.3 32.8183L1461.36 45.7259ZM1429.76 11.6054L1462.21 42.4508L1505.82 30.4637L1516.97 -12.3688L1484.51 -43.2142L1440.9 -31.2271L1429.76 11.6054Z" fill="white"/>
<path d="M1485.92 130.727L1450.98 97.5269L1462.98 51.4193L1509.92 38.5117L1544.86 71.7118L1532.86 117.819L1485.92 130.727ZM1454.31 96.6064L1486.77 127.452L1530.38 115.465L1541.53 72.6322L1509.07 41.7868L1465.46 53.7739L1454.31 96.6064Z" fill="white"/>
<path d="M1510.5 215.729L1475.56 182.529L1487.56 136.421L1534.5 123.514L1569.44 156.714L1557.44 202.821L1510.5 215.729ZM1478.89 181.608L1511.35 212.454L1554.96 200.467L1566.11 157.634L1533.65 126.789L1490.04 138.776L1478.89 181.608Z" fill="white"/>
<path d="M1535.05 300.73L1500.11 267.53L1512.12 221.422L1559.06 208.515L1594 241.715L1582 287.822L1535.05 300.73ZM1503.45 266.609L1535.91 297.455L1579.52 285.468L1590.66 242.635L1558.21 211.79L1514.6 223.777L1503.45 266.609Z" fill="white"/>
<path d="M1559.63 385.732L1524.69 352.532L1536.7 306.424L1583.64 293.517L1618.58 326.717L1606.58 372.824L1559.63 385.732ZM1528.03 351.611L1560.49 382.457L1604.1 370.47L1615.24 327.637L1582.79 296.792L1539.18 308.779L1528.03 351.611Z" fill="white"/>
<path d="M1584.21 470.734L1549.27 437.534L1561.28 391.426L1608.22 378.519L1643.16 411.719L1631.16 457.826L1584.21 470.734ZM1552.59 436.613L1585.05 467.459L1628.65 455.471L1639.8 412.639L1607.34 381.794L1563.74 393.781L1552.57 436.613H1552.59Z" fill="white"/>
<path d="M1608.77 555.735L1573.83 522.535L1585.84 476.427L1632.78 463.52L1667.72 496.72L1655.71 542.827L1608.77 555.735ZM1577.17 521.614L1609.63 552.46L1653.23 540.473L1664.38 497.64L1631.92 466.795L1588.32 478.782L1577.17 521.614Z" fill="white"/>
<path d="M1549.1 67.4739L1514.16 34.2739L1526.16 -11.8337L1573.11 -24.7412L1608.05 8.45883L1596.04 54.5664L1549.1 67.4739ZM1517.5 33.3535L1549.95 64.1989L1593.56 52.2118L1604.71 9.37925L1572.25 -21.4662L1528.64 -9.47904L1517.5 33.3535Z" fill="white"/>
<path d="M1573.68 152.475L1538.74 119.275L1550.74 73.1673L1597.69 60.2598L1632.63 93.4598L1620.62 139.567L1573.68 152.475ZM1542.08 118.354L1574.53 149.2L1618.14 137.213L1629.29 94.3802L1596.83 63.5348L1553.22 75.5219L1542.08 118.354Z" fill="white"/>
<path d="M1598.26 237.477L1563.32 204.277L1575.32 158.169L1622.27 145.262L1657.2 178.462L1645.2 224.569L1598.26 237.477ZM1566.63 203.356L1599.09 234.202L1642.7 222.215L1653.85 179.382L1621.39 148.537L1577.78 160.524L1566.63 203.356Z" fill="white"/>
<path d="M1622.82 322.479L1587.88 289.279L1599.88 243.171L1646.82 230.264L1681.76 263.464L1669.76 309.571L1622.82 322.479ZM1591.21 288.358L1623.67 319.204L1667.28 307.217L1678.43 264.384L1645.97 233.539L1602.36 245.526L1591.21 288.358Z" fill="white"/>
<path d="M1647.39 407.48L1612.46 374.28L1624.46 328.172L1671.4 315.265L1706.34 348.465L1694.34 394.572L1647.39 407.48ZM1615.79 373.359L1648.25 404.205L1691.86 392.218L1703.01 349.385L1670.55 318.54L1626.94 330.527L1615.79 373.359Z" fill="white"/>
<path d="M1671.95 492.481L1637.01 459.281L1649.02 413.173L1695.96 400.266L1730.9 433.466L1718.9 479.573L1671.95 492.481ZM1640.35 458.36L1672.81 489.206L1716.42 477.219L1727.56 434.386L1695.11 403.541L1651.5 415.528L1640.35 458.36Z" fill="white"/>
<path d="M1612.3 4.22097L1577.37 -28.979L1589.37 -75.0866L1636.31 -87.9941L1671.25 -54.7941L1659.25 -8.68658L1612.3 4.22097ZM1580.68 -29.8995L1613.14 0.945923L1656.74 -11.0412L1667.89 -53.8737L1635.43 -84.7191L1591.83 -72.732L1580.68 -29.8995Z" fill="white"/>
<path d="M1636.86 89.222L1601.92 56.022L1613.93 9.91438L1660.87 -2.99316L1695.81 30.2069L1683.8 76.3144L1636.86 89.222ZM1605.26 55.1015L1637.72 85.9469L1681.32 73.9598L1692.47 31.1273L1660.01 0.281883L1616.41 12.269L1605.26 55.1015Z" fill="white"/>
<path d="M1661.44 174.223L1626.5 141.023L1638.51 94.9154L1685.45 82.0078L1720.39 115.208L1708.38 161.315L1661.44 174.223ZM1629.84 140.102L1662.3 170.948L1705.9 158.961L1717.05 116.128L1684.59 85.2829L1640.99 97.27L1629.84 140.102Z" fill="white"/>
<path d="M1686 259.225L1651.06 226.025L1663.06 179.917L1710.01 167.01L1744.95 200.21L1732.94 246.317L1686 259.225ZM1654.4 225.104L1686.85 255.95L1730.46 243.963L1741.61 201.13L1709.15 170.285L1665.54 182.272L1654.4 225.104Z" fill="white"/>
<path d="M1710.58 344.227L1675.64 311.027L1687.64 264.919L1734.59 252.012L1769.52 285.212L1757.52 331.319L1710.58 344.227ZM1678.98 310.106L1711.43 340.952L1755.04 328.965L1766.19 286.132L1733.73 255.287L1690.12 267.274L1678.98 310.106Z" fill="white"/>
<path d="M1735.14 429.228L1700.2 396.028L1712.2 349.92L1759.14 337.013L1794.08 370.213L1782.08 416.32L1735.14 429.228ZM1703.53 395.107L1735.99 425.953L1779.6 413.966L1790.75 371.133L1758.29 340.288L1714.68 352.275L1703.53 395.107Z" fill="white"/>
<path d="M1759.71 514.229L1724.78 481.029L1736.78 434.921L1783.72 422.014L1818.66 455.214L1806.66 501.321L1759.71 514.229ZM1728.11 480.108L1760.57 510.954L1804.18 498.967L1815.33 456.134L1782.87 425.289L1739.26 437.276L1728.11 480.108Z" fill="white"/>
<path d="M792.684 -30.7349L831.88 -41.5019L830.475 -42.8291L791.301 -32.0621L781.272 6.42511L782.655 7.73084L792.684 -30.7349Z" fill="#E5E6E8"/>
<path d="M817.264 54.267L856.437 43.5L855.055 42.1729L815.859 52.9398L805.852 91.427L807.234 92.7328L817.264 54.267Z" fill="#E5E6E8"/>
<path d="M841.821 139.268L881.017 128.501L879.612 127.174L840.439 137.941L830.409 176.428L831.814 177.734L841.821 139.268Z" fill="#E5E6E8"/>
<path d="M866.401 224.27L905.574 213.503L904.192 212.176L865.018 222.943L854.989 261.43L856.371 262.736L866.401 224.27Z" fill="#E5E6E8"/>
<path d="M890.958 309.271L930.154 298.504L928.749 297.177L889.576 307.944L879.546 346.431L880.951 347.737L890.958 309.271Z" fill="#E5E6E8"/>
<path d="M915.538 394.273L954.734 383.506L953.329 382.179L914.155 392.946L904.126 431.433L905.509 432.739L915.538 394.273Z" fill="#E5E6E8"/>
<path d="M940.096 479.274L979.291 468.507L977.887 467.18L938.713 477.947L928.706 516.412L930.088 517.74L940.096 479.274Z" fill="#E5E6E8"/>
<path d="M964.675 564.276L1003.87 553.487L1002.47 552.16L963.293 562.949L953.263 601.414L954.646 602.741L964.675 564.276Z" fill="#E5E6E8"/>
<path d="M1028.43 638.489L1027.05 637.162L987.85 647.951L977.843 686.416L979.225 687.743L989.255 649.278L1028.43 638.489Z" fill="#E5E6E8"/>
<path d="M870.417 29.4789L880.446 -8.98693L919.62 -19.7539L918.237 -21.0811L879.064 -10.3141L869.034 28.1731L870.417 29.4789Z" fill="#E5E6E8"/>
<path d="M944.199 65.248L942.795 63.9209L903.621 74.6879L893.592 113.175L894.996 114.481L905.004 76.015L944.199 65.248Z" fill="#E5E6E8"/>
<path d="M968.779 150.249L967.374 148.922L928.201 159.689L918.171 198.176L919.554 199.482L929.583 161.016L968.779 150.249Z" fill="#E5E6E8"/>
<path d="M993.337 235.251L991.932 233.924L952.758 244.691L942.751 283.178L944.134 284.484L954.141 246.018L993.337 235.251Z" fill="#E5E6E8"/>
<path d="M1017.92 320.253L1016.51 318.926L977.338 329.693L967.309 368.18L968.691 369.486L978.721 331.02L1017.92 320.253Z" fill="#E5E6E8"/>
<path d="M1042.47 405.232L1041.09 403.905L1001.9 414.694L991.888 453.159L993.271 454.487L1003.3 416.021L1042.47 405.232Z" fill="#E5E6E8"/>
<path d="M1067.05 490.233L1065.65 488.906L1026.48 499.695L1016.45 538.16L1017.85 539.488L1027.86 501.022L1067.05 490.233Z" fill="#E5E6E8"/>
<path d="M1091.61 575.235L1090.23 573.908L1051.05 584.697L1041.03 623.162L1042.41 624.49L1052.44 586.024L1091.61 575.235Z" fill="#E5E6E8"/>
<path d="M1007.38 1.99413L1005.98 0.666992L966.804 11.434L956.796 49.9212L958.179 51.2269L968.186 12.7611L1007.38 1.99413Z" fill="#E5E6E8"/>
<path d="M1031.96 86.9961L1030.56 85.6689L991.384 96.4359L981.354 134.923L982.737 136.229L992.766 97.7631L1031.96 86.9961Z" fill="#E5E6E8"/>
<path d="M1056.52 171.997L1055.14 170.67L1015.94 181.437L1005.93 219.924L1007.32 221.23L1017.35 182.764L1056.52 171.997Z" fill="#E5E6E8"/>
<path d="M1081.1 256.978L1079.69 255.65L1040.52 266.439L1030.49 304.905L1031.9 306.232L1041.9 267.766L1081.1 256.978Z" fill="#E5E6E8"/>
<path d="M1105.66 341.979L1104.27 340.652L1065.1 351.441L1055.07 389.906L1056.45 391.234L1066.48 352.768L1105.66 341.979Z" fill="#E5E6E8"/>
<path d="M1130.24 426.98L1128.83 425.653L1089.66 436.442L1079.63 474.908L1081.03 476.235L1091.04 437.769L1130.24 426.98Z" fill="#E5E6E8"/>
<path d="M1154.82 511.981L1153.41 510.654L1114.24 521.443L1104.21 559.909L1105.59 561.236L1115.62 522.77L1154.82 511.981Z" fill="#E5E6E8"/>
<path d="M1179.37 596.983L1177.97 595.656L1138.79 606.445L1128.79 644.91L1130.17 646.238L1140.18 607.772L1179.37 596.983Z" fill="#E5E6E8"/>
<path d="M1095.14 23.7422L1093.74 22.415L1054.57 33.1821L1044.54 71.6692L1045.94 72.975L1055.95 34.5092L1095.14 23.7422Z" fill="#E5E6E8"/>
<path d="M1119.7 108.744L1118.32 107.417L1079.15 118.184L1069.12 156.65L1070.5 157.977L1080.53 119.511L1119.7 108.744Z" fill="#E5E6E8"/>
<path d="M1144.28 193.724L1142.88 192.396L1103.7 203.185L1093.67 241.651L1095.08 242.978L1105.09 204.512L1144.28 193.724Z" fill="#E5E6E8"/>
<path d="M1168.86 278.726L1167.46 277.398L1128.28 288.187L1118.25 326.653L1119.64 327.98L1129.67 289.514L1168.86 278.726Z" fill="#E5E6E8"/>
<path d="M1193.42 363.728L1192.01 362.4L1152.84 373.189L1142.83 411.655L1144.22 412.982L1154.22 374.516L1193.42 363.728Z" fill="#E5E6E8"/>
<path d="M1218 448.729L1216.59 447.401L1177.42 458.19L1167.39 496.656L1168.77 497.983L1178.8 459.517L1218 448.729Z" fill="#E5E6E8"/>
<path d="M1242.56 533.73L1241.17 532.403L1201.98 543.192L1191.97 581.658L1193.35 582.985L1203.38 544.519L1242.56 533.73Z" fill="#E5E6E8"/>
<path d="M1158.33 -39.5322L1156.92 -40.8594L1117.75 -30.071L1107.72 8.39483L1109.12 9.72197L1119.13 -28.7438L1158.33 -39.5322Z" fill="#E5E6E8"/>
<path d="M1182.91 45.4697L1181.5 44.1426L1142.33 54.931L1132.3 93.3968L1133.68 94.7239L1143.71 56.2581L1182.91 45.4697Z" fill="#E5E6E8"/>
<path d="M1207.46 130.471L1206.06 129.144L1166.89 139.932L1156.88 178.398L1158.26 179.725L1168.27 141.259L1207.46 130.471Z" fill="#E5E6E8"/>
<path d="M1232.04 215.472L1230.64 214.145L1191.47 224.933L1181.44 263.399L1182.82 264.726L1192.85 226.26L1232.04 215.472Z" fill="#E5E6E8"/>
<path d="M1256.6 300.474L1255.22 299.146L1216.02 309.935L1206.02 348.401L1207.4 349.728L1217.43 311.262L1256.6 300.474Z" fill="#E5E6E8"/>
<path d="M1281.18 385.476L1279.78 384.148L1240.6 394.937L1230.57 433.403L1231.98 434.73L1241.99 396.264L1281.18 385.476Z" fill="#E5E6E8"/>
<path d="M1305.74 470.477L1304.36 469.149L1265.18 479.916L1255.15 518.404L1256.54 519.731L1266.57 481.265L1305.74 470.477Z" fill="#E5E6E8"/>
<path d="M1330.32 555.478L1328.91 554.15L1289.74 564.917L1279.71 603.405L1281.12 604.732L1291.12 566.266L1330.32 555.478Z" fill="#E5E6E8"/>
<path d="M1246.09 -17.7842L1244.68 -19.1113L1205.51 -8.32291L1195.48 30.1428L1196.86 31.47L1206.89 -6.99578L1246.09 -17.7842Z" fill="#E5E6E8"/>
<path d="M1270.65 67.2178L1269.26 65.8906L1230.07 76.679L1220.06 115.145L1221.44 116.472L1231.47 78.0061L1270.65 67.2178Z" fill="#E5E6E8"/>
<path d="M1295.23 152.219L1293.82 150.892L1254.65 161.68L1244.62 200.146L1246.02 201.473L1256.03 163.007L1295.23 152.219Z" fill="#E5E6E8"/>
<path d="M1319.78 237.22L1318.4 235.893L1279.23 246.681L1269.2 285.147L1270.58 286.474L1280.61 248.008L1319.78 237.22Z" fill="#E5E6E8"/>
<path d="M1344.36 322.222L1342.96 320.895L1303.79 331.662L1293.76 370.149L1295.16 371.476L1305.17 333.01L1344.36 322.222Z" fill="#E5E6E8"/>
<path d="M1368.94 407.223L1367.54 405.896L1328.37 416.663L1318.34 455.15L1319.72 456.477L1329.75 418.011L1368.94 407.223Z" fill="#E5E6E8"/>
<path d="M1393.5 492.225L1392.12 490.897L1352.92 501.664L1342.92 540.152L1344.3 541.479L1354.31 503.013L1393.5 492.225Z" fill="#E5E6E8"/>
<path d="M1333.83 3.96385L1332.45 2.63672L1293.27 13.4251L1283.24 51.8909L1284.63 53.2181L1294.66 14.7523L1333.83 3.96385Z" fill="#E5E6E8"/>
<path d="M1358.41 88.9649L1357 87.6377L1317.83 98.4261L1307.8 136.892L1309.21 138.219L1319.21 99.7532L1358.41 88.9649Z" fill="#E5E6E8"/>
<path d="M1382.99 173.967L1381.58 172.64L1342.41 183.407L1332.38 221.894L1333.76 223.221L1343.79 184.755L1382.99 173.967Z" fill="#E5E6E8"/>
<path d="M1407.55 258.969L1406.16 257.642L1366.97 268.409L1356.96 306.896L1358.34 308.223L1368.35 269.757L1407.55 258.969Z" fill="#E5E6E8"/>
<path d="M1432.13 343.97L1430.72 342.643L1391.55 353.41L1381.52 391.897L1382.9 393.224L1392.93 354.758L1432.13 343.97Z" fill="#E5E6E8"/>
<path d="M1456.68 428.972L1455.3 427.645L1416.11 438.412L1406.1 476.899L1407.48 478.226L1417.51 439.739L1456.68 428.972Z" fill="#E5E6E8"/>
<path d="M1481.26 513.973L1479.86 512.646L1440.69 523.413L1430.66 561.9L1432.06 563.227L1442.07 524.74L1481.26 513.973Z" fill="#E5E6E8"/>
<path d="M1421.59 25.7119L1420.21 24.3848L1381.01 35.1518L1371.01 73.6389L1372.39 74.9661L1382.4 36.5003L1421.59 25.7119Z" fill="#E5E6E8"/>
<path d="M1446.17 110.714L1444.77 109.387L1405.59 120.154L1395.56 158.641L1396.95 159.968L1406.98 121.502L1446.17 110.714Z" fill="#E5E6E8"/>
<path d="M1470.73 195.715L1469.35 194.388L1430.15 205.155L1420.14 243.642L1421.53 244.969L1431.56 206.503L1470.73 195.715Z" fill="#E5E6E8"/>
<path d="M1495.31 280.716L1493.9 279.389L1454.73 290.156L1444.7 328.643L1446.11 329.97L1456.11 291.483L1495.31 280.716Z" fill="#E5E6E8"/>
<path d="M1519.87 365.718L1518.48 364.391L1479.31 375.158L1469.28 413.645L1470.66 414.972L1480.69 376.485L1519.87 365.718Z" fill="#E5E6E8"/>
<path d="M1544.45 450.72L1543.04 449.393L1503.87 460.16L1493.86 498.647L1495.24 499.974L1505.25 461.487L1544.45 450.72Z" fill="#E5E6E8"/>
<path d="M1484.77 -37.542L1483.39 -38.8691L1444.2 -28.1021L1434.19 10.385L1435.57 11.7122L1445.6 -26.7536L1484.77 -37.542Z" fill="#E5E6E8"/>
<path d="M1509.35 47.46L1507.95 46.1328L1468.78 56.8998L1458.75 95.387L1460.15 96.7142L1470.16 58.2484L1509.35 47.46Z" fill="#E5E6E8"/>
<path d="M1533.91 132.461L1532.53 131.134L1493.36 141.901L1483.33 180.388L1484.71 181.715L1494.74 143.228L1533.91 132.461Z" fill="#E5E6E8"/>
<path d="M1558.49 217.463L1557.09 216.136L1517.91 226.903L1507.91 265.39L1509.29 266.717L1519.3 228.23L1558.49 217.463Z" fill="#E5E6E8"/>
<path d="M1583.07 302.465L1581.67 301.138L1542.49 311.905L1532.46 350.392L1533.85 351.719L1543.88 313.232L1583.07 302.465Z" fill="#E5E6E8"/>
<path d="M1607.63 387.466L1606.25 386.139L1567.05 396.906L1557.04 435.393L1558.43 436.699L1568.43 398.233L1607.63 387.466Z" fill="#E5E6E8"/>
<path d="M1632.21 472.468L1630.8 471.141L1591.63 481.908L1581.6 520.395L1582.98 521.701L1593.01 483.235L1632.21 472.468Z" fill="#E5E6E8"/>
<path d="M1572.54 -15.794L1571.13 -17.1211L1531.96 -6.3541L1521.95 32.1331L1523.33 33.4602L1533.34 -5.02697L1572.54 -15.794Z" fill="#E5E6E8"/>
<path d="M1597.12 69.208L1595.71 67.8809L1556.54 78.6479L1546.51 117.135L1547.89 118.462L1557.92 79.975L1597.12 69.208Z" fill="#E5E6E8"/>
<path d="M1621.67 154.21L1620.29 152.883L1581.1 163.65L1571.09 202.137L1572.47 203.464L1582.48 164.977L1621.67 154.21Z" fill="#E5E6E8"/>
<path d="M1646.25 239.211L1644.85 237.884L1605.68 248.651L1595.65 287.138L1597.03 288.444L1607.06 249.978L1646.25 239.211Z" fill="#E5E6E8"/>
<path d="M1670.81 324.212L1669.43 322.885L1630.26 333.652L1620.23 372.139L1621.61 373.445L1631.64 334.979L1670.81 324.212Z" fill="#E5E6E8"/>
<path d="M1695.39 409.214L1693.99 407.887L1654.81 418.654L1644.78 457.141L1646.19 458.447L1656.2 419.981L1695.39 409.214Z" fill="#E5E6E8"/>
<path d="M1660.3 5.95412L1658.89 4.62695L1619.72 15.3939L1609.69 53.8812L1611.1 55.2083L1621.1 16.7211L1660.3 5.95412Z" fill="#E5E6E8"/>
<path d="M1684.86 90.956L1683.47 89.6289L1644.3 100.396L1634.27 138.883L1635.65 140.189L1645.68 101.723L1684.86 90.956Z" fill="#E5E6E8"/>
<path d="M1709.44 175.958L1708.03 174.631L1668.86 185.398L1658.83 223.885L1660.23 225.191L1670.24 186.725L1709.44 175.958Z" fill="#E5E6E8"/>
<path d="M1733.99 260.959L1732.61 259.632L1693.44 270.399L1683.41 308.886L1684.79 310.192L1694.82 271.726L1733.99 260.959Z" fill="#E5E6E8"/>
<path d="M1758.57 345.96L1757.17 344.633L1718 355.4L1707.99 393.887L1709.37 395.193L1719.38 356.727L1758.57 345.96Z" fill="#E5E6E8"/>
<path d="M1783.15 430.962L1781.75 429.635L1742.58 440.402L1732.55 478.889L1733.93 480.195L1743.96 441.729L1783.15 430.962Z" fill="#E5E6E8"/>
</g>
<g style="mix-blend-mode:overlay">
<path d="M1092.75 743.504L1057.81 710.304L1069.82 664.197L1116.76 651.289L1151.7 684.489L1139.69 730.597L1092.75 743.504ZM1061.15 709.384L1093.61 740.229L1137.22 728.242L1148.36 685.41L1115.91 654.564L1072.3 666.551L1061.15 709.384Z" fill="white"/>
<path d="M1180.51 765.252L1145.58 732.052L1157.58 685.945L1204.52 673.037L1239.46 706.237L1227.46 752.345L1180.51 765.252ZM1148.91 731.132L1181.37 761.977L1224.98 749.99L1236.13 707.158L1203.67 676.312L1160.06 688.299L1148.89 731.132H1148.91Z" fill="white"/>
<path d="M1243.7 701.998L1208.76 668.798L1220.76 622.691L1267.71 609.783L1302.64 642.983L1290.64 689.091L1243.7 701.998ZM1212.09 667.878L1244.55 698.723L1288.16 686.736L1299.31 643.904L1266.85 613.058L1223.24 625.045L1212.09 667.878Z" fill="white"/>
<path d="M1331.46 723.746L1296.52 690.546L1308.53 644.439L1355.47 631.531L1390.41 664.731L1378.4 710.839L1331.46 723.746ZM1299.86 689.626L1332.32 720.471L1375.92 708.484L1387.07 665.652L1354.61 634.806L1311.01 646.793L1299.86 689.626Z" fill="white"/>
<path d="M1394.64 660.493L1359.7 627.293L1371.71 581.186L1418.65 568.278L1453.59 601.478L1441.58 647.586L1394.64 660.493ZM1363.04 626.373L1395.5 657.218L1439.1 645.231L1450.25 602.399L1417.8 571.553L1374.19 583.54L1363.04 626.373Z" fill="white"/>
<path d="M1419.22 745.494L1384.28 712.294L1396.29 666.187L1443.23 653.279L1478.17 686.479L1466.16 732.587L1419.22 745.494ZM1387.62 711.374L1420.08 742.219L1463.68 730.232L1474.83 687.4L1442.37 656.554L1398.77 668.541L1387.62 711.374Z" fill="white"/>
<path d="M1482.4 682.241L1447.47 649.042L1459.47 602.934L1506.41 590.026L1541.35 623.226L1529.35 669.334L1482.4 682.241ZM1450.8 648.121L1483.26 678.966L1526.87 666.979L1538.04 624.147L1505.58 593.301L1461.97 605.289L1450.82 648.121H1450.8Z" fill="white"/>
<path d="M1506.96 767.243L1472.02 734.042L1484.03 687.935L1530.97 675.027L1565.91 708.227L1553.9 754.335L1506.96 767.243ZM1475.36 733.122L1507.82 763.967L1551.42 751.98L1562.57 709.148L1530.12 678.302L1486.51 690.29L1475.36 733.122Z" fill="white"/>
<path d="M1545.59 618.988L1510.65 585.788L1522.65 539.68L1569.6 526.772L1604.53 559.973L1592.53 606.08L1545.59 618.988ZM1513.98 584.867L1546.44 615.713L1590.05 603.725L1601.2 560.893L1568.74 530.048L1525.13 542.035L1513.98 584.867Z" fill="white"/>
<path d="M1570.17 703.99L1535.23 670.789L1547.23 624.682L1594.18 611.774L1629.11 644.974L1617.11 691.082L1570.17 703.99ZM1538.54 669.869L1571 700.714L1614.61 688.727L1625.76 645.895L1593.3 615.049L1549.69 627.037L1538.54 669.869Z" fill="white"/>
<path d="M1633.35 640.736L1598.41 607.536L1610.42 561.428L1657.36 548.521L1692.3 581.721L1680.29 627.828L1633.35 640.736ZM1601.75 606.615L1634.21 637.461L1677.81 625.474L1688.96 582.641L1656.5 551.796L1612.9 563.783L1601.75 606.615Z" fill="white"/>
<path d="M1657.91 725.738L1622.97 692.538L1634.97 646.43L1681.92 633.522L1716.85 666.722L1704.85 712.83L1657.91 725.738ZM1626.3 691.617L1658.76 722.462L1702.37 710.475L1713.52 667.643L1681.06 636.798L1637.45 648.785L1626.3 691.617Z" fill="white"/>
<path d="M1696.53 577.483L1661.59 544.283L1673.6 498.175L1720.54 485.268L1755.48 518.468L1743.47 564.575L1696.53 577.483ZM1664.93 543.362L1697.39 574.208L1740.99 562.221L1752.14 519.388L1719.69 488.543L1676.08 500.53L1664.93 543.362Z" fill="white"/>
<path d="M1721.09 662.484L1686.15 629.284L1698.16 583.176L1745.1 570.269L1780.04 603.469L1768.03 649.576L1721.09 662.484ZM1689.49 628.363L1721.95 659.209L1765.55 647.222L1776.72 604.389L1744.26 573.544L1700.66 585.531L1689.51 628.363H1689.49Z" fill="white"/>
<path d="M1745.67 747.486L1710.73 714.286L1722.74 668.178L1769.68 655.271L1804.62 688.471L1792.61 734.578L1745.67 747.486ZM1714.07 713.365L1746.53 744.211L1790.13 732.224L1801.28 689.391L1768.82 658.546L1725.22 670.533L1714.07 713.365Z" fill="white"/>
<path d="M1784.29 599.231L1749.36 566.031L1761.36 519.923L1808.3 507.016L1843.24 540.216L1831.24 586.323L1784.29 599.231ZM1752.67 565.11L1785.13 595.956L1828.74 583.969L1839.88 541.136L1807.43 510.291L1763.82 522.278L1752.67 565.11Z" fill="white"/>
<path d="M1808.85 684.211L1773.91 651.011L1785.92 604.904L1832.86 591.996L1867.8 625.196L1855.79 671.304L1808.85 684.211ZM1777.25 650.091L1809.71 680.936L1853.31 668.949L1864.46 626.117L1832.01 595.271L1788.4 607.258L1777.25 650.091Z" fill="white"/>
<path d="M1833.43 769.212L1798.49 736.012L1810.5 689.905L1857.44 676.997L1892.38 710.197L1880.37 756.305L1833.43 769.212ZM1801.83 735.092L1834.29 765.937L1877.89 753.95L1889.04 711.118L1856.58 680.272L1812.98 692.259L1801.83 735.092Z" fill="white"/>
<path d="M1066.99 709.491L1076.99 671.025L1116.19 660.236L1114.79 658.909L1075.61 669.698L1065.58 708.163L1066.99 709.491Z" fill="#E5E6E8"/>
<path d="M1217.93 667.986L1227.94 629.52L1267.14 618.731L1265.73 617.404L1226.56 628.171L1216.53 666.658L1217.93 667.986Z" fill="#E5E6E8"/>
<path d="M1354.9 640.479L1353.49 639.151L1314.32 649.918L1304.29 688.406L1305.67 689.733L1315.7 651.267L1354.9 640.479Z" fill="#E5E6E8"/>
<path d="M1368.86 626.48L1378.88 587.993L1418.08 577.226L1416.68 575.898L1377.5 586.665L1367.47 625.153L1368.86 626.48Z" fill="#E5E6E8"/>
<path d="M1442.64 662.228L1441.26 660.9L1402.06 671.667L1392.05 710.155L1393.44 711.482L1403.46 672.995L1442.64 662.228Z" fill="#E5E6E8"/>
<path d="M1505.82 598.974L1504.44 597.646L1465.26 608.413L1455.24 646.901L1456.62 648.228L1466.65 609.741L1505.82 598.974Z" fill="#E5E6E8"/>
<path d="M1519.8 584.953L1529.83 546.487L1569.03 535.72L1567.62 534.393L1528.45 545.16L1518.42 583.647L1519.8 584.953Z" fill="#E5E6E8"/>
<path d="M1593.58 620.722L1592.2 619.395L1553 630.162L1543 668.649L1544.38 669.954L1554.39 631.489L1593.58 620.722Z" fill="#E5E6E8"/>
<path d="M1656.77 557.468L1655.38 556.141L1616.21 566.908L1606.18 605.395L1607.56 606.701L1617.59 568.235L1656.77 557.468Z" fill="#E5E6E8"/>
<path d="M1681.35 642.47L1679.94 641.143L1640.77 651.91L1630.74 690.397L1632.14 691.702L1642.15 653.237L1681.35 642.47Z" fill="#E5E6E8"/>
<path d="M1670.75 543.448L1680.77 504.982L1719.95 494.215L1718.57 492.888L1679.39 503.655L1669.36 542.142L1670.75 543.448Z" fill="#E5E6E8"/>
<path d="M1744.53 579.216L1743.12 577.889L1703.95 588.656L1693.94 627.143L1695.33 628.449L1705.33 589.983L1744.53 579.216Z" fill="#E5E6E8"/>
<path d="M1769.11 664.218L1767.7 662.891L1728.53 673.658L1718.5 712.145L1719.88 713.451L1729.91 674.985L1769.11 664.218Z" fill="#E5E6E8"/>
<path d="M1807.71 515.963L1806.33 514.636L1767.13 525.403L1757.13 563.89L1758.51 565.196L1768.54 526.73L1807.71 515.963Z" fill="#E5E6E8"/>
<path d="M1832.29 600.964L1830.89 599.637L1791.71 610.404L1781.68 648.891L1783.09 650.197L1793.09 611.731L1832.29 600.964Z" fill="#E5E6E8"/>
</g>
<g style="mix-blend-mode:overlay">
<path d="M1700.04 25.969L1665.11 -7.23096L1677.11 -53.3385L1724.05 -66.2461L1758.99 -33.0461L1746.99 13.0615L1700.04 25.969ZM1668.44 -8.15142L1700.9 22.694L1744.51 10.7069L1755.65 -32.1256L1723.2 -62.971L1679.59 -50.9839L1668.42 -8.15142H1668.44Z" fill="white"/>
<path d="M1724.62 110.97L1689.68 77.77L1701.69 31.6624L1748.63 18.7549L1783.57 51.9549L1771.57 98.0625L1724.62 110.97ZM1693.02 76.8496L1725.48 107.695L1769.09 95.7078L1780.23 52.8753L1747.78 22.0299L1704.17 34.0171L1693.02 76.8496Z" fill="white"/>
<path d="M1749.18 195.971L1714.24 162.771L1726.25 116.663L1773.19 103.756L1808.13 136.956L1796.12 183.063L1749.18 195.971ZM1717.58 161.851L1750.04 192.696L1793.64 180.709L1804.79 137.876L1772.33 107.031L1728.73 119.018L1717.58 161.851Z" fill="white"/>
<path d="M1773.76 280.973L1738.82 247.773L1750.83 201.665L1797.77 188.758L1832.71 221.958L1820.7 268.065L1773.76 280.973ZM1742.16 246.852L1774.62 277.698L1818.22 265.711L1829.37 222.878L1796.91 192.033L1753.31 204.02L1742.16 246.852Z" fill="white"/>
<path d="M1798.34 365.974L1763.4 332.774L1775.41 286.666L1822.35 273.759L1857.29 306.959L1845.28 353.066L1798.34 365.974ZM1766.72 331.853L1799.17 362.699L1842.78 350.712L1853.95 307.879L1821.49 277.034L1777.89 289.021L1766.74 331.853H1766.72Z" fill="white"/>
<path d="M1822.9 450.976L1787.96 417.776L1799.96 371.668L1846.91 358.761L1881.84 391.961L1869.84 438.068L1822.9 450.976ZM1791.3 416.855L1823.75 447.701L1867.36 435.714L1878.51 392.881L1846.05 362.036L1802.44 374.023L1791.3 416.855Z" fill="white"/>
<path d="M1787.81 47.7171L1752.87 14.5171L1764.87 -31.5905L1811.81 -44.498L1846.75 -11.298L1834.75 34.8095L1787.81 47.7171ZM1756.2 13.5966L1788.66 44.442L1832.27 32.4549L1843.42 -10.3776L1810.96 -41.223L1767.35 -29.2359L1756.2 13.5966Z" fill="white"/>
<path d="M1812.39 132.718L1777.45 99.518L1789.45 53.4105L1836.39 40.5029L1871.33 73.7029L1859.33 119.81L1812.39 132.718ZM1780.76 98.5976L1813.22 129.443L1856.83 117.456L1867.97 74.6234L1835.52 43.778L1791.91 55.7651L1780.76 98.5976Z" fill="white"/>
<path d="M1836.94 217.72L1802 184.52L1814.01 138.412L1860.95 125.505L1895.89 158.705L1883.89 204.813L1836.94 217.72ZM1805.34 183.6L1837.8 214.445L1881.41 202.458L1892.55 159.625L1860.1 128.78L1816.49 140.767L1805.34 183.6Z" fill="white"/>
<path d="M1861.52 302.721L1826.58 269.521L1838.59 223.413L1885.53 210.506L1920.47 243.706L1908.47 289.813L1861.52 302.721ZM1829.92 268.601L1862.38 299.446L1905.99 287.459L1917.13 244.626L1884.68 213.781L1841.07 225.768L1829.9 268.601H1829.92Z" fill="white"/>
<path d="M1886.08 387.701L1851.14 354.501L1863.15 308.394L1910.09 295.486L1945.03 328.686L1933.02 374.794L1886.08 387.701ZM1854.48 353.602L1886.94 384.448L1930.54 372.461L1941.69 329.628L1909.23 298.783L1865.63 310.77L1854.48 353.602Z" fill="white"/>
<path d="M1910.66 472.702L1875.72 439.502L1887.73 393.395L1934.67 380.487L1969.61 413.687L1957.6 459.795L1910.66 472.702ZM1879.06 438.582L1911.52 469.427L1955.12 457.44L1966.27 414.608L1933.81 383.762L1890.21 395.749L1879.06 438.582Z" fill="white"/>
<path d="M1875.57 69.4651L1840.63 36.2651L1852.63 -9.84245L1899.58 -22.75L1934.52 10.45L1922.51 56.5576L1875.57 69.4651ZM1843.97 35.3447L1876.42 66.1901L1920.03 54.203L1931.18 11.3705L1898.72 -19.475L1855.11 -7.48783L1843.97 35.3447Z" fill="white"/>
<path d="M1900.13 154.466L1865.19 121.266L1877.19 75.1586L1924.13 62.251L1959.07 95.451L1947.07 141.559L1900.13 154.466ZM1868.52 120.346L1900.98 151.191L1944.59 139.204L1955.74 96.3714L1923.28 65.5261L1879.67 77.5131L1868.52 120.346Z" fill="white"/>
<path d="M1924.71 239.447L1889.77 206.247L1901.77 160.139L1948.71 147.231L1983.65 180.431L1971.65 226.539L1924.71 239.447ZM1893.1 205.348L1925.56 236.193L1969.17 224.206L1980.32 181.373L1947.86 150.528L1904.25 162.515L1893.1 205.348Z" fill="white"/>
<path d="M1949.26 324.448L1914.32 291.247L1926.33 245.14L1973.27 232.232L2008.21 265.432L1996.21 311.54L1949.26 324.448ZM1917.66 290.327L1950.12 321.172L1993.73 309.185L2004.87 266.353L1972.42 235.507L1928.81 247.495L1917.66 290.327Z" fill="white"/>
<path d="M1973.84 409.449L1938.9 376.25L1950.91 330.142L1997.85 317.234L2032.79 350.434L2020.78 396.542L1973.84 409.449ZM1942.24 375.329L1974.7 406.174L2018.3 394.187L2029.45 351.355L1997 320.509L1953.39 332.497L1942.24 375.329Z" fill="white"/>
<path d="M1938.75 6.21124L1903.81 -26.9888L1915.82 -73.0964L1962.76 -86.0039L1997.7 -52.8039L1985.69 -6.69631L1938.75 6.21124ZM1907.15 -27.9092L1939.61 2.93619L1983.21 -9.05094L1994.38 -51.8834L1961.93 -82.7289L1918.32 -70.7417L1907.17 -27.9092H1907.15Z" fill="white"/>
<path d="M1963.31 91.1917L1928.37 57.9917L1940.37 11.8841L1987.32 -1.02344L2022.26 32.1766L2010.25 78.2842L1963.31 91.1917ZM1931.71 57.0927L1964.16 87.938L2007.77 75.951L2018.92 33.1184L1986.46 2.27304L1942.85 14.2601L1931.71 57.0927Z" fill="white"/>
<path d="M1987.89 176.193L1952.95 142.993L1964.95 96.8851L2011.9 83.9775L2046.83 117.178L2034.83 163.285L1987.89 176.193ZM1956.29 142.072L1988.74 172.918L2032.35 160.931L2043.5 118.098L2011.04 87.2526L1967.43 99.2397L1956.29 142.072Z" fill="white"/>
<path d="M1748.04 27.7021L1746.66 26.375L1707.48 37.142L1697.45 75.6292L1698.84 76.9349L1708.87 38.4691L1748.04 27.7021Z" fill="#E5E6E8"/>
<path d="M1772.62 112.704L1771.21 111.377L1732.04 122.144L1722.03 160.631L1723.42 161.937L1733.42 123.471L1772.62 112.704Z" fill="#E5E6E8"/>
<path d="M1797.2 197.706L1795.79 196.379L1756.62 207.146L1746.59 245.633L1747.97 246.939L1758 208.473L1797.2 197.706Z" fill="#E5E6E8"/>
<path d="M1821.76 282.707L1820.37 281.38L1781.18 292.147L1771.17 330.634L1772.55 331.94L1782.58 293.474L1821.76 282.707Z" fill="#E5E6E8"/>
<path d="M1846.34 367.708L1844.93 366.381L1805.76 377.148L1795.73 415.635L1797.13 416.941L1807.14 378.475L1846.34 367.708Z" fill="#E5E6E8"/>
<path d="M1811.24 -35.5508L1809.84 -36.8779L1770.67 -26.1109L1760.64 12.3763L1762.02 13.682L1772.05 -24.7838L1811.24 -35.5508Z" fill="#E5E6E8"/>
<path d="M1835.8 49.4502L1834.42 48.123L1795.22 58.89L1785.22 97.3772L1786.6 98.683L1796.63 60.2172L1835.8 49.4502Z" fill="#E5E6E8"/>
<path d="M1860.38 134.452L1858.98 133.125L1819.8 143.892L1809.77 182.379L1811.18 183.685L1821.19 145.219L1860.38 134.452Z" fill="#E5E6E8"/>
<path d="M1884.94 219.453L1883.56 218.126L1844.38 228.893L1834.35 267.38L1835.74 268.686L1845.77 230.22L1884.94 219.453Z" fill="#E5E6E8"/>
<path d="M1909.52 304.455L1908.11 303.128L1868.94 313.895L1858.91 352.361L1860.32 353.688L1870.32 315.222L1909.52 304.455Z" fill="#E5E6E8"/>
<path d="M1934.1 389.436L1932.69 388.108L1893.52 398.897L1883.49 437.363L1884.87 438.69L1894.9 400.224L1934.1 389.436Z" fill="#E5E6E8"/>
<path d="M1898.98 -13.8027L1897.6 -15.1299L1858.43 -4.36289L1848.4 34.1243L1849.78 35.43L1859.81 -3.03576L1898.98 -13.8027Z" fill="#E5E6E8"/>
<path d="M1923.56 71.1982L1922.16 69.8711L1882.99 80.6381L1872.96 119.125L1874.36 120.431L1884.37 81.9652L1923.56 71.1982Z" fill="#E5E6E8"/>
<path d="M1948.14 156.2L1946.74 154.873L1907.57 165.64L1897.54 204.127L1898.92 205.433L1908.95 166.967L1948.14 156.2Z" fill="#E5E6E8"/>
<path d="M1972.7 241.181L1971.3 239.854L1932.12 250.642L1922.12 289.108L1923.5 290.435L1933.51 251.969L1972.7 241.181Z" fill="#E5E6E8"/>
<path d="M1997.28 326.182L1995.88 324.854L1956.7 335.643L1946.67 374.109L1948.06 375.436L1958.09 336.97L1997.28 326.182Z" fill="#E5E6E8"/>
<path d="M1986.75 7.9453L1985.34 6.61816L1946.17 17.3852L1936.16 55.8723L1937.54 57.1781L1947.55 18.7123L1986.75 7.9453Z" fill="#E5E6E8"/>
</g>
</g>
<g style="mix-blend-mode:overlay" opacity="0.35">
<g style="mix-blend-mode:overlay">
<path d="M-48.0697 460.822L-83.0078 427.622L-71.0033 381.514L-24.0607 368.606L10.8774 401.806L-1.12709 447.914L-48.0697 460.822ZM-79.672 426.701L-47.2138 457.547L-3.60697 445.559L7.54163 402.727L-24.9166 371.881L-68.5234 383.869L-79.672 426.701Z" fill="white"/>
<path d="M-23.5121 545.824L-58.4502 512.624L-46.4457 466.516L0.496906 453.608L35.435 486.808L23.4305 532.916L-23.5121 545.824ZM-55.1144 511.703L-22.6562 542.549L20.9506 530.561L32.0992 487.729L-0.35899 456.883L-43.9658 468.871L-55.1144 511.703Z" fill="white"/>
<path d="M1.06751 630.825L-33.8706 597.625L-21.8661 551.517L25.0765 538.609L60.0146 571.809L48.0101 617.917L1.06751 630.825ZM-30.5348 596.704L1.9234 627.55L45.5302 615.562L56.6788 572.73L24.2206 541.884L-19.3862 553.872L-30.5348 596.704Z" fill="white"/>
<path d="M25.6471 715.805L-9.29102 682.605L2.71348 636.497L49.6561 623.59L84.5942 656.79L72.5897 702.897L25.6471 715.805ZM-5.97714 681.706L26.4811 712.551L70.0879 700.564L81.2365 657.732L48.7783 626.886L5.17146 638.873L-5.97714 681.706Z" fill="white"/>
<path d="M-9.46639 312.567L-44.4045 279.367L-32.4 233.259L14.5426 220.352L49.4807 253.552L37.4762 299.659L-9.46639 312.567ZM-41.0687 278.446L-8.6105 309.292L34.9963 297.305L46.1449 254.472L13.6867 223.627L-29.9201 235.614L-41.0687 278.446Z" fill="white"/>
<path d="M15.1132 397.569L-19.825 364.369L-7.82046 318.261L39.1222 305.354L74.0603 338.554L62.0558 384.661L15.1132 397.569ZM-16.4892 363.448L15.9691 394.294L59.5759 382.307L70.7245 339.474L38.2663 308.629L-5.34058 320.616L-16.4892 363.448Z" fill="white"/>
<path d="M39.6928 482.57L4.75464 449.37L16.7591 403.262L63.7017 390.354L98.6399 423.554L86.6354 469.662L39.6928 482.57ZM8.06848 448.449L40.5267 479.295L84.1335 467.307L95.2821 424.475L62.8239 393.63L19.2171 405.617L8.06848 448.449Z" fill="white"/>
<path d="M64.2504 567.55L29.3123 534.35L41.3167 488.243L88.2594 475.335L123.197 508.535L111.193 554.643L64.2504 567.55ZM32.648 533.451L65.1063 564.296L108.713 552.309L119.862 509.477L87.4035 478.631L43.7966 490.619L32.648 533.451Z" fill="white"/>
<path d="M88.83 652.552L53.8918 619.352L65.8963 573.244L112.839 560.337L147.777 593.537L135.773 639.644L88.83 652.552ZM57.2277 618.432L89.6859 649.277L133.293 637.29L144.441 594.457L111.983 563.612L68.3762 575.599L57.2277 618.432Z" fill="white"/>
<path d="M113.388 737.553L78.4495 704.353L90.454 658.245L137.397 645.338L172.335 678.538L160.33 724.645L113.388 737.553ZM81.7852 703.433L114.243 734.278L157.85 722.291L168.999 679.458L136.541 648.613L92.9338 660.6L81.7852 703.433Z" fill="white"/>
<path d="M53.7382 249.314L18.8 216.114L30.8045 170.006L77.7472 157.099L112.685 190.299L100.681 236.406L53.7382 249.314ZM22.1359 215.193L54.5941 246.039L98.2009 234.052L109.349 191.219L76.8913 160.374L33.2845 172.361L22.1359 215.193Z" fill="white"/>
<path d="M78.2958 334.315L43.3577 301.115L55.3622 255.007L102.305 242.1L137.243 275.3L125.238 321.407L78.2958 334.315ZM46.6935 300.194L79.1517 331.04L122.759 319.053L133.907 276.22L101.449 245.375L57.8421 257.362L46.6935 300.194Z" fill="white"/>
<path d="M102.875 419.295L67.9373 386.095L79.9418 339.988L126.884 327.08L161.823 360.28L149.818 406.388L102.875 419.295ZM71.2731 385.196L103.731 416.042L147.338 404.054L158.487 361.222L126.028 330.376L82.4217 342.364L71.2731 385.196Z" fill="white"/>
<path d="M127.433 504.297L92.4949 471.097L104.499 424.99L151.442 412.082L186.38 445.282L174.376 491.39L127.433 504.297ZM95.8307 470.177L128.289 501.022L171.896 489.035L183.044 446.202L150.586 415.357L106.979 427.344L95.8307 470.177Z" fill="white"/>
<path d="M152.013 589.298L117.074 556.098L129.079 509.991L176.022 497.083L210.96 530.283L198.955 576.391L152.013 589.298ZM120.41 555.178L152.868 586.023L196.475 574.036L207.624 531.203L175.166 500.358L131.559 512.345L120.41 555.178Z" fill="white"/>
<path d="M176.57 674.3L141.632 641.1L153.637 594.993L200.579 582.085L235.517 615.285L223.513 661.393L176.57 674.3ZM144.968 640.18L177.426 671.025L221.033 659.038L232.182 616.205L199.723 585.36L156.116 597.347L144.968 640.18Z" fill="white"/>
<path d="M201.15 759.301L166.212 726.101L178.216 679.993L225.159 667.086L260.097 700.286L248.092 746.394L201.15 759.301ZM169.547 725.181L202.006 756.026L245.612 744.039L256.761 701.206L224.303 670.361L180.696 682.348L169.547 725.181Z" fill="white"/>
<path d="M141.479 271.04L106.541 237.84L118.545 191.733L165.488 178.825L200.426 212.025L188.421 258.133L141.479 271.04ZM109.876 236.941L142.335 267.787L185.941 255.8L197.09 212.967L164.632 182.122L121.025 194.109L109.876 236.941Z" fill="white"/>
<path d="M166.058 356.041L131.12 322.841L143.124 276.734L190.067 263.826L225.005 297.026L213.001 343.134L166.058 356.041ZM134.456 321.921L166.914 352.766L210.521 340.779L221.669 297.947L189.211 267.101L145.604 279.088L134.456 321.921Z" fill="white"/>
<path d="M190.638 441.043L155.699 407.843L167.704 361.736L214.647 348.828L249.585 382.028L237.58 428.136L190.638 441.043ZM159.013 406.923L191.472 437.768L235.078 425.781L246.227 382.949L213.769 352.103L170.162 364.09L159.013 406.923Z" fill="white"/>
<path d="M215.195 526.045L180.257 492.845L192.262 446.738L239.204 433.83L274.143 467.03L262.138 513.138L215.195 526.045ZM183.593 491.925L216.051 522.77L259.658 510.783L270.807 467.951L238.349 437.105L194.742 449.092L183.593 491.925Z" fill="white"/>
<path d="M239.775 611.046L204.837 577.846L216.841 531.739L263.784 518.831L298.722 552.031L286.717 598.139L239.775 611.046ZM208.173 576.926L240.631 607.771L284.238 595.784L295.386 552.952L262.928 522.106L219.321 534.093L208.173 576.926Z" fill="white"/>
<path d="M264.333 696.047L229.395 662.847L241.399 616.74L288.342 603.832L323.28 637.032L311.275 683.14L264.333 696.047ZM232.73 661.927L265.189 692.772L308.795 680.785L319.944 637.952L287.486 607.107L243.879 619.094L232.73 661.927Z" fill="white"/>
<path d="M204.661 207.786L169.723 174.586L181.728 128.479L228.67 115.571L263.608 148.771L251.604 194.879L204.661 207.786ZM173.059 173.666L205.517 204.511L249.124 192.524L260.273 149.692L227.814 118.846L184.208 130.833L173.059 173.666Z" fill="white"/>
<path d="M229.241 292.788L194.303 259.588L206.307 213.481L253.25 200.573L288.188 233.773L276.183 279.881L229.241 292.788ZM197.639 258.668L230.097 289.513L273.704 277.526L284.852 234.694L252.394 203.848L208.787 215.835L197.639 258.668Z" fill="white"/>
<path d="M253.82 377.789L218.882 344.589L230.887 298.482L277.829 285.574L312.768 318.774L300.763 364.882L253.82 377.789ZM222.218 343.669L254.676 374.514L298.283 362.527L309.432 319.695L276.974 288.849L233.367 300.836L222.218 343.669Z" fill="white"/>
<path d="M278.378 462.791L243.44 429.591L255.444 383.484L302.387 370.576L337.325 403.776L325.321 449.884L278.378 462.791ZM246.776 428.671L279.234 459.516L322.841 447.529L333.989 404.697L301.531 373.851L257.924 385.838L246.776 428.671Z" fill="white"/>
<path d="M302.958 547.793L268.02 514.593L280.024 468.486L326.967 455.578L361.905 488.778L349.9 534.886L302.958 547.793ZM271.355 513.673L303.814 544.518L347.42 532.531L358.569 489.699L326.111 458.853L282.504 470.84L271.355 513.673Z" fill="white"/>
<path d="M327.515 632.794L292.577 599.594L304.582 553.487L351.524 540.579L386.462 573.779L374.458 619.887L327.515 632.794ZM295.913 598.674L328.371 629.519L371.978 617.532L383.127 574.7L350.668 543.854L307.062 555.841L295.913 598.674Z" fill="white"/>
<path d="M352.095 717.795L317.157 684.595L329.161 638.488L376.104 625.58L411.042 658.78L399.037 704.888L352.095 717.795ZM320.493 683.675L352.951 714.52L396.558 702.533L407.706 659.701L375.248 628.855L331.641 640.842L320.493 683.675Z" fill="white"/>
<path d="M292.423 229.535L257.485 196.335L269.49 150.228L316.432 137.32L351.371 170.52L339.366 216.628L292.423 229.535ZM260.821 195.415L293.279 226.26L336.886 214.273L348.035 171.441L315.577 140.595L271.97 152.582L260.821 195.415Z" fill="white"/>
<path d="M317.003 314.536L282.065 281.336L294.069 235.229L341.012 222.321L375.95 255.521L363.946 301.629L317.003 314.536ZM285.401 280.416L317.859 311.261L361.466 299.274L372.614 256.442L340.156 225.596L296.549 237.583L285.401 280.416Z" fill="white"/>
<path d="M341.561 399.537L306.623 366.337L318.627 320.23L365.57 307.322L400.508 340.522L388.503 386.63L341.561 399.537ZM309.958 365.417L342.417 396.262L386.023 384.275L397.172 341.443L364.714 310.597L321.107 322.584L309.958 365.417Z" fill="white"/>
<path d="M366.14 484.539L331.202 451.339L343.207 405.232L390.149 392.324L425.087 425.524L413.083 471.632L366.14 484.539ZM334.538 450.419L366.996 481.264L410.603 469.277L421.752 426.445L389.293 395.599L345.687 407.586L334.538 450.419Z" fill="white"/>
<path d="M390.72 569.541L355.782 536.341L367.786 490.234L414.729 477.326L449.667 510.526L437.662 556.634L390.72 569.541ZM359.096 535.421L391.554 566.266L435.161 554.279L446.309 511.447L413.851 480.601L370.244 492.588L359.096 535.421Z" fill="white"/>
<path d="M415.278 654.542L380.339 621.342L392.344 575.235L439.286 562.327L474.225 595.527L462.22 641.635L415.278 654.542ZM383.675 620.422L416.133 651.267L459.74 639.28L470.889 596.448L438.431 565.602L394.824 577.589L383.675 620.422Z" fill="white"/>
<path d="M439.857 739.543L404.919 706.343L416.923 660.236L463.866 647.328L498.804 680.528L486.8 726.636L439.857 739.543ZM408.255 705.423L440.713 736.268L484.32 724.281L495.468 681.449L463.01 650.603L419.403 662.59L408.255 705.423Z" fill="white"/>
<path d="M355.606 166.282L320.668 133.082L332.672 86.974L379.615 74.0664L414.553 107.266L402.549 153.374L355.606 166.282ZM324.004 132.161L356.462 163.007L400.069 151.019L411.217 108.187L378.759 77.3415L335.152 89.3286L324.004 132.161Z" fill="white"/>
<path d="M380.186 251.284L345.248 218.083L357.252 171.976L404.195 159.068L439.133 192.268L427.128 238.376L380.186 251.284ZM348.583 217.163L381.042 248.008L424.648 236.021L435.797 193.189L403.339 162.343L359.732 174.33L348.583 217.163Z" fill="white"/>
<path d="M404.765 336.284L369.827 303.084L381.832 256.977L428.774 244.069L463.712 277.269L451.708 323.377L404.765 336.284ZM373.141 302.164L405.599 333.009L449.206 321.022L460.355 278.19L427.896 247.344L384.29 259.331L373.141 302.164Z" fill="white"/>
<path d="M429.323 421.285L394.385 388.085L406.389 341.978L453.332 329.07L488.27 362.27L476.265 408.378L429.323 421.285ZM397.721 387.165L430.179 418.01L473.786 406.023L484.934 363.191L452.476 332.345L408.869 344.332L397.721 387.165Z" fill="white"/>
<path d="M453.903 506.287L418.964 473.087L430.969 426.98L477.911 414.072L512.85 447.272L500.845 493.38L453.903 506.287ZM422.3 472.167L454.758 503.012L498.365 491.025L509.514 448.193L477.056 417.347L433.449 429.334L422.3 472.167Z" fill="white"/>
<path d="M478.46 591.288L443.522 558.088L455.526 511.981L502.469 499.073L537.407 532.273L525.403 578.381L478.46 591.288ZM446.858 557.168L479.316 588.013L522.923 576.026L534.071 533.194L501.613 502.348L458.006 514.335L446.858 557.168Z" fill="white"/>
<path d="M503.04 676.29L468.102 643.09L480.106 596.983L527.049 584.075L561.987 617.275L549.982 663.383L503.04 676.29ZM471.437 642.17L503.896 673.015L547.502 661.028L558.651 618.196L526.193 587.35L482.586 599.337L471.437 642.17Z" fill="white"/>
<path d="M527.598 761.291L492.659 728.091L504.664 681.984L551.606 669.076L586.545 702.276L574.54 748.384L527.598 761.291ZM495.995 727.171L528.453 758.016L572.06 746.029L583.209 703.197L550.751 672.351L507.144 684.338L495.995 727.171Z" fill="white"/>
<path d="M24.5058 547.557L23.1013 546.229L-16.0725 556.996L-26.1018 595.484L-24.7192 596.789L-14.6899 558.324L24.5058 547.557Z" fill="#E5E6E8"/>
<path d="M49.0634 632.559L47.6808 631.231L8.48518 641.998L-1.52222 680.486L-0.139605 681.791L9.88973 643.326L49.0634 632.559Z" fill="#E5E6E8"/>
<path d="M-35.2312 278.532L-25.2238 240.066L13.9719 229.299L12.5673 227.972L-26.6064 238.739L-36.6138 277.226L-35.2312 278.532Z" fill="#E5E6E8"/>
<path d="M38.5515 314.301L37.1469 312.974L-2.02679 323.741L-12.0562 362.228L-10.6735 363.534L-0.644209 325.068L38.5515 314.301Z" fill="#E5E6E8"/>
<path d="M63.1091 399.302L61.7265 397.975L22.5308 408.742L12.5234 447.229L13.906 448.535L23.9354 410.069L63.1091 399.302Z" fill="#E5E6E8"/>
<path d="M87.6887 484.304L86.2841 482.977L47.1104 493.744L37.0811 532.231L38.4856 533.536L48.493 495.071L87.6887 484.304Z" fill="#E5E6E8"/>
<path d="M112.246 569.284L110.864 567.957L71.69 578.745L61.6606 617.211L63.0433 618.538L73.0726 580.073L112.246 569.284Z" fill="#E5E6E8"/>
<path d="M136.826 654.285L135.421 652.958L96.2476 663.746L86.2183 702.212L87.6228 703.539L97.6302 665.074L136.826 654.285Z" fill="#E5E6E8"/>
<path d="M37.9808 176.813L77.1545 166.046L75.7719 164.719L36.5762 175.486L26.5688 213.973L27.9514 215.279L37.9808 176.813Z" fill="#E5E6E8"/>
<path d="M101.734 251.047L100.33 249.72L61.1558 260.487L51.1265 298.974L52.531 300.28L62.5384 261.814L101.734 251.047Z" fill="#E5E6E8"/>
<path d="M126.292 336.049L124.909 334.722L85.7354 345.489L75.7061 383.976L77.0886 385.282L87.118 346.816L126.292 336.049Z" fill="#E5E6E8"/>
<path d="M150.871 421.029L149.467 419.702L110.293 430.491L100.264 468.956L101.668 470.283L111.676 431.818L150.871 421.029Z" fill="#E5E6E8"/>
<path d="M175.451 506.03L174.046 504.703L134.873 515.492L124.843 553.957L126.226 555.284L136.255 516.819L175.451 506.03Z" fill="#E5E6E8"/>
<path d="M200.009 591.032L198.604 589.705L159.43 600.493L149.423 638.959L150.805 640.286L160.813 601.821L200.009 591.032Z" fill="#E5E6E8"/>
<path d="M224.588 676.033L223.184 674.706L184.01 685.494L173.98 723.96L175.363 725.287L185.392 686.822L224.588 676.033Z" fill="#E5E6E8"/>
<path d="M115.714 237.027L125.721 198.561L164.917 187.794L163.512 186.467L124.338 197.234L114.309 235.721L115.714 237.027Z" fill="#E5E6E8"/>
<path d="M189.496 272.795L188.092 271.468L148.918 282.235L138.889 320.701L140.271 322.028L150.301 283.562L189.496 272.795Z" fill="#E5E6E8"/>
<path d="M214.054 357.775L212.649 356.448L173.476 367.237L163.468 405.702L164.851 407.03L174.858 368.564L214.054 357.775Z" fill="#E5E6E8"/>
<path d="M238.634 442.777L237.229 441.45L198.055 452.239L188.026 490.704L189.409 492.032L199.438 453.566L238.634 442.777Z" fill="#E5E6E8"/>
<path d="M263.191 527.778L261.809 526.451L222.613 537.24L212.605 575.705L213.988 577.033L224.017 538.567L263.191 527.778Z" fill="#E5E6E8"/>
<path d="M287.771 612.779L286.366 611.452L247.192 622.241L237.163 660.706L238.568 662.033L248.575 623.568L287.771 612.779Z" fill="#E5E6E8"/>
<path d="M188.904 135.307L228.1 124.54L226.717 123.213L187.521 133.98L177.514 172.446L178.897 173.773L188.904 135.307Z" fill="#E5E6E8"/>
<path d="M252.679 209.52L251.275 208.193L212.101 218.982L202.072 257.448L203.454 258.775L213.483 220.309L252.679 209.52Z" fill="#E5E6E8"/>
<path d="M277.237 294.521L275.854 293.194L236.658 303.983L226.651 342.449L228.033 343.776L238.063 305.31L277.237 294.521Z" fill="#E5E6E8"/>
<path d="M301.816 379.523L300.412 378.196L261.238 388.985L251.209 427.45L252.613 428.778L262.621 390.312L301.816 379.523Z" fill="#E5E6E8"/>
<path d="M326.374 464.524L324.991 463.197L285.818 473.986L275.788 512.451L277.171 513.779L287.2 475.313L326.374 464.524Z" fill="#E5E6E8"/>
<path d="M350.953 549.526L349.549 548.199L310.375 558.988L300.346 597.453L301.75 598.781L311.758 560.315L350.953 549.526Z" fill="#E5E6E8"/>
<path d="M375.533 634.528L374.128 633.201L334.955 643.968L324.925 682.455L326.308 683.783L336.337 645.317L375.533 634.528Z" fill="#E5E6E8"/>
<path d="M266.659 195.522L276.666 157.056L315.862 146.268L314.457 144.94L275.283 155.729L265.254 194.195L266.659 195.522Z" fill="#E5E6E8"/>
<path d="M340.419 231.269L339.037 229.941L299.863 240.73L289.834 279.196L291.216 280.523L301.246 242.057L340.419 231.269Z" fill="#E5E6E8"/>
<path d="M364.999 316.27L363.594 314.942L324.421 325.731L314.391 364.197L315.796 365.524L325.803 327.058L364.999 316.27Z" fill="#E5E6E8"/>
<path d="M389.579 401.272L388.174 399.944L349 410.733L338.971 449.199L340.353 450.526L350.383 412.06L389.579 401.272Z" fill="#E5E6E8"/>
<path d="M414.136 486.273L412.754 484.946L373.558 495.713L363.551 534.2L364.933 535.528L374.941 497.062L414.136 486.273Z" fill="#E5E6E8"/>
<path d="M438.716 571.274L437.311 569.947L398.138 580.714L388.108 619.201L389.491 620.529L399.52 582.063L438.716 571.274Z" fill="#E5E6E8"/>
<path d="M463.273 656.276L461.891 654.949L422.695 665.716L412.688 704.203L414.07 705.531L424.1 667.065L463.273 656.276Z" fill="#E5E6E8"/>
<path d="M339.849 93.8021L379.044 83.0137L377.64 81.6865L338.466 92.4749L328.459 130.941L329.841 132.268L339.849 93.8021Z" fill="#E5E6E8"/>
<path d="M403.624 168.015L402.219 166.688L363.046 177.476L353.016 215.942L354.399 217.269L364.428 178.803L403.624 168.015Z" fill="#E5E6E8"/>
<path d="M428.182 253.017L426.799 251.689L387.603 262.478L377.596 300.944L378.979 302.271L388.986 263.805L428.182 253.017Z" fill="#E5E6E8"/>
<path d="M452.761 338.019L451.357 336.691L412.183 347.458L402.154 385.946L403.536 387.273L413.566 348.807L452.761 338.019Z" fill="#E5E6E8"/>
<path d="M477.319 423.02L475.936 421.692L436.763 432.459L426.733 470.947L428.116 472.274L438.145 433.808L477.319 423.02Z" fill="#E5E6E8"/>
<path d="M501.899 508.021L500.494 506.694L461.32 517.461L451.291 555.948L452.696 557.276L462.703 518.81L501.899 508.021Z" fill="#E5E6E8"/>
<path d="M526.456 593.022L525.073 591.695L485.9 602.462L475.87 640.95L477.253 642.277L487.282 603.789L526.456 593.022Z" fill="#E5E6E8"/>
<path d="M551.036 678.024L549.631 676.697L510.457 687.464L500.45 725.951L501.833 727.279L511.84 688.791L551.036 678.024Z" fill="#E5E6E8"/>
</g>
<g style="mix-blend-mode:overlay">
<path d="M443.368 188.031L408.43 154.831L420.435 108.723L467.377 95.8154L502.316 129.015L490.311 175.123L443.368 188.031ZM411.766 153.91L444.224 184.755L487.831 172.768L498.98 129.936L466.522 99.0905L422.915 111.078L411.766 153.91Z" fill="white"/>
<path d="M467.948 273.032L433.01 239.832L445.014 193.724L491.957 180.816L526.895 214.016L514.891 260.124L467.948 273.032ZM436.346 238.911L468.804 269.757L512.411 257.769L523.559 214.937L491.101 184.091L447.494 196.079L436.346 238.911Z" fill="white"/>
<path d="M492.506 358.033L457.568 324.833L469.572 278.726L516.515 265.818L551.453 299.018L539.448 345.126L492.506 358.033ZM460.903 323.913L493.362 354.758L536.968 342.771L548.117 299.939L515.659 269.093L472.052 281.08L460.903 323.913Z" fill="white"/>
<path d="M517.085 443.034L482.147 409.834L494.152 363.727L541.094 350.819L576.032 384.019L564.028 430.127L517.085 443.034ZM485.483 408.914L517.941 439.759L561.548 427.772L572.697 384.94L540.238 354.094L496.632 366.082L485.483 408.914Z" fill="white"/>
<path d="M541.643 528.035L506.705 494.835L518.709 448.728L565.652 435.82L600.59 469.02L588.586 515.128L541.643 528.035ZM510.041 493.915L542.499 524.76L586.106 512.773L597.254 469.941L564.796 439.095L521.189 451.082L510.041 493.915Z" fill="white"/>
<path d="M566.223 613.037L531.284 579.837L543.289 533.73L590.232 520.822L625.17 554.022L613.165 600.13L566.223 613.037ZM534.62 578.917L567.078 609.762L610.685 597.775L621.834 554.943L589.376 524.097L545.769 536.084L534.62 578.917Z" fill="white"/>
<path d="M590.802 698.039L555.864 664.839L567.869 618.732L614.811 605.824L649.749 639.024L637.745 685.132L590.802 698.039ZM559.178 663.919L591.636 694.764L635.243 682.777L646.391 639.945L613.933 609.099L570.326 621.086L559.178 663.919Z" fill="white"/>
<path d="M506.551 124.777L471.613 91.5767L483.618 45.4691L530.56 32.5615L565.498 65.7615L553.494 111.869L506.551 124.777ZM474.949 90.6562L507.407 121.502L551.014 109.514L562.162 66.682L529.704 35.8366L486.097 47.8237L474.949 90.6562Z" fill="white"/>
<path d="M531.131 209.779L496.193 176.579L508.197 130.471L555.14 117.563L590.078 150.763L578.073 196.871L531.131 209.779ZM499.528 175.658L531.987 206.504L575.593 194.516L586.742 151.684L554.284 120.839L510.677 132.826L499.528 175.658Z" fill="white"/>
<path d="M555.688 294.78L520.75 261.58L532.755 215.472L579.697 202.564L614.635 235.764L602.631 281.872L555.688 294.78ZM524.086 260.659L556.544 291.505L600.151 279.517L611.3 236.685L578.841 205.84L535.235 217.827L524.086 260.659Z" fill="white"/>
<path d="M580.268 379.781L545.33 346.581L557.334 300.473L604.277 287.565L639.215 320.765L627.211 366.873L580.268 379.781ZM548.666 345.66L581.124 376.506L624.731 364.518L635.879 321.686L603.421 290.84L559.814 302.828L548.666 345.66Z" fill="white"/>
<path d="M604.848 464.782L569.909 431.582L581.914 385.475L628.857 372.567L663.795 405.767L651.79 451.875L604.848 464.782ZM573.223 430.662L605.682 461.507L649.288 449.52L660.437 406.688L627.979 375.842L584.372 387.83L573.223 430.662Z" fill="white"/>
<path d="M629.405 549.784L594.467 516.584L606.472 470.477L653.414 457.569L688.352 490.769L676.348 536.877L629.405 549.784ZM597.803 515.664L630.261 546.509L673.868 534.522L685.016 491.69L652.558 460.844L608.951 472.832L597.803 515.664Z" fill="white"/>
<path d="M653.985 634.785L619.047 601.585L631.051 555.478L677.994 542.57L712.932 575.77L700.927 621.878L653.985 634.785ZM622.382 600.665L654.841 631.51L698.448 619.523L709.596 576.691L677.138 545.845L633.531 557.832L622.382 600.665Z" fill="white"/>
<path d="M678.542 719.787L643.604 686.587L655.609 640.48L702.551 627.572L737.489 660.772L725.485 706.88L678.542 719.787ZM646.94 685.667L679.398 716.512L723.005 704.525L734.154 661.693L701.695 630.847L658.089 642.834L646.94 685.667Z" fill="white"/>
<path d="M594.313 146.525L559.375 113.325L571.38 67.2171L618.322 54.3096L653.26 87.5096L641.256 133.617L594.313 146.525ZM562.711 112.404L595.169 143.25L638.776 131.263L649.925 88.43L617.466 57.5846L573.86 69.5717L562.711 112.404Z" fill="white"/>
<path d="M618.893 231.526L583.955 198.326L595.959 152.218L642.902 139.311L677.84 172.511L665.836 218.618L618.893 231.526ZM587.269 197.405L619.727 228.251L663.334 216.264L674.482 173.431L642.024 142.586L598.417 154.573L587.269 197.405Z" fill="white"/>
<path d="M643.451 316.528L608.512 283.328L620.517 237.22L667.46 224.312L702.398 257.513L690.393 303.62L643.451 316.528ZM611.848 282.407L644.306 313.253L687.913 301.266L699.062 258.433L666.604 227.588L622.997 239.575L611.848 282.407Z" fill="white"/>
<path d="M668.03 401.53L633.092 368.33L645.097 322.222L692.039 309.314L726.977 342.514L714.973 388.622L668.03 401.53ZM636.428 367.409L668.886 398.255L712.493 386.267L723.641 343.435L691.183 312.59L647.576 324.577L636.428 367.409Z" fill="white"/>
<path d="M692.588 486.531L657.65 453.33L669.654 407.223L716.597 394.315L751.535 427.515L739.53 473.623L692.588 486.531ZM660.985 452.41L693.444 483.255L737.05 471.268L748.199 428.436L715.741 397.59L672.134 409.578L660.985 452.41Z" fill="white"/>
<path d="M717.168 571.532L682.229 538.332L694.234 492.224L741.177 479.316L776.115 512.516L764.11 558.624L717.168 571.532ZM685.565 537.411L718.024 568.256L761.63 556.269L772.779 513.437L740.321 482.591L696.714 494.579L685.565 537.411Z" fill="white"/>
<path d="M741.725 656.534L706.787 623.333L718.792 577.226L765.734 564.318L800.672 597.518L788.668 643.626L741.725 656.534ZM710.123 622.413L742.581 653.258L786.188 641.271L797.337 598.439L764.878 567.593L721.271 579.581L710.123 622.413Z" fill="white"/>
<path d="M766.305 741.535L731.367 708.334L743.371 662.227L790.314 649.319L825.252 682.519L813.247 728.627L766.305 741.535ZM734.702 707.414L767.161 738.259L810.768 726.272L821.916 683.44L789.458 652.594L745.851 664.582L734.702 707.414Z" fill="white"/>
<path d="M657.496 83.2718L622.558 50.0718L634.563 3.96419L681.505 -8.94336L716.443 24.2566L704.439 70.3642L657.496 83.2718ZM625.894 49.1513L658.352 79.9967L701.959 68.0096L713.108 25.1771L680.649 -5.66831L637.042 6.31881L625.894 49.1513Z" fill="white"/>
<path d="M682.076 168.273L647.138 135.073L659.142 88.9652L706.085 76.0576L741.023 109.258L729.018 155.365L682.076 168.273ZM650.474 134.152L682.932 164.998L726.539 153.011L737.687 110.178L705.229 79.3327L661.622 91.3198L650.474 134.152Z" fill="white"/>
<path d="M706.633 253.274L671.695 220.074L683.7 173.966L730.642 161.059L765.581 194.259L753.576 240.366L706.633 253.274ZM675.031 219.153L707.489 249.999L751.096 238.012L762.245 195.179L729.787 164.334L686.18 176.321L675.031 219.153Z" fill="white"/>
<path d="M731.213 338.276L696.275 305.076L708.279 258.968L755.222 246.061L790.16 279.261L778.155 325.368L731.213 338.276ZM699.611 304.155L732.069 335.001L775.675 323.013L786.824 280.181L754.366 249.336L710.759 261.323L699.611 304.155Z" fill="white"/>
<path d="M755.771 423.277L720.833 390.077L732.837 343.969L779.78 331.062L814.718 364.262L802.713 410.369L755.771 423.277ZM724.168 389.156L756.627 420.002L800.233 408.015L811.382 365.182L778.924 334.337L735.317 346.324L724.168 389.156Z" fill="white"/>
<path d="M780.35 508.279L745.412 475.079L757.417 428.971L804.359 416.063L839.297 449.264L827.293 495.371L780.35 508.279ZM748.748 474.158L781.206 505.004L824.813 493.016L835.962 450.184L803.503 419.339L759.897 431.326L748.748 474.158Z" fill="white"/>
<path d="M804.93 593.281L769.992 560.08L781.996 513.973L828.939 501.065L863.877 534.265L851.872 580.373L804.93 593.281ZM773.306 559.16L805.764 590.005L849.371 578.018L860.519 535.186L828.061 504.34L784.454 516.328L773.306 559.16Z" fill="white"/>
<path d="M829.487 678.282L794.549 645.082L806.554 598.974L853.496 586.066L888.434 619.266L876.43 665.374L829.487 678.282ZM797.885 644.161L830.343 675.006L873.95 663.019L885.099 620.187L852.64 589.341L809.034 601.329L797.885 644.161Z" fill="white"/>
<path d="M854.067 763.283L819.129 730.084L831.133 683.976L878.076 671.068L913.014 704.268L901.01 750.376L854.067 763.283ZM822.465 729.163L854.923 760.008L898.53 748.021L909.678 705.189L877.22 674.343L833.613 686.331L822.465 729.163Z" fill="white"/>
<path d="M745.258 105.02L710.32 71.8198L722.325 25.7122L769.267 12.8047L804.205 46.0047L792.201 92.1123L745.258 105.02ZM713.656 70.8994L746.114 101.745L789.721 89.7577L800.87 46.9251L768.411 16.0797L724.805 28.0669L713.656 70.8994Z" fill="white"/>
<path d="M769.816 190.021L734.878 156.821L746.882 110.713L793.825 97.8057L828.763 131.006L816.759 177.113L769.816 190.021ZM738.214 155.9L770.672 186.746L814.279 174.759L825.427 131.926L792.969 101.081L749.362 113.068L738.214 155.9Z" fill="white"/>
<path d="M794.396 275.022L759.458 241.822L771.462 195.714L818.405 182.807L853.343 216.007L841.338 262.114L794.396 275.022ZM762.793 240.901L795.252 271.747L838.858 259.76L850.007 216.927L817.549 186.082L773.942 198.069L762.793 240.901Z" fill="white"/>
<path d="M818.975 360.024L784.037 326.824L796.042 280.716L842.984 267.809L877.922 301.009L865.918 347.116L818.975 360.024ZM787.351 325.903L819.809 356.749L863.416 344.762L874.565 301.929L842.106 271.084L798.499 283.071L787.351 325.903Z" fill="white"/>
<path d="M843.533 445.026L808.595 411.826L820.599 365.718L867.542 352.811L902.48 386.011L890.476 432.118L843.533 445.026ZM811.931 410.905L844.389 441.751L887.996 429.764L899.144 386.931L866.686 356.086L823.079 368.073L811.931 410.905Z" fill="white"/>
<path d="M868.113 530.027L833.174 496.827L845.179 450.719L892.122 437.812L927.06 471.012L915.055 517.119L868.113 530.027ZM836.51 495.906L868.968 526.752L912.575 514.765L923.724 471.932L891.266 441.087L847.659 453.074L836.51 495.906Z" fill="white"/>
<path d="M892.67 615.028L857.732 581.828L869.736 535.72L916.679 522.812L951.617 556.012L939.613 602.12L892.67 615.028ZM861.068 580.907L893.526 611.753L937.133 599.765L948.281 556.933L915.823 526.088L872.216 538.075L861.068 580.907Z" fill="white"/>
<path d="M917.25 700.008L882.312 666.808L894.316 620.701L941.259 607.793L976.197 640.993L964.192 687.101L917.25 700.008ZM885.647 665.888L918.106 696.733L961.712 684.746L972.861 641.913L940.403 611.068L896.796 623.055L885.647 665.888Z" fill="white"/>
<path d="M808.441 41.7659L773.503 8.56591L785.507 -37.5417L832.45 -50.4492L867.388 -17.2492L855.384 28.8584L808.441 41.7659ZM776.839 7.64546L809.297 38.4909L852.904 26.5037L864.052 -16.3288L831.594 -47.1742L787.987 -35.187L776.839 7.64546Z" fill="white"/>
<path d="M833.021 126.768L798.083 93.5678L810.087 47.4603L857.03 34.5527L891.968 67.7527L879.963 113.86L833.021 126.768ZM801.396 92.6474L833.855 123.493L877.461 111.506L888.61 68.6732L856.152 37.8278L812.545 49.8149L801.396 92.6474Z" fill="white"/>
<path d="M857.578 211.769L822.64 178.569L834.645 132.461L881.587 119.554L916.525 152.754L904.521 198.861L857.578 211.769ZM825.976 177.648L858.434 208.494L902.041 196.507L913.19 153.674L880.731 122.829L837.124 134.816L825.976 177.648Z" fill="white"/>
<path d="M882.158 296.77L847.22 263.57L859.224 217.462L906.167 204.555L941.105 237.755L929.1 283.862L882.158 296.77ZM850.556 262.649L883.014 293.495L926.621 281.508L937.769 238.675L905.311 207.83L861.704 219.817L850.556 262.649Z" fill="white"/>
<path d="M906.715 381.772L871.777 348.572L883.782 302.464L930.724 289.557L965.663 322.757L953.658 368.864L906.715 381.772ZM875.113 347.651L907.571 378.497L951.178 366.51L962.327 323.677L929.868 292.832L886.262 304.819L875.113 347.651Z" fill="white"/>
<path d="M931.295 466.774L896.357 433.574L908.361 387.466L955.304 374.559L990.242 407.759L978.238 453.866L931.295 466.774ZM899.693 432.653L932.151 463.499L975.758 451.512L986.906 408.679L954.448 377.834L910.841 389.821L899.693 432.653Z" fill="white"/>
<path d="M955.853 551.753L920.915 518.553L932.919 472.446L979.862 459.538L1014.8 492.738L1002.8 538.846L955.853 551.753ZM924.25 517.654L956.709 548.5L1000.32 536.512L1011.46 493.68L979.006 462.834L935.399 474.822L924.25 517.654Z" fill="white"/>
<path d="M980.432 636.755L945.494 603.555L957.499 557.448L1004.44 544.54L1039.38 577.74L1027.37 623.848L980.432 636.755ZM948.83 602.635L981.288 633.48L1024.9 621.493L1036.04 578.66L1003.59 547.815L959.979 559.802L948.83 602.635Z" fill="white"/>
<path d="M1005.01 721.756L970.074 688.556L982.078 642.449L1029.02 629.541L1063.96 662.741L1051.95 708.849L1005.01 721.756ZM973.388 687.636L1005.85 718.481L1049.45 706.494L1060.6 663.661L1028.14 632.816L984.536 644.803L973.388 687.636Z" fill="white"/>
<path d="M417.582 154.017L427.611 115.551L466.807 104.763L465.402 103.436L426.229 114.224L416.199 152.69L417.582 154.017Z" fill="#E5E6E8"/>
<path d="M491.365 189.764L489.982 188.437L450.808 199.204L440.779 237.691L442.161 239.018L452.191 200.552L491.365 189.764Z" fill="#E5E6E8"/>
<path d="M515.944 274.766L514.54 273.438L475.366 284.205L465.336 322.693L466.741 324.02L476.748 285.554L515.944 274.766Z" fill="#E5E6E8"/>
<path d="M540.502 359.767L539.119 358.439L499.945 369.206L489.916 407.694L491.299 409.021L501.328 370.555L540.502 359.767Z" fill="#E5E6E8"/>
<path d="M565.081 444.769L563.677 443.441L524.503 454.208L514.496 492.696L515.878 494.023L525.886 455.536L565.081 444.769Z" fill="#E5E6E8"/>
<path d="M589.661 529.77L588.256 528.442L549.083 539.209L539.053 577.697L540.436 579.024L550.465 540.537L589.661 529.77Z" fill="#E5E6E8"/>
<path d="M614.218 614.77L612.836 613.443L573.64 624.21L563.633 662.697L565.015 664.025L575.045 625.537L614.218 614.77Z" fill="#E5E6E8"/>
<path d="M490.794 52.2972L529.989 41.5088L528.585 40.1816L489.411 50.9486L479.382 89.4358L480.786 90.763L490.794 52.2972Z" fill="#E5E6E8"/>
<path d="M554.547 126.511L553.164 125.184L513.991 135.951L503.961 174.438L505.344 175.765L515.373 137.299L554.547 126.511Z" fill="#E5E6E8"/>
<path d="M579.127 211.512L577.722 210.185L538.548 220.952L528.541 259.439L529.924 260.766L539.931 222.3L579.127 211.512Z" fill="#E5E6E8"/>
<path d="M603.706 296.513L602.302 295.186L563.128 305.953L553.099 344.44L554.481 345.767L564.511 307.28L603.706 296.513Z" fill="#E5E6E8"/>
<path d="M628.264 381.515L626.881 380.188L587.686 390.954L577.678 429.442L579.061 430.769L589.09 392.282L628.264 381.515Z" fill="#E5E6E8"/>
<path d="M652.843 466.517L651.439 465.189L612.265 475.956L602.236 514.444L603.64 515.771L613.648 477.284L652.843 466.517Z" fill="#E5E6E8"/>
<path d="M677.401 551.518L676.018 550.19L636.845 560.957L626.815 599.445L628.198 600.75L638.227 562.285L677.401 551.518Z" fill="#E5E6E8"/>
<path d="M701.981 636.519L700.576 635.191L661.402 645.958L651.373 684.446L652.778 685.751L662.785 647.286L701.981 636.519Z" fill="#E5E6E8"/>
<path d="M568.527 112.511L578.556 74.0452L617.752 63.2568L616.347 61.9297L577.174 72.6967L567.144 111.184L568.527 112.511Z" fill="#E5E6E8"/>
<path d="M642.309 148.259L640.927 146.932L601.731 157.699L591.724 196.186L593.106 197.513L603.136 159.026L642.309 148.259Z" fill="#E5E6E8"/>
<path d="M666.889 233.26L665.485 231.933L626.311 242.7L616.281 281.187L617.686 282.514L627.693 244.027L666.889 233.26Z" fill="#E5E6E8"/>
<path d="M691.447 318.261L690.064 316.934L650.89 327.701L640.861 366.188L642.244 367.515L652.273 329.028L691.447 318.261Z" fill="#E5E6E8"/>
<path d="M716.026 403.263L714.622 401.936L675.448 412.703L665.419 451.19L666.823 452.495L676.831 414.03L716.026 403.263Z" fill="#E5E6E8"/>
<path d="M740.584 488.265L739.201 486.938L700.027 497.704L689.998 536.192L691.381 537.497L701.41 499.032L740.584 488.265Z" fill="#E5E6E8"/>
<path d="M765.164 573.266L763.759 571.938L724.585 582.705L714.578 621.193L715.96 622.498L725.968 584.033L765.164 573.266Z" fill="#E5E6E8"/>
<path d="M789.743 658.267L788.339 656.939L749.165 667.707L739.135 706.194L740.518 707.499L750.547 669.034L789.743 658.267Z" fill="#E5E6E8"/>
<path d="M641.739 10.7699L680.935 0.00294793L679.53 -1.32422L640.356 9.44277L630.327 47.93L631.731 49.2571L641.739 10.7699Z" fill="#E5E6E8"/>
<path d="M705.492 85.0049L704.11 83.6777L664.936 94.4447L654.906 132.932L656.289 134.259L666.318 95.7719L705.492 85.0049Z" fill="#E5E6E8"/>
<path d="M730.072 170.007L728.667 168.68L689.493 179.447L679.464 217.934L680.869 219.261L690.876 180.774L730.072 170.007Z" fill="#E5E6E8"/>
<path d="M754.629 255.008L753.247 253.681L714.073 264.448L704.044 302.935L705.426 304.241L715.456 265.775L754.629 255.008Z" fill="#E5E6E8"/>
<path d="M779.209 340.009L777.804 338.682L738.631 349.449L728.623 387.936L730.006 389.242L740.013 350.776L779.209 340.009Z" fill="#E5E6E8"/>
<path d="M803.789 425.011L802.384 423.684L763.21 434.451L753.181 472.938L754.564 474.243L764.593 435.778L803.789 425.011Z" fill="#E5E6E8"/>
<path d="M828.346 510.013L826.964 508.686L787.768 519.453L777.76 557.94L779.143 559.245L789.172 520.78L828.346 510.013Z" fill="#E5E6E8"/>
<path d="M852.926 595.014L851.521 593.687L812.347 604.454L802.318 642.941L803.723 644.246L813.73 605.781L852.926 595.014Z" fill="#E5E6E8"/>
<path d="M719.472 71.0061L729.501 32.5189L768.697 21.7519L767.292 20.4248L728.118 31.1918L718.089 69.679L719.472 71.0061Z" fill="#E5E6E8"/>
<path d="M793.254 106.753L791.85 105.426L752.676 116.193L742.669 154.68L744.051 155.986L754.059 117.52L793.254 106.753Z" fill="#E5E6E8"/>
<path d="M817.834 191.755L816.429 190.428L777.256 201.195L767.226 239.682L768.609 240.988L778.638 202.522L817.834 191.755Z" fill="#E5E6E8"/>
<path d="M842.392 276.756L841.009 275.429L801.814 286.196L791.806 324.683L793.189 325.989L803.218 287.523L842.392 276.756Z" fill="#E5E6E8"/>
<path d="M866.971 361.757L865.567 360.43L826.393 371.197L816.364 409.684L817.768 410.99L827.776 372.524L866.971 361.757Z" fill="#E5E6E8"/>
<path d="M891.529 446.759L890.146 445.432L850.972 456.199L840.943 494.686L842.326 495.992L852.355 457.526L891.529 446.759Z" fill="#E5E6E8"/>
<path d="M916.109 531.761L914.704 530.434L875.53 541.201L865.501 579.688L866.905 580.993L876.913 542.528L916.109 531.761Z" fill="#E5E6E8"/>
<path d="M940.688 616.762L939.283 615.435L900.11 626.202L890.08 664.667L891.463 665.994L901.492 627.529L940.688 616.762Z" fill="#E5E6E8"/>
<path d="M792.684 -30.7349L831.88 -41.5019L830.475 -42.8291L791.301 -32.0621L781.272 6.42511L782.655 7.73084L792.684 -30.7349Z" fill="#E5E6E8"/>
<path d="M856.437 43.5L855.054 42.1729L815.859 52.9398L805.851 91.427L807.234 92.7328L817.263 54.267L856.437 43.5Z" fill="#E5E6E8"/>
<path d="M881.017 128.501L879.612 127.174L840.438 137.941L830.409 176.428L831.814 177.734L841.821 139.268L881.017 128.501Z" fill="#E5E6E8"/>
<path d="M905.574 213.502L904.192 212.175L865.018 222.942L854.989 261.429L856.371 262.735L866.401 224.269L905.574 213.502Z" fill="#E5E6E8"/>
<path d="M930.154 298.504L928.749 297.177L889.576 307.944L879.546 346.431L880.951 347.737L890.958 309.271L930.154 298.504Z" fill="#E5E6E8"/>
<path d="M954.734 383.505L953.329 382.178L914.155 392.945L904.126 431.432L905.509 432.738L915.538 394.272L954.734 383.505Z" fill="#E5E6E8"/>
<path d="M979.291 468.507L977.887 467.18L938.713 477.947L928.706 516.412L930.088 517.74L940.096 479.274L979.291 468.507Z" fill="#E5E6E8"/>
<path d="M1003.87 553.487L1002.47 552.16L963.293 562.949L953.263 601.414L954.646 602.741L964.675 564.276L1003.87 553.487Z" fill="#E5E6E8"/>
<path d="M1028.43 638.488L1027.05 637.161L987.85 647.95L977.843 686.415L979.225 687.742L989.255 649.277L1028.43 638.488Z" fill="#E5E6E8"/>
</g>
</g>
</g>
<path d="M1616.25 82.6498L1618.83 82.6829L1618.7 93.0743L1633.83 78.2357L1635.65 80.115L1620.52 94.9536L1630.85 95.0863L1630.82 97.6841L1616.06 97.4946L1616.25 82.6498Z" fill="#294790"/>
</g>
</g>
<defs>
<linearGradient id="paint0_linear_279_5863" x1="979.466" y1="0" x2="979.466" y2="676.017" gradientUnits="userSpaceOnUse">
<stop stop-color="#0A3474"/>
<stop offset="1" stop-color="#001C46"/>
</linearGradient>
<linearGradient id="paint1_linear_279_5863" x1="980.158" y1="2.21289" x2="980.158" y2="678.23" gradientUnits="userSpaceOnUse">
<stop stop-color="#0A3474"/>
<stop offset="1" stop-color="#001C46"/>
</linearGradient>
<linearGradient id="paint2_linear_279_5863" x1="1163.88" y1="2.21289" x2="1163.88" y2="678.23" gradientUnits="userSpaceOnUse">
<stop stop-color="#0A3474"/>
<stop offset="1" stop-color="#001C46"/>
</linearGradient>
<linearGradient id="paint3_linear_279_5863" x1="979.965" y1="36.916" x2="979.965" y2="712.933" gradientUnits="userSpaceOnUse">
<stop stop-color="#0A3474"/>
<stop offset="1" stop-color="#001C46"/>
</linearGradient>
<clipPath id="clip0_279_5863">
<rect width="2828.39" height="1883.11" fill="white" transform="translate(-434.035 -503.417)"/>
</clipPath>
</defs>
</svg>
