<svg width="53" height="52" viewBox="0 0 53 52" fill="none" xmlns="http://www.w3.org/2000/svg">
<path d="M45.4718 22.3234C45.4718 24.5091 47.6046 27.0034 46.9668 28.9738C46.3005 31.0131 43.0871 31.7769 41.8521 33.475C41.7424 33.6334 41.6409 33.7959 41.5515 33.9747C40.6334 35.7663 40.7105 38.5938 39.1465 39.7313C37.4484 40.9663 34.4096 39.7109 32.3662 40.3731C31.9112 40.5194 31.4765 40.7834 31.0459 41.0963C29.5874 42.1606 28.1859 43.8344 26.504 43.8344C24.8221 43.8344 23.4165 42.1566 21.9621 41.0963C21.5315 40.7834 21.0927 40.5194 20.6418 40.3731C18.6024 39.7069 15.5596 40.9663 13.8615 39.7313C12.2974 38.5978 12.3746 35.7663 11.4565 33.9747C11.3671 33.7959 11.2655 33.6334 11.1559 33.475C9.92086 31.7769 6.70336 31.0131 6.04117 28.9738C5.40336 27.0034 7.53617 24.5091 7.53617 22.3234C7.53617 20.1378 5.40336 17.6434 6.04117 15.6731C6.70742 13.6338 9.92086 12.87 11.1559 11.1719C12.4071 9.45344 12.143 6.16688 13.8615 4.91563C15.5596 3.68063 18.5984 4.93594 20.6418 4.27375C22.604 3.63594 24.3143 0.8125 26.4999 0.8125C28.6855 0.8125 30.3959 3.63594 32.3662 4.27781C34.4055 4.94406 37.4484 3.68469 39.1465 4.91969C40.8649 6.16688 40.6049 9.45344 41.8521 11.1759C43.0871 12.8741 46.3046 13.6378 46.9668 15.6772C47.6046 17.6434 45.4718 20.1378 45.4718 22.3234Z" fill="#FFE36E"/>
<path d="M26.5 37.0826C34.6512 37.0826 41.2591 30.4747 41.2591 22.3235C41.2591 14.1723 34.6512 7.56445 26.5 7.56445C18.3488 7.56445 11.741 14.1723 11.741 22.3235C11.741 30.4747 18.3488 37.0826 26.5 37.0826Z" fill="#FFAA39"/>
<path d="M27.6496 14.174L29.3192 17.5581C29.5061 17.9359 29.8677 18.2 30.2821 18.2609L34.0196 18.8053C35.0717 18.9596 35.4902 20.2475 34.7305 20.9909L32.0289 23.6275C31.7283 23.92 31.5902 24.3465 31.6592 24.7609L32.2971 28.4821C32.4758 29.5303 31.3789 30.3265 30.4364 29.8309L27.0971 28.0759C26.7233 27.8809 26.2764 27.8809 25.9067 28.0759L22.5674 29.8309C21.6289 30.3265 20.528 29.5262 20.7067 28.4821L21.3446 24.7609C21.4177 24.3465 21.2796 23.92 20.9749 23.6275L18.2733 20.9909C17.5136 20.2515 17.9321 18.9596 18.9842 18.8053L22.7217 18.2609C23.1402 18.2 23.4977 17.94 23.6846 17.5581L25.3542 14.174C25.8214 13.2193 27.1783 13.2193 27.6496 14.174Z" fill="#FFFEEB"/>
<path d="M21.9581 41.0962L18.1028 50.9843L13.0246 46.9746L6.56934 46.4912L11.4484 33.9746C12.3665 35.7662 12.2893 38.5937 13.8534 39.7312C15.5515 40.9662 18.5903 39.7109 20.6337 40.373C21.0887 40.5193 21.5234 40.7834 21.9581 41.0962Z" fill="#3980E5"/>
<path d="M46.4266 46.4912L39.9713 46.9746L34.8932 50.9843L31.0378 41.0962C31.4685 40.7834 31.9072 40.5193 32.3582 40.373C34.3975 39.7068 37.4403 40.9662 39.1385 39.7312C40.7025 38.5977 40.6253 35.7662 41.5435 33.9746L46.4266 46.4912Z" fill="#3980E5"/>
</svg>
