<svg width="44" height="44" viewBox="0 0 44 44" fill="none" xmlns="http://www.w3.org/2000/svg">
<path d="M36.667 4.125H7.33366C4.54922 4.125 2.29199 6.38223 2.29199 9.16667V34.8333C2.29199 37.6178 4.54922 39.875 7.33366 39.875H36.667C39.4514 39.875 41.7087 37.6178 41.7087 34.8333V9.16667C41.7087 6.38223 39.4514 4.125 36.667 4.125Z" fill="#1F95F8"/>
<path d="M9.16695 23.3751C8.88208 23.3751 8.60425 23.2866 8.37185 23.1219C8.13944 22.9572 7.96394 22.7243 7.86959 22.4555C7.77525 22.1867 7.76671 21.8953 7.84517 21.6214C7.92363 21.3476 8.08521 21.1049 8.30757 20.9268L16.366 14.4806C16.9212 14.0362 17.6083 13.7889 18.3193 13.7776C19.0304 13.7662 19.725 13.9915 20.2941 14.4179L25.3554 18.2144C25.4365 18.2755 25.5355 18.3078 25.637 18.3064C25.7385 18.3049 25.8366 18.2697 25.9158 18.2063L33.9742 11.7601C34.115 11.646 34.277 11.5607 34.4509 11.5094C34.6248 11.4581 34.8071 11.4416 34.9873 11.461C35.1676 11.4804 35.3422 11.5352 35.5012 11.6224C35.6602 11.7095 35.8003 11.8272 35.9136 11.9687C36.0269 12.1102 36.1111 12.2728 36.1614 12.447C36.2117 12.6211 36.227 12.8035 36.2065 12.9837C36.186 13.1638 36.13 13.3381 36.0419 13.4965C35.9538 13.6549 35.8352 13.7944 35.693 13.9068L27.6346 20.353C27.0794 20.7974 26.3923 21.0447 25.6812 21.056C24.9702 21.0674 24.2756 20.8421 23.7065 20.4157L18.6451 16.6192C18.564 16.5583 18.465 16.5261 18.3636 16.5276C18.2622 16.529 18.1641 16.5641 18.0848 16.6273L10.0263 23.0735C9.78267 23.2691 9.47944 23.3756 9.16695 23.3751Z" fill="#F3F5F7"/>
<path d="M9.16699 32.5417C8.80235 32.5416 8.45267 32.3967 8.19483 32.1388C7.93699 31.881 7.79209 31.5313 7.79199 31.1667V27.5C7.79199 27.1353 7.93686 26.7856 8.19472 26.5277C8.45258 26.2699 8.80232 26.125 9.16699 26.125C9.53166 26.125 9.8814 26.2699 10.1393 26.5277C10.3971 26.7856 10.542 27.1353 10.542 27.5V31.1667C10.5419 31.5313 10.397 31.881 10.1392 32.1388C9.88132 32.3967 9.53164 32.5416 9.16699 32.5417Z" fill="#F3F5F7"/>
<path d="M15.584 32.5418C15.2193 32.5417 14.8697 32.3968 14.6118 32.139C14.354 31.8812 14.2091 31.5315 14.209 31.1668V23.8335C14.209 23.4688 14.3538 23.1191 14.6117 22.8612C14.8696 22.6034 15.2193 22.4585 15.584 22.4585C15.9487 22.4585 16.2984 22.6034 16.5563 22.8612C16.8141 23.1191 16.959 23.4688 16.959 23.8335V31.1668C16.9589 31.5315 16.814 31.8812 16.5561 32.139C16.2983 32.3968 15.9486 32.5417 15.584 32.5418Z" fill="#F3F5F7"/>
<path d="M34.834 32.542C34.4693 32.5419 34.1197 32.397 33.8618 32.1392C33.604 31.8813 33.4591 31.5316 33.459 31.167V20.167C33.459 19.8023 33.6038 19.4526 33.8617 19.1947C34.1196 18.9369 34.4693 18.792 34.834 18.792C35.1987 18.792 35.5484 18.9369 35.8063 19.1947C36.0641 19.4526 36.209 19.8023 36.209 20.167V31.167C36.2089 31.5316 36.064 31.8813 35.8061 32.1392C35.5483 32.397 35.1986 32.5419 34.834 32.542Z" fill="#F3F5F7"/>
<path d="M28.417 32.5418C28.0523 32.5417 27.7027 32.3968 27.4448 32.139C27.187 31.8812 27.0421 31.5315 27.042 31.1668V23.8335C27.042 23.4688 27.1869 23.1191 27.4447 22.8612C27.7026 22.6034 28.0523 22.4585 28.417 22.4585C28.7817 22.4585 29.1314 22.6034 29.3893 22.8612C29.6471 23.1191 29.792 23.4688 29.792 23.8335V31.1668C29.7919 31.5315 29.647 31.8812 29.3892 32.139C29.1313 32.3968 28.7816 32.5417 28.417 32.5418Z" fill="#F3F5F7"/>
<path d="M22 32.542C21.6354 32.5419 21.2857 32.397 21.0278 32.1392C20.77 31.8813 20.6251 31.5316 20.625 31.167V25.667C20.625 25.3023 20.7699 24.9526 21.0277 24.6947C21.2856 24.4369 21.6353 24.292 22 24.292C22.3647 24.292 22.7144 24.4369 22.9723 24.6947C23.2301 24.9526 23.375 25.3023 23.375 25.667V31.167C23.3749 31.5316 23.23 31.8813 22.9722 32.1392C22.7143 32.397 22.3646 32.5419 22 32.542Z" fill="#F3F5F7"/>
</svg>
