<svg width="40" height="40" viewBox="0 0 40 40" fill="none" xmlns="http://www.w3.org/2000/svg">
<path d="M3.75 37.5C3.41855 37.4998 3.10073 37.368 2.86636 37.1336C2.63199 36.8993 2.50022 36.5815 2.5 36.25V3.75C2.5 3.41848 2.6317 3.10054 2.86612 2.86612C3.10054 2.6317 3.41848 2.5 3.75 2.5C4.08152 2.5 4.39946 2.6317 4.63388 2.86612C4.8683 3.10054 5 3.41848 5 3.75V35H36.25C36.5815 35 36.8995 35.1317 37.1339 35.3661C37.3683 35.6005 37.5 35.9185 37.5 36.25C37.5 36.5815 37.3683 36.8995 37.1339 37.1339C36.8995 37.3683 36.5815 37.5 36.25 37.5H3.75Z" fill="#3E4B5A"/>
<path d="M8.75 37.5C8.41855 37.4998 8.10073 37.368 7.86636 37.1336C7.63199 36.8993 7.50022 36.5815 7.5 36.25V35C7.5 34.6685 7.6317 34.3505 7.86612 34.1161C8.10054 33.8817 8.41848 33.75 8.75 33.75C9.08152 33.75 9.39946 33.8817 9.63388 34.1161C9.8683 34.3505 10 34.6685 10 35V36.25C9.99978 36.5815 9.86801 36.8993 9.63364 37.1336C9.39927 37.368 9.08145 37.4998 8.75 37.5Z" fill="#3E4B5A"/>
<path d="M13.75 37.5C13.4185 37.4998 13.1007 37.368 12.8664 37.1336C12.632 36.8993 12.5002 36.5815 12.5 36.25V35C12.5 34.6685 12.6317 34.3505 12.8661 34.1161C13.1005 33.8817 13.4185 33.75 13.75 33.75C14.0815 33.75 14.3995 33.8817 14.6339 34.1161C14.8683 34.3505 15 34.6685 15 35V36.25C14.9998 36.5815 14.868 36.8993 14.6336 37.1336C14.3993 37.368 14.0815 37.4998 13.75 37.5Z" fill="#3E4B5A"/>
<path d="M18.75 37.5C18.4185 37.4998 18.1007 37.368 17.8664 37.1336C17.632 36.8993 17.5002 36.5815 17.5 36.25V35C17.5 34.6685 17.6317 34.3505 17.8661 34.1161C18.1005 33.8817 18.4185 33.75 18.75 33.75C19.0815 33.75 19.3995 33.8817 19.6339 34.1161C19.8683 34.3505 20 34.6685 20 35V36.25C19.9998 36.5815 19.868 36.8993 19.6336 37.1336C19.3993 37.368 19.0815 37.4998 18.75 37.5Z" fill="#3E4B5A"/>
<path d="M23.75 37.5C23.4185 37.4998 23.1007 37.368 22.8664 37.1336C22.632 36.8993 22.5002 36.5815 22.5 36.25V35C22.5 34.6685 22.6317 34.3505 22.8661 34.1161C23.1005 33.8817 23.4185 33.75 23.75 33.75C24.0815 33.75 24.3995 33.8817 24.6339 34.1161C24.8683 34.3505 25 34.6685 25 35V36.25C24.9998 36.5815 24.868 36.8993 24.6336 37.1336C24.3993 37.368 24.0815 37.4998 23.75 37.5Z" fill="#3E4B5A"/>
<path d="M28.75 37.5C28.4185 37.4998 28.1007 37.368 27.8664 37.1336C27.632 36.8993 27.5002 36.5815 27.5 36.25V35C27.5 34.6685 27.6317 34.3505 27.8661 34.1161C28.1005 33.8817 28.4185 33.75 28.75 33.75C29.0815 33.75 29.3995 33.8817 29.6339 34.1161C29.8683 34.3505 30 34.6685 30 35V36.25C29.9998 36.5815 29.868 36.8993 29.6336 37.1336C29.3993 37.368 29.0815 37.4998 28.75 37.5Z" fill="#3E4B5A"/>
<path d="M33.75 37.5C33.4185 37.4998 33.1007 37.368 32.8664 37.1336C32.632 36.8993 32.5002 36.5815 32.5 36.25V35C32.5 34.6685 32.6317 34.3505 32.8661 34.1161C33.1005 33.8817 33.4185 33.75 33.75 33.75C34.0815 33.75 34.3995 33.8817 34.6339 34.1161C34.8683 34.3505 35 34.6685 35 35V36.25C34.9998 36.5815 34.868 36.8993 34.6336 37.1336C34.3993 37.368 34.0815 37.4998 33.75 37.5Z" fill="#3E4B5A"/>
<path d="M4.375 32.5C4.04348 32.5 3.72554 32.3683 3.49112 32.1339C3.2567 31.8995 3.125 31.5815 3.125 31.25C3.125 30.9185 3.2567 30.6005 3.49112 30.3661C3.72554 30.1317 4.04348 30 4.375 30H5.625C5.95652 30 6.27446 30.1317 6.50888 30.3661C6.7433 30.6005 6.875 30.9185 6.875 31.25C6.875 31.5815 6.7433 31.8995 6.50888 32.1339C6.27446 32.3683 5.95652 32.5 5.625 32.5H4.375Z" fill="#3E4B5A"/>
<path d="M4.375 27.5C4.04348 27.5 3.72554 27.3683 3.49112 27.1339C3.2567 26.8995 3.125 26.5815 3.125 26.25C3.125 25.9185 3.2567 25.6005 3.49112 25.3661C3.72554 25.1317 4.04348 25 4.375 25H5.625C5.95652 25 6.27446 25.1317 6.50888 25.3661C6.7433 25.6005 6.875 25.9185 6.875 26.25C6.875 26.5815 6.7433 26.8995 6.50888 27.1339C6.27446 27.3683 5.95652 27.5 5.625 27.5H4.375Z" fill="#3E4B5A"/>
<path d="M4.375 22.5C4.04348 22.5 3.72554 22.3683 3.49112 22.1339C3.2567 21.8995 3.125 21.5815 3.125 21.25C3.125 20.9185 3.2567 20.6005 3.49112 20.3661C3.72554 20.1317 4.04348 20 4.375 20H5.625C5.95652 20 6.27446 20.1317 6.50888 20.3661C6.7433 20.6005 6.875 20.9185 6.875 21.25C6.875 21.5815 6.7433 21.8995 6.50888 22.1339C6.27446 22.3683 5.95652 22.5 5.625 22.5H4.375Z" fill="#3E4B5A"/>
<path d="M4.375 17.5C4.04348 17.5 3.72554 17.3683 3.49112 17.1339C3.2567 16.8995 3.125 16.5815 3.125 16.25C3.125 15.9185 3.2567 15.6005 3.49112 15.3661C3.72554 15.1317 4.04348 15 4.375 15H5.625C5.95652 15 6.27446 15.1317 6.50888 15.3661C6.7433 15.6005 6.875 15.9185 6.875 16.25C6.875 16.5815 6.7433 16.8995 6.50888 17.1339C6.27446 17.3683 5.95652 17.5 5.625 17.5H4.375Z" fill="#3E4B5A"/>
<path d="M4.375 12.5C4.04348 12.5 3.72554 12.3683 3.49112 12.1339C3.2567 11.8995 3.125 11.5815 3.125 11.25C3.125 10.9185 3.2567 10.6005 3.49112 10.3661C3.72554 10.1317 4.04348 10 4.375 10H5.625C5.95652 10 6.27446 10.1317 6.50888 10.3661C6.7433 10.6005 6.875 10.9185 6.875 11.25C6.875 11.5815 6.7433 11.8995 6.50888 12.1339C6.27446 12.3683 5.95652 12.5 5.625 12.5H4.375Z" fill="#3E4B5A"/>
<path d="M4.375 7.5C4.04348 7.5 3.72554 7.3683 3.49112 7.13388C3.2567 6.89946 3.125 6.58152 3.125 6.25C3.125 5.91848 3.2567 5.60054 3.49112 5.36612C3.72554 5.1317 4.04348 5 4.375 5H5.625C5.95652 5 6.27446 5.1317 6.50888 5.36612C6.7433 5.60054 6.875 5.91848 6.875 6.25C6.875 6.58152 6.7433 6.89946 6.50888 7.13388C6.27446 7.3683 5.95652 7.5 5.625 7.5H4.375Z" fill="#3E4B5A"/>
<path d="M8.75 6.25C8.41848 6.25 8.10054 6.1183 7.86612 5.88388C7.6317 5.64946 7.5 5.33152 7.5 5C7.5 4.66848 7.6317 4.35054 7.86612 4.11612C8.10054 3.8817 8.41848 3.75 8.75 3.75H12.5C12.8315 3.75 13.1495 3.8817 13.3839 4.11612C13.6183 4.35054 13.75 4.66848 13.75 5C13.75 5.33152 13.6183 5.64946 13.3839 5.88388C13.1495 6.1183 12.8315 6.25 12.5 6.25H8.75Z" fill="#54A0FF"/>
<path d="M8.75 10C8.41848 10 8.10054 9.8683 7.86612 9.63388C7.6317 9.39946 7.5 9.08152 7.5 8.75C7.5 8.41848 7.6317 8.10054 7.86612 7.86612C8.10054 7.6317 8.41848 7.5 8.75 7.5H17.5C17.8315 7.5 18.1495 7.6317 18.3839 7.86612C18.6183 8.10054 18.75 8.41848 18.75 8.75C18.75 9.08152 18.6183 9.39946 18.3839 9.63388C18.1495 9.8683 17.8315 10 17.5 10H8.75Z" fill="#54A0FF"/>
<path d="M16.25 6.25C15.9185 6.25 15.6005 6.1183 15.3661 5.88388C15.1317 5.64946 15 5.33152 15 5C15 4.66848 15.1317 4.35054 15.3661 4.11612C15.6005 3.8817 15.9185 3.75 16.25 3.75H17.5C17.8315 3.75 18.1495 3.8817 18.3839 4.11612C18.6183 4.35054 18.75 4.66848 18.75 5C18.75 5.33152 18.6183 5.64946 18.3839 5.88388C18.1495 6.1183 17.8315 6.25 17.5 6.25H16.25Z" fill="#54A0FF"/>
<path d="M31.7666 28.75C31.4351 28.75 31.1171 28.6183 30.8827 28.3839C30.6483 28.1495 30.5166 27.8315 30.5166 27.5C30.5166 27.1685 30.6483 26.8505 30.8827 26.6161C31.1171 26.3817 31.4351 26.25 31.7666 26.25H35.5166C35.8481 26.25 36.1661 26.3817 36.4005 26.6161C36.6349 26.8505 36.7666 27.1685 36.7666 27.5C36.7666 27.8315 36.6349 28.1495 36.4005 28.3839C36.1661 28.6183 35.8481 28.75 35.5166 28.75H31.7666Z" fill="#FFDE50"/>
<path d="M26.7666 32.5C26.4351 32.5 26.1171 32.3683 25.8827 32.1339C25.6483 31.8995 25.5166 31.5815 25.5166 31.25C25.5166 30.9185 25.6483 30.6005 25.8827 30.3661C26.1171 30.1317 26.4351 30 26.7666 30H35.5166C35.8481 30 36.1661 30.1317 36.4005 30.3661C36.6349 30.6005 36.7666 30.9185 36.7666 31.25C36.7666 31.5815 36.6349 31.8995 36.4005 32.1339C36.1661 32.3683 35.8481 32.5 35.5166 32.5H26.7666Z" fill="#FFDE50"/>
<path d="M27.2822 28.75C26.9507 28.75 26.6328 28.6183 26.3983 28.3839C26.1639 28.1495 26.0322 27.8315 26.0322 27.5C26.0322 27.1685 26.1639 26.8505 26.3983 26.6161C26.6328 26.3817 26.9507 26.25 27.2822 26.25H28.5322C28.8637 26.25 29.1817 26.3817 29.4161 26.6161C29.6505 26.8505 29.7822 27.1685 29.7822 27.5C29.7822 27.8315 29.6505 28.1495 29.4161 28.3839C29.1817 28.6183 28.8637 28.75 28.5322 28.75H27.2822Z" fill="#FFDE50"/>
<path d="M9.99993 20.0002C9.75271 20.0002 9.51104 19.9269 9.30549 19.7896C9.09993 19.6523 8.93972 19.457 8.84513 19.2286C8.75053 19.0002 8.72579 18.7489 8.77403 18.5064C8.82228 18.264 8.94135 18.0413 9.11618 17.8665L14.1162 12.8665C14.3288 12.6536 14.6111 12.5247 14.9112 12.5034C15.2112 12.4821 15.5089 12.5699 15.7495 12.7505L19.8828 15.8499L29.1162 6.61648C29.2314 6.50006 29.3687 6.40781 29.5201 6.34513C29.6714 6.28246 29.8337 6.25062 29.9975 6.25148C30.1913 6.25135 30.3826 6.29561 30.5566 6.38087L35.5579 8.88212C35.705 8.95527 35.8363 9.05672 35.9442 9.18066C36.0521 9.30461 36.1345 9.44862 36.1867 9.60446C36.2389 9.76029 36.2598 9.92488 36.2483 10.0888C36.2368 10.2528 36.1931 10.4128 36.1197 10.5598C36.0463 10.7069 35.9446 10.838 35.8204 10.9456C35.6963 11.0533 35.5521 11.1354 35.3962 11.1873C35.2402 11.2392 35.0756 11.2598 34.9117 11.248C34.7478 11.2362 34.5878 11.1922 34.4409 11.1184L30.2477 9.02123L20.8837 18.384C20.6711 18.5968 20.3888 18.7258 20.0887 18.7471C19.7886 18.7684 19.4909 18.6806 19.2504 18.4999L15.1171 15.4006L10.8837 19.634C10.7678 19.7503 10.6301 19.8426 10.4784 19.9055C10.3267 19.9683 10.1641 20.0005 9.99993 20.0002Z" fill="#FFDE50"/>
<path d="M9.99987 28.7498C9.74087 28.7496 9.4883 28.6691 9.27705 28.5192C9.0658 28.3694 8.90629 28.1576 8.82053 27.9133C8.73478 27.6689 8.72702 27.4039 8.79833 27.1549C8.86964 26.9059 9.01649 26.6852 9.21862 26.5232L15.4686 21.5232C15.6905 21.346 15.9659 21.2492 16.2499 21.2485C16.521 21.2482 16.7848 21.337 17.0006 21.5012L21.1778 24.6335L32.9137 14.0708C33.1421 13.8631 33.4399 13.7482 33.7487 13.7485C34.0017 13.7484 34.2488 13.825 34.4574 13.9682C34.6659 14.1114 34.8262 14.3145 34.9169 14.5507C35.0076 14.7869 35.0246 15.0451 34.9655 15.2911C34.9064 15.5371 34.7741 15.7594 34.5861 15.9287L22.0861 27.1787C21.8708 27.3726 21.5948 27.4856 21.3053 27.4985C21.0159 27.5114 20.7309 27.4234 20.4992 27.2495L16.2743 24.0806L10.7811 28.4764C10.5597 28.6543 10.2839 28.7508 9.99987 28.7498Z" fill="#54A0FF"/>
</svg>
