<svg width="40" height="40" viewBox="0 0 40 40" fill="none" xmlns="http://www.w3.org/2000/svg">
<path d="M37.9044 20.9362C37.6579 25.6103 35.594 30.0029 32.1533 33.1762C28.7125 36.3495 24.1676 38.052 19.4888 37.9202C14.9281 37.7432 10.6021 35.8522 7.37478 32.6248C4.14746 29.3975 2.25643 25.0715 2.07938 20.5108C1.94763 15.832 3.65013 11.2871 6.8234 7.84636C9.99667 4.40561 14.3893 2.34168 19.0634 2.09518C19.1852 2.09131 19.3066 2.11201 19.4202 2.15602C19.5339 2.20004 19.6375 2.26649 19.725 2.35141C19.8124 2.43632 19.8818 2.53797 19.9291 2.65029C19.9765 2.76261 20.0007 2.8833 20.0004 3.00518V10.1889C19.9965 10.416 19.9071 10.6334 19.75 10.7976C19.593 10.9618 19.3798 11.0607 19.153 11.0748C16.9327 11.2867 14.871 12.3182 13.3703 13.9682C11.8695 15.6182 11.0374 17.7681 11.0363 19.9985C11.0719 22.3651 12.0278 24.6247 13.7013 26.2983C15.3749 27.9719 17.6346 28.9278 20.0011 28.9633C22.2315 28.9622 24.3814 28.1301 26.0314 26.6293C27.6814 25.1286 28.713 23.0669 28.9249 20.8466C28.9389 20.6198 29.0379 20.4067 29.2021 20.2496C29.3662 20.0926 29.5836 20.0032 29.8108 19.9993H36.9945C37.1164 19.9989 37.2371 20.0232 37.3494 20.0705C37.4617 20.1178 37.5633 20.1873 37.6482 20.2747C37.7331 20.3621 37.7996 20.4657 37.8436 20.5794C37.8876 20.693 37.9083 20.8144 37.9044 20.9362Z" fill="#0DB561"/>
<path d="M30 16.2498C29.6685 16.2497 29.3506 16.118 29.1162 15.8836C28.8818 15.6492 28.7501 15.3313 28.75 14.9998V6.6665C28.75 6.33498 28.8817 6.01704 29.1161 5.78262C29.3505 5.5482 29.6685 5.4165 30 5.4165C30.3315 5.4165 30.6495 5.5482 30.8839 5.78262C31.1183 6.01704 31.25 6.33498 31.25 6.6665V14.9998C31.2499 15.3313 31.1182 15.6492 30.8838 15.8836C30.6494 16.118 30.3315 16.2497 30 16.2498Z" fill="#FFCB27"/>
<path d="M25 16.25C24.6685 16.2499 24.3506 16.1182 24.1162 15.8838C23.8818 15.6494 23.7501 15.3315 23.75 15V10C23.75 9.66848 23.8817 9.35054 24.1161 9.11612C24.3505 8.8817 24.6685 8.75 25 8.75C25.3315 8.75 25.6495 8.8817 25.8839 9.11612C26.1183 9.35054 26.25 9.66848 26.25 10V15C26.2499 15.3315 26.1182 15.6494 25.8838 15.8838C25.6494 16.1182 25.3315 16.2499 25 16.25Z" fill="#FFCB27"/>
<path d="M35 16.25C34.6685 16.2499 34.3506 16.1182 34.1162 15.8838C33.8818 15.6494 33.7501 15.3315 33.75 15V10C33.75 9.66848 33.8817 9.35054 34.1161 9.11612C34.3505 8.8817 34.6685 8.75 35 8.75C35.3315 8.75 35.6495 8.8817 35.8839 9.11612C36.1183 9.35054 36.25 9.66848 36.25 10V15C36.2499 15.3315 36.1182 15.6494 35.8838 15.8838C35.6494 16.1182 35.3315 16.2499 35 16.25Z" fill="#FFCB27"/>
<path d="M36.6663 16.25H23.333C23.0015 16.25 22.6835 16.1183 22.4491 15.8839C22.2147 15.6495 22.083 15.3315 22.083 15C22.083 14.6685 22.2147 14.3505 22.4491 14.1161C22.6835 13.8817 23.0015 13.75 23.333 13.75H36.6663C36.9979 13.75 37.3158 13.8817 37.5502 14.1161C37.7846 14.3505 37.9163 14.6685 37.9163 15C37.9163 15.3315 37.7846 15.6495 37.5502 15.8839C37.3158 16.1183 36.9979 16.25 36.6663 16.25Z" fill="#FFCB27"/>
</svg>
