<svg width="41" height="41" viewBox="0 0 41 41" fill="none" xmlns="http://www.w3.org/2000/svg">
<path d="M37.2593 4.22803L36.3879 11.198C36.3537 11.4741 36.2428 11.735 36.0677 11.9512C35.8927 12.1673 35.6605 12.33 35.3975 12.4208C35.1346 12.5115 34.8515 12.5267 34.5803 12.4646C34.3092 12.4024 34.061 12.2655 33.8638 12.0693L32.5185 10.724L23.8832 19.5005C23.6219 19.761 23.2741 19.9166 22.9057 19.9379C22.5373 19.9591 22.1739 19.8446 21.8844 19.6158L16.298 15.1058C16.1474 14.9885 15.958 14.9325 15.7678 14.9492C15.5777 14.9658 15.4008 15.0538 15.2729 15.1955L7.52162 23.844C7.27458 24.1221 6.93219 24.2975 6.5621 24.3355C6.19201 24.3734 5.82115 24.2712 5.52279 24.049L4.31849 23.1393C4.04418 22.9352 3.85027 22.6412 3.77061 22.3086C3.69096 21.9761 3.73062 21.6262 3.88267 21.3199C3.92896 21.1967 3.99852 21.0837 4.08756 20.9868L13.7739 9.71178C14.0246 9.42112 14.3781 9.23877 14.7603 9.20294C15.1425 9.16711 15.5237 9.28059 15.8241 9.5196L21.833 14.2987C21.9767 14.4166 22.1598 14.4756 22.3453 14.4637C22.5308 14.4518 22.7049 14.3699 22.8324 14.2346L29.3027 7.50803L28.6746 6.88022L27.7649 5.97053C27.5484 5.75528 27.4048 5.47764 27.3543 5.1766C27.3037 4.87556 27.3487 4.56624 27.483 4.2921C27.5838 4.0621 27.7435 3.8628 27.946 3.71431C28.1485 3.56583 28.3867 3.47344 28.6363 3.44647L35.6064 2.57522C35.9409 2.53274 36.2798 2.60624 36.5666 2.78345C36.8534 2.96066 37.0707 3.23086 37.1824 3.54897C37.2666 3.76478 37.2931 3.99884 37.2593 4.22803Z" fill="#F91E89"/>
<path d="M37.1825 3.54897L36.388 9.91678C36.3538 10.1928 36.2429 10.4538 36.0679 10.6699C35.8928 10.8861 35.6606 11.0488 35.3977 11.1395C35.1347 11.2303 34.8516 11.2455 34.5805 11.1833C34.3094 11.1212 34.0611 10.9842 33.8639 10.788L32.5186 9.44272L23.8833 18.2193C23.622 18.4798 23.2742 18.6354 22.9058 18.6566C22.5374 18.6779 22.1741 18.5633 21.8845 18.3346L16.2981 13.8246C16.1475 13.7073 15.9581 13.6513 15.768 13.6679C15.5778 13.6846 15.401 13.7726 15.2731 13.9143L7.52176 22.5627C7.27472 22.8409 6.93233 23.0163 6.56224 23.0542C6.19215 23.0922 5.82129 22.99 5.52293 22.7677L4.31863 21.858C4.13195 21.7166 3.9824 21.5319 3.88281 21.3199C3.9291 21.1968 3.99866 21.0837 4.0877 20.9868L13.7741 9.71178C14.0248 9.42112 14.3783 9.23877 14.7604 9.20294C15.1426 9.16711 15.5238 9.28059 15.8242 9.5196L21.8331 14.2987C21.9768 14.4166 22.1599 14.4756 22.3454 14.4637C22.531 14.4518 22.7051 14.3699 22.8325 14.2346L29.3028 7.50803L29.9178 6.72647L27.7652 4.68928C27.6489 4.57423 27.5536 4.43983 27.4833 4.2921C27.5841 4.0621 27.7439 3.8628 27.9464 3.71431C28.1489 3.56583 28.387 3.47344 28.6367 3.44647L35.6066 2.57522C35.941 2.53274 36.2799 2.60624 36.5667 2.78345C36.8535 2.96066 37.0709 3.23086 37.1825 3.54897Z" fill="#FF5A9A"/>
<path d="M13.9849 29.2004L11.9524 28.5234C11.8907 28.502 11.836 28.4644 11.7941 28.4144C11.7521 28.3645 11.7245 28.3041 11.7142 28.2397C11.7039 28.1753 11.7112 28.1093 11.7354 28.0487C11.7596 27.9881 11.7998 27.9353 11.8517 27.8957C12.3551 27.454 12.7556 26.9074 13.0251 26.2942C13.2946 25.6811 13.4265 25.0164 13.4116 24.3469C13.4979 23.3025 13.1702 22.2661 12.4994 21.4611C11.8285 20.6561 10.8682 20.1469 9.82538 20.0435C8.78259 20.1469 7.82224 20.6561 7.15138 21.4611C6.48053 22.2661 6.15291 23.3025 6.23916 24.3469C6.22423 25.0164 6.35615 25.6811 6.62564 26.2942C6.89513 26.9074 7.29566 27.454 7.79906 27.8957C7.85094 27.9353 7.89114 27.9881 7.91536 28.0487C7.93958 28.1093 7.94692 28.1753 7.93659 28.2397C7.92626 28.3041 7.89866 28.3645 7.85671 28.4144C7.81477 28.4644 7.76006 28.502 7.69841 28.5234L5.66593 29.2004C5.17134 29.3651 4.71862 29.6357 4.3393 29.9933C3.95997 30.3509 3.66317 30.7868 3.46956 31.2709L3.04642 32.3287C3.00289 32.4375 2.98669 32.5554 2.99925 32.6719C3.0118 32.7885 3.05274 32.9002 3.11847 32.9972C3.18419 33.0943 3.27271 33.1738 3.37627 33.2287C3.47983 33.2836 3.59527 33.3123 3.7125 33.3123H15.9384C16.0556 33.3123 16.1711 33.2836 16.2746 33.2286C16.3782 33.1737 16.4666 33.0942 16.5324 32.9972C16.5981 32.9001 16.639 32.7884 16.6516 32.6719C16.6641 32.5554 16.6479 32.4375 16.6044 32.3287L16.1812 31.2709C15.9876 30.7869 15.6908 30.3509 15.3115 29.9933C14.9322 29.6357 14.4795 29.3651 13.9849 29.2004Z" fill="#FFC751"/>
<path d="M15.8523 30.6612C14.3542 31.1118 12.7652 31.1681 11.239 30.8248C9.71275 30.4814 8.30095 29.75 7.14015 28.7013L7.69553 28.5201C7.75795 28.5004 7.81369 28.4638 7.85653 28.4143C7.89937 28.3648 7.92764 28.3044 7.93819 28.2398C7.94874 28.1752 7.94116 28.109 7.91629 28.0484C7.89141 27.9879 7.85023 27.9354 7.79732 27.8969C7.29435 27.4553 6.89388 26.9092 6.62387 26.2967C6.35386 25.6843 6.22082 25.0202 6.23406 24.351C6.19477 23.4985 6.40961 22.6536 6.85132 21.9234C7.29304 21.1932 7.94171 20.6107 8.71504 20.2498C9.06928 20.1137 9.44574 20.0446 9.82524 20.0459C10.869 20.1488 11.8304 20.6578 12.5023 21.4631C13.1741 22.2685 13.5024 23.3057 13.4164 24.3509C13.4184 24.9396 13.3109 25.5235 13.0995 26.0729C12.8541 26.7811 12.4238 27.4109 11.8532 27.8969C11.8003 27.9354 11.7592 27.9879 11.7343 28.0484C11.7095 28.1089 11.7019 28.1752 11.7124 28.2397C11.723 28.3043 11.7512 28.3647 11.7941 28.4142C11.8369 28.4636 11.8926 28.5003 11.955 28.52L13.9829 29.1997C14.7579 29.4531 15.4194 29.9703 15.8523 30.6612Z" fill="#FFE059"/>
<path d="M13.4162 24.3514C13.4182 24.9401 13.3107 25.524 13.0993 26.0734C11.8888 25.6227 10.8326 24.8348 10.0557 23.8029C9.27871 22.771 8.81343 21.5383 8.71484 20.2503C9.06909 20.1142 9.44554 20.045 9.82505 20.0464C10.8688 20.1493 11.8303 20.6583 12.5021 21.4636C13.1739 22.269 13.5022 23.3062 13.4162 24.3514Z" fill="#FFF370"/>
<path d="M37.2929 33.3125H25.0544C24.9374 33.3118 24.8224 33.2824 24.7195 33.2269C24.6165 33.1714 24.5288 33.0915 24.4639 32.9942C24.399 32.8968 24.359 32.7851 24.3473 32.6687C24.3357 32.5524 24.3527 32.4349 24.397 32.3267L24.8164 31.2728C25.0082 30.7869 25.3045 30.3492 25.6845 29.9908C26.0644 29.6324 26.5186 29.362 27.0148 29.1989L28.4878 28.7003L29.0433 28.519C29.1058 28.4993 29.1615 28.4627 29.2043 28.4132C29.2472 28.3637 29.2755 28.3033 29.286 28.2387C29.2966 28.1741 29.289 28.1078 29.2641 28.0473C29.2392 27.9867 29.1981 27.9343 29.1452 27.8957C28.642 27.454 28.2415 26.9077 27.9714 26.295C27.7013 25.6824 27.5682 25.0182 27.5814 24.3488C27.5421 23.4961 27.7571 22.6509 28.1989 21.9205C28.6407 21.1901 29.2896 20.6075 30.0631 20.2465C30.4175 20.1103 30.7941 20.0411 31.1737 20.0425C32.2177 20.1454 33.1795 20.6545 33.8515 21.4601C34.5235 22.2657 34.8519 23.3032 34.7659 24.3488C34.7679 24.9376 34.6603 25.5217 34.4488 26.0712C34.2034 26.7797 33.773 27.4096 33.2022 27.8957C33.1493 27.9343 33.1082 27.9868 33.0833 28.0473C33.0585 28.1079 33.0509 28.1741 33.0614 28.2387C33.072 28.3033 33.1002 28.3637 33.1431 28.4132C33.1859 28.4627 33.2416 28.4993 33.304 28.5191L35.3325 29.199C36.1077 29.4524 36.7694 29.9697 37.2025 30.6609C37.334 30.8523 37.4441 31.0575 37.5309 31.2728L37.9503 32.3267C37.9946 32.435 38.0117 32.5524 38 32.6688C37.9884 32.7852 37.9483 32.8969 37.8835 32.9942C37.8186 33.0915 37.7308 33.1714 37.6278 33.2269C37.5249 33.2824 37.4099 33.3118 37.2929 33.3125Z" fill="#FFC751"/>
<path d="M28.7638 38.4375H12.2357C12.0769 38.438 11.9204 38.3994 11.7801 38.325C11.6397 38.2506 11.5199 38.1427 11.4312 38.0109C11.3425 37.8792 11.2877 37.7275 11.2716 37.5695C11.2555 37.4115 11.2786 37.252 11.3389 37.105L11.9025 35.6828C12.1655 35.0279 12.5674 34.4379 13.0806 33.9535C13.5937 33.4691 14.2059 33.1017 14.8748 32.8769L16.4382 32.3644L17.6297 31.9672C17.7134 31.937 17.7874 31.8847 17.8438 31.8159C17.9002 31.747 17.9369 31.6642 17.95 31.5762C17.9632 31.4882 17.9522 31.3982 17.9183 31.3159C17.8844 31.2336 17.8289 31.162 17.7576 31.1088C17.0779 30.5126 16.5374 29.7744 16.1743 28.9464C15.8113 28.1184 15.6345 27.2207 15.6566 26.3169C15.5861 25.0872 15.9181 23.868 16.6024 22.8439C17.2867 21.8197 18.286 21.0464 19.4491 20.6409C19.7917 20.5484 20.1449 20.501 20.4997 20.5C23.1777 20.5 25.3429 23.1009 25.3429 26.3169C25.352 27.3431 25.1194 28.357 24.6638 29.2766C24.3295 29.984 23.8441 30.6094 23.2418 31.1088C23.1705 31.162 23.115 31.2336 23.0811 31.3159C23.0472 31.3982 23.0363 31.4882 23.0494 31.5762C23.0625 31.6642 23.0992 31.747 23.1556 31.8159C23.212 31.8847 23.286 31.937 23.3697 31.9672L26.1246 32.8769C26.733 33.0786 27.2947 33.4002 27.7766 33.8227C28.2586 34.2453 28.6509 34.7601 28.9305 35.3369C28.9943 35.4522 29.0456 35.5675 29.0969 35.6828L29.6605 37.105C29.7208 37.2519 29.7439 37.4115 29.7278 37.5695C29.7117 37.7275 29.6569 37.8791 29.5682 38.0109C29.4796 38.1426 29.3598 38.2505 29.2194 38.3249C29.0791 38.3993 28.9226 38.438 28.7638 38.4375Z" fill="#229BFF"/>
<path d="M28.9306 35.3369C27.5274 36.1151 25.9482 36.5209 24.3436 36.5156C22.7879 36.5179 21.255 36.1411 19.8776 35.4178C18.5002 34.6945 17.3197 33.6464 16.4384 32.3644L17.6299 31.9672C17.7136 31.937 17.7876 31.8847 17.844 31.8159C17.9004 31.747 17.9371 31.6642 17.9502 31.5762C17.9633 31.4882 17.9524 31.3982 17.9185 31.3159C17.8846 31.2336 17.8291 31.162 17.7578 31.1088C17.0781 30.5126 16.5376 29.7744 16.1745 28.9464C15.8114 28.1184 15.6347 27.2207 15.6568 26.3169C15.5863 25.0872 15.9183 23.868 16.6026 22.8439C17.2869 21.8197 18.2862 21.0464 19.4493 20.6409C19.7918 20.5484 20.145 20.501 20.4999 20.5C23.1778 20.5 25.343 23.1009 25.343 26.3169C25.3521 27.3431 25.1195 28.357 24.6639 29.2766C24.3297 29.984 23.8443 30.6094 23.2419 31.1088C23.1707 31.162 23.1151 31.2336 23.0812 31.3159C23.0474 31.3982 23.0364 31.4882 23.0495 31.5762C23.0626 31.6642 23.0994 31.747 23.1558 31.8159C23.2122 31.8847 23.2861 31.937 23.3699 31.9672L26.1247 32.8769C26.7331 33.0786 27.2949 33.4002 27.7768 33.8227C28.2587 34.2453 28.6511 34.7601 28.9306 35.3369Z" fill="#48ACFF"/>
<path d="M25.3432 26.3169C25.3523 27.3431 25.1197 28.357 24.6641 29.2766C23.1145 28.9192 21.7321 28.0465 20.7429 26.8014C19.7537 25.5562 19.2164 24.0121 19.2188 22.4219C19.2165 21.8206 19.294 21.2218 19.4493 20.6409C19.7919 20.5484 20.1452 20.501 20.5 20.5C23.178 20.5 25.3432 23.1009 25.3432 26.3169Z" fill="#7CBAF7"/>
<path d="M37.2028 30.6608C35.7042 31.1115 34.1148 31.1678 32.5881 30.8244C31.0614 30.481 29.6492 29.7493 28.4881 28.7003L29.0436 28.519C29.106 28.4993 29.1618 28.4627 29.2046 28.4132C29.2475 28.3637 29.2757 28.3033 29.2863 28.2387C29.2968 28.1741 29.2893 28.1078 29.2644 28.0473C29.2395 27.9867 29.1983 27.9343 29.1454 27.8957C28.6423 27.454 28.2417 26.9077 27.9716 26.295C27.7016 25.6824 27.5685 25.0182 27.5817 24.3488C27.5424 23.4961 27.7573 22.6509 28.1992 21.9205C28.641 21.1901 29.2899 20.6075 30.0634 20.2465C30.4178 20.1103 30.7943 20.0411 31.1739 20.0425C32.218 20.1454 33.1797 20.6545 33.8518 21.4601C34.5238 22.2657 34.8522 23.3032 34.7662 24.3488C34.7681 24.9376 34.6606 25.5217 34.4491 26.0712C34.2037 26.7797 33.7732 27.4096 33.2025 27.8957C33.1496 27.9343 33.1084 27.9868 33.0836 28.0473C33.0587 28.1079 33.0512 28.1741 33.0617 28.2387C33.0723 28.3033 33.1005 28.3637 33.1433 28.4132C33.1862 28.4627 33.2419 28.4993 33.3043 28.5191L35.3328 29.199C36.108 29.4524 36.7697 29.9697 37.2028 30.6608Z" fill="#FFE059"/>
<path d="M34.7663 24.3488C34.7682 24.9376 34.6607 25.5217 34.4492 26.0712C33.2383 25.6204 32.1819 24.8323 31.4047 23.8001C30.6275 22.7679 30.1621 21.5348 30.0635 20.2465C30.4178 20.1103 30.7944 20.0411 31.174 20.0425C32.2181 20.1454 33.1798 20.6545 33.8518 21.4601C34.5239 22.2657 34.8523 23.3032 34.7663 24.3488Z" fill="#FFF370"/>
</svg>
