<svg width="42" height="42" viewBox="0 0 42 42" fill="none" xmlns="http://www.w3.org/2000/svg">
<path d="M36.4219 11.0381V36.75C36.419 37.3583 36.176 37.9408 35.7459 38.3709C35.3158 38.801 34.7333 39.044 34.125 39.0469H7.875C7.26673 39.044 6.6842 38.801 6.25408 38.3709C5.82396 37.9408 5.58104 37.3583 5.57812 36.75V5.25C5.58102 4.64173 5.82395 4.05919 6.25407 3.62907C6.68419 3.19895 7.26672 2.95603 7.875 2.95313H28.337C28.6369 2.95276 28.934 3.01171 29.211 3.12659C29.4881 3.24147 29.7397 3.41 29.9514 3.6225L35.7525 9.42375C36.1787 9.85326 36.4191 10.433 36.4219 11.0381Z" fill="#3E4B5A"/>
<path d="M36.4219 11.0381V11.4844H30.1875C29.5792 11.4815 28.9967 11.2385 28.5666 10.8084C28.1365 10.3783 27.8935 9.79577 27.8906 9.1875V2.95313H28.337C28.6369 2.95276 28.934 3.01171 29.211 3.12659C29.4881 3.24147 29.7397 3.41 29.9514 3.6225L35.7525 9.42375C36.1787 9.85326 36.4191 10.433 36.4219 11.0381Z" fill="#89B3CE"/>
<path d="M13.1248 27.2341C12.9302 27.2341 12.7399 27.1764 12.578 27.0682C12.4162 26.96 12.29 26.8063 12.2155 26.6265C12.1411 26.4466 12.1216 26.2487 12.1595 26.0578C12.1975 25.8668 12.2912 25.6915 12.4289 25.5538L17.6789 20.3038C17.8397 20.1428 18.0514 20.0426 18.2778 20.0202C18.5043 19.9977 18.7315 20.0545 18.9208 20.1808L22.1867 22.3584L28.1788 16.3663C28.3637 16.1828 28.6136 16.0801 28.8741 16.0806C29.1345 16.081 29.3841 16.1847 29.5683 16.3689C29.7524 16.553 29.8561 16.8026 29.8565 17.063C29.857 17.3235 29.7543 17.5735 29.5708 17.7583L23.0083 24.3208C22.8474 24.4818 22.6358 24.582 22.4093 24.6044C22.1828 24.6269 21.9556 24.5701 21.7663 24.4438L18.5004 22.2661L13.8208 26.9458C13.7295 27.0373 13.6211 27.1099 13.5016 27.1594C13.3822 27.2089 13.2541 27.2343 13.1248 27.2341Z" fill="#FFDE50"/>
<path d="M28.875 21.9844C28.6139 21.9843 28.3636 21.8806 28.179 21.696C27.9944 21.5114 27.8907 21.2611 27.8906 21V18.0469H24.9375C24.6764 18.0469 24.426 17.9432 24.2414 17.7586C24.0568 17.574 23.9531 17.3236 23.9531 17.0625C23.9531 16.8014 24.0568 16.551 24.2414 16.3664C24.426 16.1818 24.6764 16.0781 24.9375 16.0781H28.875C29.1361 16.0782 29.3864 16.1819 29.571 16.3665C29.7556 16.5511 29.8593 16.8014 29.8594 17.0625V21C29.8593 21.2611 29.7556 21.5114 29.571 21.696C29.3864 21.8806 29.1361 21.9843 28.875 21.9844Z" fill="#FFDE50"/>
<path d="M28.875 35.1094C28.6139 35.1093 28.3636 35.0056 28.179 34.821C27.9944 34.6364 27.8907 34.3861 27.8906 34.125V24.9375C27.8906 24.6764 27.9943 24.426 28.1789 24.2414C28.3635 24.0568 28.6139 23.9531 28.875 23.9531C29.1361 23.9531 29.3865 24.0568 29.5711 24.2414C29.7557 24.426 29.8594 24.6764 29.8594 24.9375V34.125C29.8593 34.3861 29.7556 34.6364 29.571 34.821C29.3864 35.0056 29.1361 35.1093 28.875 35.1094Z" fill="#54A0FF"/>
<path d="M23.625 35.1094C23.3639 35.1093 23.1136 35.0056 22.929 34.821C22.7444 34.6364 22.6407 34.3861 22.6406 34.125V26.25C22.6406 25.9889 22.7443 25.7385 22.9289 25.5539C23.1135 25.3693 23.3639 25.2656 23.625 25.2656C23.8861 25.2656 24.1365 25.3693 24.3211 25.5539C24.5057 25.7385 24.6094 25.9889 24.6094 26.25V34.125C24.6093 34.3861 24.5056 34.6364 24.321 34.821C24.1364 35.0056 23.8861 35.1093 23.625 35.1094Z" fill="#54A0FF"/>
<path d="M13.125 35.1093C12.8639 35.1092 12.6136 35.0054 12.429 34.8209C12.2444 34.6363 12.1407 34.3859 12.1406 34.1249V30.2515C12.1406 29.9904 12.2443 29.74 12.4289 29.5554C12.6135 29.3708 12.8639 29.2671 13.125 29.2671C13.3861 29.2671 13.6365 29.3708 13.8211 29.5554C14.0057 29.74 14.1094 29.9904 14.1094 30.2515V34.1249C14.1093 34.3859 14.0056 34.6363 13.821 34.8209C13.6364 35.0054 13.3861 35.1092 13.125 35.1093Z" fill="#54A0FF"/>
<path d="M18.375 35.1094C18.1139 35.1093 17.8636 35.0056 17.679 34.821C17.4944 34.6364 17.3907 34.3861 17.3906 34.125V27.5625C17.3906 27.3014 17.4943 27.051 17.6789 26.8664C17.8635 26.6818 18.1139 26.5781 18.375 26.5781C18.6361 26.5781 18.8865 26.6818 19.0711 26.8664C19.2557 27.051 19.3594 27.3014 19.3594 27.5625V34.125C19.3593 34.3861 19.2556 34.6364 19.071 34.821C18.8864 35.0056 18.6361 35.1093 18.375 35.1094Z" fill="#54A0FF"/>
<path d="M30.1875 35.1094H11.8125C11.5514 35.1094 11.301 35.0057 11.1164 34.8211C10.9318 34.6365 10.8281 34.3861 10.8281 34.125C10.8281 33.8639 10.9318 33.6135 11.1164 33.4289C11.301 33.2443 11.5514 33.1406 11.8125 33.1406H30.1875C30.4486 33.1406 30.699 33.2443 30.8836 33.4289C31.0682 33.6135 31.1719 33.8639 31.1719 34.125C31.1719 34.3861 31.0682 34.6365 30.8836 34.8211C30.699 35.0057 30.4486 35.1094 30.1875 35.1094Z" fill="#54A0FF"/>
<path d="M22.3125 8.85938H10.5C10.2389 8.85938 9.98855 8.75566 9.80394 8.57106C9.61934 8.38645 9.51563 8.13607 9.51562 7.875C9.51562 7.61393 9.61934 7.36355 9.80394 7.17894C9.98855 6.99434 10.2389 6.89063 10.5 6.89062H22.3125C22.5736 6.89063 22.824 6.99434 23.0086 7.17894C23.1932 7.36355 23.2969 7.61393 23.2969 7.875C23.2969 8.13607 23.1932 8.38645 23.0086 8.57106C22.824 8.75566 22.5736 8.85938 22.3125 8.85938Z" fill="#54A0FF"/>
<path d="M22.3125 12.7969H10.5C10.2389 12.7969 9.98855 12.6932 9.80394 12.5086C9.61934 12.324 9.51563 12.0736 9.51562 11.8125C9.51562 11.5514 9.61934 11.301 9.80394 11.1164C9.98855 10.9318 10.2389 10.8281 10.5 10.8281H22.3125C22.5736 10.8281 22.824 10.9318 23.0086 11.1164C23.1932 11.301 23.2969 11.5514 23.2969 11.8125C23.2969 12.0736 23.1932 12.324 23.0086 12.5086C22.824 12.6932 22.5736 12.7969 22.3125 12.7969Z" fill="#54A0FF"/>
<path d="M14.4375 16.7344H10.5C10.2389 16.7344 9.98855 16.6307 9.80394 16.4461C9.61934 16.2615 9.51563 16.0111 9.51562 15.75C9.51562 15.4889 9.61934 15.2385 9.80394 15.0539C9.98855 14.8693 10.2389 14.7656 10.5 14.7656H14.4375C14.6986 14.7656 14.949 14.8693 15.1336 15.0539C15.3182 15.2385 15.4219 15.4889 15.4219 15.75C15.4219 16.0111 15.3182 16.2615 15.1336 16.4461C14.949 16.6307 14.6986 16.7344 14.4375 16.7344Z" fill="#54A0FF"/>
</svg>
