<svg width="53" height="52" viewBox="0 0 53 52" fill="none" xmlns="http://www.w3.org/2000/svg">
<g clip-path="url(#clip0_279_5806)">
<path d="M1.20195 31.9931C-2.10071 18.0214 6.54825 4.01772 20.52 0.715052C34.4917 -2.58761 48.4953 6.06135 51.798 20.0331C55.1006 34.0048 46.4517 48.0084 32.48 51.3111C18.5083 54.6137 4.50461 45.9648 1.20195 31.9931Z" fill="white"/>
<path d="M28.45 33.7188C28.6937 33.5563 28.9375 33.4751 29.1812 33.4751C29.5062 33.4751 29.8312 33.6376 29.9937 33.8813L30.3188 34.3688C30.4813 34.6126 30.5625 34.8563 30.5625 35.1001C30.5625 35.3438 30.4 35.5876 30.1563 35.8313L30.075 35.9126C29.9125 36.0751 29.6688 36.1563 29.425 36.1563C29.1 36.1563 28.775 35.9938 28.6125 35.7501L28.2875 35.2626C28.125 35.0188 28.0437 34.7751 28.0437 34.5313C28.0437 34.1251 28.2062 33.8813 28.45 33.7188Z" fill="#FFAA39"/>
<path d="M29.6688 30.4688C29.9125 30.3063 30.1563 30.2251 30.4 30.2251C30.725 30.2251 31.05 30.3876 31.2125 30.6313L33 32.8251C33.325 33.3126 33.2438 33.9626 32.8375 34.2876L32.7563 34.3688C32.5938 34.5313 32.35 34.6126 32.1063 34.6126C31.7813 34.6126 31.4563 34.4501 31.2938 34.2063L29.5063 32.0126C29.1813 31.5251 29.2625 30.8751 29.6688 30.4688Z" fill="#FFAA39"/>
<path d="M32.9188 29.7376C33.1625 29.4939 33.4063 29.4939 33.65 29.4939C33.975 29.4939 34.2188 29.6564 34.4625 29.9001L34.95 30.5501L35.0313 30.6314L35.1938 30.8751L35.4375 31.1189C35.6 31.3626 35.6813 31.6064 35.6813 31.8501C35.6813 32.0939 35.5188 32.3376 35.275 32.5001L35.1938 32.5814C35.0313 32.7439 34.7875 32.8251 34.5438 32.8251C34.2188 32.8251 33.8938 32.6626 33.7313 32.4189L32.7563 31.2001C32.35 30.7126 32.4313 30.0626 32.9188 29.7376Z" fill="#FFAA39"/>
<path d="M35.4375 29.2501C35.4375 28.9251 35.6 28.6814 35.8437 28.5189C36.0062 28.3564 36.25 28.2751 36.4937 28.2751C36.8187 28.2751 37.1437 28.4376 37.3062 28.6814L37.55 28.9251C37.7125 29.1689 37.7937 29.4126 37.7937 29.7376C37.7937 30.0626 37.6312 30.3064 37.3875 30.4689C37.225 30.6314 36.9812 30.7126 36.7375 30.7126C36.4125 30.7126 36.0875 30.5501 35.925 30.3064L35.6812 29.9814C35.4375 29.7376 35.4375 29.4939 35.4375 29.2501Z" fill="#FFAA39"/>
<path d="M38.6062 15.925L44.9437 23.2375L40.8 26L35.275 18.2L38.6062 15.925Z" fill="#FFAA39"/>
<path d="M14.8 29.4126L21.4625 24.8626H24.225C24.3062 24.8626 24.3875 24.8626 24.3875 24.7814C25.3625 24.2939 26.0937 23.1564 26.4187 22.5064L26.5 22.3439H28.9375V22.5064C29.425 24.6189 31.1312 25.1876 31.8625 25.2689C31.8625 25.2689 31.9437 25.2689 32.025 25.2689C32.1875 25.2689 32.35 25.1876 32.5125 25.1064C32.675 24.9439 32.7562 24.7814 32.7562 24.5376V21.4501C32.7562 20.9626 32.5125 20.5564 32.1875 20.3126L30.725 19.1751L31.1312 19.0939C31.7812 19.0126 32.4312 18.9314 33.0812 18.9314C33.5687 18.9314 34.0562 18.9314 34.4625 19.0126H34.5437L39.2562 25.5939L39.175 25.6751C38.6875 26.4876 38.1187 27.1376 37.55 27.6251L37.4687 27.7064L37.3875 27.6251C37.1437 27.4626 36.8187 27.3814 36.4937 27.3814C36.0875 27.3814 35.6812 27.5439 35.275 27.7876C35.0312 28.0314 34.7875 28.2751 34.7062 28.6001L34.625 28.7626L34.4625 28.6814C34.3 28.6001 34.0562 28.5189 33.8125 28.5189H33.5687C33.1625 28.5189 32.7562 28.6814 32.4312 28.9251L32.35 29.0064C32.1062 29.1689 31.9437 29.4126 31.8625 29.6564L31.7812 29.9001L31.6187 29.7376C31.2937 29.4939 30.8875 29.3314 30.4 29.3314C29.9937 29.3314 29.5875 29.4939 29.2625 29.7376L29.1812 29.8189C28.45 30.4689 28.2875 31.5251 28.775 32.3376L28.9375 32.5814L28.6937 32.6626C28.45 32.7439 28.2062 32.8251 27.9625 32.9876L27.8812 33.0689C27.475 33.3939 27.2312 33.8001 27.15 34.2876C27.15 34.5314 27.15 34.7751 27.2312 35.0189V35.1001L26.7437 35.5064C26.5 35.6689 26.2562 35.6689 26.0937 35.6689C25.7687 35.6689 25.3625 35.5064 25.2 35.1814C24.875 34.6939 24.9562 33.9626 25.4437 33.6376L26.5 32.9876C26.6625 32.9064 26.7437 32.7439 26.6625 32.5814C26.6625 32.5001 26.6625 32.5001 26.5812 32.4189C26.5 32.3376 26.3375 32.2564 26.2562 32.2564C26.175 32.2564 26.0937 32.2564 26.0125 32.3376L22.8437 34.5314C22.6812 34.6939 22.4375 34.7751 22.1937 34.7751H21.95C21.625 34.6939 21.3812 34.5314 21.2187 34.2876C21.0562 34.0439 20.975 33.7189 21.0562 33.3939C21.1375 33.0689 21.3 32.8251 21.5437 32.6626V32.5001L24.4687 30.3876C24.55 30.3064 24.6312 30.2251 24.6312 30.1439C24.6312 30.0626 24.6312 29.9001 24.55 29.8189C24.4687 29.7376 24.3062 29.6564 24.225 29.6564C24.1437 29.6564 24.0625 29.6564 23.9812 29.7376L19.5937 32.9064C19.4312 33.0689 19.1875 33.1501 18.9437 33.1501H18.7C18.375 33.0689 18.1312 32.9064 17.9687 32.6626C17.5625 32.1751 17.725 31.4439 18.2125 31.0376L22.8437 27.7876C22.925 27.7064 23.0062 27.6251 23.0062 27.5439C23.0062 27.4626 23.0062 27.3001 22.925 27.2189C22.8437 27.1376 22.6812 27.0564 22.6 27.0564H22.5187C22.4375 27.0564 22.3562 27.0564 22.3562 27.1376L17.725 30.3876L16.2625 31.4439C16.1 31.6064 15.8562 31.6876 15.6125 31.6876C15.2062 31.6876 14.8812 31.5251 14.6375 31.2001C14.475 30.9564 14.3937 30.7939 14.3937 30.5501C14.3125 29.9814 14.475 29.6564 14.8 29.4126Z" fill="#FFAA39"/>
<path d="M18.4563 19.0938C20.4875 18.85 22.3563 18.7688 24.225 18.7688C25.9313 18.7688 27.6375 18.85 29.2625 19.0938H29.3438L31.7813 21.0438C31.9438 21.125 32.025 21.2875 32.025 21.5313V24.5375L31.7813 24.4563C30.9688 24.2125 29.9938 23.5625 29.8313 22.0188C29.8313 21.775 29.5875 21.6938 29.425 21.6938H26.3375C26.175 21.6938 26.0125 21.775 25.9313 21.9375C25.9313 21.9375 25.2813 23.4813 24.3063 24.05H24.225H21.2188L20 24.9438L15.6938 27.8688L15.6125 27.7875C15.0438 27.3813 14.475 26.65 13.9063 25.7563L13.825 25.675L18.4563 19.175V19.0938Z" fill="#FFAA39"/>
<path d="M14.3938 15.925L17.8063 18.2L12.7688 25.2688L12.2813 26L8.13753 23.1563L14.3938 15.925Z" fill="#FFAA39"/>
</g>
<defs>
<clipPath id="clip0_279_5806">
<rect width="52" height="52" fill="white" transform="matrix(-1 0 0 1 52.5 0)"/>
</clipPath>
</defs>
</svg>
