<svg width="54" height="53" viewBox="0 0 54 53" fill="none" xmlns="http://www.w3.org/2000/svg">
<path d="M41.6393 8.54823C39.719 6.6229 37.4371 5.09604 34.9248 4.0554C32.4125 3.01476 29.7193 2.48086 27 2.48439V23.1875L41.6393 8.54823Z" fill="#FF9696"/>
<path d="M23.6875 5.79688C12.2535 5.79688 2.98438 15.066 2.98438 26.5C2.98438 37.934 12.2535 47.2031 23.6875 47.2031V5.79688Z" fill="#88BFF7"/>
<path d="M30.3125 26.5001H51.0156C51.0192 23.7808 50.4853 21.0876 49.4446 18.5753C48.404 16.063 46.8771 13.7812 44.9518 11.8608L30.3125 26.5001Z" fill="#7AE6BC"/>
<path d="M27.8281 50.5156C39.2622 50.5156 48.5312 41.2465 48.5312 29.8125H27.8281V50.5156Z" fill="#FFDA75"/>
</svg>
