<svg width="249" height="174" viewBox="0 0 249 174" fill="none" xmlns="http://www.w3.org/2000/svg">
<path d="M81.3511 90.3241L19.5435 76.0547L3.29231 118.39L65.1 132.66L81.3511 90.3241Z" fill="white"/>
<path d="M83.8304 83.869L22.0227 69.5996L19.5446 76.0552L81.3523 90.3246L83.8304 83.869Z" fill="#C3B7FC"/>
<path d="M75.2061 85.3905C74.864 86.2818 73.8326 86.8302 72.9024 86.6154C71.9721 86.4007 71.4954 85.5041 71.8376 84.6128C72.1797 83.7215 73.2111 83.1731 74.1413 83.3879C75.0715 83.6026 75.5483 84.4992 75.2061 85.3905Z" fill="#ECBF4C"/>
<path d="M80.3888 86.5864C80.0466 87.4777 79.0153 88.0261 78.0845 87.8112C77.1543 87.5965 76.6775 86.6999 77.0197 85.8086C77.3618 84.9173 78.3932 84.3689 79.3234 84.5837C80.2542 84.7986 80.7309 85.6951 80.3888 86.5864Z" fill="#DD6E5C"/>
<path d="M45.8241 88.068L21.7231 82.5039L12.573 106.341L36.674 111.905L45.8241 88.068Z" fill="#E08675"/>
<path d="M36.6738 111.905L12.5728 106.341L21.7231 82.5039L36.6738 111.905Z" fill="#EA9A8F"/>
<path d="M67.1151 115.284L43.0142 109.72L37.6812 123.613L61.7821 129.177L67.1151 115.284Z" fill="#ECBF4C"/>
<path d="M61.7828 129.177L37.6813 123.613L43.0142 109.72L61.7828 129.177Z" fill="#F2C96D"/>
<path d="M75.3202 95.0133L50.8303 89.3594L49.8295 91.9666L74.3194 97.6206L75.3202 95.0133Z" fill="#F5DDA0"/>
<path d="M72.9386 101.22L48.4487 95.5664L47.4479 98.1737L71.9378 103.828L72.9386 101.22Z" fill="#F5DDA0"/>
<path d="M70.5551 107.428L46.0652 101.774L45.0644 104.382L69.5542 110.036L70.5551 107.428Z" fill="#F5DDA0"/>
<path d="M227.627 101.254L165.82 86.9849L141.562 150.178L203.37 164.447L227.627 101.254Z" fill="white"/>
<path d="M230.105 94.7987L168.297 80.5293L165.819 86.9854L227.627 101.255L230.105 94.7987Z" fill="#C3B7FC"/>
<path d="M219.176 97.5441C220.106 97.7589 221.137 97.2105 221.48 96.3192C221.822 95.4279 221.345 94.5313 220.415 94.3166C219.485 94.1018 218.453 94.6502 218.111 95.5415C217.769 96.4328 218.246 97.3294 219.176 97.5441Z" fill="#ECBF4C"/>
<path d="M226.662 97.5171C226.32 98.4084 225.289 98.9568 224.359 98.742C223.428 98.5272 222.951 97.6306 223.293 96.7393C223.636 95.848 224.667 95.2996 225.598 95.5145C226.528 95.7292 227.005 96.6258 226.662 97.5171Z" fill="#DD6E5C"/>
<path d="M193.402 97.8117L167.357 91.7988L158.779 114.146L184.823 120.159L193.402 97.8117Z" fill="#E08675"/>
<path d="M184.823 120.159L158.779 114.146L167.357 91.7988L184.823 120.159Z" fill="#EA9A8F"/>
<path d="M173.384 123.871L156.928 120.072L151.877 133.232L168.333 137.031L173.384 123.871Z" fill="#ECBF4C"/>
<path d="M212.129 132.815L177.272 124.768L172.221 137.927L207.077 145.975L212.129 132.815Z" fill="#C3B7FC"/>
<path opacity="0.47" d="M207.077 145.975L172.221 137.927L177.272 124.768L207.077 145.975Z" fill="#A797FB"/>
<path d="M222.895 104.758L197.369 98.8647L196.225 101.844L221.752 107.737L222.895 104.758Z" fill="#DFDBFC"/>
<path d="M220.465 111.089L194.938 105.196L193.795 108.175L219.321 114.068L220.465 111.089Z" fill="#DFDBFC"/>
<path d="M218.036 117.42L192.51 111.527L191.366 114.506L216.892 120.399L218.036 117.42Z" fill="#DFDBFC"/>
<path d="M215.606 123.753L190.079 117.86L188.936 120.839L214.462 126.732L215.606 123.753Z" fill="#DFDBFC"/>
<path d="M205.692 149.577L180.166 143.684L179.022 146.663L204.548 152.556L205.692 149.577Z" fill="#DFDBFC"/>
<path d="M203.167 156.155L166.239 147.629L165.142 150.485L202.071 159.01L203.167 156.155Z" fill="#DFDBFC"/>
<path d="M124.126 142.588L80.4307 132.5L88.2793 118.816L97.9736 101.912L131.01 109.54L127.205 127.803L124.126 142.588Z" fill="white"/>
<path opacity="0.47" d="M127.204 127.802L88.2781 118.816L97.9724 101.912L131.009 109.539L127.204 127.802Z" fill="#A797FB"/>
<path d="M200.275 56.3552L173.346 126.508C171.907 130.257 167.567 132.565 163.654 131.661L55.0431 106.587C51.1297 105.683 49.1238 101.911 50.5633 98.1613L77.4925 28.0086C78.9318 24.259 83.2707 21.9516 87.1846 22.8552L195.795 47.9299C199.709 48.8334 201.714 52.6056 200.275 56.3552Z" fill="#A797FB"/>
<path d="M194.675 53.5952L84.127 28.0732L58.8958 93.8026L169.444 119.325L194.675 53.5952Z" fill="#514E92"/>
<path d="M177.168 116.554L173.346 126.511C171.907 130.26 167.567 132.568 163.654 131.664L55.0434 106.589C51.13 105.686 49.1241 101.914 50.5636 98.1641L54.3857 88.207L177.168 116.554Z" fill="#C3B7FC"/>
<path d="M122.388 146.137L78.359 135.972C76.762 135.604 75.9437 134.065 76.5311 132.535L76.547 132.493C77.1343 130.963 78.9047 130.022 80.5016 130.391L124.531 140.556C126.128 140.924 126.946 142.463 126.359 143.993L126.343 144.035C125.756 145.564 123.985 146.506 122.388 146.137Z" fill="#C3B7FC"/>
<path d="M180.998 39.1545L104.384 21.4668L76.782 93.372L153.396 111.06L180.998 39.1545Z" fill="white"/>
<path d="M184.037 31.237L107.423 13.5493L104.369 21.5053L180.983 39.193L184.037 31.237Z" fill="#514E92"/>
<path d="M170.112 34.6391C171.323 34.9188 172.667 34.2046 173.112 33.0438C173.558 31.883 172.937 30.7153 171.726 30.4356C170.514 30.1559 169.171 30.8702 168.725 32.0309C168.28 33.1917 168.901 34.3594 170.112 34.6391Z" fill="#ECBF4C"/>
<path d="M176.379 36.0874C177.591 36.3671 178.934 35.6528 179.379 34.492C179.825 33.3313 179.204 32.1636 177.993 31.8839C176.781 31.6042 175.438 32.3184 174.992 33.4792C174.547 34.64 175.168 35.8077 176.379 36.0874Z" fill="#DD6E5C"/>
<path d="M114.414 38.2379C115.955 35.5648 114.991 32.4871 112.261 31.3637C109.531 30.2403 106.069 31.4966 104.528 34.1697C102.987 36.8428 103.951 39.9205 106.681 41.0438C109.411 42.1672 112.873 40.911 114.414 38.2379Z" fill="#DD6E5C"/>
<path d="M101.865 56.0205C104.807 56.6997 108.069 54.9651 109.151 52.1463C110.233 49.3274 108.725 46.4916 105.783 45.8124C102.841 45.1331 99.5791 46.8677 98.497 49.6866C97.415 52.5055 98.9228 55.3412 101.865 56.0205Z" fill="#DD6E5C"/>
<path d="M150.63 39.1708L123.055 32.8047L121.903 35.807L149.478 42.1731L150.63 39.1708Z" fill="#DFDBFC"/>
<path d="M139.836 50.4061L118.215 45.4146L117.062 48.4168L138.683 53.4084L139.836 50.4061Z" fill="#DFDBFC"/>
<path d="M137.36 56.8617L115.739 51.8701L114.586 54.8724L136.207 59.864L137.36 56.8617Z" fill="#DFDBFC"/>
<path d="M158.865 47.9347L120.637 39.1089L119.484 42.1112L157.713 50.937L158.865 47.9347Z" fill="#DFDBFC"/>
<path d="M103.901 81.822L91.054 78.856L86.3288 91.1653L99.176 94.1313L103.901 81.822Z" fill="#DFDBFC"/>
<path opacity="0.45" d="M99.176 94.1313L86.3288 91.1653L91.054 78.856L99.176 94.1313Z" fill="#C3B7FC"/>
<path d="M120.193 85.5827L107.346 82.6167L102.621 94.926L115.468 97.892L120.193 85.5827Z" fill="#DFDBFC"/>
<path opacity="0.45" d="M115.468 97.892L102.621 94.926L107.346 82.6167L115.468 97.892Z" fill="#C3B7FC"/>
<path d="M136.488 89.3469L123.641 86.3809L118.916 98.6902L131.763 101.656L136.488 89.3469Z" fill="#DFDBFC"/>
<path opacity="0.45" d="M131.763 101.656L118.916 98.6902L123.641 86.3809L131.763 101.656Z" fill="#C3B7FC"/>
<path d="M152.783 93.1081L139.936 90.1421L135.211 102.451L148.058 105.417L152.783 93.1081Z" fill="#DFDBFC"/>
<path opacity="0.45" d="M148.058 105.417L135.211 102.451L139.936 90.1421L148.058 105.417Z" fill="#C3B7FC"/>
<path d="M185.327 81.5784L181.407 91.7909C180.442 94.3062 177.505 95.8675 174.88 95.2615L71.1023 71.3025C68.4771 70.6964 67.1199 68.1438 68.0854 65.6285L72.0056 55.416C72.9711 52.9007 75.9076 51.3394 78.5328 51.9455L182.311 75.9045C184.936 76.5105 186.293 79.0631 185.327 81.5784Z" fill="white"/>
<path d="M185.326 81.5794L181.406 91.7919C180.44 94.3072 177.504 95.8685 174.879 95.2625L155.384 90.7618L162.815 71.4048L182.309 75.9054C184.934 76.5115 186.292 79.0641 185.326 81.5794Z" fill="#ECBF4C"/>
<path d="M176.125 91.2375L173.565 86.2861L173.131 85.4466C175.124 83.8841 175.899 81.3083 174.842 79.2646C173.627 76.9126 170.439 76.1428 167.737 77.5491C165.036 78.9555 163.827 82.013 165.042 84.3651C166.098 86.4086 168.642 87.2574 171.063 86.523L171.497 87.3626L174.057 92.314C174.28 92.7463 174.863 92.8874 175.359 92.6291L175.63 92.4886C176.126 92.2299 176.348 91.6699 176.125 91.2375ZM166.077 83.8269C165.117 81.971 166.071 79.5589 168.203 78.4489C170.335 77.3395 172.849 77.947 173.809 79.8024C174.607 81.3468 174.08 83.2764 172.652 84.5198C172.364 84.7712 172.04 84.9939 171.682 85.1803C171.323 85.3666 170.955 85.5045 170.584 85.5963C168.749 86.0508 166.875 85.3707 166.077 83.8269Z" fill="white"/>
<path d="M174.571 96.0656L70.793 72.1067C67.7001 71.3926 66.1092 68.4005 67.2467 65.4371L71.1669 55.2246C72.3046 52.2608 75.7465 50.4311 78.8393 51.1451L182.617 75.1041C185.71 75.8181 187.301 78.8103 186.163 81.7736L182.243 91.9861C181.106 94.9495 177.663 96.7797 174.571 96.0656ZM78.2234 52.7496C76.0537 52.2487 73.6395 53.5324 72.8415 55.6113L68.9213 65.8237C68.1233 67.9026 69.2392 70.0012 71.4089 70.5021L175.187 94.4611C177.356 94.962 179.77 93.6784 180.568 91.5995L184.489 81.387C185.287 79.3081 184.171 77.2095 182.001 76.7086L78.2234 52.7496Z" fill="#ECBF4C"/>
<path d="M136.995 141.815L134.175 138.597C139.226 134.641 144.534 130.871 149.954 127.39L152.348 130.91C147.075 134.296 141.909 137.965 136.995 141.815Z" fill="#5F5EA5"/>
<path d="M137.109 157.312C135.94 157.64 134.37 158.103 133.214 157.71C131.506 157.129 132.004 155.468 133.157 154.466C134.573 153.236 136.277 152.8 138.15 152.702C139.208 152.647 140.268 152.621 141.327 152.623C141.57 152.624 141.833 152.631 142.018 152.754C142.153 152.844 142.225 152.982 142.283 153.117C142.627 153.932 142.789 155.713 141.697 156.282C141.168 156.559 140.307 156.569 139.714 156.688C138.836 156.863 137.967 157.072 137.109 157.312Z" fill="#E08675"/>
<path d="M163.942 158.067C160.07 158.248 156.185 158.3 152.352 158.224C150.259 158.183 148.184 158.056 146.177 157.933C143.824 157.789 141.651 157.486 139.405 157.475C139.369 156.91 139.286 156.54 139.287 156.436C139.287 155.517 139.384 154.588 139.571 153.665C139.737 152.85 139.682 152.537 140.212 151.493C142.629 151.509 145.132 151.323 147.439 151.464C149.461 151.587 151.372 151.705 153.312 151.743C156.972 151.816 160.685 151.766 164.385 151.593C164.73 151.577 165.061 151.608 165.371 151.68C166.768 152.002 167.734 153.153 167.665 154.595C167.58 156.406 165.901 157.976 163.942 158.067Z" fill="#5F5EA5"/>
<path d="M153.631 161.127C154.378 161.896 155.366 162.95 156.611 163.111C158.449 163.349 159.205 161.747 158.946 160.42C158.628 158.789 157.508 157.702 156.01 156.825C155.162 156.33 154.294 155.858 153.406 155.411C153.202 155.309 152.977 155.204 152.735 155.228C152.559 155.246 152.401 155.331 152.257 155.42C151.395 155.956 150.003 157.378 150.515 158.318C150.764 158.774 151.477 159.148 151.89 159.499C152.501 160.018 153.082 160.561 153.631 161.127Z" fill="#E08675"/>
<path d="M130.634 150.376C133.748 152.169 136.964 153.861 140.226 155.423C142.007 156.277 143.834 157.051 145.601 157.798C147.672 158.676 149.706 159.344 151.594 160.287C152.022 159.83 152.352 159.555 152.425 159.468C153.073 158.698 153.647 157.879 154.141 157.027C154.577 156.274 154.844 156.036 155.136 154.937C153.101 153.925 151.137 152.708 149.106 151.847C147.327 151.093 145.644 150.381 143.993 149.59C140.877 148.098 137.804 146.482 134.829 144.768C134.551 144.608 134.252 144.494 133.942 144.422C132.545 144.1 130.925 144.653 129.966 145.89C128.759 147.442 129.058 149.468 130.634 150.376Z" fill="#5F5EA5"/>
<path d="M159.718 153.785C154.117 154.29 138.34 150.37 138.835 148.574C139.12 147.541 145.566 133.997 147.134 130.742C147.647 129.681 148.201 128.571 149.114 127.832C149.914 127.184 150.886 126.902 151.811 126.71C151.896 126.693 151.986 126.676 152.071 126.658C157.007 125.711 161.9 126.803 165.406 129.641C165.861 130.007 166.297 130.423 166.479 131.009C166.696 131.721 166.492 132.57 166.285 133.371C164.611 139.809 162.571 146.211 160.184 152.543C160.036 152.957 159.876 153.373 159.718 153.785Z" fill="#8690F1"/>
<path opacity="0.22" d="M159.718 153.786C154.116 154.291 138.34 150.371 138.834 148.575C139.12 147.541 145.566 133.998 147.133 130.742C147.646 129.681 148.2 128.571 149.114 127.832C149.913 127.184 150.885 126.902 151.811 126.71C151.895 126.693 151.985 126.676 152.07 126.658C150.547 130.394 149.723 134.281 149.741 138.121C149.745 139.926 149.939 141.726 150.581 143.363C151.935 146.813 155.127 149.189 158.275 151.319C158.893 151.739 159.529 152.158 160.183 152.544C160.036 152.957 159.876 153.374 159.718 153.786Z" fill="#5F5EA5"/>
<path d="M142.56 145.357C142.963 144.232 144.204 143.495 145.41 143.646C148.373 144.016 151.479 143.916 154.511 143.345C154.761 143.298 155.282 143.2 155.49 143.078C155.754 142.924 156.14 142.375 156.372 142.047C158.753 138.67 160.866 135.13 162.669 131.498C163.227 130.374 164.603 129.763 165.778 130.117L165.778 130.117C167.004 130.488 167.537 131.764 166.955 132.937C165.039 136.793 162.796 140.552 160.267 144.139C159.616 145.062 158.881 146.02 157.686 146.72C156.767 147.257 155.818 147.486 154.93 147.654C151.362 148.325 147.706 148.441 144.221 148.004C142.876 147.835 142.111 146.612 142.56 145.357Z" fill="#5F5EA5"/>
<path d="M163.368 121.776L160.817 128.422C160.315 129.73 158.802 130.535 157.437 130.219C156.072 129.904 155.372 128.589 155.874 127.281L158.426 120.635L163.368 121.776Z" fill="#F0C9A1"/>
<path d="M162.757 123.369L160.88 128.258C159.891 127.832 158.611 127.276 158.431 127.172C157.72 126.757 157.054 126.283 156.467 125.738C156.1 125.396 155.762 125.028 155.462 124.629C154.343 123.137 156.172 122.898 157.632 122.702C157.634 122.701 157.637 122.701 157.64 122.7C159.178 122.493 160.725 122.553 162.17 122.883C162.312 122.916 162.456 122.95 162.564 123.035C162.67 123.12 162.728 123.236 162.757 123.369Z" fill="#E9B588"/>
<path d="M170.858 112.892C171.251 113.61 171.271 114.484 171.205 115.331C171.035 117.507 170.321 119.734 168.938 121.634C167.556 123.533 165.472 125.08 163.147 125.678C162.649 125.806 162.039 125.86 161.761 125.502C161.598 125.293 161.602 125.002 161.614 124.729C161.771 121.332 162.452 117.899 163.632 114.568C163.955 113.658 164.332 112.726 165.035 111.989C166.857 110.076 169.878 111.099 170.858 112.892Z" fill="#363271"/>
<path d="M152.955 118.233C152.135 122.609 153.948 126.29 157.829 126.501C161.71 126.713 165.521 123.337 166.341 118.961C167.161 114.586 164.68 110.868 160.798 110.657C156.917 110.445 153.775 113.858 152.955 118.233Z" fill="#F0C9A1"/>
<path d="M164.417 119.603C163.859 120.85 164.243 122.104 165.277 122.404C166.31 122.704 167.601 121.936 168.16 120.69C168.718 119.443 168.334 118.189 167.3 117.889C166.266 117.59 164.976 118.357 164.417 119.603Z" fill="#F0C9A1"/>
<path d="M164.356 118.707C164.261 119.087 164.136 119.479 164.208 119.844C164.28 120.21 164.634 120.535 165.043 120.442C165.298 120.384 165.5 120.188 165.677 119.997C167.135 118.419 168.091 116.467 168.367 114.5C168.436 114.007 168.448 113.463 168.111 113.119C167.959 112.963 167.75 112.865 167.539 112.778C167.145 112.613 166.714 112.473 166.26 112.534C165.526 112.634 164.916 113.244 164.606 113.889C163.796 115.567 164.785 116.975 164.356 118.707Z" fill="#363271"/>
<path d="M154.779 109.825C152.859 110.819 151.156 112.479 150.72 114.415C150.57 115.086 150.597 115.828 151.064 116.291C151.323 116.549 151.692 116.694 152.07 116.786C154.175 117.3 156.52 116.349 158.641 115.424C158.421 116.227 159.405 116.713 160.245 116.856C162.359 117.217 164.636 117.058 166.795 116.399C167.943 116.049 169.152 115.48 169.733 114.481C170.583 113.021 169.705 111.364 168.525 110.347C165.045 107.353 159.253 107.511 154.779 109.825Z" fill="#363271"/>
<path d="M154.835 151.541L138.613 147.796C138.245 147.711 137.947 147.497 137.793 147.209C137.337 146.351 138.338 145.404 139.434 145.657L155.656 149.402C156.023 149.487 156.322 149.701 156.476 149.989C156.932 150.847 155.931 151.794 154.835 151.541Z" fill="#C3B7FC"/>
<path d="M145.159 149.305L127.304 145.183C126.874 145.084 126.624 144.697 126.717 144.274L129.617 131.124C129.732 130.603 130.313 130.245 130.844 130.367L148.698 134.489C149.129 134.589 149.378 134.975 149.285 135.398L146.385 148.548C146.27 149.07 145.69 149.428 145.159 149.305Z" fill="white"/>
<path d="M138.462 140.192C138.057 141.247 136.837 141.896 135.736 141.642C134.635 141.387 134.071 140.327 134.476 139.272C134.881 138.217 136.101 137.568 137.202 137.822C138.302 138.076 138.867 139.137 138.462 140.192Z" fill="#C3B7FC"/>
<path d="M140.711 140.712C140.306 141.766 139.086 142.415 137.985 142.161C136.884 141.907 136.32 140.846 136.725 139.791C137.13 138.737 138.35 138.088 139.451 138.342C140.552 138.596 141.116 139.657 140.711 140.712Z" fill="#E08675"/>
</svg>
