<svg width="140" height="44" viewBox="0 0 140 44" fill="none" xmlns="http://www.w3.org/2000/svg">
<g clip-path="url(#clip0_676_12151)">
<path d="M71.313 31C72.1545 31.3299 72.7883 31.7679 73.2158 32.3138C73.6419 32.8597 73.8557 33.506 73.8557 34.2511C73.8557 35.3429 73.4778 36.2234 72.7206 36.891C71.9648 37.5585 70.9622 37.8915 69.7142 37.8915C68.6965 37.8915 67.8429 37.6528 67.1534 37.1738C66.4654 36.6948 66.0002 36.0166 65.7578 35.1346L67.1534 34.502C67.3416 35.2213 67.6517 35.7657 68.0853 36.1352C68.5173 36.5062 69.0608 36.6902 69.7142 36.6902C70.4849 36.6902 71.1097 36.4865 71.5854 36.0774C72.0627 35.6699 72.3005 35.1377 72.3005 34.4838C72.3005 33.9546 72.1334 33.4938 71.8022 33.1015C71.4695 32.7092 70.9682 32.3792 70.2968 32.1085L68.7251 31.4927C67.8655 31.1627 67.2256 30.7384 66.8041 30.2199C66.3826 29.7013 66.1733 29.0794 66.1733 28.3556C66.1733 27.5131 66.5151 26.8151 67.197 26.2631C67.8805 25.7111 68.7507 25.4359 69.8105 25.4359C70.5873 25.4359 71.2603 25.588 71.8278 25.8906C72.3954 26.1932 72.8395 26.6387 73.1571 27.2288L71.885 27.9754C71.596 27.5162 71.2723 27.174 70.914 26.9505C70.5542 26.7269 70.1492 26.6144 69.6961 26.6144C69.1195 26.6144 68.6468 26.7771 68.2795 27.101C67.9121 27.4249 67.727 27.8385 67.727 28.3419C67.727 28.7631 67.8685 29.128 68.1515 29.4367C68.4345 29.7454 68.8726 30.0176 69.4673 30.2564L71.313 31.003V31Z" fill="#17011C"/>
<path d="M86.3936 28.5593C85.7748 27.9435 85.1154 27.4873 84.4154 27.1938C83.7153 26.8988 82.9415 26.7513 82.094 26.7513C81.4105 26.7513 80.7451 26.879 80.0947 27.133C79.4444 27.3869 78.8813 27.7412 78.4041 28.1944C77.9103 28.6642 77.5385 29.1904 77.2916 29.7713C77.0447 30.3522 76.9212 30.9939 76.9212 31.6964C76.9212 32.2484 76.995 32.7563 77.1425 33.2201C77.2901 33.6854 77.5099 34.1112 77.8049 34.5005C78.3228 35.1757 78.9596 35.6957 79.7169 36.0607C80.4726 36.4256 81.2901 36.6081 82.1677 36.6081C82.9912 36.6081 83.7575 36.4515 84.4636 36.1382C85.1696 35.825 85.814 35.3566 86.3966 34.7362V36.6096C85.7552 37.0369 85.0642 37.3593 84.3266 37.5783C83.5874 37.7973 82.8241 37.9068 82.0353 37.9068C81.3518 37.9068 80.6879 37.814 80.0405 37.627C79.3932 37.4399 78.7865 37.1692 78.2219 36.8119C77.2795 36.2112 76.5599 35.4737 76.0631 34.5978C75.5663 33.7219 75.3164 32.7609 75.3164 31.7116C75.3164 30.7977 75.482 29.9674 75.8147 29.2178C76.1474 28.4696 76.6548 27.7899 77.3382 27.1786C77.9976 26.5946 78.7278 26.1582 79.5272 25.8693C80.3281 25.5804 81.2012 25.4359 82.1497 25.4359C82.8979 25.4359 83.6205 25.5393 84.322 25.7476C85.0221 25.956 85.7146 26.2783 86.3966 26.7163V28.5563L86.3936 28.5593Z" fill="#17011C"/>
<path d="M89.0156 37.5905V25.7203H90.5512V30.2853H97.4206V25.7203H98.9833V37.5905H97.4206V31.631H90.5512V37.5905H89.0156Z" fill="#17011C"/>
<path d="M115.301 31.6797C115.301 32.5282 115.129 33.3281 114.789 34.0793C114.447 34.8305 113.949 35.498 113.296 36.082C112.642 36.6659 111.89 37.116 111.039 37.4323C110.188 37.7486 109.306 37.9068 108.392 37.9068C107.479 37.9068 106.601 37.7486 105.755 37.4323C104.91 37.116 104.161 36.6659 103.506 36.082C102.846 35.4935 102.344 34.8229 101.999 34.0717C101.654 33.3205 101.482 32.5237 101.482 31.6797C101.482 30.8357 101.654 30.0298 101.999 29.2755C102.344 28.5213 102.845 27.8507 103.506 27.2607C104.153 26.6828 104.901 26.2358 105.75 25.9225C106.598 25.6093 107.479 25.4526 108.392 25.4526C109.306 25.4526 110.196 25.6093 111.047 25.9225C111.897 26.2358 112.647 26.6813 113.296 27.2607C113.949 27.8446 114.447 28.5137 114.789 29.2679C115.131 30.0222 115.301 30.8266 115.301 31.6797ZM108.392 36.5777C109.1 36.5777 109.773 36.4545 110.411 36.2082C111.051 35.9618 111.626 35.6045 112.14 35.1346C112.647 34.6693 113.032 34.1431 113.297 33.5531C113.562 32.9646 113.695 32.3397 113.695 31.6797C113.695 31.0197 113.561 30.3826 113.293 29.7819C113.025 29.1813 112.641 28.6521 112.14 28.1928C111.632 27.7275 111.06 27.3732 110.42 27.1314C109.781 26.8881 109.105 26.7665 108.392 26.7665C107.68 26.7665 106.992 26.8881 106.351 27.1314C105.71 27.3747 105.141 27.729 104.645 28.1928C104.138 28.6627 103.753 29.195 103.488 29.7895C103.223 30.3841 103.09 31.0137 103.09 31.6782C103.09 32.3427 103.221 32.9586 103.483 33.5425C103.745 34.1264 104.132 34.6556 104.645 35.1316C105.163 35.6075 105.74 35.9664 106.374 36.2097C107.007 36.453 107.68 36.5747 108.392 36.5747V36.5777Z" fill="#17011C"/>
<path d="M131.035 31.6797C131.035 32.5282 130.864 33.3281 130.524 34.0793C130.182 34.8305 129.683 35.498 129.03 36.082C128.377 36.6659 127.624 37.116 126.773 37.4323C125.923 37.7486 125.041 37.9068 124.127 37.9068C123.213 37.9068 122.335 37.7486 121.489 37.4323C120.645 37.116 119.895 36.6659 119.24 36.082C118.581 35.4935 118.078 34.8229 117.733 34.0717C117.388 33.3205 117.217 32.5237 117.217 31.6797C117.217 30.8357 117.388 30.0298 117.733 29.2755C118.078 28.5213 118.579 27.8507 119.24 27.2607C119.887 26.6828 120.636 26.2358 121.485 25.9225C122.332 25.6093 123.213 25.4526 124.127 25.4526C125.041 25.4526 125.93 25.6093 126.781 25.9225C127.632 26.2358 128.381 26.6813 129.03 27.2607C129.683 27.8446 130.182 28.5137 130.524 29.2679C130.865 30.0222 131.035 30.8266 131.035 31.6797ZM124.127 36.5777C124.834 36.5777 125.507 36.4545 126.146 36.2082C126.785 35.9618 127.361 35.6045 127.874 35.1346C128.381 34.6693 128.767 34.1431 129.032 33.5531C129.297 32.9646 129.429 32.3397 129.429 31.6797C129.429 31.0197 129.295 30.3826 129.027 29.7819C128.759 29.1813 128.375 28.6521 127.874 28.1928C127.367 27.7275 126.795 27.3732 126.155 27.1314C125.515 26.8881 124.839 26.7665 124.127 26.7665C123.415 26.7665 122.727 26.8881 122.085 27.1314C121.444 27.3747 120.875 27.729 120.38 28.1928C119.872 28.6627 119.487 29.195 119.222 29.7895C118.957 30.3841 118.825 31.0137 118.825 31.6782C118.825 32.3427 118.956 32.9586 119.218 33.5425C119.48 34.1264 119.866 34.6556 120.38 35.1316C120.898 35.6075 121.474 35.9664 122.108 36.2097C122.742 36.453 123.415 36.5747 124.127 36.5747V36.5777Z" fill="#17011C"/>
<path d="M133.543 37.5905V25.7203H135.078V36.2447H139.96V37.5905H133.541H133.543Z" fill="#17011C"/>
<path d="M71.313 31C72.1545 31.3299 72.7883 31.7679 73.2158 32.3138C73.6419 32.8597 73.8557 33.506 73.8557 34.2511C73.8557 35.3429 73.4778 36.2234 72.7206 36.891C71.9648 37.5585 70.9622 37.8915 69.7142 37.8915C68.6965 37.8915 67.8429 37.6528 67.1534 37.1738C66.4654 36.6948 66.0002 36.0166 65.7578 35.1346L67.1534 34.502C67.3416 35.2213 67.6517 35.7657 68.0853 36.1352C68.5173 36.5062 69.0608 36.6902 69.7142 36.6902C70.4849 36.6902 71.1097 36.4865 71.5854 36.0774C72.0627 35.6699 72.3005 35.1377 72.3005 34.4838C72.3005 33.9546 72.1334 33.4938 71.8022 33.1015C71.4695 32.7092 70.9682 32.3792 70.2968 32.1085L68.7251 31.4927C67.8655 31.1627 67.2256 30.7384 66.8041 30.2199C66.3826 29.7013 66.1733 29.0794 66.1733 28.3556C66.1733 27.5131 66.5151 26.8151 67.197 26.2631C67.8805 25.7111 68.7507 25.4359 69.8105 25.4359C70.5873 25.4359 71.2603 25.588 71.8278 25.8906C72.3954 26.1932 72.8395 26.6387 73.1571 27.2288L71.885 27.9754C71.596 27.5162 71.2723 27.174 70.914 26.9505C70.5542 26.7269 70.1492 26.6144 69.6961 26.6144C69.1195 26.6144 68.6468 26.7771 68.2795 27.101C67.9121 27.4249 67.727 27.8385 67.727 28.3419C67.727 28.7631 67.8685 29.128 68.1515 29.4367C68.4345 29.7454 68.8726 30.0176 69.4673 30.2564L71.313 31.003V31Z" fill="black"/>
<path d="M86.3936 28.5593C85.7748 27.9435 85.1154 27.4873 84.4154 27.1938C83.7153 26.8988 82.9415 26.7513 82.094 26.7513C81.4105 26.7513 80.7451 26.879 80.0947 27.133C79.4444 27.3869 78.8813 27.7412 78.4041 28.1944C77.9103 28.6642 77.5385 29.1904 77.2916 29.7713C77.0447 30.3522 76.9212 30.9939 76.9212 31.6964C76.9212 32.2484 76.995 32.7563 77.1425 33.2201C77.2901 33.6854 77.5099 34.1112 77.8049 34.5005C78.3228 35.1757 78.9596 35.6957 79.7169 36.0607C80.4726 36.4256 81.2901 36.6081 82.1677 36.6081C82.9912 36.6081 83.7575 36.4515 84.4636 36.1382C85.1696 35.825 85.814 35.3566 86.3966 34.7362V36.6096C85.7552 37.0369 85.0642 37.3593 84.3266 37.5783C83.5874 37.7973 82.8241 37.9068 82.0353 37.9068C81.3518 37.9068 80.6879 37.814 80.0405 37.627C79.3932 37.4399 78.7865 37.1692 78.2219 36.8119C77.2795 36.2112 76.5599 35.4737 76.0631 34.5978C75.5663 33.7219 75.3164 32.7609 75.3164 31.7116C75.3164 30.7977 75.482 29.9674 75.8147 29.2178C76.1474 28.4696 76.6548 27.7899 77.3382 27.1786C77.9976 26.5946 78.7278 26.1582 79.5272 25.8693C80.3281 25.5804 81.2012 25.4359 82.1497 25.4359C82.8979 25.4359 83.6205 25.5393 84.322 25.7476C85.0221 25.956 85.7146 26.2783 86.3966 26.7163V28.5563L86.3936 28.5593Z" fill="black"/>
<path d="M89.0156 37.5905V25.7203H90.5512V30.2853H97.4206V25.7203H98.9833V37.5905H97.4206V31.631H90.5512V37.5905H89.0156Z" fill="black"/>
<path d="M115.301 31.6797C115.301 32.5282 115.129 33.3281 114.789 34.0793C114.447 34.8305 113.949 35.498 113.296 36.082C112.642 36.6659 111.89 37.116 111.039 37.4323C110.188 37.7486 109.306 37.9068 108.392 37.9068C107.479 37.9068 106.601 37.7486 105.755 37.4323C104.91 37.116 104.161 36.6659 103.506 36.082C102.846 35.4935 102.344 34.8229 101.999 34.0717C101.654 33.3205 101.482 32.5237 101.482 31.6797C101.482 30.8357 101.654 30.0298 101.999 29.2755C102.344 28.5213 102.845 27.8507 103.506 27.2607C104.153 26.6828 104.901 26.2358 105.75 25.9225C106.598 25.6093 107.479 25.4526 108.392 25.4526C109.306 25.4526 110.196 25.6093 111.047 25.9225C111.897 26.2358 112.647 26.6813 113.296 27.2607C113.949 27.8446 114.447 28.5137 114.789 29.2679C115.131 30.0222 115.301 30.8266 115.301 31.6797ZM108.392 36.5777C109.1 36.5777 109.773 36.4545 110.411 36.2082C111.051 35.9618 111.626 35.6045 112.14 35.1346C112.647 34.6693 113.032 34.1431 113.297 33.5531C113.562 32.9646 113.695 32.3397 113.695 31.6797C113.695 31.0197 113.561 30.3826 113.293 29.7819C113.025 29.1813 112.641 28.6521 112.14 28.1928C111.632 27.7275 111.06 27.3732 110.42 27.1314C109.781 26.8881 109.105 26.7665 108.392 26.7665C107.68 26.7665 106.992 26.8881 106.351 27.1314C105.71 27.3747 105.141 27.729 104.645 28.1928C104.138 28.6627 103.753 29.195 103.488 29.7895C103.223 30.3841 103.09 31.0137 103.09 31.6782C103.09 32.3427 103.221 32.9586 103.483 33.5425C103.745 34.1264 104.132 34.6556 104.645 35.1316C105.163 35.6075 105.74 35.9664 106.374 36.2097C107.007 36.453 107.68 36.5747 108.392 36.5747V36.5777Z" fill="black"/>
<path d="M131.035 31.6797C131.035 32.5282 130.864 33.3281 130.524 34.0793C130.182 34.8305 129.683 35.498 129.03 36.082C128.377 36.6659 127.624 37.116 126.773 37.4323C125.923 37.7486 125.041 37.9068 124.127 37.9068C123.213 37.9068 122.335 37.7486 121.489 37.4323C120.645 37.116 119.895 36.6659 119.24 36.082C118.581 35.4935 118.078 34.8229 117.733 34.0717C117.388 33.3205 117.217 32.5237 117.217 31.6797C117.217 30.8357 117.388 30.0298 117.733 29.2755C118.078 28.5213 118.579 27.8507 119.24 27.2607C119.887 26.6828 120.636 26.2358 121.485 25.9225C122.332 25.6093 123.213 25.4526 124.127 25.4526C125.041 25.4526 125.93 25.6093 126.781 25.9225C127.632 26.2358 128.381 26.6813 129.03 27.2607C129.683 27.8446 130.182 28.5137 130.524 29.2679C130.865 30.0222 131.035 30.8266 131.035 31.6797ZM124.127 36.5777C124.834 36.5777 125.507 36.4545 126.146 36.2082C126.785 35.9618 127.361 35.6045 127.874 35.1346C128.381 34.6693 128.767 34.1431 129.032 33.5531C129.297 32.9646 129.429 32.3397 129.429 31.6797C129.429 31.0197 129.295 30.3826 129.027 29.7819C128.759 29.1813 128.375 28.6521 127.874 28.1928C127.367 27.7275 126.795 27.3732 126.155 27.1314C125.515 26.8881 124.839 26.7665 124.127 26.7665C123.415 26.7665 122.727 26.8881 122.085 27.1314C121.444 27.3747 120.875 27.729 120.38 28.1928C119.872 28.6627 119.487 29.195 119.222 29.7895C118.957 30.3841 118.825 31.0137 118.825 31.6782C118.825 32.3427 118.956 32.9586 119.218 33.5425C119.48 34.1264 119.866 34.6556 120.38 35.1316C120.898 35.6075 121.474 35.9664 122.108 36.2097C122.742 36.453 123.415 36.5747 124.127 36.5747V36.5777Z" fill="black"/>
<path d="M133.543 37.5905V25.7203H135.078V36.2447H139.96V37.5905H133.541H133.543Z" fill="black"/>
<path d="M74.0949 21.0291H69.6026V8.6525H65.8887V5.15804H77.8089V8.6525H74.0949V21.0291Z" fill="#17011C"/>
<path d="M88.3754 14.5252L93.8086 21.0291H88.2158L83.975 14.9252H83.9298V21.0291H79.4375V5.15804H86.1534C87.8651 5.17173 89.2937 5.56862 90.4394 6.34719C91.585 7.12577 92.1586 8.36509 92.1586 10.0621C92.1586 11.157 91.8334 12.1287 91.1846 12.9772C90.5342 13.8257 89.5993 14.3489 88.3769 14.545V14.5237L88.3754 14.5252ZM83.9283 12.2732H84.3634C84.4401 12.2869 84.5154 12.2945 84.5922 12.2945H84.7984C85.4714 12.2671 86.0856 12.1226 86.6441 11.8626C87.2011 11.6026 87.4812 11.0871 87.4812 10.3161C87.4812 9.54512 87.2026 9.01441 86.6441 8.75286C86.0856 8.49131 85.4714 8.34533 84.7984 8.31643H83.9268V12.2732H83.9283Z" fill="#17011C"/>
<path d="M99.425 18.2721L98.2326 21.0291H93.4648L100.113 5.15804H105.019L111.529 21.0291H106.738L105.615 18.2721H99.4265H99.425ZM102.565 10.0621H102.519L100.662 15.1137H104.399L102.565 10.0621Z" fill="#17011C"/>
<path d="M112.926 5.15804H119.298C121.713 5.17173 123.78 5.94422 125.499 7.47399C127.219 9.00377 128.078 10.8833 128.078 13.1156C128.078 15.3479 127.214 17.2244 125.487 18.7466C123.761 20.2687 121.697 21.0306 119.298 21.0306H112.926V5.15804ZM117.42 17.5346H118.428C119.773 17.5483 120.938 17.2001 121.924 16.4899C122.91 15.7798 123.402 14.6515 123.402 13.1034C123.402 11.6832 122.943 10.5852 122.026 9.81275C121.109 9.03874 119.925 8.6525 118.473 8.6525H117.42V17.5361V17.5346Z" fill="#17011C"/>
<path d="M134.658 8.6525V11.3045H139.724V14.799H134.658V17.5346H140V21.0291H130.166V5.15804H140V8.6525H134.658Z" fill="#17011C"/>
<path d="M74.0949 21.0291H69.6026V8.6525H65.8887V5.15804H77.8089V8.6525H74.0949V21.0291Z" fill="#44B749"/>
<path d="M88.3754 14.5252L93.8086 21.0291H88.2158L83.975 14.9252H83.9298V21.0291H79.4375V5.15804H86.1534C87.8651 5.17173 89.2937 5.56862 90.4394 6.34719C91.585 7.12577 92.1586 8.36509 92.1586 10.0621C92.1586 11.157 91.8334 12.1287 91.1846 12.9772C90.5342 13.8257 89.5993 14.3489 88.3769 14.545V14.5237L88.3754 14.5252ZM83.9283 12.2732H84.3634C84.4401 12.2869 84.5154 12.2945 84.5922 12.2945H84.7984C85.4714 12.2671 86.0856 12.1226 86.6441 11.8626C87.2011 11.6026 87.4812 11.0871 87.4812 10.3161C87.4812 9.54512 87.2026 9.01441 86.6441 8.75286C86.0856 8.49131 85.4714 8.34533 84.7984 8.31643H83.9268V12.2732H83.9283Z" fill="#44B749"/>
<path d="M99.425 18.2721L98.2326 21.0291H93.4648L100.113 5.15804H105.019L111.529 21.0291H106.738L105.615 18.2721H99.4265H99.425ZM102.565 10.0621H102.519L100.662 15.1137H104.399L102.565 10.0621Z" fill="#44B749"/>
<path d="M112.926 5.15804H119.298C121.713 5.17173 123.78 5.94422 125.499 7.47399C127.219 9.00377 128.078 10.8833 128.078 13.1156C128.078 15.3479 127.214 17.2244 125.487 18.7466C123.761 20.2687 121.697 21.0306 119.298 21.0306H112.926V5.15804ZM117.42 17.5346H118.428C119.773 17.5483 120.938 17.2001 121.924 16.4899C122.91 15.7798 123.402 14.6515 123.402 13.1034C123.402 11.6832 122.943 10.5852 122.026 9.81275C121.109 9.03874 119.925 8.6525 118.473 8.6525H117.42V17.5361V17.5346Z" fill="#44B749"/>
<path d="M134.658 8.6525V11.3045H139.724V14.799H134.658V17.5346H140V21.0291H130.166V5.15804H140V8.6525H134.658Z" fill="#44B749"/>
<path d="M74.0949 21.0291H69.6026V8.6525H65.8887V5.15804H77.8089V8.6525H74.0949V21.0291Z" fill="url(#paint0_linear_676_12151)"/>
<path d="M88.3754 14.5252L93.8086 21.0291H88.2158L83.975 14.9252H83.9298V21.0291H79.4375V5.15804H86.1534C87.8651 5.17173 89.2937 5.56862 90.4394 6.34719C91.585 7.12577 92.1586 8.36509 92.1586 10.0621C92.1586 11.157 91.8334 12.1287 91.1846 12.9772C90.5342 13.8257 89.5993 14.3489 88.3769 14.545V14.5237L88.3754 14.5252ZM83.9283 12.2732H84.3634C84.4401 12.2869 84.5154 12.2945 84.5922 12.2945H84.7984C85.4714 12.2671 86.0856 12.1226 86.6441 11.8626C87.2011 11.6026 87.4812 11.0871 87.4812 10.3161C87.4812 9.54512 87.2026 9.01441 86.6441 8.75286C86.0856 8.49131 85.4714 8.34533 84.7984 8.31643H83.9268V12.2732H83.9283Z" fill="url(#paint1_linear_676_12151)"/>
<path d="M99.425 18.2721L98.2326 21.0291H93.4648L100.113 5.15804H105.019L111.529 21.0291H106.738L105.615 18.2721H99.4265H99.425ZM102.565 10.0621H102.519L100.662 15.1137H104.399L102.565 10.0621Z" fill="url(#paint2_linear_676_12151)"/>
<path d="M112.926 5.15804H119.298C121.713 5.17173 123.78 5.94422 125.499 7.47399C127.219 9.00377 128.078 10.8833 128.078 13.1156C128.078 15.3479 127.214 17.2244 125.487 18.7466C123.761 20.2687 121.697 21.0306 119.298 21.0306H112.926V5.15804ZM117.42 17.5346H118.428C119.773 17.5483 120.938 17.2001 121.924 16.4899C122.91 15.7798 123.402 14.6515 123.402 13.1034C123.402 11.6832 122.943 10.5852 122.026 9.81275C121.109 9.03874 119.925 8.6525 118.473 8.6525H117.42V17.5361V17.5346Z" fill="url(#paint3_linear_676_12151)"/>
<path d="M134.658 8.6525V11.3045H139.724V14.799H134.658V17.5346H140V21.0291H130.166V5.15804H140V8.6525H134.658Z" fill="url(#paint4_linear_676_12151)"/>
<path d="M74.0949 21.0291H69.6026V8.6525H65.8887V5.15804H77.8089V8.6525H74.0949V21.0291Z" fill="url(#paint5_linear_676_12151)"/>
<path d="M88.3754 14.5252L93.8086 21.0291H88.2158L83.975 14.9252H83.9298V21.0291H79.4375V5.15804H86.1534C87.8651 5.17173 89.2937 5.56862 90.4394 6.34719C91.585 7.12577 92.1586 8.36509 92.1586 10.0621C92.1586 11.157 91.8334 12.1287 91.1846 12.9772C90.5342 13.8257 89.5993 14.3489 88.3769 14.545V14.5237L88.3754 14.5252ZM83.9283 12.2732H84.3634C84.4401 12.2869 84.5154 12.2945 84.5922 12.2945H84.7984C85.4714 12.2671 86.0856 12.1226 86.6441 11.8626C87.2011 11.6026 87.4812 11.0871 87.4812 10.3161C87.4812 9.54512 87.2026 9.01441 86.6441 8.75286C86.0856 8.49131 85.4714 8.34533 84.7984 8.31643H83.9268V12.2732H83.9283Z" fill="url(#paint6_linear_676_12151)"/>
<path d="M99.425 18.2721L98.2326 21.0291H93.4648L100.113 5.15804H105.019L111.529 21.0291H106.738L105.615 18.2721H99.4265H99.425ZM102.565 10.0621H102.519L100.662 15.1137H104.399L102.565 10.0621Z" fill="url(#paint7_linear_676_12151)"/>
<path d="M112.926 5.15804H119.298C121.713 5.17173 123.78 5.94422 125.499 7.47399C127.219 9.00377 128.078 10.8833 128.078 13.1156C128.078 15.3479 127.214 17.2244 125.487 18.7466C123.761 20.2687 121.697 21.0306 119.298 21.0306H112.926V5.15804ZM117.42 17.5346H118.428C119.773 17.5483 120.938 17.2001 121.924 16.4899C122.91 15.7798 123.402 14.6515 123.402 13.1034C123.402 11.6832 122.943 10.5852 122.026 9.81275C121.109 9.03874 119.925 8.6525 118.473 8.6525H117.42V17.5361V17.5346Z" fill="url(#paint8_linear_676_12151)"/>
<path d="M134.658 8.6525V11.3045H139.724V14.799H134.658V17.5346H140V21.0291H130.166V5.15804H140V8.6525H134.658Z" fill="url(#paint9_linear_676_12151)"/>
<path d="M74.0949 21.0291H69.6026V8.6525H65.8887V5.15804H77.8089V8.6525H74.0949V21.0291Z" fill="url(#paint10_linear_676_12151)"/>
<path d="M88.3754 14.5252L93.8086 21.0291H88.2158L83.975 14.9252H83.9298V21.0291H79.4375V5.15804H86.1534C87.8651 5.17173 89.2937 5.56862 90.4394 6.34719C91.585 7.12577 92.1586 8.36509 92.1586 10.0621C92.1586 11.157 91.8334 12.1287 91.1846 12.9772C90.5342 13.8257 89.5993 14.3489 88.3769 14.545V14.5237L88.3754 14.5252ZM83.9283 12.2732H84.3634C84.4401 12.2869 84.5154 12.2945 84.5922 12.2945H84.7984C85.4714 12.2671 86.0856 12.1226 86.6441 11.8626C87.2011 11.6026 87.4812 11.0871 87.4812 10.3161C87.4812 9.54512 87.2026 9.01441 86.6441 8.75286C86.0856 8.49131 85.4714 8.34533 84.7984 8.31643H83.9268V12.2732H83.9283Z" fill="url(#paint11_linear_676_12151)"/>
<path d="M99.425 18.2721L98.2326 21.0291H93.4648L100.113 5.15804H105.019L111.529 21.0291H106.738L105.615 18.2721H99.4265H99.425ZM102.565 10.0621H102.519L100.662 15.1137H104.399L102.565 10.0621Z" fill="url(#paint12_linear_676_12151)"/>
<path d="M112.926 5.15804H119.298C121.713 5.17173 123.78 5.94422 125.499 7.47399C127.219 9.00377 128.078 10.8833 128.078 13.1156C128.078 15.3479 127.214 17.2244 125.487 18.7466C123.761 20.2687 121.697 21.0306 119.298 21.0306H112.926V5.15804ZM117.42 17.5346H118.428C119.773 17.5483 120.938 17.2001 121.924 16.4899C122.91 15.7798 123.402 14.6515 123.402 13.1034C123.402 11.6832 122.943 10.5852 122.026 9.81275C121.109 9.03874 119.925 8.6525 118.473 8.6525H117.42V17.5361V17.5346Z" fill="url(#paint13_linear_676_12151)"/>
<path d="M134.658 8.6525V11.3045H139.724V14.799H134.658V17.5346H140V21.0291H130.166V5.15804H140V8.6525H134.658Z" fill="url(#paint14_linear_676_12151)"/>
<mask id="mask0_676_12151" style="mask-type:luminance" maskUnits="userSpaceOnUse" x="16" y="15" width="26" height="29">
<path d="M41.8443 15.7448H16.0332V44H41.8443V15.7448Z" fill="white"/>
</mask>
<g mask="url(#mask0_676_12151)">
<mask id="mask1_676_12151" style="mask-type:luminance" maskUnits="userSpaceOnUse" x="16" y="15" width="26" height="29">
<path d="M41.8443 15.7448H16.0332V44H41.8443V15.7448Z" fill="white"/>
</mask>
<g mask="url(#mask1_676_12151)">
<mask id="mask2_676_12151" style="mask-type:luminance" maskUnits="userSpaceOnUse" x="16" y="39" width="26" height="5">
<path d="M41.8443 39.6388H16.0332V44H41.8443V39.6388Z" fill="white"/>
</mask>
<g mask="url(#mask2_676_12151)">
<mask id="mask3_676_12151" style="mask-type:luminance" maskUnits="userSpaceOnUse" x="16" y="39" width="26" height="5">
<path d="M41.8447 41.8194C41.8447 40.615 36.0668 39.6388 28.9399 39.6388C21.8131 39.6388 16.0352 40.615 16.0352 41.8194C16.0352 43.0237 21.8131 44 28.9399 44C36.0668 44 41.8447 43.0237 41.8447 41.8194Z" fill="white"/>
</mask>
<g mask="url(#mask3_676_12151)">
<path d="M41.8443 39.6388H16.0332V44H41.8443V39.6388Z" fill="url(#paint15_radial_676_12151)" fill-opacity="0.1"/>
</g>
</g>
</g>
<mask id="mask4_676_12151" style="mask-type:luminance" maskUnits="userSpaceOnUse" x="16" y="16" width="26" height="27">
<path d="M16.5508 29.4261C16.5508 36.3907 22.1405 42.0368 29.0355 42.0368C35.9305 42.0368 41.5203 36.3907 41.5203 29.4261C41.5203 22.4615 35.9305 16.8153 29.0355 16.8153C22.1405 16.8153 16.5508 22.4615 16.5508 29.4261Z" fill="white"/>
</mask>
<g mask="url(#mask4_676_12151)">
<path d="M41.5188 16.817H16.5508V42.037H41.5188V16.817Z" fill="url(#paint16_linear_676_12151)"/>
</g>
<mask id="mask5_676_12151" style="mask-type:luminance" maskUnits="userSpaceOnUse" x="16" y="17" width="26" height="25">
<path d="M16.7793 29.4261C16.7793 36.2629 22.2667 41.8057 29.0352 41.8057C35.8038 41.8057 41.2912 36.2629 41.2912 29.4261C41.2912 22.5893 35.8038 17.0465 29.0352 17.0465C22.2667 17.0465 16.7793 22.5893 16.7793 29.4261Z" fill="white"/>
</mask>
<g mask="url(#mask5_676_12151)">
<path d="M41.2927 17.0465H16.7793V41.8072H41.2927V17.0465Z" fill="url(#paint17_radial_676_12151)"/>
</g>
<mask id="mask6_676_12151" style="mask-type:luminance" maskUnits="userSpaceOnUse" x="18" y="19" width="22" height="21">
<path d="M18.959 29.4261C18.959 35.0464 23.4693 39.6038 29.035 39.6038C34.6007 39.6038 39.111 35.0464 39.111 29.4261C39.111 23.8058 34.6007 19.2484 29.035 19.2484C23.4693 19.2484 18.959 23.8058 18.959 29.4261Z" fill="white"/>
</mask>
<g mask="url(#mask6_676_12151)">
<path d="M39.111 19.2484H18.959V39.6038H39.111V19.2484Z" fill="url(#paint18_radial_676_12151)"/>
</g>
</g>
<path d="M31.8188 27.2759C31.7782 27.2348 31.727 27.2151 31.6653 27.2151H30.5241C30.4489 26.8425 30.3058 26.5186 30.0966 26.2449H31.6517C31.7134 26.2449 31.7646 26.2251 31.8053 26.1841C31.8444 26.143 31.8655 26.0913 31.8655 26.029V25.3416C31.8655 25.2793 31.8459 25.2276 31.8053 25.1865C31.7646 25.1455 31.7134 25.1257 31.6517 25.1257H26.0981C26.0364 25.1257 25.9852 25.1455 25.9445 25.1865C25.9039 25.2276 25.8843 25.2793 25.8843 25.3416V26.2388C25.8843 26.2966 25.9054 26.3483 25.9475 26.3909C25.9897 26.4335 26.0394 26.4547 26.0981 26.4547H27.0661C28.0055 26.4547 28.6017 26.7087 28.8546 27.2166H26.0981C26.0364 27.2166 25.9852 27.2364 25.9445 27.2774C25.9039 27.3185 25.8843 27.3702 25.8843 27.4325V28.1199C25.8843 28.1822 25.9039 28.2339 25.9445 28.275C25.9852 28.316 26.0364 28.3358 26.0981 28.3358H28.9479C28.8501 28.7038 28.6212 28.9851 28.2629 29.1782C27.9046 29.3713 27.4319 29.4687 26.8448 29.4687H26.0966C26.0394 29.4687 25.9882 29.49 25.946 29.5325C25.9039 29.5751 25.8828 29.6253 25.8828 29.6846V30.5407C25.8828 30.5985 25.9024 30.6487 25.943 30.6898C26.7981 31.6067 27.9061 32.8901 29.2671 34.54C29.3077 34.5948 29.3634 34.6206 29.4342 34.6206H30.7364C30.8297 34.6206 30.8945 34.5796 30.9306 34.499C30.9758 34.4184 30.9667 34.3424 30.9035 34.2694C29.6043 32.6605 28.5821 31.4562 27.8399 30.6548C28.5972 30.5651 29.2099 30.3172 29.6826 29.9127C30.1538 29.5082 30.4413 28.9821 30.5437 28.3343H31.6653C31.727 28.3343 31.7782 28.3145 31.8188 28.2734C31.8595 28.2324 31.879 28.1807 31.879 28.1183V27.431C31.879 27.3687 31.8595 27.317 31.8188 27.2759Z" fill="url(#paint19_linear_676_12151)"/>
<path d="M28.8822 0L0.102371 5.56102L0 6.06739L28.8822 0.488129V0Z" fill="url(#paint20_linear_676_12151)"/>
<path d="M40.9864 2.8208C40.9864 2.8208 40.9864 2.82385 40.9864 2.82537L57.7633 6.06739L57.6609 5.5595L40.7832 2.29922C40.8073 2.33116 40.8299 2.36309 40.8525 2.40415C40.9112 2.51667 40.9548 2.6581 40.9849 2.8208H40.9864Z" fill="url(#paint21_linear_676_12151)"/>
<path d="M40.6645 2.76302C40.6434 2.67786 40.6179 2.60487 40.5877 2.54709C40.5531 2.4817 40.5095 2.42696 40.4583 2.38134L40.4312 2.35853L40.4267 2.35397L40.0036 2.27185C40.0458 2.23688 40.0955 2.20342 40.1466 2.17453L28.8828 0V0.488129L40.6645 2.76454V2.76302Z" fill="url(#paint22_linear_676_12151)"/>
<path d="M41.0431 3.37584C41.0642 3.90503 41.0115 4.51937 40.9482 5.03791C40.8986 5.44089 40.8895 5.9792 40.9121 6.50382C41.5293 6.70911 42.1375 6.93568 42.7262 7.19115L42.8285 9.04787L57.7642 6.06891L40.9874 2.82689C41.019 2.99264 41.0371 3.17816 41.0431 3.37736V3.37584Z" fill="url(#paint23_linear_676_12151)"/>
<path d="M28.8822 4.74595C28.8822 4.74595 35.0787 4.65471 40.6052 6.4065C40.5871 5.8986 40.5992 5.38918 40.6473 5.00142C40.7437 4.22132 40.7678 3.56896 40.7211 3.11125C40.7076 2.97895 40.688 2.86338 40.6624 2.76606L28.8822 0.488129L0 6.06739L14.9356 9.04634L15.038 7.18963C20.956 4.6243 28.8822 4.74443 28.8822 4.74443V4.74595Z" fill="url(#paint24_linear_676_12151)"/>
<path d="M41.8412 11.3866C42.5608 11.6938 42.4901 13.0898 42.4901 13.0898L43.2022 15.798L42.9839 11.8428C42.6105 11.563 42.1995 11.2756 41.7539 10.9867L41.8412 11.3866Z" fill="url(#paint25_linear_676_12151)"/>
<path d="M41.0825 13.1719C41.0825 13.1719 40.8763 11.9006 41.4649 11.4566L41.3189 10.7145C40.7679 10.3724 40.1747 10.0332 39.5379 9.70327L28.8838 11.8291L17.6636 9.59074C16.4788 10.199 15.5198 10.8042 14.8138 11.2817L14.9372 9.04787L14.4043 18.704C14.4043 18.704 15.9594 19.1693 19.8947 19.5039C22.1694 17.0799 25.3866 15.5654 28.9545 15.5654C32.5225 15.5654 35.7291 17.0754 38.0038 19.4932C39.2097 19.3883 40.1883 19.2712 40.9606 19.1617L41.084 13.1719H41.0825Z" fill="url(#paint26_linear_676_12151)"/>
<path d="M17.6621 9.59074L28.8823 11.8291L39.5364 9.70327C36.4502 8.1081 32.4156 6.77449 28.0889 6.8779C23.7472 6.98282 20.1898 8.2921 17.6621 9.59074Z" fill="url(#paint27_linear_676_12151)"/>
<path d="M17.6621 9.59074L28.8823 11.8291L39.5364 9.70327C36.4502 8.1081 32.4156 6.77449 28.0889 6.8779C23.7472 6.98282 20.1898 8.2921 17.6621 9.59074Z" fill="url(#paint28_linear_676_12151)"/>
<path d="M15.0397 7.19115L14.9355 9.04787L15.0397 7.19115Z" fill="url(#paint29_linear_676_12151)"/>
<path d="M15.0397 7.19115L14.9355 9.04787L15.0397 7.19115Z" fill="url(#paint30_linear_676_12151)"/>
<path d="M42.8292 9.04787L42.7266 7.19115L42.8292 9.04787Z" fill="url(#paint31_linear_676_12151)"/>
<path style="mix-blend-mode:multiply" opacity="0.75" d="M42.8292 9.04787L42.7266 7.19115L42.8292 9.04787Z" fill="url(#paint32_radial_676_12151)"/>
<path d="M14.8145 11.2817C15.519 10.8042 16.4795 10.199 17.6643 9.59074L14.9379 9.04635L14.8145 11.2802V11.2817Z" fill="url(#paint33_linear_676_12151)"/>
<path style="mix-blend-mode:multiply" opacity="0.75" d="M14.8145 11.2817C15.519 10.8042 16.4795 10.199 17.6643 9.59074L14.9379 9.04635L14.8145 11.2802V11.2817Z" fill="url(#paint34_radial_676_12151)"/>
<path d="M41.3906 9.33375L41.7534 10.9867C42.1991 11.2756 42.61 11.563 42.9834 11.8428L42.8283 9.04635L41.3906 9.33375Z" fill="url(#paint35_linear_676_12151)"/>
<path style="mix-blend-mode:multiply" opacity="0.75" d="M41.3906 9.33375L41.7534 10.9867C42.1991 11.2756 42.61 11.563 42.9834 11.8428L42.8283 9.04635L41.3906 9.33375Z" fill="url(#paint36_radial_676_12151)"/>
<path d="M39.5367 9.70327C40.175 10.0332 40.7681 10.3724 41.3176 10.7145L41.0587 9.39914L39.5352 9.70327H39.5367Z" fill="url(#paint37_linear_676_12151)"/>
<path style="mix-blend-mode:multiply" opacity="0.75" d="M39.5367 9.70327C40.175 10.0332 40.7681 10.3724 41.3176 10.7145L41.0587 9.39914L39.5352 9.70327H39.5367Z" fill="url(#paint38_radial_676_12151)"/>
<path d="M40.7576 7.8572C40.6763 7.47095 40.6251 6.93872 40.6071 6.40498C35.0805 4.65319 28.8841 4.74443 28.8841 4.74443C28.8841 4.74443 20.9578 4.62582 15.0399 7.18963L14.9375 9.04634L17.6639 9.59074C20.1915 8.29362 23.7474 6.98282 28.0907 6.8779C32.4174 6.77449 36.452 8.1081 39.5382 9.70327L41.0617 9.39914L40.7591 7.8572H40.7576Z" fill="url(#paint39_linear_676_12151)"/>
<path d="M40.7576 7.8572C40.6763 7.47095 40.6251 6.93872 40.6071 6.40498C35.0805 4.65319 28.8841 4.74443 28.8841 4.74443C28.8841 4.74443 20.9578 4.62582 15.0399 7.18963L14.9375 9.04634L17.6639 9.59074C20.1915 8.29362 23.7474 6.98282 28.0907 6.8779C32.4174 6.77449 36.452 8.1081 39.5382 9.70327L41.0617 9.39914L40.7591 7.8572H40.7576Z" fill="url(#paint40_linear_676_12151)"/>
<path style="mix-blend-mode:multiply" opacity="0.75" d="M40.7576 7.8572C40.6763 7.47095 40.6251 6.93872 40.6071 6.40498C35.0805 4.65319 28.8841 4.74443 28.8841 4.74443C28.8841 4.74443 20.9578 4.62582 15.0399 7.18963L14.9375 9.04634L17.6639 9.59074C20.1915 8.29362 23.7474 6.98282 28.0907 6.8779C32.4174 6.77449 36.452 8.1081 39.5382 9.70327L41.0617 9.39914L40.7591 7.8572H40.7576Z" fill="url(#paint41_radial_676_12151)"/>
<path d="M41.3908 9.33375L42.8286 9.04635L42.7262 7.18963C42.1391 6.93416 41.5309 6.70759 40.9121 6.5023C40.9332 6.97978 40.9814 7.44814 41.0536 7.79181L41.3908 9.33071V9.33375Z" fill="url(#paint42_linear_676_12151)"/>
<path d="M41.3908 9.33375L42.8286 9.04635L42.7262 7.18963C42.1391 6.93416 41.5309 6.70759 40.9121 6.5023C40.9332 6.97978 40.9814 7.44814 41.0536 7.79181L41.3908 9.33071V9.33375Z" fill="url(#paint43_linear_676_12151)"/>
<path style="mix-blend-mode:multiply" opacity="0.75" d="M41.3908 9.33375L42.8286 9.04635L42.7262 7.18963C42.1391 6.93416 41.5309 6.70759 40.9121 6.5023C40.9332 6.97978 40.9814 7.44814 41.0536 7.79181L41.3908 9.33071V9.33375Z" fill="url(#paint44_radial_676_12151)"/>
<path d="M40.1445 2.17605L40.7844 2.29922C40.5901 2.03159 40.3433 2.06352 40.1445 2.17605Z" fill="url(#paint45_linear_676_12151)"/>
<path d="M40.425 2.35549L40.4295 2.36005L40.4566 2.38286C40.5078 2.42848 40.5514 2.48322 40.5861 2.54861C40.6162 2.60639 40.6418 2.67938 40.6629 2.76454L40.9865 2.82689C40.9865 2.82689 40.9865 2.82385 40.9865 2.82233C40.9564 2.65962 40.9128 2.5182 40.854 2.40567C40.833 2.36461 40.8089 2.33268 40.7848 2.30074L40.145 2.17757C40.0938 2.20646 40.0441 2.23992 40.002 2.27489L40.425 2.35701V2.35549Z" fill="url(#paint46_linear_676_12151)"/>
<path d="M40.425 2.35549L40.4295 2.36005L40.4566 2.38286C40.5078 2.42848 40.5514 2.48322 40.5861 2.54861C40.6162 2.60639 40.6418 2.67938 40.6629 2.76454L40.9865 2.82689C40.9865 2.82689 40.9865 2.82385 40.9865 2.82233C40.9564 2.65962 40.9128 2.5182 40.854 2.40567C40.833 2.36461 40.8089 2.33268 40.7848 2.30074L40.145 2.17757C40.0938 2.20646 40.0441 2.23992 40.002 2.27489L40.425 2.35701V2.35549Z" fill="url(#paint47_linear_676_12151)"/>
<path d="M40.9493 5.03791C41.0141 4.51937 41.0652 3.90503 41.0442 3.37584C41.0381 3.17816 41.0186 2.99112 40.9885 2.82537L40.6648 2.76302C40.6904 2.86186 40.71 2.97591 40.7235 3.10821C40.7702 3.56592 40.7461 4.21828 40.6497 4.99838C40.6016 5.38614 40.5895 5.89556 40.6076 6.40346C40.71 6.43539 40.8123 6.46884 40.9147 6.5023C40.8921 5.97615 40.9011 5.43936 40.9508 5.03639L40.9493 5.03791Z" fill="url(#paint48_linear_676_12151)"/>
<path d="M40.9493 5.03791C41.0141 4.51937 41.0652 3.90503 41.0442 3.37584C41.0381 3.17816 41.0186 2.99112 40.9885 2.82537L40.6648 2.76302C40.6904 2.86186 40.71 2.97591 40.7235 3.10821C40.7702 3.56592 40.7461 4.21828 40.6497 4.99838C40.6016 5.38614 40.5895 5.89556 40.6076 6.40346C40.71 6.43539 40.8123 6.46884 40.9147 6.5023C40.8921 5.97615 40.9011 5.43936 40.9508 5.03639L40.9493 5.03791Z" fill="url(#paint49_linear_676_12151)"/>
<path d="M41.8408 11.3866L41.7534 10.9867C41.6134 10.8955 41.4644 10.8057 41.3184 10.7145L41.4644 11.4566C41.5291 11.4079 41.5999 11.3669 41.6857 11.341C41.7414 11.3517 41.7926 11.3669 41.8408 11.3881V11.3866Z" fill="url(#paint50_linear_676_12151)"/>
<path d="M41.8408 11.3866L41.7534 10.9867C41.6134 10.8955 41.4644 10.8057 41.3184 10.7145L41.4644 11.4566C41.5291 11.4079 41.5999 11.3669 41.6857 11.341C41.7414 11.3517 41.7926 11.3669 41.8408 11.3881V11.3866Z" fill="url(#paint51_linear_676_12151)"/>
<path d="M41.3917 9.33375L41.0605 9.39914L41.3195 10.7145C41.4655 10.8057 41.6146 10.897 41.7546 10.9867L41.3917 9.33375Z" fill="url(#paint52_linear_676_12151)"/>
<path style="mix-blend-mode:multiply" opacity="0.75" d="M41.3917 9.33375L41.0605 9.39914L41.3195 10.7145C41.4655 10.8057 41.6146 10.897 41.7546 10.9867L41.3917 9.33375Z" fill="url(#paint53_radial_676_12151)"/>
<path d="M41.3917 9.33375L41.0605 9.39914L41.3195 10.7145C41.4655 10.8057 41.6146 10.897 41.7546 10.9867L41.3917 9.33375Z" fill="url(#paint54_linear_676_12151)"/>
<path d="M41.0601 9.40066L41.3913 9.33527L41.0541 7.79637C40.9818 7.45118 40.9337 6.98434 40.9126 6.50686C40.8102 6.47341 40.7078 6.43995 40.6055 6.40802C40.6235 6.94329 40.6762 7.47551 40.756 7.86024L41.0586 9.40218L41.0601 9.40066Z" fill="url(#paint55_linear_676_12151)"/>
<path d="M41.0601 9.40066L41.3913 9.33527L41.0541 7.79637C40.9818 7.45118 40.9337 6.98434 40.9126 6.50686C40.8102 6.47341 40.7078 6.43995 40.6055 6.40802C40.6235 6.94329 40.6762 7.47551 40.756 7.86024L41.0586 9.40218L41.0601 9.40066Z" fill="url(#paint56_linear_676_12151)"/>
<path style="mix-blend-mode:multiply" opacity="0.75" d="M41.0601 9.40066L41.3913 9.33527L41.0541 7.79637C40.9818 7.45118 40.9337 6.98434 40.9126 6.50686C40.8102 6.47341 40.7078 6.43995 40.6055 6.40802C40.6235 6.94329 40.6762 7.47551 40.756 7.86024L41.0586 9.40218L41.0601 9.40066Z" fill="url(#paint57_radial_676_12151)"/>
<path d="M41.0601 9.40066L41.3913 9.33527L41.0541 7.79637C40.9818 7.45118 40.9337 6.98434 40.9126 6.50686C40.8102 6.47341 40.7078 6.43995 40.6055 6.40802C40.6235 6.94329 40.6762 7.47551 40.756 7.86024L41.0586 9.40218L41.0601 9.40066Z" fill="url(#paint58_linear_676_12151)"/>
<path d="M43.3622 18.704C43.3622 18.704 42.6471 18.9184 40.9595 19.1602L40.9414 20.0178C40.9414 20.0178 42.4619 20.36 44.2624 19.8369L43.2011 15.7996L43.3622 18.704Z" fill="url(#paint59_linear_676_12151)"/>
<path d="M43.3612 18.704L43.2002 15.7996L42.4881 13.0913C42.2352 13.2509 41.35 13.3026 41.0805 13.1719L40.957 19.1617C42.6446 18.9199 43.3597 18.7055 43.3597 18.7055L43.3612 18.704Z" fill="url(#paint60_linear_676_12151)"/>
<path d="M43.3612 18.704L43.2002 15.7996L42.4881 13.0913C42.2352 13.2509 41.35 13.3026 41.0805 13.1719L40.957 19.1617C42.6446 18.9199 43.3597 18.7055 43.3597 18.7055L43.3612 18.704Z" fill="url(#paint61_linear_676_12151)"/>
<path d="M41.8406 11.3866L41.8813 11.5752L41.5049 11.6664L41.4643 11.4566C40.8756 11.8991 41.0819 13.1719 41.0819 13.1719C41.5019 12.7735 42.4895 13.0913 42.4895 13.0913C42.4895 13.0913 42.5602 11.6953 41.8406 11.3881V11.3866Z" fill="url(#paint62_linear_676_12151)"/>
<path d="M41.8406 11.3866L41.8813 11.5752L41.5049 11.6664L41.4643 11.4566C40.8756 11.8991 41.0819 13.1719 41.0819 13.1719C41.5019 12.7735 42.4895 13.0913 42.4895 13.0913C42.4895 13.0913 42.5602 11.6953 41.8406 11.3881V11.3866Z" fill="url(#paint63_linear_676_12151)"/>
<path d="M41.8819 11.5752L41.8412 11.3866C41.793 11.3653 41.7418 11.3501 41.6861 11.3395C41.6003 11.3653 41.5296 11.4064 41.4648 11.4551L41.5055 11.6649L41.8819 11.5737V11.5752Z" fill="url(#paint64_linear_676_12151)"/>
<path d="M41.8819 11.5752L41.8412 11.3866C41.793 11.3653 41.7418 11.3501 41.6861 11.3395C41.6003 11.3653 41.5296 11.4064 41.4648 11.4551L41.5055 11.6649L41.8819 11.5737V11.5752Z" fill="url(#paint65_linear_676_12151)"/>
<path d="M41.8819 11.5752L41.8412 11.3866C41.793 11.3653 41.7418 11.3501 41.6861 11.3395C41.6003 11.3653 41.5296 11.4064 41.4648 11.4551L41.5055 11.6649L41.8819 11.5737V11.5752Z" fill="url(#paint66_linear_676_12151)"/>
<path d="M41.082 13.1719C41.3515 13.3011 42.2367 13.2509 42.4896 13.0913C42.4896 13.0913 41.5021 12.7735 41.082 13.1719Z" fill="url(#paint67_linear_676_12151)"/>
<path d="M41.082 13.1719C41.3515 13.3011 42.2367 13.2509 42.4896 13.0913C42.4896 13.0913 41.5021 12.7735 41.082 13.1719Z" fill="url(#paint68_linear_676_12151)"/>
<path d="M41.082 13.1719C41.3515 13.3011 42.2367 13.2509 42.4896 13.0913C42.4896 13.0913 41.5021 12.7735 41.082 13.1719Z" fill="url(#paint69_linear_676_12151)"/>
<path d="M28.9524 15.5654C25.3845 15.5654 22.1673 17.0799 19.8926 19.5039C19.9889 19.5115 20.0838 19.5206 20.1846 19.5282C22.4097 17.2259 25.5155 15.795 28.9524 15.795H28.9539C32.3849 15.795 35.4861 17.2214 37.7112 19.5175C37.8105 19.5099 37.9069 19.5008 38.0032 19.4932C35.7285 17.0754 32.5173 15.5654 28.9539 15.5654H28.9524Z" fill="url(#paint70_linear_676_12151)"/>
<path d="M13.202 24.9812L12.6134 23.7769L12.0248 24.9812L10.709 25.1744L11.6619 26.1111L11.4361 27.434L12.6134 26.8091L13.7891 27.434L13.5648 26.1111L14.5163 25.1744L13.202 24.9812Z" fill="url(#paint71_linear_676_12151)"/>
<path d="M45.7728 24.9812L45.1842 23.7769L44.5955 24.9812L43.2812 25.1744L44.2327 26.1111L44.0084 27.434L45.1842 26.8091L46.3614 27.434L46.1356 26.1111L47.0886 25.1744L45.7728 24.9812Z" fill="url(#paint72_linear_676_12151)"/>
</g>
<defs>
<linearGradient id="paint0_linear_676_12151" x1="102.944" y1="21.0291" x2="102.944" y2="5.15804" gradientUnits="userSpaceOnUse">
<stop stop-color="#43217F"/>
<stop offset="0.36" stop-color="#7A15AE"/>
<stop offset="1" stop-color="#D902FF"/>
</linearGradient>
<linearGradient id="paint1_linear_676_12151" x1="102.944" y1="21.0291" x2="102.944" y2="5.15804" gradientUnits="userSpaceOnUse">
<stop stop-color="#43217F"/>
<stop offset="0.36" stop-color="#7A15AE"/>
<stop offset="1" stop-color="#D902FF"/>
</linearGradient>
<linearGradient id="paint2_linear_676_12151" x1="102.943" y1="21.0291" x2="102.943" y2="5.15804" gradientUnits="userSpaceOnUse">
<stop stop-color="#43217F"/>
<stop offset="0.36" stop-color="#7A15AE"/>
<stop offset="1" stop-color="#D902FF"/>
</linearGradient>
<linearGradient id="paint3_linear_676_12151" x1="102.943" y1="21.0291" x2="102.943" y2="5.15804" gradientUnits="userSpaceOnUse">
<stop stop-color="#43217F"/>
<stop offset="0.36" stop-color="#7A15AE"/>
<stop offset="1" stop-color="#D902FF"/>
</linearGradient>
<linearGradient id="paint4_linear_676_12151" x1="102.944" y1="21.0291" x2="102.944" y2="5.15804" gradientUnits="userSpaceOnUse">
<stop stop-color="#43217F"/>
<stop offset="0.36" stop-color="#7A15AE"/>
<stop offset="1" stop-color="#D902FF"/>
</linearGradient>
<linearGradient id="paint5_linear_676_12151" x1="102.944" y1="21.0291" x2="102.944" y2="5.15804" gradientUnits="userSpaceOnUse">
<stop stop-color="#43217F"/>
<stop offset="0.36" stop-color="#7A15AE"/>
<stop offset="1" stop-color="#D902FF"/>
</linearGradient>
<linearGradient id="paint6_linear_676_12151" x1="102.944" y1="21.0291" x2="102.944" y2="5.15804" gradientUnits="userSpaceOnUse">
<stop stop-color="#43217F"/>
<stop offset="0.36" stop-color="#7A15AE"/>
<stop offset="1" stop-color="#D902FF"/>
</linearGradient>
<linearGradient id="paint7_linear_676_12151" x1="102.943" y1="21.0291" x2="102.943" y2="5.15804" gradientUnits="userSpaceOnUse">
<stop stop-color="#43217F"/>
<stop offset="0.36" stop-color="#7A15AE"/>
<stop offset="1" stop-color="#D902FF"/>
</linearGradient>
<linearGradient id="paint8_linear_676_12151" x1="102.943" y1="21.0291" x2="102.943" y2="5.15804" gradientUnits="userSpaceOnUse">
<stop stop-color="#43217F"/>
<stop offset="0.36" stop-color="#7A15AE"/>
<stop offset="1" stop-color="#D902FF"/>
</linearGradient>
<linearGradient id="paint9_linear_676_12151" x1="102.944" y1="21.0291" x2="102.944" y2="5.15804" gradientUnits="userSpaceOnUse">
<stop stop-color="#43217F"/>
<stop offset="0.36" stop-color="#7A15AE"/>
<stop offset="1" stop-color="#D902FF"/>
</linearGradient>
<linearGradient id="paint10_linear_676_12151" x1="102.944" y1="21.0291" x2="102.944" y2="5.15804" gradientUnits="userSpaceOnUse">
<stop stop-color="#43217F"/>
<stop offset="0.36" stop-color="#7A15AE"/>
<stop offset="1" stop-color="#D902FF"/>
</linearGradient>
<linearGradient id="paint11_linear_676_12151" x1="102.944" y1="21.0291" x2="102.944" y2="5.15804" gradientUnits="userSpaceOnUse">
<stop stop-color="#43217F"/>
<stop offset="0.36" stop-color="#7A15AE"/>
<stop offset="1" stop-color="#D902FF"/>
</linearGradient>
<linearGradient id="paint12_linear_676_12151" x1="102.943" y1="21.0291" x2="102.943" y2="5.15804" gradientUnits="userSpaceOnUse">
<stop stop-color="#43217F"/>
<stop offset="0.36" stop-color="#7A15AE"/>
<stop offset="1" stop-color="#D902FF"/>
</linearGradient>
<linearGradient id="paint13_linear_676_12151" x1="102.943" y1="21.0291" x2="102.943" y2="5.15804" gradientUnits="userSpaceOnUse">
<stop stop-color="#43217F"/>
<stop offset="0.36" stop-color="#7A15AE"/>
<stop offset="1" stop-color="#D902FF"/>
</linearGradient>
<linearGradient id="paint14_linear_676_12151" x1="102.944" y1="21.0291" x2="102.944" y2="5.15804" gradientUnits="userSpaceOnUse">
<stop stop-color="#43217F"/>
<stop offset="0.36" stop-color="#7A15AE"/>
<stop offset="1" stop-color="#D902FF"/>
</linearGradient>
<radialGradient id="paint15_radial_676_12151" cx="0" cy="0" r="1" gradientUnits="userSpaceOnUse" gradientTransform="translate(27.6844 41.8218) scale(12.774 2.1582)">
<stop/>
<stop offset="0.13"/>
<stop offset="0.21" stop-color="#0C0E10"/>
<stop offset="0.39" stop-color="#22272D"/>
<stop offset="0.56" stop-color="#323943"/>
<stop offset="0.73" stop-color="#3B444F"/>
<stop offset="0.88" stop-color="#3F4854"/>
<stop offset="1" stop-color="#3F4854"/>
</radialGradient>
<linearGradient id="paint16_linear_676_12151" x1="29.6039" y1="17.5664" x2="29.6039" y2="43.3043" gradientUnits="userSpaceOnUse">
<stop stop-color="#FFF0D3"/>
<stop offset="0.08" stop-color="#FFE8B3"/>
<stop offset="0.27" stop-color="#FFD662"/>
<stop offset="0.38" stop-color="#FFCA2D"/>
<stop offset="0.47" stop-color="#FBC42A"/>
<stop offset="0.57" stop-color="#F2B524"/>
<stop offset="0.69" stop-color="#E39B1A"/>
<stop offset="0.81" stop-color="#CD780D"/>
<stop offset="0.91" stop-color="#BA5700"/>
<stop offset="0.99" stop-color="#D78717"/>
<stop offset="1" stop-color="#D78717"/>
</linearGradient>
<radialGradient id="paint17_radial_676_12151" cx="0" cy="0" r="1" gradientUnits="userSpaceOnUse" gradientTransform="translate(15.7095 18.437) scale(32.3595 32.6861)">
<stop stop-color="#F2B52A"/>
<stop offset="0.09" stop-color="#F2B52A"/>
<stop offset="0.17" stop-color="#F5C53A"/>
<stop offset="0.32" stop-color="#FEF164"/>
<stop offset="0.33" stop-color="#FFF366"/>
<stop offset="0.43" stop-color="#FFDC46"/>
<stop offset="0.51" stop-color="#FFCA2D"/>
<stop offset="0.55" stop-color="#FBC42C"/>
<stop offset="0.59" stop-color="#F2B52A"/>
<stop offset="0.64" stop-color="#E39B27"/>
<stop offset="0.68" stop-color="#D38124"/>
<stop offset="0.82" stop-color="#FFC92D"/>
<stop offset="0.85" stop-color="#FFD33A"/>
<stop offset="0.91" stop-color="#FFF163"/>
<stop offset="1" stop-color="#FFF163"/>
</radialGradient>
<radialGradient id="paint18_radial_676_12151" cx="0" cy="0" r="1" gradientUnits="userSpaceOnUse" gradientTransform="translate(28.369 29.7938) scale(10.1842 10.2869)">
<stop stop-color="#FFCA2D"/>
<stop offset="0.86" stop-color="#FFCA2D"/>
<stop offset="0.88" stop-color="#FDC62C"/>
<stop offset="0.9" stop-color="#F7BD2B"/>
<stop offset="0.92" stop-color="#EDAC29"/>
<stop offset="0.94" stop-color="#DF9526"/>
<stop offset="0.95" stop-color="#D38124"/>
<stop offset="0.98" stop-color="#E49D27"/>
<stop offset="1" stop-color="#E49D27"/>
</radialGradient>
<linearGradient id="paint19_linear_676_12151" x1="25.8843" y1="29.8716" x2="31.879" y2="29.8716" gradientUnits="userSpaceOnUse">
<stop stop-color="#19242D"/>
<stop offset="0.19" stop-color="#25323E"/>
<stop offset="0.53" stop-color="#121A21"/>
<stop offset="0.81" stop-color="#1C2630"/>
<stop offset="1" stop-color="#060B10"/>
</linearGradient>
<linearGradient id="paint20_linear_676_12151" x1="0" y1="3.0337" x2="28.8822" y2="3.0337" gradientUnits="userSpaceOnUse">
<stop stop-color="#42566A"/>
<stop offset="1" stop-color="#1F3748"/>
</linearGradient>
<linearGradient id="paint21_linear_676_12151" x1="57.7663" y1="4.18331" x2="28.8826" y2="4.18331" gradientUnits="userSpaceOnUse">
<stop stop-color="#121A21"/>
<stop offset="1" stop-color="#04060A"/>
</linearGradient>
<linearGradient id="paint22_linear_676_12151" x1="57.7665" y1="1.38227" x2="28.8828" y2="1.38227" gradientUnits="userSpaceOnUse">
<stop stop-color="#121A21"/>
<stop offset="1" stop-color="#04060A"/>
</linearGradient>
<linearGradient id="paint23_linear_676_12151" x1="-0.000206019" y1="5.93662" x2="57.7642" y2="5.93662" gradientUnits="userSpaceOnUse">
<stop stop-color="#2E3D4C"/>
<stop offset="1" stop-color="#030407"/>
</linearGradient>
<linearGradient id="paint24_linear_676_12151" x1="0" y1="4.76724" x2="57.7644" y2="4.76724" gradientUnits="userSpaceOnUse">
<stop stop-color="#2E3D4C"/>
<stop offset="1" stop-color="#030407"/>
</linearGradient>
<linearGradient id="paint25_linear_676_12151" x1="14.7867" y1="13.1065" x2="42.7686" y2="13.3911" gradientUnits="userSpaceOnUse">
<stop stop-color="#19242D"/>
<stop offset="0.19" stop-color="#25323E"/>
<stop offset="0.53" stop-color="#121A21"/>
<stop offset="0.81" stop-color="#1C2630"/>
<stop offset="1" stop-color="#060B10"/>
</linearGradient>
<linearGradient id="paint26_linear_676_12151" x1="14.7746" y1="14.2485" x2="42.7566" y2="14.5317" gradientUnits="userSpaceOnUse">
<stop stop-color="#19242D"/>
<stop offset="0.19" stop-color="#25323E"/>
<stop offset="0.53" stop-color="#121A21"/>
<stop offset="0.81" stop-color="#1C2630"/>
<stop offset="1" stop-color="#060B10"/>
</linearGradient>
<linearGradient id="paint27_linear_676_12151" x1="8.71857e-05" y1="9.35048" x2="57.7645" y2="9.35048" gradientUnits="userSpaceOnUse">
<stop stop-color="#2E3D4C"/>
<stop offset="1" stop-color="#030407"/>
</linearGradient>
<linearGradient id="paint28_linear_676_12151" x1="14.8258" y1="9.20601" x2="42.8078" y2="9.49068" gradientUnits="userSpaceOnUse">
<stop stop-color="#19242D"/>
<stop offset="0.19" stop-color="#25323E"/>
<stop offset="0.53" stop-color="#121A21"/>
<stop offset="0.81" stop-color="#1C2630"/>
<stop offset="1" stop-color="#060B10"/>
</linearGradient>
<linearGradient id="paint29_linear_676_12151" x1="-0.0458225" y1="8.11875" x2="57.8954" y2="8.11875" gradientUnits="userSpaceOnUse">
<stop stop-color="#2E3D4C"/>
<stop offset="1" stop-color="#030407"/>
</linearGradient>
<linearGradient id="paint30_linear_676_12151" x1="14.8374" y1="8.11723" x2="42.9035" y2="8.40364" gradientUnits="userSpaceOnUse">
<stop stop-color="#19242D"/>
<stop offset="0.19" stop-color="#25323E"/>
<stop offset="0.53" stop-color="#121A21"/>
<stop offset="0.81" stop-color="#1C2630"/>
<stop offset="1" stop-color="#060B10"/>
</linearGradient>
<linearGradient id="paint31_linear_676_12151" x1="-0.13002" y1="8.11875" x2="57.8104" y2="8.11875" gradientUnits="userSpaceOnUse">
<stop stop-color="#2E3D4C"/>
<stop offset="1" stop-color="#030407"/>
</linearGradient>
<radialGradient id="paint32_radial_676_12151" cx="0" cy="0" r="1" gradientUnits="userSpaceOnUse" gradientTransform="translate(23.4629 2.20646) scale(20.6212 20.766)">
<stop stop-color="#2E3D4C" stop-opacity="0"/>
<stop offset="1" stop-color="#030407"/>
</radialGradient>
<linearGradient id="paint33_linear_676_12151" x1="14.8175" y1="10.164" x2="42.7995" y2="10.4472" gradientUnits="userSpaceOnUse">
<stop stop-color="#19242D"/>
<stop offset="0.19" stop-color="#25323E"/>
<stop offset="0.53" stop-color="#121A21"/>
<stop offset="0.81" stop-color="#1C2630"/>
<stop offset="1" stop-color="#060B10"/>
</linearGradient>
<radialGradient id="paint34_radial_676_12151" cx="0" cy="0" r="1" gradientUnits="userSpaceOnUse" gradientTransform="translate(23.522 2.20646) scale(20.5585 20.766)">
<stop stop-color="#2E3D4C" stop-opacity="0"/>
<stop offset="1" stop-color="#030407"/>
</radialGradient>
<linearGradient id="paint35_linear_676_12151" x1="14.8163" y1="10.1549" x2="42.7983" y2="10.4396" gradientUnits="userSpaceOnUse">
<stop stop-color="#19242D"/>
<stop offset="0.19" stop-color="#25323E"/>
<stop offset="0.53" stop-color="#121A21"/>
<stop offset="0.81" stop-color="#1C2630"/>
<stop offset="1" stop-color="#060B10"/>
</linearGradient>
<radialGradient id="paint36_radial_676_12151" cx="0" cy="0" r="1" gradientUnits="userSpaceOnUse" gradientTransform="translate(23.5209 0.0760349) scale(20.5585 20.766)">
<stop stop-color="#2E3D4C" stop-opacity="0"/>
<stop offset="1" stop-color="#030407"/>
</radialGradient>
<linearGradient id="paint37_linear_676_12151" x1="14.8215" y1="9.78386" x2="42.8021" y2="10.0685" gradientUnits="userSpaceOnUse">
<stop stop-color="#19242D"/>
<stop offset="0.19" stop-color="#25323E"/>
<stop offset="0.53" stop-color="#121A21"/>
<stop offset="0.81" stop-color="#1C2630"/>
<stop offset="1" stop-color="#060B10"/>
</linearGradient>
<radialGradient id="paint38_radial_676_12151" cx="0" cy="0" r="1" gradientUnits="userSpaceOnUse" gradientTransform="translate(23.5216 2.20646) scale(20.5586 20.766)">
<stop stop-color="#2E3D4C" stop-opacity="0"/>
<stop offset="1" stop-color="#030407"/>
</radialGradient>
<linearGradient id="paint39_linear_676_12151" x1="0.000351482" y1="7.22461" x2="57.7648" y2="7.22461" gradientUnits="userSpaceOnUse">
<stop stop-color="#2E3D4C"/>
<stop offset="1" stop-color="#030407"/>
</linearGradient>
<linearGradient id="paint40_linear_676_12151" x1="14.8487" y1="7.07862" x2="42.8292" y2="7.36329" gradientUnits="userSpaceOnUse">
<stop stop-color="#19242D"/>
<stop offset="0.19" stop-color="#25323E"/>
<stop offset="0.53" stop-color="#121A21"/>
<stop offset="0.81" stop-color="#1C2630"/>
<stop offset="1" stop-color="#060B10"/>
</linearGradient>
<radialGradient id="paint41_radial_676_12151" cx="0" cy="0" r="1" gradientUnits="userSpaceOnUse" gradientTransform="translate(23.5216 2.20646) scale(20.5585 20.766)">
<stop stop-color="#2E3D4C" stop-opacity="0"/>
<stop offset="1" stop-color="#030407"/>
</radialGradient>
<linearGradient id="paint42_linear_676_12151" x1="-0.000131427" y1="7.91954" x2="57.7642" y2="7.91954" gradientUnits="userSpaceOnUse">
<stop stop-color="#2E3D4C"/>
<stop offset="1" stop-color="#030407"/>
</linearGradient>
<linearGradient id="paint43_linear_676_12151" x1="14.8421" y1="7.64735" x2="42.8241" y2="7.93053" gradientUnits="userSpaceOnUse">
<stop stop-color="#19242D"/>
<stop offset="0.19" stop-color="#25323E"/>
<stop offset="0.53" stop-color="#121A21"/>
<stop offset="0.81" stop-color="#1C2630"/>
<stop offset="1" stop-color="#060B10"/>
</linearGradient>
<radialGradient id="paint44_radial_676_12151" cx="0" cy="0" r="1" gradientUnits="userSpaceOnUse" gradientTransform="translate(23.5211 2.20646) scale(20.5585 20.766)">
<stop stop-color="#2E3D4C" stop-opacity="0"/>
<stop offset="1" stop-color="#030407"/>
</radialGradient>
<linearGradient id="paint45_linear_676_12151" x1="41.0583" y1="11.8748" x2="40.4409" y2="2.04148" gradientUnits="userSpaceOnUse">
<stop stop-color="#A96405"/>
<stop offset="0.72" stop-color="#FDCF5E"/>
<stop offset="1" stop-color="#C28622"/>
</linearGradient>
<linearGradient id="paint46_linear_676_12151" x1="57.7664" y1="2.50147" x2="28.8826" y2="2.50147" gradientUnits="userSpaceOnUse">
<stop stop-color="#121A21"/>
<stop offset="1" stop-color="#04060A"/>
</linearGradient>
<linearGradient id="paint47_linear_676_12151" x1="41.0693" y1="11.8748" x2="40.4519" y2="2.04148" gradientUnits="userSpaceOnUse">
<stop stop-color="#A96405"/>
<stop offset="0.72" stop-color="#FDCF5E"/>
<stop offset="1" stop-color="#C28622"/>
</linearGradient>
<linearGradient id="paint48_linear_676_12151" x1="0.000966831" y1="4.63342" x2="57.7652" y2="4.63342" gradientUnits="userSpaceOnUse">
<stop stop-color="#2E3D4C"/>
<stop offset="1" stop-color="#030407"/>
</linearGradient>
<linearGradient id="paint49_linear_676_12151" x1="41.2564" y1="11.8626" x2="40.6375" y2="2.02932" gradientUnits="userSpaceOnUse">
<stop stop-color="#A96405"/>
<stop offset="0.72" stop-color="#FDCF5E"/>
<stop offset="1" stop-color="#C28622"/>
</linearGradient>
<linearGradient id="paint50_linear_676_12151" x1="14.8103" y1="10.8103" x2="42.7908" y2="11.095" gradientUnits="userSpaceOnUse">
<stop stop-color="#19242D"/>
<stop offset="0.19" stop-color="#25323E"/>
<stop offset="0.53" stop-color="#121A21"/>
<stop offset="0.81" stop-color="#1C2630"/>
<stop offset="1" stop-color="#060B10"/>
</linearGradient>
<linearGradient id="paint51_linear_676_12151" x1="41.6285" y1="11.8398" x2="41.0095" y2="2.00651" gradientUnits="userSpaceOnUse">
<stop stop-color="#A96405"/>
<stop offset="0.72" stop-color="#FDCF5E"/>
<stop offset="1" stop-color="#C28622"/>
</linearGradient>
<linearGradient id="paint52_linear_676_12151" x1="14.8203" y1="9.88422" x2="42.8009" y2="10.1674" gradientUnits="userSpaceOnUse">
<stop stop-color="#19242D"/>
<stop offset="0.19" stop-color="#25323E"/>
<stop offset="0.53" stop-color="#121A21"/>
<stop offset="0.81" stop-color="#1C2630"/>
<stop offset="1" stop-color="#060B10"/>
</linearGradient>
<radialGradient id="paint53_radial_676_12151" cx="0" cy="0" r="1" gradientUnits="userSpaceOnUse" gradientTransform="translate(23.5219 2.20646) scale(20.5586 20.766)">
<stop stop-color="#2E3D4C" stop-opacity="0"/>
<stop offset="1" stop-color="#030407"/>
</radialGradient>
<linearGradient id="paint54_linear_676_12151" x1="41.5092" y1="11.8474" x2="40.8902" y2="2.01411" gradientUnits="userSpaceOnUse">
<stop stop-color="#A96405"/>
<stop offset="0.72" stop-color="#FDCF5E"/>
<stop offset="1" stop-color="#C28622"/>
</linearGradient>
<linearGradient id="paint55_linear_676_12151" x1="0.000264461" y1="7.90282" x2="57.7647" y2="7.90282" gradientUnits="userSpaceOnUse">
<stop stop-color="#2E3D4C"/>
<stop offset="1" stop-color="#030407"/>
</linearGradient>
<linearGradient id="paint56_linear_676_12151" x1="14.8426" y1="7.63366" x2="42.8246" y2="7.91684" gradientUnits="userSpaceOnUse">
<stop stop-color="#19242D"/>
<stop offset="0.19" stop-color="#25323E"/>
<stop offset="0.53" stop-color="#121A21"/>
<stop offset="0.81" stop-color="#1C2630"/>
<stop offset="1" stop-color="#060B10"/>
</linearGradient>
<radialGradient id="paint57_radial_676_12151" cx="0" cy="0" r="1" gradientUnits="userSpaceOnUse" gradientTransform="translate(23.5215 2.20646) scale(20.5585 20.766)">
<stop stop-color="#2E3D4C" stop-opacity="0"/>
<stop offset="1" stop-color="#030407"/>
</radialGradient>
<linearGradient id="paint58_linear_676_12151" x1="41.2423" y1="11.8641" x2="40.6233" y2="2.03084" gradientUnits="userSpaceOnUse">
<stop stop-color="#A96405"/>
<stop offset="0.72" stop-color="#FDCF5E"/>
<stop offset="1" stop-color="#C28622"/>
</linearGradient>
<linearGradient id="paint59_linear_676_12151" x1="42.6802" y1="20.4223" x2="41.3031" y2="11.7893" gradientUnits="userSpaceOnUse">
<stop stop-color="#FDCF5E"/>
<stop offset="1" stop-color="#A96405"/>
</linearGradient>
<linearGradient id="paint60_linear_676_12151" x1="14.7591" y1="15.8467" x2="42.7396" y2="16.1299" gradientUnits="userSpaceOnUse">
<stop stop-color="#19242D"/>
<stop offset="0.19" stop-color="#25323E"/>
<stop offset="0.53" stop-color="#121A21"/>
<stop offset="0.81" stop-color="#1C2630"/>
<stop offset="1" stop-color="#060B10"/>
</linearGradient>
<linearGradient id="paint61_linear_676_12151" x1="42.5438" y1="20.4436" x2="41.1667" y2="11.8106" gradientUnits="userSpaceOnUse">
<stop stop-color="#FDCF5E"/>
<stop offset="1" stop-color="#A96405"/>
</linearGradient>
<linearGradient id="paint62_linear_676_12151" x1="14.7982" y1="12.0025" x2="42.7786" y2="12.2872" gradientUnits="userSpaceOnUse">
<stop stop-color="#19242D"/>
<stop offset="0.19" stop-color="#25323E"/>
<stop offset="0.53" stop-color="#121A21"/>
<stop offset="0.81" stop-color="#1C2630"/>
<stop offset="1" stop-color="#060B10"/>
</linearGradient>
<linearGradient id="paint63_linear_676_12151" x1="40.6823" y1="12.2582" x2="43.1426" y2="12.3259" gradientUnits="userSpaceOnUse">
<stop stop-color="#A96405"/>
<stop offset="0.72" stop-color="#FDCF5E"/>
<stop offset="1" stop-color="#C28622"/>
</linearGradient>
<linearGradient id="paint64_linear_676_12151" x1="14.806" y1="11.227" x2="42.7867" y2="11.5101" gradientUnits="userSpaceOnUse">
<stop stop-color="#19242D"/>
<stop offset="0.19" stop-color="#25323E"/>
<stop offset="0.53" stop-color="#121A21"/>
<stop offset="0.81" stop-color="#1C2630"/>
<stop offset="1" stop-color="#060B10"/>
</linearGradient>
<linearGradient id="paint65_linear_676_12151" x1="41.6922" y1="11.8352" x2="41.0748" y2="2.00194" gradientUnits="userSpaceOnUse">
<stop stop-color="#A96405"/>
<stop offset="0.72" stop-color="#FDCF5E"/>
<stop offset="1" stop-color="#C28622"/>
</linearGradient>
<linearGradient id="paint66_linear_676_12151" x1="40.7039" y1="11.4787" x2="43.1658" y2="11.5478" gradientUnits="userSpaceOnUse">
<stop stop-color="#A96405"/>
<stop offset="0.72" stop-color="#FDCF5E"/>
<stop offset="1" stop-color="#C28622"/>
</linearGradient>
<linearGradient id="paint67_linear_676_12151" x1="14.7893" y1="12.8297" x2="42.7712" y2="13.1129" gradientUnits="userSpaceOnUse">
<stop stop-color="#19242D"/>
<stop offset="0.19" stop-color="#25323E"/>
<stop offset="0.53" stop-color="#121A21"/>
<stop offset="0.81" stop-color="#1C2630"/>
<stop offset="1" stop-color="#060B10"/>
</linearGradient>
<linearGradient id="paint68_linear_676_12151" x1="42.9187" y1="20.3843" x2="41.5431" y2="11.7498" gradientUnits="userSpaceOnUse">
<stop stop-color="#FDCF5E"/>
<stop offset="1" stop-color="#A96405"/>
</linearGradient>
<linearGradient id="paint69_linear_676_12151" x1="40.6593" y1="13.0804" x2="43.1211" y2="13.1481" gradientUnits="userSpaceOnUse">
<stop stop-color="#A96405"/>
<stop offset="0.72" stop-color="#FDCF5E"/>
<stop offset="1" stop-color="#C28622"/>
</linearGradient>
<linearGradient id="paint70_linear_676_12151" x1="14.7424" y1="17.4449" x2="42.7229" y2="17.7281" gradientUnits="userSpaceOnUse">
<stop stop-color="#19242D"/>
<stop offset="0.19" stop-color="#25323E"/>
<stop offset="0.53" stop-color="#121A21"/>
<stop offset="0.81" stop-color="#1C2630"/>
<stop offset="1" stop-color="#060B10"/>
</linearGradient>
<linearGradient id="paint71_linear_676_12151" x1="13.5362" y1="24.1053" x2="11.4674" y2="27.5709" gradientUnits="userSpaceOnUse">
<stop stop-color="#C68828"/>
<stop offset="0.17" stop-color="#FDCF5E"/>
<stop offset="1" stop-color="#A96405"/>
</linearGradient>
<linearGradient id="paint72_linear_676_12151" x1="46.107" y1="24.1053" x2="44.0381" y2="27.5709" gradientUnits="userSpaceOnUse">
<stop stop-color="#C68828"/>
<stop offset="0.17" stop-color="#FDCF5E"/>
<stop offset="1" stop-color="#A96405"/>
</linearGradient>
<clipPath id="clip0_676_12151">
<rect width="140" height="44" fill="white"/>
</clipPath>
</defs>
</svg>
