<svg width="135" height="40" viewBox="0 0 135 40" fill="none" xmlns="http://www.w3.org/2000/svg">
<path d="M130 40H5C2.2 40 0 37.8 0 35V5C0 2.2 2.2 0 5 0H130C132.8 0 135 2.2 135 5V35C135 37.8 132.8 40 130 40Z" fill="black"/>
<path d="M130 0.8C132.3 0.8 134.2 2.7 134.2 5V35C134.2 37.3 132.3 39.2 130 39.2H5C2.7 39.2 0.8 37.3 0.8 35V5C0.8 2.7 2.7 0.8 5 0.8H130ZM130 0H5C2.2 0 0 2.3 0 5V35C0 37.8 2.2 40 5 40H130C132.8 40 135 37.8 135 35V5C135 2.3 132.8 0 130 0Z" fill="#A6A6A6"/>
<path d="M47.4004 10.1999C47.4004 10.9999 47.2004 11.6999 46.7004 12.1999C46.1004 12.7999 45.4004 13.0999 44.5004 13.0999C43.6004 13.0999 42.9004 12.7999 42.3004 12.1999C41.7004 11.5999 41.4004 10.8999 41.4004 9.9999C41.4004 9.0999 41.7004 8.3999 42.3004 7.7999C42.9004 7.1999 43.6004 6.8999 44.5004 6.8999C44.9004 6.8999 45.3004 6.9999 45.7004 7.1999C46.1004 7.3999 46.4004 7.5999 46.6004 7.8999L46.1004 8.3999C45.7004 7.8999 45.2004 7.6999 44.5004 7.6999C43.9004 7.6999 43.3004 7.8999 42.9004 8.3999C42.4004 8.7999 42.2004 9.3999 42.2004 10.0999C42.2004 10.7999 42.4004 11.3999 42.9004 11.7999C43.4004 12.1999 43.9004 12.4999 44.5004 12.4999C45.2004 12.4999 45.7004 12.2999 46.2004 11.7999C46.5004 11.4999 46.7004 11.0999 46.7004 10.5999H44.5004V9.7999H47.4004V10.1999ZM52.0004 7.6999H49.3004V9.5999H51.8004V10.2999H49.3004V12.1999H52.0004V12.9999H48.5004V6.9999H52.0004V7.6999ZM55.3004 12.9999H54.5004V7.6999H52.8004V6.9999H57.0004V7.6999H55.3004V12.9999ZM59.9004 12.9999V6.9999H60.7004V12.9999H59.9004ZM64.1004 12.9999H63.3004V7.6999H61.6004V6.9999H65.7004V7.6999H64.0004V12.9999H64.1004ZM73.6004 12.1999C73.0004 12.7999 72.3004 13.0999 71.4004 13.0999C70.5004 13.0999 69.8004 12.7999 69.2004 12.1999C68.6004 11.5999 68.3004 10.8999 68.3004 9.9999C68.3004 9.0999 68.6004 8.3999 69.2004 7.7999C69.8004 7.1999 70.5004 6.8999 71.4004 6.8999C72.3004 6.8999 73.0004 7.1999 73.6004 7.7999C74.2004 8.3999 74.5004 9.0999 74.5004 9.9999C74.5004 10.8999 74.2004 11.5999 73.6004 12.1999ZM69.8004 11.6999C70.2004 12.0999 70.8004 12.3999 71.4004 12.3999C72.0004 12.3999 72.6004 12.1999 73.0004 11.6999C73.4004 11.2999 73.7004 10.6999 73.7004 9.9999C73.7004 9.2999 73.5004 8.6999 73.0004 8.2999C72.6004 7.8999 72.0004 7.5999 71.4004 7.5999C70.8004 7.5999 70.2004 7.7999 69.8004 8.2999C69.4004 8.6999 69.1004 9.2999 69.1004 9.9999C69.1004 10.6999 69.3004 11.2999 69.8004 11.6999ZM75.6004 12.9999V6.9999H76.5004L79.4004 11.6999V6.9999H80.2004V12.9999H79.4004L76.3004 8.0999V12.9999H75.6004Z" fill="white" stroke="white" stroke-width="1.18519" stroke-miterlimit="10"/>
<path d="M68.0996 21.8001C65.6996 21.8001 63.7996 23.6001 63.7996 26.1001C63.7996 28.5001 65.6996 30.4001 68.0996 30.4001C70.4996 30.4001 72.3996 28.6001 72.3996 26.1001C72.3996 23.5001 70.4996 21.8001 68.0996 21.8001ZM68.0996 28.6001C66.7996 28.6001 65.6996 27.5001 65.6996 26.0001C65.6996 24.5001 66.7996 23.4001 68.0996 23.4001C69.3996 23.4001 70.4996 24.4001 70.4996 26.0001C70.4996 27.5001 69.3996 28.6001 68.0996 28.6001ZM58.7996 21.8001C56.3996 21.8001 54.4996 23.6001 54.4996 26.1001C54.4996 28.5001 56.3996 30.4001 58.7996 30.4001C61.1996 30.4001 63.0996 28.6001 63.0996 26.1001C63.0996 23.5001 61.1996 21.8001 58.7996 21.8001ZM58.7996 28.6001C57.4996 28.6001 56.3996 27.5001 56.3996 26.0001C56.3996 24.5001 57.4996 23.4001 58.7996 23.4001C60.0996 23.4001 61.1996 24.4001 61.1996 26.0001C61.1996 27.5001 60.0996 28.6001 58.7996 28.6001ZM47.6996 23.1001V24.9001H51.9996C51.8996 25.9001 51.4996 26.7001 50.9996 27.2001C50.3996 27.8001 49.3996 28.5001 47.6996 28.5001C44.9996 28.5001 42.9996 26.4001 42.9996 23.7001C42.9996 21.0001 45.0996 18.9001 47.6996 18.9001C49.0996 18.9001 50.1996 19.5001 50.9996 20.2001L52.2996 18.9001C51.1996 17.9001 49.7996 17.1001 47.7996 17.1001C44.1996 17.1001 41.0996 20.1001 41.0996 23.7001C41.0996 27.3001 44.1996 30.3001 47.7996 30.3001C49.7996 30.3001 51.1996 29.7001 52.3996 28.4001C53.5996 27.2001 53.9996 25.5001 53.9996 24.2001C53.9996 23.8001 53.9996 23.4001 53.8996 23.1001H47.6996ZM93.0996 24.5001C92.6996 23.5001 91.6996 21.8001 89.4996 21.8001C87.2996 21.8001 85.4996 23.5001 85.4996 26.1001C85.4996 28.5001 87.2996 30.4001 89.6996 30.4001C91.5996 30.4001 92.7996 29.2001 93.1996 28.5001L91.7996 27.5001C91.2996 28.2001 90.6996 28.7001 89.6996 28.7001C88.6996 28.7001 88.0996 28.3001 87.5996 27.4001L93.2996 25.0001L93.0996 24.5001ZM87.2996 25.9001C87.2996 24.3001 88.5996 23.4001 89.4996 23.4001C90.1996 23.4001 90.8996 23.8001 91.0996 24.3001L87.2996 25.9001ZM82.5996 30.0001H84.4996V17.5001H82.5996V30.0001ZM79.5996 22.7001C79.0996 22.2001 78.2996 21.7001 77.2996 21.7001C75.1996 21.7001 73.1996 23.6001 73.1996 26.0001C73.1996 28.4001 75.0996 30.2001 77.2996 30.2001C78.2996 30.2001 79.0996 29.7001 79.4996 29.2001H79.5996V29.8001C79.5996 31.4001 78.6996 32.3001 77.2996 32.3001C76.1996 32.3001 75.3996 31.5001 75.1996 30.8001L73.5996 31.5001C74.0996 32.6001 75.2996 34.0001 77.3996 34.0001C79.5996 34.0001 81.3996 32.7001 81.3996 29.6001V22.0001H79.5996V22.7001ZM77.3996 28.6001C76.0996 28.6001 74.9996 27.5001 74.9996 26.0001C74.9996 24.5001 76.0996 23.4001 77.3996 23.4001C78.6996 23.4001 79.6996 24.5001 79.6996 26.0001C79.6996 27.5001 78.6996 28.6001 77.3996 28.6001ZM101.8 17.5001H97.2996V30.0001H99.1996V25.3001H101.8C103.9 25.3001 105.9 23.8001 105.9 21.4001C105.9 19.0001 103.9 17.5001 101.8 17.5001ZM101.9 23.5001H99.1996V19.2001H101.9C103.3 19.2001 104.1 20.4001 104.1 21.3001C104 22.4001 103.2 23.5001 101.9 23.5001ZM113.4 21.7001C112 21.7001 110.6 22.3001 110.1 23.6001L111.8 24.3001C112.2 23.6001 112.8 23.4001 113.5 23.4001C114.5 23.4001 115.4 24.0001 115.5 25.0001V25.1001C115.2 24.9001 114.4 24.6001 113.6 24.6001C111.8 24.6001 110 25.6001 110 27.4001C110 29.1001 111.5 30.2001 113.1 30.2001C114.4 30.2001 115 29.6001 115.5 29.0001H115.6V30.0001H117.4V25.2001C117.2 23.0001 115.5 21.7001 113.4 21.7001ZM113.2 28.6001C112.6 28.6001 111.7 28.3001 111.7 27.5001C111.7 26.5001 112.8 26.2001 113.7 26.2001C114.5 26.2001 114.9 26.4001 115.4 26.6001C115.2 27.8001 114.2 28.6001 113.2 28.6001ZM123.7 22.0001L121.6 27.4001H121.5L119.3 22.0001H117.3L120.6 29.6001L118.7 33.8001H120.6L125.7 22.0001H123.7ZM106.9 30.0001H108.8V17.5001H106.9V30.0001Z" fill="white"/>
<path d="M10.4 7.5C10.1 7.8 10 8.3 10 8.9V31C10 31.6 10.2 32.1 10.5 32.4L10.6 32.5L23 20.1V19.9L10.4 7.5Z" fill="url(#paint0_linear_414_21036)"/>
<path d="M27.0004 24.2998L22.9004 20.1998V19.8998L27.0004 15.7998L27.1004 15.8998L32.0004 18.6998C33.4004 19.4998 33.4004 20.7998 32.0004 21.5998L27.0004 24.2998Z" fill="url(#paint1_linear_414_21036)"/>
<path d="M27.1004 24.2L22.9004 20L10.4004 32.5C10.9004 33 11.6004 33 12.5004 32.6L27.1004 24.2Z" fill="url(#paint2_linear_414_21036)"/>
<path d="M27.1004 15.7999L12.5004 7.49987C11.6004 6.99987 10.9004 7.09987 10.4004 7.59987L22.9004 19.9999L27.1004 15.7999Z" fill="url(#paint3_linear_414_21036)"/>
<path opacity="0.2" d="M27.0004 24.0999L12.5004 32.2999C11.7004 32.7999 11.0004 32.6999 10.5004 32.2999L10.4004 32.3999L10.5004 32.4999C11.0004 32.8999 11.7004 32.9999 12.5004 32.4999L27.0004 24.0999Z" fill="black"/>
<path opacity="0.12" d="M10.4 32.3C10.1 32 10 31.5 10 30.9V31C10 31.6 10.2 32.1 10.5 32.4V32.3H10.4ZM32 21.3L27 24.1L27.1 24.2L32 21.4C32.7 21 33 20.5 33 20C33 20.5 32.6 20.9 32 21.3Z" fill="black"/>
<path opacity="0.25" d="M12.5 7.60003L32 18.7C32.6 19.1 33 19.5 33 20C33 19.5 32.7 19 32 18.6L12.5 7.50003C11.1 6.70003 10 7.30003 10 8.90003V9.00003C10 7.50003 11.1 6.80003 12.5 7.60003Z" fill="white"/>
<defs>
<linearGradient id="paint0_linear_414_21036" x1="21.8" y1="8.71" x2="5.017" y2="25.492" gradientUnits="userSpaceOnUse">
<stop stop-color="#00A0FF"/>
<stop offset="0.007" stop-color="#00A1FF"/>
<stop offset="0.26" stop-color="#00BEFF"/>
<stop offset="0.512" stop-color="#00D2FF"/>
<stop offset="0.76" stop-color="#00DFFF"/>
<stop offset="1" stop-color="#00E3FF"/>
</linearGradient>
<linearGradient id="paint1_linear_414_21036" x1="33.8344" y1="20.0008" x2="9.63739" y2="20.0008" gradientUnits="userSpaceOnUse">
<stop stop-color="#FFE000"/>
<stop offset="0.409" stop-color="#FFBD00"/>
<stop offset="0.775" stop-color="#FFA500"/>
<stop offset="1" stop-color="#FF9C00"/>
</linearGradient>
<linearGradient id="paint2_linear_414_21036" x1="24.8274" y1="22.296" x2="2.06939" y2="45.054" gradientUnits="userSpaceOnUse">
<stop stop-color="#FF3A44"/>
<stop offset="1" stop-color="#C31162"/>
</linearGradient>
<linearGradient id="paint3_linear_414_21036" x1="7.29739" y1="0.175868" x2="17.4604" y2="10.3389" gradientUnits="userSpaceOnUse">
<stop stop-color="#32A071"/>
<stop offset="0.069" stop-color="#2DA771"/>
<stop offset="0.476" stop-color="#15CF74"/>
<stop offset="0.801" stop-color="#06E775"/>
<stop offset="1" stop-color="#00F076"/>
</linearGradient>
</defs>
</svg>
