<svg width="397" height="369" viewBox="0 0 397 369" fill="none" xmlns="http://www.w3.org/2000/svg">
<path d="M191.14 366.171L128.262 329.885L217.186 278.558L280.064 314.844L191.14 366.171Z" fill="white"/>
<path d="M244.159 304.042L216.476 288.064L214.84 289.001L242.533 304.988L244.159 304.042Z" fill="#BFCDF2"/>
<path d="M225.974 306.819L204.97 294.7L203.344 295.636L224.348 307.766L225.974 306.819Z" fill="#BFCDF2"/>
<path d="M222.794 308.661L201.79 296.531L200.164 297.478L221.168 309.597L222.794 308.661Z" fill="#BFCDF2"/>
<path d="M219.615 310.492L198.611 298.373L196.975 299.309L217.989 311.439L219.615 310.492Z" fill="#BFCDF2"/>
<path d="M216.435 312.334L195.431 300.204L193.795 301.151L214.809 313.27L216.435 312.334Z" fill="#BFCDF2"/>
<path d="M213.255 314.165L192.252 302.046L190.615 302.982L211.629 315.112L213.255 314.165Z" fill="#BFCDF2"/>
<path d="M210.074 315.996L189.07 303.877L187.434 304.823L208.448 316.943L210.074 315.996Z" fill="#BFCDF2"/>
<path d="M206.894 317.838L185.89 305.708L184.254 306.655L205.268 318.785L206.894 317.838Z" fill="#BFCDF2"/>
<path d="M203.714 319.669L182.71 307.55L181.074 308.486L202.088 320.616L203.714 319.669Z" fill="#BFCDF2"/>
<path d="M200.535 321.511L179.531 309.381L177.895 310.328L198.898 322.447L200.535 321.511Z" fill="#BFCDF2"/>
<path d="M197.355 323.342L176.351 311.223L174.715 312.159L195.719 324.288L197.355 323.342Z" fill="#BFCDF2"/>
<path d="M194.175 325.184L173.171 313.054L171.535 314.001L192.539 326.12L194.175 325.184Z" fill="#BFCDF2"/>
<path d="M190.996 327.015L169.992 314.896L168.355 315.832L189.359 327.961L190.996 327.015Z" fill="#BFCDF2"/>
<path d="M187.816 328.857L166.812 316.727L165.176 317.674L186.18 329.793L187.816 328.857Z" fill="#BFCDF2"/>
<path d="M184.636 330.688L163.632 318.558L161.996 319.505L183 331.634L184.636 330.688Z" fill="#BFCDF2"/>
<path d="M181.455 332.519L160.44 320.399L158.814 321.336L179.818 333.465L181.455 332.519Z" fill="#BFCDF2"/>
<path d="M178.275 334.361L157.261 322.231L155.635 323.177L176.639 335.297L178.275 334.361Z" fill="#BFCDF2"/>
<path d="M175.095 336.192L154.081 324.072L152.455 325.008L173.459 337.138L175.095 336.192Z" fill="#BFCDF2"/>
<path d="M171.916 338.033L150.901 325.904L149.275 326.85L170.279 338.97L171.916 338.033Z" fill="#BFCDF2"/>
<path d="M168.736 339.864L147.722 327.745L146.096 328.681L167.1 340.811L168.736 339.864Z" fill="#BFCDF2"/>
<path d="M251.783 321.716L230.769 309.587L229.143 310.533L250.146 322.653L251.783 321.716Z" fill="#BFCDF2"/>
<path d="M248.603 323.547L227.589 311.428L225.963 312.364L246.967 324.494L248.603 323.547Z" fill="#BFCDF2"/>
<path d="M245.423 325.389L224.409 313.26L222.783 314.206L243.787 326.326L245.423 325.389Z" fill="#BFCDF2"/>
<path d="M242.244 327.221L221.229 315.102L219.604 316.038L240.607 328.167L242.244 327.221Z" fill="#BFCDF2"/>
<path d="M239.064 329.062L218.05 316.933L216.424 317.879L237.428 329.998L239.064 329.062Z" fill="#BFCDF2"/>
<path d="M235.874 330.893L214.87 318.774L213.244 319.71L234.248 331.84L235.874 330.893Z" fill="#BFCDF2"/>
<path d="M232.693 332.725L211.689 320.605L210.053 321.552L231.067 333.671L232.693 332.725Z" fill="#BFCDF2"/>
<path d="M229.513 334.566L208.509 322.437L206.873 323.383L227.887 335.502L229.513 334.566Z" fill="#BFCDF2"/>
<path d="M226.333 336.398L205.33 324.278L203.693 325.215L224.708 337.344L226.333 336.398Z" fill="#BFCDF2"/>
<path d="M223.154 338.239L202.15 326.109L200.514 327.056L221.528 339.175L223.154 338.239Z" fill="#BFCDF2"/>
<path d="M219.974 340.07L198.97 327.951L197.334 328.887L218.348 341.017L219.974 340.07Z" fill="#BFCDF2"/>
<path d="M216.794 341.912L195.791 329.782L194.154 330.729L215.168 342.848L216.794 341.912Z" fill="#BFCDF2"/>
<path d="M213.615 343.743L192.611 331.624L190.975 332.56L211.978 344.69L213.615 343.743Z" fill="#BFCDF2"/>
<path d="M210.435 345.574L189.431 333.455L187.795 334.402L208.799 346.521L210.435 345.574Z" fill="#BFCDF2"/>
<path d="M207.253 347.416L186.25 335.287L184.613 336.233L205.617 348.363L207.253 347.416Z" fill="#BFCDF2"/>
<path d="M204.074 349.247L183.07 337.128L181.434 338.064L202.437 350.194L204.074 349.247Z" fill="#BFCDF2"/>
<path d="M200.894 351.089L179.89 338.959L178.254 339.905L199.258 352.025L200.894 351.089Z" fill="#BFCDF2"/>
<path d="M197.714 352.92L176.71 340.801L175.074 341.737L196.078 353.867L197.714 352.92Z" fill="#BFCDF2"/>
<path d="M194.535 354.761L173.521 342.632L171.895 343.578L192.898 355.698L194.535 354.761Z" fill="#BFCDF2"/>
<path d="M110.294 365.224L47.416 328.939L136.34 277.612L199.218 313.908L110.294 365.224Z" fill="white"/>
<path d="M65.3424 330.852L62.4609 329.196L102.791 305.914L105.662 307.581L65.3424 330.852Z" fill="#BFCDF2"/>
<path d="M69.4688 333.239L66.5977 331.583L91.79 317.036L94.6611 318.692L69.4688 333.239Z" fill="#BFCDF2"/>
<path d="M73.5958 335.626L70.7246 333.959L123.219 303.661L126.1 305.317L73.5958 335.626Z" fill="#BFCDF2"/>
<path d="M77.733 338.003L74.8516 336.346L113.155 314.237L116.036 315.904L77.733 338.003Z" fill="#BFCDF2"/>
<path d="M65.3424 330.852L62.4609 329.196L96.0918 309.782L98.9733 311.439L65.3424 330.852Z" fill="#50DEC6"/>
<path d="M69.4694 333.239L66.5879 331.583L85.1322 320.883L88.0034 322.54L69.4694 333.239Z" fill="#FF5C98"/>
<path d="M73.5958 335.626L70.7246 333.959L113.175 309.463L116.046 311.12L73.5958 335.626Z" fill="#4367C7"/>
<path d="M77.733 338.002L74.8516 336.346L103.028 320.081L105.91 321.747L77.733 338.002Z" fill="#5986FF"/>
<path d="M82.024 340.482L79.1426 338.826L112.773 319.412L115.655 321.079L82.024 340.482Z" fill="#BFCDF2"/>
<path d="M86.1505 342.869L83.2793 341.212L101.813 330.513L104.695 332.169L86.1505 342.869Z" fill="#BFCDF2"/>
<path d="M90.2877 345.256L87.4062 343.599L129.857 319.093L132.728 320.75L90.2877 345.256Z" fill="#BFCDF2"/>
<path d="M94.4142 347.642L91.543 345.976L119.72 329.71L122.591 331.377L94.4142 347.642Z" fill="#BFCDF2"/>
<path d="M82.024 340.482L79.1426 338.826L103.892 324.546L106.764 326.202L82.024 340.482Z" fill="#50DEC6"/>
<path d="M86.1505 342.869L83.2793 341.213L96.9148 333.342L99.786 334.999L86.1505 342.869Z" fill="#FF5C98"/>
<path d="M90.2877 345.256L87.4062 343.599L118.639 325.575L121.511 327.231L90.2877 345.256Z" fill="#4367C7"/>
<path d="M94.4142 347.642L91.543 345.976L112.269 334.011L115.14 335.677L94.4142 347.642Z" fill="#5986FF"/>
<path d="M98.7071 350.112L95.8359 348.455L140.097 322.91L142.979 324.567L98.7071 350.112Z" fill="#BFCDF2"/>
<path d="M102.844 352.498L99.9629 350.842L128.901 334.134L131.783 335.801L102.844 352.498Z" fill="#BFCDF2"/>
<path d="M106.971 354.885L104.1 353.229L156.594 322.92L159.465 324.587L106.971 354.885Z" fill="#BFCDF2"/>
<path d="M111.098 357.272L108.227 355.606L152.21 330.225L155.092 331.881L111.098 357.272Z" fill="#BFCDF2"/>
<path d="M98.7071 350.111L95.8359 348.455L129.467 329.042L132.338 330.708L98.7071 350.111Z" fill="#50DEC6"/>
<path d="M102.844 352.498L99.9629 350.842L118.507 340.142L121.378 341.798L102.844 352.498Z" fill="#FF5C98"/>
<path d="M106.971 354.885L104.1 353.229L146.54 328.723L149.421 330.389L106.971 354.885Z" fill="#4367C7"/>
<path d="M111.098 357.272L108.227 355.605L136.403 339.35L139.274 341.006L111.098 357.272Z" fill="#5986FF"/>
<path d="M163.313 303.106L135.63 287.118L133.994 288.065L161.687 304.042L163.313 303.106Z" fill="#BFCDF2"/>
<path d="M177.556 317.252L130.485 290.081L128.859 291.028L175.92 318.198L177.556 317.252Z" fill="#BFCDF2"/>
<path d="M174.377 319.083L127.306 291.922L125.68 292.859L172.74 320.029L174.377 319.083Z" fill="#BFCDF2"/>
<path d="M171.195 320.925L124.124 293.754L122.498 294.7L169.559 321.861L171.195 320.925Z" fill="#BFCDF2"/>
<path d="M52.4891 301.881C43.1861 307.251 28.0378 307.251 18.7347 301.881C9.43167 296.511 9.43167 287.766 18.7347 282.396C26.4324 277.951 38.1126 277.19 47.1893 280.091L42.0952 283.034L65.4454 284.628L62.6875 271.151L55.7308 275.163C41.8585 269.68 22.7276 270.492 10.4196 277.591C-3.4732 285.616 -3.4732 298.661 10.4196 306.675C24.3124 314.69 46.9217 314.7 60.8145 306.675L52.4891 301.871V301.881Z" fill="#ABC2FF"/>
<path d="M359.356 93.0449C348.88 86.3062 338.692 85.37 329.8 86.6766C320.909 87.9832 312.923 91.3576 304.011 92.6128C295.099 93.8679 284.86 92.8082 274.394 85.9153C267.489 81.368 260.563 73.8063 255.891 65.3701V128.765L396.527 209.937V128.487C394.129 126.409 391.773 124.156 389.519 121.862C379.588 111.738 369.987 99.8658 359.377 93.0346L359.356 93.0449Z" fill="url(#paint0_linear_588_10755)"/>
<path d="M359.356 125.699C348.88 118.96 338.692 118.024 329.8 119.33C320.909 120.637 312.923 124.011 304.011 125.267C295.099 126.522 284.86 125.462 274.394 118.569C267.489 114.022 260.563 106.46 255.891 98.0239V161.419L396.527 242.591V161.141C394.129 159.063 391.773 156.81 389.519 154.515C379.588 144.392 369.987 132.52 359.377 125.688L359.356 125.699Z" fill="url(#paint1_linear_588_10755)"/>
<path d="M257.434 162.18L256.199 161.46V0.359863L257.434 1.06974V162.18Z" fill="#ABC2FF"/>
<path d="M274.877 172.252L273.643 171.532V10.4219L274.877 11.142V172.252Z" fill="#ABC2FF"/>
<path d="M292.331 182.314L291.086 181.604V20.4937L292.331 21.2138V182.314Z" fill="#ABC2FF"/>
<path d="M309.774 192.386L308.539 191.676V30.5654L309.774 31.2753V192.386Z" fill="#ABC2FF"/>
<path d="M327.217 202.458L325.982 201.738V40.6377L327.217 41.3476V202.458Z" fill="#ABC2FF"/>
<path d="M344.661 212.53L343.426 211.809V50.6992L344.661 51.4194V212.53Z" fill="#ABC2FF"/>
<path d="M362.104 222.592L360.869 221.882V60.7715L362.104 61.4814V222.592Z" fill="#ABC2FF"/>
<path d="M379.557 232.663L378.322 231.953V70.8433L379.557 71.5531V232.663Z" fill="#ABC2FF"/>
<path d="M397.001 242.735L395.766 242.015V80.915L397.001 81.6249V242.735Z" fill="#ABC2FF"/>
<path d="M256.816 1.43003V0L396.383 80.5551V81.9851L256.816 1.43003Z" fill="#ABC2FF"/>
<path d="M256.816 21.5638V20.1338L396.383 100.689V102.119L256.816 21.5638Z" fill="#ABC2FF"/>
<path d="M256.816 41.7074V40.2773L396.383 120.832V122.262L256.816 41.7074Z" fill="#ABC2FF"/>
<path d="M256.816 61.8412V60.4111L396.383 140.966V142.396L256.816 61.8412Z" fill="#ABC2FF"/>
<path d="M256.816 81.9852V80.5552L396.383 161.11V162.54L256.816 81.9852Z" fill="#ABC2FF"/>
<path d="M256.816 102.119V100.689L396.383 181.244V182.674L256.816 102.119Z" fill="#ABC2FF"/>
<path d="M256.816 122.263V120.833L396.383 201.388V202.807L256.816 122.263Z" fill="#ABC2FF"/>
<path d="M256.816 142.396V140.966L396.383 221.521V222.951L256.816 142.396Z" fill="#ABC2FF"/>
<path d="M256.816 162.53V161.11L396.383 241.665V243.085L256.816 162.53Z" fill="#ABC2FF"/>
<path d="M345.535 337.673L348.601 313.023L305.883 314.792L315.135 320.132L251.619 356.798L272.757 369L336.283 332.334L345.535 337.673Z" fill="#ABC2FF"/>
<path d="M279.569 68.4463L259.512 30.144L239.455 45.2983L248.81 50.6995V124.876L270.205 137.222V63.0451L279.569 68.4463Z" fill="#ABC2FF"/>
<path d="M297.363 84.7733C297.363 83.2404 298.444 82.6231 299.771 83.3844C301.099 84.156 302.179 86.0181 302.179 87.551C302.179 89.084 301.099 89.7012 299.771 88.9399C298.444 88.1683 297.363 86.3062 297.363 84.7733Z" fill="#2D4483"/>
<path d="M288.688 38.8885C288.688 37.3556 289.768 36.7383 291.096 37.4996C292.423 38.2712 293.504 40.1334 293.504 41.6663C293.504 43.1992 292.423 43.8165 291.096 43.0552C289.768 42.2836 288.688 40.4214 288.688 38.8885Z" fill="#2D4483"/>
<path d="M341.635 71.2855C341.635 69.7526 342.715 69.1353 344.043 69.8966C345.37 70.6682 346.451 72.5303 346.451 74.0633C346.451 75.5962 345.37 76.2134 344.043 75.4521C342.715 74.6805 341.635 72.8184 341.635 71.2855Z" fill="#2D4483"/>
<path d="M375.348 150.359C375.348 148.826 376.428 148.209 377.756 148.97C379.083 149.742 380.164 151.604 380.164 153.137C380.164 154.67 379.083 155.287 377.756 154.526C376.428 153.754 375.348 151.892 375.348 150.359Z" fill="#2D4483"/>
<path d="M291.086 40.2773L299.772 86.1619L344.043 71.913L377.757 151.748" stroke="#2D4483" stroke-miterlimit="10"/>
<path d="M139.603 155.473L139.49 236.264L126.029 244.083L126.132 163.292L139.603 155.473Z" fill="#4B71D6"/>
<path d="M126.131 163.292L126.028 244.083L112.465 236.264L112.578 155.462L126.131 163.292Z" fill="#5986FF"/>
<path d="M139.602 155.473L126.131 163.292L112.578 155.462L126.039 147.644L139.602 155.473Z" fill="#759BFF"/>
<path d="M139.654 145.73L139.541 155.473L126.08 163.292L126.193 153.549L139.654 145.73Z" fill="#2D4483"/>
<path d="M126.194 153.549L126.081 163.292L112.527 155.462L112.63 145.72L126.194 153.549Z" fill="#3753A1"/>
<path d="M139.655 145.73L126.194 153.549L112.631 145.72L126.102 137.901L139.655 145.73Z" fill="#4264C2"/>
<path d="M171.082 171.923L170.979 217.91L157.508 225.729L157.621 179.742L171.082 171.923Z" fill="#4B71D6"/>
<path d="M157.621 179.742L157.508 225.729L143.955 217.9L144.068 171.923L157.621 179.742Z" fill="#5986FF"/>
<path d="M171.082 171.923L157.622 179.742L144.068 171.923L157.529 164.094L171.082 171.923Z" fill="#759BFF"/>
<path d="M171.144 155.287L171.031 171.923L157.57 179.742L157.673 163.106L171.144 155.287Z" fill="#3DCCB4"/>
<path d="M157.672 163.106L157.569 179.742L144.006 171.923L144.119 155.287L157.672 163.106Z" fill="#50DEC6"/>
<path d="M171.143 155.287L157.672 163.106L144.119 155.287L157.58 147.458L171.143 155.287Z" fill="#78F0DB"/>
<path d="M202.636 131.008L202.533 199.927L189.072 207.746L189.175 138.827L202.636 131.008Z" fill="#4B71D6"/>
<path d="M189.174 138.827L189.071 207.746L175.508 199.917L175.621 131.008L189.174 138.827Z" fill="#5986FF"/>
<path d="M202.635 131.008L189.174 138.827L175.621 131.008L189.082 123.179L202.635 131.008Z" fill="#759BFF"/>
<path d="M202.636 104.691L202.523 131.008L189.062 138.827L189.165 112.52L202.636 104.691Z" fill="#E02066"/>
<path d="M189.164 112.52L189.062 138.827L175.498 131.008L175.611 104.691L189.164 112.52Z" fill="#FF5C98"/>
<path d="M202.635 104.691L189.165 112.52L175.611 104.691L189.072 96.8721L202.635 104.691Z" fill="#FF82B0"/>
<path d="M387.676 301.532V303.744C387.665 306.583 385.792 309.423 382.067 311.593C374.555 315.955 362.339 315.955 354.775 311.593C350.968 309.402 349.074 306.511 349.074 303.63V301.418C349.074 304.299 350.978 307.18 354.775 309.381C362.339 313.743 374.555 313.743 382.067 309.381C385.803 307.211 387.665 304.381 387.676 301.532Z" fill="url(#paint2_linear_588_10755)"/>
<path d="M381.975 293.568C389.539 297.931 389.58 305.009 382.068 309.371C374.555 313.733 362.34 313.733 354.776 309.371C347.212 305.009 347.171 297.931 354.684 293.568C362.196 289.206 374.411 289.206 381.975 293.568Z" fill="#6EAAE6"/>
<path d="M379.495 294.957C385.67 298.527 385.701 304.299 379.567 307.869C373.424 311.439 363.441 311.439 357.267 307.869C351.082 304.299 351.051 298.517 357.195 294.957C363.328 291.387 373.31 291.387 379.495 294.957Z" fill="#D9E1F6"/>
<path d="M361.052 297.622L358.994 296.439L360.497 295.575L362.534 296.747C364.438 295.77 366.774 295.101 368.554 295.029L369.584 296.572C367.947 296.665 366.043 297.159 364.52 297.889L368.194 300.009C370.726 299.124 373.576 298.239 376.129 299.71C378.002 300.791 378.279 302.519 375.686 304.33L377.765 305.523L376.262 306.387L374.225 305.214C372.794 305.955 371.014 306.521 369.378 306.716L368.277 305.214C369.82 304.978 371.158 304.566 372.239 304.072L368.534 301.933C366.002 302.828 363.141 303.733 360.589 302.262C358.716 301.182 358.48 299.453 361.063 297.622H361.052ZM370.407 301.284L373.669 303.167C374.77 302.303 374.657 301.603 373.854 301.13C372.969 300.626 371.776 300.842 370.407 301.274V301.284ZM362.761 300.811C363.656 301.326 364.891 301.11 366.301 300.657L363.049 298.784C361.906 299.68 361.968 300.358 362.75 300.821L362.761 300.811Z" fill="#6EAAE6"/>
<path d="M387.676 297.725V299.936C387.665 302.776 385.792 305.615 382.067 307.786C374.555 312.148 362.339 312.148 354.775 307.786C350.968 305.595 349.074 302.704 349.074 299.823V297.611C349.074 300.492 350.978 303.373 354.775 305.574C362.339 309.936 374.555 309.936 382.067 305.574C385.803 303.403 387.665 300.574 387.676 297.725Z" fill="url(#paint3_linear_588_10755)"/>
<path d="M381.975 289.762C389.539 294.124 389.58 301.202 382.068 305.564C374.555 309.926 362.34 309.926 354.776 305.564C347.212 301.202 347.171 294.124 354.684 289.762C362.196 285.4 374.411 285.4 381.975 289.762Z" fill="#6EAAE6"/>
<path d="M379.495 291.151C385.67 294.721 385.701 300.492 379.567 304.062C373.424 307.632 363.441 307.632 357.267 304.062C351.082 300.492 351.051 294.71 357.195 291.151C363.328 287.581 373.31 287.581 379.495 291.151Z" fill="#D9E1F6"/>
<path d="M361.052 293.815L358.994 292.632L360.497 291.768L362.534 292.941C364.438 291.963 366.774 291.295 368.554 291.223L369.584 292.766C367.947 292.858 366.043 293.352 364.52 294.083L368.194 296.202C370.726 295.317 373.576 294.433 376.129 295.904C378.002 296.984 378.279 298.712 375.686 300.523L377.765 301.716L376.262 302.581L374.225 301.408C372.794 302.149 371.014 302.714 369.378 302.91L368.277 301.408C369.82 301.171 371.158 300.76 372.239 300.266L368.534 298.126C366.002 299.021 363.141 299.926 360.589 298.455C358.716 297.375 358.48 295.646 361.063 293.815H361.052ZM370.407 297.478L373.669 299.36C374.77 298.496 374.657 297.797 373.854 297.323C372.969 296.819 371.776 297.035 370.407 297.467V297.478ZM362.761 297.005C363.656 297.519 364.891 297.303 366.301 296.85L363.049 294.978C361.906 295.873 361.968 296.552 362.75 297.015L362.761 297.005Z" fill="#6EAAE6"/>
<path d="M387.676 293.918V296.13C387.665 298.969 385.792 301.809 382.067 303.98C374.555 308.342 362.339 308.342 354.775 303.98C350.968 301.788 349.074 298.897 349.074 296.017V293.805C349.074 296.685 350.978 299.566 354.775 301.768C362.339 306.13 374.555 306.13 382.067 301.768C385.803 299.597 387.665 296.768 387.676 293.918Z" fill="url(#paint4_linear_588_10755)"/>
<path d="M381.975 285.955C389.539 290.317 389.58 297.395 382.068 301.758C374.555 306.12 362.34 306.12 354.776 301.758C347.212 297.395 347.171 290.317 354.684 285.955C362.196 281.593 374.411 281.593 381.975 285.955Z" fill="#6EAAE6"/>
<path d="M379.495 287.354C385.67 290.924 385.701 296.696 379.567 300.266C373.424 303.836 363.441 303.836 357.267 300.266C351.082 296.696 351.051 290.914 357.195 287.354C363.328 283.784 373.31 283.784 379.495 287.354Z" fill="#D9E1F6"/>
<path d="M361.052 290.009L358.994 288.825L360.497 287.961L362.534 289.134C364.438 288.157 366.774 287.488 368.554 287.416L369.584 288.959C367.947 289.052 366.043 289.546 364.52 290.276L368.194 292.395C370.726 291.511 373.576 290.626 376.129 292.097C378.002 293.177 378.279 294.906 375.686 296.716L377.765 297.91L376.262 298.774L374.225 297.601C372.794 298.342 371.014 298.908 369.378 299.103L368.277 297.601C369.82 297.365 371.158 296.953 372.239 296.459L368.534 294.319C366.002 295.214 363.141 296.12 360.589 294.648C358.716 293.568 358.48 291.84 361.063 290.009H361.052ZM370.407 293.671L373.669 295.554C374.77 294.69 374.657 293.99 373.854 293.517C372.969 293.013 371.776 293.229 370.407 293.661V293.671ZM362.761 293.198C363.656 293.712 364.891 293.496 366.301 293.044L363.049 291.171C361.906 292.066 361.968 292.745 362.75 293.208L362.761 293.198Z" fill="#6EAAE6"/>
<path d="M71.3319 243.815V246.027C71.3216 248.867 69.4487 251.706 65.7233 253.877C58.2109 258.239 45.9955 258.239 38.4317 253.877C34.624 251.686 32.7305 248.795 32.7305 245.914V243.702C32.7305 246.583 34.6343 249.463 38.4317 251.665C45.9955 256.027 58.2109 256.027 65.7233 251.665C69.459 249.494 71.3216 246.665 71.3319 243.815Z" fill="url(#paint5_linear_588_10755)"/>
<path d="M65.6315 235.863C73.1954 240.225 73.2365 247.303 65.7241 251.665C58.2117 256.027 45.9963 256.027 38.4324 251.665C30.8686 247.303 30.8274 240.225 38.3398 235.863C45.8522 231.501 58.0676 231.501 65.6315 235.863Z" fill="#6EAAE6"/>
<path d="M63.1398 237.252C69.3144 240.822 69.3452 246.593 63.2118 250.163C57.0681 253.733 47.0859 253.733 40.9113 250.163C34.7264 246.593 34.6955 240.811 40.8392 237.252C46.9727 233.682 56.9549 233.682 63.1398 237.252Z" fill="#D9E1F6"/>
<path d="M44.6988 239.906L42.6406 238.723L44.1431 237.859L46.1807 239.032C48.0948 238.054 50.4206 237.385 52.2009 237.313L53.23 238.857C51.5938 238.949 49.6899 239.443 48.1669 240.174L51.8408 242.293C54.3723 241.398 57.2229 240.523 59.7751 241.995C61.6481 243.075 61.9259 244.803 59.3326 246.614L61.4114 247.807L59.9089 248.671L57.8713 247.499C56.4408 248.239 54.6605 248.805 53.0242 249.001L51.9231 247.499C53.4667 247.262 54.8046 246.85 55.8851 246.357L52.1804 244.217C49.6488 245.112 46.7879 246.017 44.2357 244.546C42.3628 243.466 42.1261 241.737 44.7091 239.906H44.6988ZM54.0636 243.579L57.3258 245.462C58.427 244.597 58.3138 243.898 57.5111 243.425C56.6261 242.92 55.4323 243.136 54.0636 243.569V243.579ZM46.4071 243.095C47.3024 243.61 48.5374 243.394 49.9472 242.941L46.6953 241.069C45.553 241.964 45.6147 242.643 46.3968 243.106L46.4071 243.095Z" fill="#6EAAE6"/>
<path d="M71.3319 240.009V242.221C71.3216 245.06 69.4487 247.9 65.7233 250.07C58.2109 254.432 45.9955 254.432 38.4317 250.07C34.624 247.879 32.7305 244.988 32.7305 242.107V239.896C32.7305 242.776 34.6343 245.657 38.4317 247.858C45.9955 252.221 58.2109 252.221 65.7233 247.858C69.459 245.688 71.3216 242.858 71.3319 240.009Z" fill="url(#paint6_linear_588_10755)"/>
<path d="M65.6315 232.056C73.1954 236.418 73.2365 243.497 65.7241 247.859C58.2117 252.221 45.9963 252.221 38.4324 247.859C30.8686 243.497 30.8274 236.418 38.3398 232.056C45.8522 227.694 58.0676 227.694 65.6315 232.056Z" fill="#6EAAE6"/>
<path d="M63.1398 233.445C69.3144 237.015 69.3452 242.787 63.2118 246.356C57.0681 249.926 47.0859 249.926 40.9113 246.356C34.7264 242.787 34.6955 237.005 40.8392 233.445C46.9727 229.875 56.9549 229.875 63.1398 233.445Z" fill="#D9E1F6"/>
<path d="M44.6988 236.099L42.6406 234.916L44.1431 234.052L46.1807 235.225C48.0948 234.248 50.4206 233.579 52.2009 233.507L53.23 235.05C51.5938 235.143 49.6899 235.636 48.1669 236.367L51.8408 238.486C54.3723 237.601 57.2229 236.717 59.7751 238.188C61.6481 239.268 61.9259 240.996 59.3326 242.807L61.4114 244.001L59.9089 244.865L57.8713 243.692C56.4408 244.433 54.6605 244.999 53.0242 245.194L51.9231 243.692C53.4667 243.455 54.8046 243.044 55.8851 242.55L52.1804 240.41C49.6488 241.305 46.7879 242.21 44.2357 240.739C42.3628 239.659 42.1261 237.931 44.7091 236.099H44.6988ZM54.0636 239.772L57.3258 241.655C58.427 240.791 58.3138 240.091 57.5111 239.618C56.6261 239.114 55.4323 239.33 54.0636 239.762V239.772ZM46.4071 239.289C47.3024 239.803 48.5374 239.587 49.9472 239.134L46.6953 237.262C45.553 238.157 45.6147 238.836 46.3968 239.299L46.4071 239.289Z" fill="#6EAAE6"/>
<path d="M71.3319 236.213V238.425C71.3216 241.264 69.4487 244.104 65.7233 246.274C58.2109 250.637 45.9955 250.637 38.4317 246.274C34.624 244.083 32.7305 241.192 32.7305 238.312V236.1C32.7305 238.98 34.6343 241.861 38.4317 244.063C45.9955 248.425 58.2109 248.425 65.7233 244.063C69.459 241.892 71.3216 239.063 71.3319 236.213Z" fill="url(#paint7_linear_588_10755)"/>
<path d="M65.6315 228.25C73.1954 232.612 73.2365 239.69 65.7241 244.052C58.2117 248.414 45.9963 248.414 38.4324 244.052C30.8686 239.69 30.8274 232.612 38.3398 228.25C45.8522 223.887 58.0676 223.887 65.6315 228.25Z" fill="#6EAAE6"/>
<path d="M63.1398 229.638C69.3144 233.208 69.3452 238.98 63.2118 242.55C57.0681 246.12 47.0859 246.12 40.9113 242.55C34.7264 238.98 34.6955 233.198 40.8392 229.638C46.9727 226.068 56.9549 226.068 63.1398 229.638Z" fill="#D9E1F6"/>
<path d="M44.6988 232.303L42.6406 231.12L44.1431 230.256L46.1807 231.429C48.0948 230.451 50.4206 229.782 52.2009 229.71L53.23 231.254C51.5938 231.346 49.6899 231.84 48.1669 232.571L51.8408 234.69C54.3723 233.805 57.2229 232.92 59.7751 234.391C61.6481 235.472 61.9259 237.2 59.3326 239.011L61.4114 240.204L59.9089 241.068L57.8713 239.896C56.4408 240.636 54.6605 241.202 53.0242 241.398L51.9231 239.896C53.4667 239.659 54.8046 239.247 55.8851 238.754L52.1804 236.614C49.6488 237.509 46.7879 238.414 44.2357 236.943C42.3628 235.863 42.1261 234.134 44.7091 232.303H44.6988ZM54.0636 235.966L57.3258 237.848C58.427 236.984 58.3138 236.284 57.5111 235.811C56.6261 235.307 55.4323 235.523 54.0636 235.955V235.966ZM46.4071 235.492C47.3024 236.007 48.5374 235.791 49.9472 235.338L46.6953 233.466C45.553 234.361 45.6147 235.04 46.3968 235.503L46.4071 235.492Z" fill="#6EAAE6"/>
<path d="M71.3319 232.406V234.618C71.3216 237.458 69.4487 240.297 65.7233 242.468C58.2109 246.83 45.9955 246.83 38.4317 242.468C34.624 240.276 32.7305 237.386 32.7305 234.505V232.293C32.7305 235.174 34.6343 238.054 38.4317 240.256C45.9955 244.618 58.2109 244.618 65.7233 240.256C69.459 238.085 71.3216 235.256 71.3319 232.406Z" fill="url(#paint8_linear_588_10755)"/>
<path d="M65.6315 224.443C73.1954 228.806 73.2365 235.884 65.7241 240.246C58.2117 244.608 45.9963 244.608 38.4324 240.246C30.8686 235.884 30.8274 228.806 38.3398 224.443C45.8522 220.081 58.0676 220.081 65.6315 224.443Z" fill="#6EAAE6"/>
<path d="M63.1398 225.832C69.3144 229.402 69.3452 235.174 63.2118 238.744C57.0681 242.314 47.0859 242.314 40.9113 238.744C34.7264 235.174 34.6955 229.392 40.8392 225.832C46.9727 222.262 56.9549 222.262 63.1398 225.832Z" fill="#D9E1F6"/>
<path d="M44.6988 228.497L42.6406 227.314L44.1431 226.45L46.1807 227.622C48.0948 226.645 50.4206 225.976 52.2009 225.904L53.23 227.447C51.5938 227.54 49.6899 228.034 48.1669 228.764L51.8408 230.884C54.3723 229.999 57.2229 229.114 59.7751 230.585C61.6481 231.666 61.9259 233.394 59.3326 235.205L61.4114 236.398L59.9089 237.262L57.8713 236.089C56.4408 236.83 54.6605 237.396 53.0242 237.591L51.9231 236.089C53.4667 235.853 54.8046 235.441 55.8851 234.947L52.1804 232.808C49.6488 233.703 46.7879 234.608 44.2357 233.137C42.3628 232.057 42.1261 230.328 44.7091 228.497H44.6988ZM54.0636 232.159L57.3258 234.042C58.427 233.178 58.3138 232.478 57.5111 232.005C56.6261 231.501 55.4323 231.717 54.0636 232.149V232.159ZM46.4071 231.686C47.3024 232.201 48.5374 231.985 49.9472 231.532L46.6953 229.659C45.553 230.554 45.6147 231.233 46.3968 231.696L46.4071 231.686Z" fill="#6EAAE6"/>
<path d="M71.3319 228.6V230.812C71.3216 233.651 69.4487 236.491 65.7233 238.662C58.2109 243.024 45.9955 243.024 38.4317 238.662C34.624 236.47 32.7305 233.579 32.7305 230.699V228.487C32.7305 231.367 34.6343 234.248 38.4317 236.45C45.9955 240.812 58.2109 240.812 65.7233 236.45C69.459 234.279 71.3216 231.45 71.3319 228.6Z" fill="url(#paint9_linear_588_10755)"/>
<path d="M65.6315 220.637C73.1954 224.999 73.2365 232.077 65.7241 236.439C58.2117 240.801 45.9963 240.801 38.4324 236.439C30.8686 232.077 30.8274 224.999 38.3398 220.637C45.8522 216.275 58.0676 216.275 65.6315 220.637Z" fill="#6EAAE6"/>
<path d="M63.1398 222.036C69.3144 225.606 69.3452 231.377 63.2118 234.947C57.0681 238.517 47.0859 238.517 40.9113 234.947C34.7264 231.377 34.6955 225.596 40.8392 222.036C46.9727 218.466 56.9549 218.466 63.1398 222.036Z" fill="#D9E1F6"/>
<path d="M44.6988 224.69L42.6406 223.507L44.1431 222.643L46.1807 223.816C48.0948 222.838 50.4206 222.17 52.2009 222.098L53.23 223.641C51.5938 223.733 49.6899 224.227 48.1669 224.958L51.8408 227.077C54.3723 226.192 57.2229 225.308 59.7751 226.779C61.6481 227.859 61.9259 229.587 59.3326 231.398L61.4114 232.591L59.9089 233.456L57.8713 232.283C56.4408 233.024 54.6605 233.589 53.0242 233.785L51.9231 232.283C53.4667 232.046 54.8046 231.635 55.8851 231.141L52.1804 229.001C49.6488 229.896 46.7879 230.801 44.2357 229.33C42.3628 228.25 42.1261 226.521 44.7091 224.69H44.6988ZM54.0636 228.353L57.3258 230.235C58.427 229.371 58.3138 228.672 57.5111 228.198C56.6261 227.694 55.4323 227.91 54.0636 228.342V228.353ZM46.4071 227.88C47.3024 228.394 48.5374 228.178 49.9472 227.725L46.6953 225.853C45.553 226.748 45.6147 227.427 46.3968 227.89L46.4071 227.88Z" fill="#6EAAE6"/>
<path d="M71.3319 224.793V227.005C71.3216 229.844 69.4487 232.684 65.7233 234.855C58.2109 239.217 45.9955 239.217 38.4317 234.855C34.624 232.663 32.7305 229.772 32.7305 226.892V224.68C32.7305 227.56 34.6343 230.441 38.4317 232.643C45.9955 237.005 58.2109 237.005 65.7233 232.643C69.459 230.472 71.3216 227.643 71.3319 224.793Z" fill="url(#paint10_linear_588_10755)"/>
<path d="M65.6315 216.84C73.1954 221.203 73.2365 228.281 65.7241 232.643C58.2117 237.005 45.9963 237.005 38.4324 232.643C30.8686 228.281 30.8274 221.203 38.3398 216.84C45.8522 212.478 58.0676 212.478 65.6315 216.84Z" fill="#6EAAE6"/>
<path d="M63.1398 218.229C69.3144 221.799 69.3452 227.571 63.2118 231.141C57.0681 234.711 47.0859 234.711 40.9113 231.141C34.7264 227.571 34.6955 221.789 40.8392 218.229C46.9727 214.659 56.9549 214.659 63.1398 218.229Z" fill="url(#paint11_linear_588_10755)"/>
<path d="M44.6988 220.884L42.6406 219.7L44.1431 218.836L46.1807 220.009C48.0948 219.032 50.4206 218.363 52.2009 218.291L53.23 219.834C51.5938 219.927 49.6899 220.421 48.1669 221.151L51.8408 223.27C54.3723 222.375 57.2229 221.501 59.7751 222.972C61.6481 224.052 61.9259 225.781 59.3326 227.591L61.4114 228.785L59.9089 229.649L57.8713 228.476C56.4408 229.217 54.6605 229.783 53.0242 229.978L51.9231 228.476C53.4667 228.24 54.8046 227.828 55.8851 227.334L52.1804 225.194C49.6488 226.089 46.7879 226.995 44.2357 225.523C42.3628 224.443 42.1261 222.715 44.7091 220.884H44.6988ZM54.0636 224.556L57.3258 226.439C58.427 225.575 58.3138 224.875 57.5111 224.402C56.6261 223.898 55.4323 224.114 54.0636 224.546V224.556ZM46.4071 224.073C47.3024 224.587 48.5374 224.371 49.9472 223.919L46.6953 222.046C45.553 222.941 45.6147 223.62 46.3968 224.083L46.4071 224.073Z" fill="#6EAAE6"/>
<path d="M115.43 248.723V250.934C115.419 253.774 113.546 256.613 109.821 258.784C102.309 263.146 90.0932 263.146 82.5293 258.784C78.7217 256.593 76.8281 253.702 76.8281 250.821V248.609C76.8281 251.49 78.7319 254.371 82.5293 256.572C90.0932 260.934 102.309 260.934 109.821 256.572C113.557 254.402 115.419 251.572 115.43 248.723Z" fill="url(#paint12_linear_588_10755)"/>
<path d="M109.729 240.77C117.293 245.132 117.334 252.21 109.822 256.573C102.309 260.935 90.094 260.935 82.5301 256.573C74.9662 252.21 74.9251 245.132 82.4375 240.77C89.9499 236.408 102.165 236.408 109.729 240.77Z" fill="#6EAAE6"/>
<path d="M107.237 242.159C113.412 245.729 113.443 251.5 107.309 255.07C101.166 258.64 91.1835 258.64 85.0089 255.07C78.8241 251.5 78.7932 245.719 84.9369 242.159C91.0703 238.589 101.053 238.589 107.237 242.159Z" fill="url(#paint13_linear_588_10755)"/>
<path d="M90.4835 252.005L88.4253 253.188L86.9228 252.324L88.9604 251.151C87.2727 250.05 86.1201 248.702 85.9863 247.673L88.662 247.077C88.8266 248.023 89.6705 249.124 90.9363 249.998L94.6102 247.879C93.0665 246.418 91.5435 244.772 94.0956 243.301C95.9686 242.221 98.9632 242.066 102.102 243.558L104.181 242.365L105.683 243.229L103.646 244.402C104.932 245.225 105.899 246.254 106.249 247.2L103.646 247.838C103.244 246.943 102.524 246.171 101.659 245.554L97.9547 247.694C99.4984 249.155 101.073 250.811 98.5207 252.282C96.6478 253.363 93.6531 253.496 90.4835 252.005ZM96.8433 246.603L100.106 244.721C98.6031 244.083 97.3887 244.145 96.586 244.618C95.701 245.122 96.0921 245.811 96.8433 246.614V246.603ZM96.0097 251.027C96.9051 250.513 96.5243 249.803 95.7319 248.98L92.4799 250.852C94.0236 251.511 95.2173 251.48 95.9994 251.017L96.0097 251.027Z" fill="#6EAAE6"/>
<path d="M105.293 264.741V266.953C105.283 269.793 103.41 272.632 99.6843 274.803C92.1719 279.165 79.9565 279.165 72.3926 274.803C68.5849 272.611 66.6914 269.72 66.6914 266.84V264.628C66.6914 267.509 68.5952 270.389 72.3926 272.591C79.9565 276.953 92.1719 276.953 99.6843 272.591C103.42 270.42 105.283 267.591 105.293 264.741Z" fill="url(#paint14_linear_588_10755)"/>
<path d="M99.5924 256.789C107.156 261.151 107.197 268.229 99.685 272.591C92.1726 276.953 79.9572 276.953 72.3934 272.591C64.8295 268.229 64.7884 261.151 72.3008 256.789C79.8132 252.427 92.0286 252.427 99.5924 256.789Z" fill="#6EAAE6"/>
<path d="M97.1124 258.177C103.287 261.747 103.318 267.519 97.1845 271.089C91.0408 274.659 81.0585 274.659 74.8839 271.089C68.6991 267.519 68.6682 261.737 74.8119 258.177C80.9453 254.608 90.9276 254.608 97.1124 258.177Z" fill="url(#paint15_linear_588_10755)"/>
<path d="M77.0747 266.305L74.2241 266.624L73.8125 265.42L76.6425 265.101C76.3132 263.64 76.6425 262.159 77.5378 261.264L80.337 261.634C79.5652 262.468 79.1947 263.651 79.3902 264.793L84.4842 264.216C84.618 262.509 84.9473 260.657 88.4874 260.256C91.091 259.968 93.7255 260.801 94.8781 263.044L97.7596 262.714L98.1712 263.918L95.3412 264.237C95.6088 265.338 95.4235 266.5 94.7958 267.395L92.0172 267.087C92.5421 266.223 92.6964 265.348 92.5832 264.546L87.4377 265.122C87.304 266.83 87.0158 268.712 83.4654 269.114C80.8618 269.402 78.2479 268.558 77.0644 266.295L77.0747 266.305ZM87.5715 263.867L92.1098 263.352C91.4718 262.344 90.4118 262.005 89.2901 262.128C88.0655 262.262 87.7259 262.961 87.5715 263.867ZM82.6113 267.272C83.8565 267.128 84.227 266.418 84.3607 265.492L79.8533 265.996C80.5016 267.035 81.5204 267.395 82.6113 267.272Z" fill="#6EAAE6"/>
<path d="M364.253 157.654L237.726 84.6292C236.573 83.9605 235.534 83.9091 234.783 84.3412L231.16 86.4502C231.911 86.0181 232.951 86.0798 234.103 86.7383L360.631 159.763C362.915 161.079 364.758 164.279 364.747 166.892L364.48 263.064C364.48 264.371 364.017 265.287 363.276 265.719L366.898 263.61C367.639 263.178 368.102 262.262 368.102 260.955L368.37 164.783C368.37 162.16 366.528 158.97 364.253 157.654Z" fill="#5986FF"/>
<path d="M360.632 159.763C362.916 161.079 364.759 164.279 364.748 166.892L364.481 263.064C364.481 265.688 362.618 266.748 360.333 265.431L233.806 192.406C231.521 191.09 229.679 187.9 229.689 185.277L229.967 89.1045C229.967 86.4811 231.83 85.4214 234.115 86.7383L360.642 159.763H360.632Z" fill="#2D4483"/>
<path d="M359.398 165.771L359.14 258.023L235.031 186.388L235.289 94.1353L359.398 165.771Z" fill="url(#paint16_linear_588_10755)"/>
<path d="M360.559 270.873L277.388 319.196C275.124 320.513 271.429 320.513 269.145 319.196L142.617 246.172C141.465 245.503 140.899 244.639 140.899 243.774V247.972C140.888 248.836 141.454 249.711 142.607 250.369L269.134 323.393C271.419 324.71 275.103 324.71 277.377 323.393L360.549 275.071C361.681 274.412 362.237 273.558 362.247 272.704V268.507C362.247 269.361 361.691 270.225 360.57 270.873H360.559Z" fill="url(#paint17_linear_588_10755)"/>
<path d="M360.529 266.099C362.814 267.416 362.824 269.546 360.56 270.873L277.388 319.196C275.124 320.513 271.43 320.513 269.145 319.196L142.618 246.171C140.333 244.855 140.323 242.715 142.587 241.398L225.758 193.075C228.033 191.758 231.707 191.758 234.002 193.075L360.529 266.099Z" fill="#ABC2FF"/>
<path d="M243.88 209.937L236.255 214.361L226.406 208.672L234.022 204.248L243.88 209.937Z" fill="#5986FF"/>
<path d="M326.599 257.684L318.984 262.108L309.125 256.418L316.74 251.995L326.599 257.684Z" fill="#5986FF"/>
<path d="M312.81 249.721L305.195 254.155L295.336 248.466L302.962 244.032L312.81 249.721Z" fill="#5986FF"/>
<path d="M301.695 256.192L294.069 260.616L284.221 254.927L291.836 250.503L301.695 256.192Z" fill="#5986FF"/>
<path d="M287.906 248.229L280.29 252.653L270.432 246.964L278.047 242.54L287.906 248.229Z" fill="#5986FF"/>
<path d="M224.306 237.283L216.691 241.707L206.832 236.018L214.447 231.594L224.306 237.283Z" fill="#5986FF"/>
<path d="M210.517 229.32L202.891 233.744L193.043 228.055L200.658 223.631L210.517 229.32Z" fill="#5986FF"/>
<path d="M307.025 285.03L299.41 289.453L289.551 283.764L297.166 279.34L307.025 285.03Z" fill="#5986FF"/>
<path d="M293.236 277.067L285.62 281.491L275.762 275.801L283.377 271.377L293.236 277.067Z" fill="#5986FF"/>
<path d="M279.447 269.104L271.831 273.538L261.973 267.849L269.598 263.415L279.447 269.104Z" fill="#5986FF"/>
<path d="M257.669 217.9L250.054 222.324L240.195 216.635L247.811 212.211L257.669 217.9Z" fill="#5986FF"/>
<path d="M246.546 224.361L238.931 228.785L229.072 223.096L236.688 218.672L246.546 224.361Z" fill="#5986FF"/>
<path d="M271.451 225.853L263.835 230.277L253.977 224.587L261.602 220.164L271.451 225.853Z" fill="#5986FF"/>
<path d="M235.422 230.822L227.806 235.246L220.706 231.141L217.958 229.557L204.168 221.594L211.773 217.17L225.563 225.133L228.311 226.717L235.422 230.822Z" fill="#5986FF"/>
<path d="M260.326 232.314L252.71 236.738L242.852 231.048L250.477 226.625L260.326 232.314Z" fill="#5986FF"/>
<path d="M285.24 233.805L277.624 238.229L267.766 232.55L275.381 228.116L285.24 233.805Z" fill="#5986FF"/>
<path d="M249.21 238.775L241.595 243.199L231.736 237.509L239.352 233.085L249.21 238.775Z" fill="#5986FF"/>
<path d="M274.115 240.266L266.499 244.701L256.641 239.011L264.256 234.587L274.115 240.266Z" fill="#5986FF"/>
<path d="M262.991 246.738L255.376 251.151L245.527 245.462L253.132 241.048L262.991 246.738Z" fill="#5986FF"/>
<path d="M276.78 254.69L269.175 259.114L259.316 253.425L266.921 249.001L276.78 254.69Z" fill="#5986FF"/>
<path d="M265.667 261.151L258.052 265.575L250.611 261.285L248.193 259.886L220.613 243.97L228.239 239.546L255.808 255.462L258.227 256.861L265.667 261.151Z" fill="#5986FF"/>
<path d="M251.393 273.497C252.669 274.237 252.679 275.431 251.414 276.161L234.248 286.13C232.983 286.871 230.914 286.871 229.638 286.13L198.991 268.435C197.705 267.694 197.705 266.501 198.981 265.76L216.147 255.791C217.412 255.05 219.47 255.05 220.747 255.791L251.393 273.486V273.497Z" fill="#97B3FC"/>
<path d="M299.029 241.768L291.413 246.192L281.555 240.503L289.17 236.079L299.029 241.768Z" fill="#5986FF"/>
<path d="M340.39 265.637L332.775 270.071L322.916 264.381L330.531 259.958L340.39 265.637Z" fill="#5986FF"/>
<path d="M232.755 216.398L225.14 220.822L215.281 215.133L222.897 210.709L232.755 216.398Z" fill="#5986FF"/>
<path d="M304.349 270.606L296.744 275.03L291.815 272.18L286.886 269.34L273.096 261.388L280.711 256.964L294.491 264.916L299.42 267.766L304.349 270.606Z" fill="#5986FF"/>
<path d="M329.264 272.108L323.707 275.338L321.649 276.532L310.534 282.992L300.676 277.303L311.79 270.842L298 262.879L305.615 258.456L319.405 266.418L320.62 267.118L329.264 272.108Z" fill="#5986FF"/>
<path d="M280.589 147.972C280.373 145.976 279.931 143.95 279.293 141.943C279.293 141.943 279.293 141.923 279.293 141.913C279.18 141.563 279.066 141.213 278.943 140.863C278.912 140.771 278.881 140.688 278.85 140.606C278.716 140.225 278.572 139.845 278.418 139.474C278.253 139.063 278.089 138.662 277.903 138.25C277.729 137.849 277.543 137.448 277.348 137.036C277.152 136.645 276.957 136.244 276.751 135.853C276.535 135.452 276.319 135.05 276.103 134.67C275.876 134.279 275.65 133.888 275.413 133.507C274.94 132.736 274.446 131.995 273.921 131.265C273.664 130.904 273.396 130.544 273.129 130.205C272.604 129.516 272.058 128.847 271.492 128.219C271.338 128.055 271.183 127.88 271.029 127.705C270.875 127.551 270.741 127.396 270.587 127.242C270.412 127.057 270.237 126.872 270.052 126.697C269.877 126.532 269.702 126.357 269.527 126.182C269.475 126.131 269.424 126.079 269.372 126.048C269.331 125.997 269.29 125.966 269.239 125.915C269.084 125.771 268.93 125.637 268.775 125.493C268.745 125.472 268.724 125.442 268.693 125.421C268.57 125.308 268.446 125.195 268.312 125.081C268.22 124.999 268.117 124.927 268.024 124.845C267.973 124.793 267.911 124.742 267.849 124.69C267.674 124.546 267.499 124.402 267.314 124.269C267.005 124.022 266.697 123.806 266.378 123.569C266.223 123.456 266.069 123.353 265.915 123.25C265.698 123.116 265.493 122.972 265.276 122.839C265.05 122.684 264.813 122.551 264.577 122.407C263.867 121.995 263.146 121.625 262.436 121.326C261.675 120.997 260.923 120.74 260.203 120.555C253.01 118.682 248.049 123.549 248.317 132.386C248.338 132.972 248.379 133.579 248.44 134.197C248.533 135.133 248.687 136.09 248.893 137.036C249.027 137.653 249.161 138.26 249.346 138.888C249.593 139.824 249.902 140.771 250.252 141.717C252.32 147.365 255.901 152.746 260.11 156.542C260.584 156.964 261.057 157.375 261.541 157.756C261.736 157.921 261.932 158.075 262.138 158.219C262.92 158.806 263.712 159.33 264.525 159.803C265.544 160.39 266.532 160.853 267.499 161.203C267.654 161.264 267.818 161.316 267.973 161.367C268.106 161.419 268.24 161.45 268.384 161.491C268.559 161.542 268.734 161.594 268.919 161.635C269.022 161.666 269.115 161.696 269.208 161.707C269.784 161.84 270.34 161.933 270.875 161.974C271.07 161.985 271.266 161.995 271.461 162.005C271.657 162.005 271.842 162.005 272.038 162.005C272.223 161.995 272.408 161.985 272.593 161.974C272.964 161.954 273.324 161.902 273.674 161.81C274.919 161.552 276.031 161.028 276.977 160.246C277.389 159.917 277.77 159.546 278.12 159.124C278.48 158.692 278.809 158.219 279.097 157.694C279.385 157.19 279.632 156.635 279.849 156.038C279.91 155.873 279.972 155.688 280.023 155.513C280.023 155.482 280.044 155.452 280.054 155.431C280.692 153.363 280.898 150.853 280.6 147.993L280.589 147.972ZM265.441 149.917C261.479 148.219 257.846 142.89 257.332 138.024C256.817 133.147 259.616 130.575 263.589 132.273C264.422 132.623 265.225 133.137 266.007 133.775C266.336 134.042 266.666 134.341 266.985 134.66C268.806 136.47 270.309 138.929 271.122 141.47C271.41 142.365 271.605 143.271 271.698 144.166C271.832 145.452 271.739 146.563 271.451 147.478C270.659 150.092 268.364 151.162 265.441 149.906V149.917Z" fill="#5986FF"/>
<path d="M270.041 126.697L266.995 134.66C266.676 134.341 266.347 134.042 266.018 133.775C265.246 133.137 264.433 132.623 263.599 132.273C259.637 130.575 256.838 133.147 257.342 138.024L248.451 134.217C247.412 124.32 252.588 118.621 260.214 120.586C260.934 120.771 261.685 121.028 262.447 121.357C263.157 121.656 263.867 122.026 264.587 122.438C264.824 122.571 265.061 122.715 265.287 122.87C265.503 123.003 265.709 123.147 265.925 123.281C266.079 123.384 266.234 123.487 266.388 123.6C266.697 123.826 267.006 124.053 267.325 124.3C267.5 124.444 267.675 124.588 267.86 124.721C267.922 124.773 267.983 124.824 268.035 124.876C268.261 125.061 268.477 125.246 268.704 125.452C268.735 125.472 268.755 125.503 268.786 125.524C268.982 125.699 269.177 125.884 269.383 126.069C269.62 126.285 269.836 126.491 270.062 126.717L270.041 126.697Z" fill="#FF5C98"/>
<path d="M279.293 141.943L271.122 141.47C270.309 138.929 268.807 136.47 266.985 134.659C266.666 134.341 266.337 134.042 266.008 133.775L267.85 124.711C267.912 124.762 267.973 124.814 268.025 124.865C268.117 124.948 268.22 125.02 268.313 125.102C268.447 125.215 268.57 125.318 268.694 125.441C268.725 125.462 268.745 125.493 268.776 125.513C268.93 125.647 269.085 125.781 269.239 125.935C269.332 126.018 269.424 126.1 269.517 126.203C269.692 126.378 269.867 126.552 270.042 126.717C270.227 126.892 270.402 127.077 270.577 127.262C270.731 127.417 270.865 127.571 271.02 127.725C271.174 127.89 271.328 128.075 271.483 128.24C272.038 128.878 272.584 129.536 273.119 130.225C273.386 130.565 273.654 130.925 273.911 131.285C274.169 131.655 274.426 132.015 274.673 132.396C274.92 132.766 275.167 133.147 275.403 133.528C275.63 133.908 275.867 134.299 276.093 134.69C276.309 135.071 276.525 135.472 276.741 135.873C276.947 136.264 277.153 136.666 277.338 137.057C277.534 137.458 277.719 137.869 277.894 138.271C278.079 138.682 278.244 139.083 278.408 139.495C278.563 139.865 278.697 140.246 278.841 140.626C278.872 140.709 278.902 140.791 278.933 140.884C279.057 141.233 279.17 141.583 279.283 141.933C279.283 141.933 279.283 141.954 279.283 141.964L279.293 141.943Z" fill="url(#paint18_linear_588_10755)"/>
<path d="M280.044 155.411C280.044 155.411 280.023 155.472 280.013 155.493C279.961 155.678 279.899 155.853 279.838 156.018C279.622 156.614 279.375 157.17 279.087 157.674C278.798 158.199 278.469 158.672 278.109 159.104C277.759 159.526 277.378 159.896 276.967 160.226C276.01 160.997 274.898 161.532 273.663 161.789C273.313 161.861 272.953 161.913 272.583 161.954C272.397 161.964 272.212 161.974 272.027 161.985C271.831 161.985 271.646 161.985 271.451 161.985C271.255 161.974 271.06 161.964 270.864 161.954C270.319 161.902 269.763 161.82 269.197 161.686C269.104 161.666 269.001 161.645 268.909 161.614C268.734 161.573 268.559 161.532 268.374 161.47C268.24 161.429 268.106 161.388 267.962 161.347C267.808 161.295 267.643 161.244 267.489 161.182C266.521 160.832 265.523 160.37 264.514 159.783C263.701 159.32 262.909 158.785 262.127 158.199C261.931 158.055 261.736 157.9 261.53 157.736C261.046 157.355 260.573 156.944 260.1 156.522C255.88 152.695 252.32 147.314 250.241 141.697C249.901 140.761 249.593 139.814 249.335 138.868C249.16 138.25 249.016 137.633 248.882 137.016C248.687 136.069 248.533 135.112 248.43 134.176L257.321 137.983C257.836 142.849 261.458 148.178 265.43 149.876C268.363 151.131 270.658 150.061 271.44 147.448L280.033 155.37L280.044 155.411Z" fill="#4367C7"/>
<path d="M322.576 172.211C322.349 170.081 321.866 167.931 321.156 165.791C321.022 165.4 320.888 165.019 320.744 164.628C320.693 164.495 320.641 164.351 320.579 164.217C320.487 163.939 320.363 163.661 320.25 163.383C320.116 163.054 319.983 162.735 319.828 162.396C319.777 162.262 319.715 162.139 319.653 162.005C319.489 161.645 319.324 161.285 319.139 160.925C318.953 160.554 318.768 160.204 318.573 159.834C318.398 159.515 318.223 159.196 318.038 158.877C317.966 158.744 317.894 158.62 317.811 158.486C317.626 158.167 317.441 157.859 317.245 157.55C317.029 157.221 316.823 156.881 316.597 156.552C316.576 156.521 316.545 156.48 316.525 156.449C316.319 156.141 316.113 155.842 315.897 155.554C315.804 155.41 315.702 155.277 315.609 155.153C315.485 154.978 315.362 154.814 315.228 154.639C315.115 154.474 314.991 154.32 314.858 154.155C314.642 153.867 314.405 153.589 314.178 153.312C313.911 152.982 313.623 152.663 313.345 152.355C313.067 152.036 312.779 151.727 312.491 151.429C312.336 151.264 312.172 151.1 311.997 150.935C311.873 150.801 311.75 150.678 311.616 150.554C311.534 150.472 311.451 150.4 311.369 150.328C311.359 150.307 311.338 150.297 311.328 150.287C311.143 150.102 310.957 149.927 310.762 149.762C310.721 149.721 310.69 149.69 310.649 149.67C310.566 149.598 310.494 149.536 310.412 149.464C310.268 149.33 310.134 149.227 309.99 149.104C309.959 149.083 309.928 149.052 309.897 149.032C309.867 149.001 309.836 148.98 309.805 148.949C309.63 148.805 309.455 148.661 309.27 148.528C308.961 148.281 308.632 148.044 308.313 147.818C308.169 147.715 308.024 147.612 307.88 147.519C307.664 147.375 307.448 147.231 307.232 147.098C307.006 146.943 306.759 146.799 306.532 146.665L306.44 146.614C306.213 146.48 305.987 146.367 305.76 146.244C305.668 146.192 305.565 146.141 305.462 146.089C305.277 145.986 305.092 145.904 304.906 145.822C304.783 145.77 304.659 145.709 304.536 145.657C304.32 145.565 304.104 145.472 303.877 145.39C303.682 145.307 303.486 145.235 303.301 145.174C303.249 145.153 303.198 145.143 303.147 145.122C302.9 145.04 302.663 144.958 302.426 144.906C295.531 142.951 290.622 147.128 290.273 155.05C290.262 155.369 290.252 155.678 290.252 155.997C290.252 156.089 290.252 156.192 290.252 156.285C290.252 156.583 290.262 156.881 290.283 157.19C290.293 157.427 290.314 157.663 290.334 157.9C290.355 158.095 290.355 158.27 290.375 158.466C290.396 158.63 290.406 158.795 290.437 158.97C290.437 159.032 290.447 159.083 290.458 159.135C290.54 159.752 290.643 160.379 290.767 161.007C290.808 161.223 290.859 161.439 290.9 161.655C291.034 162.303 291.199 162.951 291.394 163.6C291.96 165.585 292.722 167.56 293.658 169.464C293.761 169.68 293.874 169.896 293.967 170.102C294.08 170.318 294.183 170.523 294.296 170.739C294.523 171.161 294.749 171.583 294.996 172.005C295.109 172.211 295.233 172.416 295.367 172.622C295.367 172.622 295.367 172.632 295.377 172.643C295.624 173.054 295.871 173.445 296.128 173.846C296.396 174.258 296.674 174.659 296.962 175.06C297.095 175.256 297.229 175.441 297.373 175.636C297.404 175.678 297.435 175.719 297.466 175.76C297.579 175.914 297.692 176.069 297.816 176.213C297.836 176.243 297.867 176.274 297.888 176.316C298.063 176.542 298.227 176.758 298.402 176.964C298.567 177.169 298.732 177.365 298.896 177.56C299.154 177.869 299.421 178.167 299.689 178.466C299.792 178.579 299.905 178.702 300.008 178.815C300.193 179.011 300.378 179.196 300.564 179.392C300.749 179.577 300.934 179.762 301.13 179.957C301.315 180.132 301.5 180.328 301.696 180.492C301.891 180.678 302.076 180.842 302.272 181.007C302.663 181.346 303.044 181.676 303.445 181.994C303.558 182.077 303.661 182.169 303.774 182.241C304.062 182.478 304.371 182.694 304.67 182.91C304.845 183.034 305.019 183.157 305.205 183.27C305.616 183.548 306.028 183.805 306.44 184.032H306.46C306.697 184.186 306.934 184.309 307.17 184.433C307.633 184.68 308.086 184.896 308.549 185.081C308.776 185.184 309.002 185.266 309.218 185.348C309.239 185.359 309.27 185.369 309.29 185.369C309.486 185.441 309.681 185.523 309.877 185.575C310.093 185.647 310.288 185.708 310.505 185.76C310.659 185.811 310.813 185.852 310.968 185.873C311.019 185.894 311.071 185.904 311.122 185.914C311.328 185.966 311.534 186.007 311.74 186.038C311.781 186.058 311.832 186.058 311.873 186.058C312.059 186.089 312.244 186.12 312.429 186.141C312.46 186.151 312.501 186.161 312.542 186.161C312.769 186.182 312.995 186.202 313.221 186.213C313.448 186.213 313.685 186.233 313.911 186.213C314.137 186.213 314.364 186.202 314.59 186.171C314.775 186.161 314.95 186.13 315.136 186.11C316.051 185.966 316.895 185.678 317.688 185.256C321.238 183.342 323.193 178.671 322.504 172.19L322.576 172.211ZM307.438 174.155C305.709 173.414 304.042 171.984 302.663 170.194C302.591 170.112 302.529 170.03 302.467 169.947C300.8 167.684 299.606 164.916 299.329 162.272C298.814 157.386 301.613 154.824 305.586 156.521C306.419 156.871 307.222 157.386 308.004 158.023C308.333 158.291 308.663 158.589 308.982 158.908C310.762 160.688 312.244 163.075 313.057 165.554C313.376 166.511 313.592 167.468 313.695 168.425C314.004 171.326 313.129 173.414 311.544 174.268C310.463 174.844 309.054 174.865 307.448 174.176L307.438 174.155Z" fill="#5986FF"/>
<path d="M312.027 150.935L308.981 158.898C308.672 158.579 308.343 158.281 308.004 158.013C307.232 157.375 306.419 156.861 305.585 156.511C301.623 154.814 298.814 157.386 299.328 162.262C299.606 164.906 300.8 167.684 302.467 169.937C302.529 170.019 302.591 170.102 302.663 170.184L297.898 176.202L297.888 176.182C297.743 176.007 297.599 175.811 297.466 175.626C297.322 175.441 297.188 175.256 297.054 175.06C296.766 174.659 296.498 174.258 296.22 173.846C295.963 173.455 295.706 173.054 295.469 172.643C295.469 172.632 295.459 172.622 295.459 172.622C295.325 172.416 295.212 172.211 295.088 172.005C294.841 171.593 294.615 171.161 294.389 170.739C294.275 170.523 294.162 170.307 294.059 170.102C293.956 169.896 293.843 169.68 293.751 169.464C292.814 167.53 292.053 165.554 291.487 163.6C291.301 162.951 291.137 162.303 290.993 161.655C290.941 161.439 290.9 161.223 290.859 161.007C290.735 160.379 290.622 159.762 290.55 159.135C290.55 159.083 290.54 159.021 290.53 158.97C290.406 157.962 290.334 156.964 290.334 155.997C290.334 155.678 290.334 155.359 290.355 155.05C290.725 147.026 295.798 143.044 302.508 144.906C302.745 144.968 302.982 145.04 303.229 145.122C303.28 145.143 303.331 145.153 303.383 145.174C303.578 145.235 303.764 145.307 303.959 145.39C304.175 145.472 304.391 145.565 304.618 145.657C304.741 145.709 304.865 145.77 304.988 145.822C305.174 145.904 305.359 145.997 305.544 146.089C305.647 146.141 305.75 146.192 305.842 146.244C306.069 146.357 306.295 146.48 306.522 146.614L306.614 146.665C306.841 146.799 307.088 146.943 307.314 147.098C307.53 147.231 307.746 147.365 307.962 147.519C308.107 147.622 308.251 147.715 308.395 147.818C308.714 148.044 309.033 148.281 309.352 148.528C309.527 148.672 309.702 148.816 309.887 148.949C309.918 148.98 309.949 149.001 309.979 149.032C310.01 149.052 310.041 149.083 310.072 149.104C310.216 149.227 310.35 149.34 310.494 149.464C310.576 149.536 310.648 149.598 310.731 149.67C310.926 149.844 311.122 150.019 311.307 150.205C311.338 150.235 311.369 150.256 311.4 150.287C311.41 150.287 311.43 150.307 311.441 150.328C311.616 150.493 311.78 150.647 311.945 150.812C311.986 150.842 312.027 150.894 312.069 150.925L312.027 150.935Z" fill="#FF5C98"/>
<path d="M321.166 165.791L313.057 165.544C312.244 163.064 310.762 160.678 308.982 158.898C308.673 158.579 308.344 158.28 308.004 158.013L309.846 148.949C309.846 148.949 309.908 149.001 309.939 149.032C309.969 149.052 310 149.083 310.031 149.104C310.175 149.227 310.309 149.34 310.453 149.464C310.535 149.536 310.608 149.597 310.69 149.669C310.721 149.7 310.762 149.721 310.803 149.762C310.957 149.896 311.112 150.05 311.276 150.194C311.307 150.225 311.338 150.246 311.369 150.276C311.379 150.276 311.4 150.297 311.41 150.318C311.493 150.39 311.575 150.472 311.657 150.544C311.75 150.626 311.832 150.719 311.914 150.801C311.956 150.832 311.997 150.883 312.038 150.914C312.213 151.079 312.367 151.243 312.532 151.408C312.82 151.706 313.108 152.015 313.386 152.334C313.664 152.643 313.942 152.962 314.22 153.291C314.446 153.569 314.683 153.846 314.899 154.134C315.033 154.299 315.146 154.453 315.269 154.618C315.403 154.783 315.527 154.957 315.65 155.132C315.743 155.256 315.846 155.39 315.938 155.534C316.154 155.822 316.36 156.12 316.566 156.429C316.587 156.459 316.617 156.49 316.638 156.531C316.864 156.861 317.07 157.2 317.286 157.529C317.482 157.838 317.667 158.147 317.852 158.466C317.935 158.599 318.007 158.723 318.079 158.857C318.264 159.176 318.439 159.494 318.614 159.813C318.809 160.184 318.995 160.534 319.18 160.904C319.355 161.264 319.53 161.624 319.694 161.984C319.767 162.118 319.818 162.241 319.869 162.375C320.024 162.704 320.158 163.033 320.291 163.363C320.405 163.64 320.518 163.918 320.621 164.196C320.682 164.33 320.734 164.474 320.785 164.608C320.929 164.999 321.063 165.379 321.197 165.77L321.166 165.791Z" fill="url(#paint19_linear_588_10755)"/>
<path d="M317.771 185.276C316.978 185.698 316.135 185.986 315.219 186.13C315.033 186.151 314.859 186.182 314.673 186.192C314.447 186.223 314.22 186.233 313.994 186.233C313.768 186.233 313.531 186.233 313.305 186.233C313.078 186.223 312.852 186.202 312.625 186.182C312.595 186.182 312.553 186.182 312.512 186.161C312.327 186.141 312.142 186.12 311.957 186.079C311.905 186.079 311.864 186.079 311.823 186.058C311.617 186.027 311.411 185.986 311.205 185.935C311.154 185.935 311.092 185.914 311.051 185.894C310.897 185.863 310.742 185.832 310.588 185.781C310.372 185.729 310.176 185.667 309.96 185.595C309.765 185.544 309.569 185.462 309.373 185.39C309.353 185.39 309.322 185.379 309.301 185.369C309.085 185.287 308.859 185.204 308.633 185.101C308.18 184.906 307.717 184.69 307.254 184.453C307.017 184.33 306.78 184.206 306.543 184.062H306.523C306.111 183.816 305.7 183.558 305.288 183.281C305.113 183.167 304.938 183.044 304.753 182.92C304.454 182.704 304.156 182.488 303.857 182.252C303.744 182.169 303.641 182.087 303.528 182.005C303.137 181.686 302.746 181.367 302.355 181.017C302.159 180.853 301.974 180.678 301.779 180.503C301.583 180.328 301.398 180.143 301.213 179.968C301.017 179.783 300.832 179.587 300.647 179.402C300.461 179.206 300.276 179.021 300.091 178.826C299.978 178.713 299.875 178.589 299.772 178.476C299.504 178.178 299.237 177.879 298.98 177.571C298.805 177.375 298.65 177.169 298.486 176.974C298.311 176.758 298.136 176.542 297.971 176.326C297.94 176.295 297.92 176.254 297.899 176.223L297.889 176.202C297.776 176.069 297.662 175.914 297.559 175.77C297.529 175.729 297.498 175.688 297.467 175.647L302.468 169.947C302.53 170.03 302.592 170.112 302.664 170.194C304.043 171.984 305.71 173.425 307.439 174.155C309.044 174.844 310.454 174.824 311.535 174.248L317.761 185.276H317.771Z" fill="#4367C7"/>
<path d="M331.046 168.096L328.689 166.738V164.021L331.046 165.38V168.096Z" fill="#5986FF"/>
<path d="M331.046 172.159L328.689 170.801V168.085L331.046 169.443V172.159Z" fill="#4367C7"/>
<path d="M331.046 176.223L328.689 174.865V172.139L331.046 173.507V176.223Z" fill="#FF5C98"/>
<path d="M331.046 180.287L328.689 178.929V176.203L331.046 177.561V180.287Z" fill="url(#paint20_linear_588_10755)"/>
<path d="M347.871 175.688L334.863 168.178V167.581L347.871 175.091V175.688Z" fill="#4367C7"/>
<path d="M347.871 177.478L334.863 169.968V169.371L347.871 176.881V177.478Z" fill="#4367C7"/>
<path d="M347.871 179.269L334.863 171.758V171.162L347.871 178.672V179.269Z" fill="#4367C7"/>
<path d="M347.667 180.945L334.648 173.425V172.828L347.667 180.338V180.945Z" fill="#4367C7"/>
<path d="M347.871 183.548L334.863 176.038V175.441L347.871 182.952V183.548Z" fill="#4367C7"/>
<path d="M347.871 185.338L334.863 177.828V177.231L347.871 184.742V185.338Z" fill="#4367C7"/>
<path d="M347.871 187.128L334.863 179.618V179.021L347.871 186.532V187.128Z" fill="#4367C7"/>
<path d="M347.667 188.795L334.648 181.285V180.688L347.667 188.198V188.795Z" fill="#4367C7"/>
<path d="M275.999 175.822L248.316 159.845V157.664L275.999 173.641V175.822Z" fill="#4367C7"/>
<path d="M287.463 189.782L248.316 167.18V164.958L287.463 187.55V189.782Z" fill="#4367C7"/>
<path d="M287.463 194.103L248.316 171.511V169.278L287.463 191.871V194.103Z" fill="#4367C7"/>
<path d="M287.463 198.425L248.316 175.832V173.61L287.463 196.202V198.425Z" fill="#4367C7"/>
<path d="M287.463 202.756L248.316 180.153V177.931L287.463 200.523V202.756Z" fill="#4367C7"/>
<path d="M287.463 207.076L248.316 184.484V182.251L287.463 204.844V207.076Z" fill="#4367C7"/>
<path d="M348.262 224.875L309.115 202.283V200.05L348.262 222.643V224.875Z" fill="#4367C7"/>
<path d="M348.262 229.196L309.115 206.604V204.371L348.262 226.974V229.196Z" fill="#4367C7"/>
<path d="M348.262 233.517L309.115 210.925V208.703L348.262 231.295V233.517Z" fill="#4367C7"/>
<path d="M348.262 237.848L309.115 215.256V213.023L348.262 235.616V237.848Z" fill="#4367C7"/>
<path d="M348.262 242.169L309.115 219.577V217.344L348.262 239.947V242.169Z" fill="#4367C7"/>
<path d="M348.263 200.596L325.891 187.684V185.452L348.263 198.373V200.596Z" fill="#4367C7"/>
<path d="M348.263 204.927L325.891 192.005V189.783L348.263 202.694V204.927Z" fill="#4367C7"/>
<path d="M348.263 209.248L325.891 196.326V194.104L348.263 207.015V209.248Z" fill="#4367C7"/>
<path d="M348.263 213.569L325.891 200.657V198.425L348.263 211.347V213.569Z" fill="#4367C7"/>
<path d="M348.263 217.9L325.891 204.978V202.746L348.263 215.667V217.9Z" fill="#4367C7"/>
<path d="M304.773 217.067L291.322 209.299V189.783L304.773 197.54V217.067Z" fill="#4367C7"/>
<path d="M302.198 323.538L279.27 327.961L256.342 323.538C256.342 323.538 256.259 326.202 264.945 345.204C265.058 345.554 265.223 345.883 265.408 346.223C265.418 346.254 265.439 346.284 265.449 346.315H265.46C266.159 347.509 267.322 348.63 268.969 349.587C274.691 352.889 283.983 352.889 289.705 349.587C292.175 348.157 293.575 346.346 293.914 344.484C302.27 326.13 302.188 323.538 302.188 323.538H302.198Z" fill="#FF5C98"/>
<path d="M263.021 312.941C272.036 307.735 286.659 307.735 295.674 312.941C304.689 318.147 304.689 326.583 295.674 331.789C286.659 336.994 272.036 336.994 263.021 331.789C254.006 326.583 254.006 318.147 263.021 312.941Z" fill="#FF82B0"/>
<path d="M279.342 332.498C273.723 332.498 268.495 331.264 264.615 329.021C261.332 327.128 259.449 324.7 259.449 322.365C259.449 320.029 261.332 317.601 264.615 315.708C268.444 313.496 273.805 312.231 279.342 312.231C284.878 312.231 290.188 313.466 294.068 315.708C297.351 317.601 299.234 320.029 299.234 322.365C299.234 324.7 297.351 327.128 294.068 329.021C290.24 331.233 284.878 332.498 279.342 332.498Z" fill="#2D4483"/>
<path d="M297.31 333.651C298.288 332.571 304.792 327.406 307.581 330.708C310.462 334.114 303.547 341.665 291.959 341.171" stroke="#FF5C98" stroke-width="2" stroke-miterlimit="10"/>
<path d="M183.308 286.068V288.28C183.298 291.12 181.425 293.959 177.7 296.13C170.187 300.492 157.972 300.492 150.408 296.13C146.601 293.939 144.707 291.048 144.707 288.167V285.955C144.707 288.836 146.611 291.716 150.408 293.918C157.972 298.28 170.187 298.28 177.7 293.918C181.436 291.747 183.298 288.918 183.308 286.068Z" fill="url(#paint21_linear_588_10755)"/>
<path d="M177.608 278.106C185.172 282.468 185.213 289.546 177.701 293.908C170.188 298.27 157.973 298.27 150.409 293.908C142.845 289.546 142.804 282.468 150.316 278.106C157.829 273.743 170.044 273.743 177.608 278.106Z" fill="#6EAAE6"/>
<path d="M175.116 279.505C181.291 283.075 181.322 288.846 175.188 292.416C169.045 295.986 159.062 295.986 152.888 292.416C146.703 288.846 146.672 283.064 152.816 279.505C158.949 275.935 168.931 275.935 175.116 279.505Z" fill="url(#paint22_linear_588_10755)"/>
<path d="M156.675 282.159L154.617 280.976L156.12 280.112L158.157 281.285C160.071 280.307 162.397 279.638 164.177 279.566L165.207 281.11C163.57 281.202 161.666 281.696 160.143 282.426L163.817 284.546C166.349 283.661 169.199 282.776 171.752 284.247C173.625 285.328 173.902 287.056 171.309 288.867L173.388 290.06L171.885 290.924L169.848 289.752C168.417 290.492 166.637 291.058 165.001 291.254L163.9 289.752C165.443 289.515 166.781 289.103 167.862 288.61L164.157 286.47C161.625 287.365 158.764 288.27 156.212 286.799C154.339 285.719 154.103 283.99 156.686 282.159H156.675ZM166.04 285.822L169.302 287.704C170.404 286.84 170.29 286.14 169.488 285.667C168.603 285.163 167.409 285.379 166.04 285.811V285.822ZM158.384 285.348C159.279 285.863 160.514 285.647 161.924 285.194L158.672 283.322C157.53 284.217 157.591 284.896 158.373 285.359L158.384 285.348Z" fill="#6EAAE6"/>
<defs>
<linearGradient id="paint0_linear_588_10755" x1="214.529" y1="57.146" x2="355.143" y2="138.353" gradientUnits="userSpaceOnUse">
<stop stop-color="white"/>
<stop offset="1" stop-color="#5986FF"/>
</linearGradient>
<linearGradient id="paint1_linear_588_10755" x1="200.389" y1="81.6295" x2="341.004" y2="162.837" gradientUnits="userSpaceOnUse">
<stop stop-color="white"/>
<stop offset="1" stop-color="#E02066"/>
</linearGradient>
<linearGradient id="paint2_linear_588_10755" x1="340.09" y1="288.116" x2="388.492" y2="316.801" gradientUnits="userSpaceOnUse">
<stop stop-color="white"/>
<stop offset="1" stop-color="#2D4483"/>
</linearGradient>
<linearGradient id="paint3_linear_588_10755" x1="340.09" y1="284.309" x2="388.492" y2="313.004" gradientUnits="userSpaceOnUse">
<stop stop-color="white"/>
<stop offset="1" stop-color="#2D4483"/>
</linearGradient>
<linearGradient id="paint4_linear_588_10755" x1="340.09" y1="280.502" x2="388.492" y2="309.197" gradientUnits="userSpaceOnUse">
<stop stop-color="white"/>
<stop offset="1" stop-color="#2D4483"/>
</linearGradient>
<linearGradient id="paint5_linear_588_10755" x1="23.7362" y1="230.4" x2="72.1479" y2="259.095" gradientUnits="userSpaceOnUse">
<stop stop-color="white"/>
<stop offset="1" stop-color="#2D4483"/>
</linearGradient>
<linearGradient id="paint6_linear_588_10755" x1="23.7362" y1="226.593" x2="72.148" y2="255.288" gradientUnits="userSpaceOnUse">
<stop stop-color="white"/>
<stop offset="1" stop-color="#2D4483"/>
</linearGradient>
<linearGradient id="paint7_linear_588_10755" x1="23.7362" y1="222.797" x2="72.1479" y2="251.482" gradientUnits="userSpaceOnUse">
<stop stop-color="white"/>
<stop offset="1" stop-color="#2D4483"/>
</linearGradient>
<linearGradient id="paint8_linear_588_10755" x1="23.7362" y1="218.991" x2="72.1479" y2="247.686" gradientUnits="userSpaceOnUse">
<stop stop-color="white"/>
<stop offset="1" stop-color="#2D4483"/>
</linearGradient>
<linearGradient id="paint9_linear_588_10755" x1="23.7362" y1="215.184" x2="72.1479" y2="243.88" gradientUnits="userSpaceOnUse">
<stop stop-color="white"/>
<stop offset="1" stop-color="#2D4483"/>
</linearGradient>
<linearGradient id="paint10_linear_588_10755" x1="23.7362" y1="211.377" x2="72.1479" y2="240.072" gradientUnits="userSpaceOnUse">
<stop stop-color="white"/>
<stop offset="1" stop-color="#2D4483"/>
</linearGradient>
<linearGradient id="paint11_linear_588_10755" x1="34.7161" y1="216.532" x2="88.203" y2="241.729" gradientUnits="userSpaceOnUse">
<stop stop-color="white"/>
<stop offset="1" stop-color="#5986FF"/>
</linearGradient>
<linearGradient id="paint12_linear_588_10755" x1="70.067" y1="231.819" x2="108.938" y2="261.449" gradientUnits="userSpaceOnUse">
<stop stop-color="white"/>
<stop offset="1" stop-color="#2D4483"/>
</linearGradient>
<linearGradient id="paint13_linear_588_10755" x1="74.2652" y1="233.99" x2="134.426" y2="274.263" gradientUnits="userSpaceOnUse">
<stop stop-color="white"/>
<stop offset="1" stop-color="#5986FF"/>
</linearGradient>
<linearGradient id="paint14_linear_588_10755" x1="64.273" y1="253.352" x2="106.942" y2="281.923" gradientUnits="userSpaceOnUse">
<stop stop-color="white"/>
<stop offset="1" stop-color="#2D4483"/>
</linearGradient>
<linearGradient id="paint15_linear_588_10755" x1="68.1022" y1="253.311" x2="118.54" y2="285.248" gradientUnits="userSpaceOnUse">
<stop stop-color="white"/>
<stop offset="1" stop-color="#5986FF"/>
</linearGradient>
<linearGradient id="paint16_linear_588_10755" x1="233.344" y1="140.812" x2="371.224" y2="216.977" gradientUnits="userSpaceOnUse">
<stop stop-color="white"/>
<stop offset="1" stop-color="#5986FF"/>
</linearGradient>
<linearGradient id="paint17_linear_588_10755" x1="113.617" y1="194.443" x2="323.529" y2="299.944" gradientUnits="userSpaceOnUse">
<stop stop-color="white"/>
<stop offset="1" stop-color="#2D4483"/>
</linearGradient>
<linearGradient id="paint18_linear_588_10755" x1="262.931" y1="128.456" x2="280.731" y2="141.043" gradientUnits="userSpaceOnUse">
<stop stop-color="white"/>
<stop offset="1" stop-color="#2D4483"/>
</linearGradient>
<linearGradient id="paint19_linear_588_10755" x1="300.955" y1="148.949" x2="323.075" y2="166.445" gradientUnits="userSpaceOnUse">
<stop stop-color="white"/>
<stop offset="1" stop-color="#2D4483"/>
</linearGradient>
<linearGradient id="paint20_linear_588_10755" x1="324.666" y1="175.41" x2="336.324" y2="181.761" gradientUnits="userSpaceOnUse">
<stop stop-color="white"/>
<stop offset="1" stop-color="#2D4483"/>
</linearGradient>
<linearGradient id="paint21_linear_588_10755" x1="135.713" y1="272.653" x2="184.124" y2="301.348" gradientUnits="userSpaceOnUse">
<stop stop-color="white"/>
<stop offset="1" stop-color="#2D4483"/>
</linearGradient>
<linearGradient id="paint22_linear_588_10755" x1="146.94" y1="276.48" x2="196.474" y2="304.012" gradientUnits="userSpaceOnUse">
<stop stop-color="white"/>
<stop offset="1" stop-color="#5986FF"/>
</linearGradient>
</defs>
</svg>
