<svg xmlns="http://www.w3.org/2000/svg" xmlns:xlink="http://www.w3.org/1999/xlink" viewBox="0 0 823.57 358.09"><defs><style>.cls-1{isolation:isolate;}.cls-2{clip-path:url(#clip-path);}.cls-3,.cls-72{fill:none;}.cls-4{mask:url(#mask);}.cls-34,.cls-5{mix-blend-mode:multiply;}.cls-5{fill:url(#radial-gradient);}.cls-6{fill:#16021c;}.cls-7{fill:url(#linear-gradient);}.cls-8{fill:url(#linear-gradient-2);}.cls-9{fill:#45b448;}.cls-10{fill:url(#linear-gradient-3);}.cls-11{clip-path:url(#clip-path-2);}.cls-12{mask:url(#mask-2);}.cls-13{clip-path:url(#clip-path-4);}.cls-14{clip-path:url(#clip-path-5);}.cls-15{fill:url(#radial-gradient-2);}.cls-16{clip-path:url(#clip-path-6);}.cls-17{fill:url(#linear-gradient-18);}.cls-18{clip-path:url(#clip-path-7);}.cls-19{fill:url(#radial-gradient-3);}.cls-20{clip-path:url(#clip-path-8);}.cls-21{fill:url(#radial-gradient-4);}.cls-22{fill:url(#linear-gradient-19);}.cls-23{fill:url(#linear-gradient-20);}.cls-24{fill:url(#linear-gradient-21);}.cls-25{fill:url(#linear-gradient-22);}.cls-26{fill:url(#linear-gradient-23);}.cls-27{fill:url(#linear-gradient-24);}.cls-28{fill:url(#linear-gradient-25);}.cls-29{fill:url(#linear-gradient-26);}.cls-30{fill:url(#linear-gradient-27);}.cls-31{fill:url(#linear-gradient-28);}.cls-32{fill:url(#linear-gradient-29);}.cls-33{fill:url(#linear-gradient-30);}.cls-34{opacity:0.75;fill:url(#radial-gradient-5);}.cls-35{fill:url(#linear-gradient-32);}.cls-36{fill:url(#linear-gradient-33);}.cls-37{fill:url(#linear-gradient-34);}.cls-38{fill:url(#linear-gradient-35);}.cls-39{fill:url(#linear-gradient-36);}.cls-40{fill:url(#linear-gradient-37);}.cls-41{fill:url(#linear-gradient-38);}.cls-42{fill:url(#linear-gradient-39);}.cls-43{fill:url(#linear-gradient-40);}.cls-44{fill:url(#linear-gradient-41);}.cls-45{fill:url(#linear-gradient-42);}.cls-46{fill:url(#linear-gradient-43);}.cls-47{fill:url(#linear-gradient-44);}.cls-48{fill:url(#linear-gradient-45);}.cls-49{fill:url(#linear-gradient-46);}.cls-50{fill:url(#linear-gradient-47);}.cls-51{fill:url(#linear-gradient-48);}.cls-52{fill:url(#linear-gradient-49);}.cls-53{fill:url(#linear-gradient-50);}.cls-54{fill:url(#linear-gradient-51);}.cls-55{fill:url(#linear-gradient-52);}.cls-56{fill:url(#linear-gradient-53);}.cls-57{fill:url(#linear-gradient-54);}.cls-58{fill:url(#linear-gradient-55);}.cls-59{fill:url(#linear-gradient-56);}.cls-60{fill:url(#linear-gradient-57);}.cls-61{fill:url(#linear-gradient-58);}.cls-62{fill:url(#linear-gradient-59);}.cls-63{fill:url(#linear-gradient-60);}.cls-64{fill:url(#linear-gradient-61);}.cls-65{fill:url(#linear-gradient-62);}.cls-66{fill:url(#linear-gradient-63);}.cls-67{fill:url(#linear-gradient-64);}.cls-68{font-size:39.42px;font-family:Poppins-Regular, Poppins;}.cls-69{fill:#0d4593;}.cls-70{fill:#44b749;}.cls-71{fill:#276ab4;}.cls-72{stroke:#10a351;stroke-linecap:round;stroke-miterlimit:10;stroke-width:2px;}.cls-73{filter:url(#luminosity-noclip);}</style><clipPath id="clip-path"><path class="cls-3" d="M273.66,270.76c0-7.79-37.79-14.11-84.4-14.11s-84.4,6.32-84.4,14.11,37.78,14.12,84.4,14.12,84.4-6.32,84.4-14.12"/></clipPath><filter id="luminosity-noclip" x="104.86" y="-8352.16" width="168.81" height="32766" filterUnits="userSpaceOnUse" color-interpolation-filters="sRGB"><feFlood flood-color="#fff" result="bg"/><feBlend in="SourceGraphic" in2="bg"/></filter><mask id="mask" x="104.86" y="-8352.16" width="168.81" height="32766" maskUnits="userSpaceOnUse"><g class="cls-73"/></mask><radialGradient id="radial-gradient" cx="2045.41" cy="525.27" r="0.29" gradientTransform="matrix(292.59, 0, 0, -48.94, -598288.38, 25977.68)" gradientUnits="userSpaceOnUse"><stop offset="0" stop-color="#fff"/><stop offset="0.13" stop-color="#fff"/><stop offset="0.21" stop-color="#cfcfcf"/><stop offset="0.31" stop-color="#999"/><stop offset="0.41" stop-color="#6a6a6a"/><stop offset="0.51" stop-color="#444"/><stop offset="0.61" stop-color="#262626"/><stop offset="0.7" stop-color="#111"/><stop offset="0.8" stop-color="#040404"/><stop offset="0.88"/><stop offset="1"/></radialGradient><linearGradient id="linear-gradient" x1="607.38" y1="149.13" x2="607.38" y2="59.35" gradientUnits="userSpaceOnUse"><stop offset="0" stop-color="#44217f"/><stop offset="0.35" stop-color="#7818ab"/><stop offset="1" stop-color="#d608fc"/></linearGradient><linearGradient id="linear-gradient-2" x1="793.56" y1="149.13" x2="793.56" y2="59.35" gradientUnits="userSpaceOnUse"><stop offset="0" stop-color="#44217f"/><stop offset="0.06" stop-color="#4a2182"/><stop offset="1" stop-color="#d608fc"/></linearGradient><linearGradient id="linear-gradient-3" x1="609.93" y1="149.13" x2="609.93" y2="59.35" gradientUnits="userSpaceOnUse"><stop offset="0" stop-color="#44217f"/><stop offset="0.03" stop-color="#4a2182"/><stop offset="1" stop-color="#d608fc"/></linearGradient><clipPath id="clip-path-2"><rect class="cls-3" x="104.86" y="101.94" width="168.81" height="182.94"/></clipPath><mask id="mask-2" x="104.86" y="256.65" width="168.81" height="28.24" maskUnits="userSpaceOnUse"><rect x="104.86" y="256.65" width="168.81" height="28.24"/><g class="cls-1"><g class="cls-2"><g class="cls-4"><rect class="cls-5" x="104.86" y="256.65" width="168.81" height="28.24"/></g></g></g></mask><clipPath id="clip-path-4"><rect class="cls-3" x="104.86" y="256.65" width="168.81" height="28.24"/></clipPath><clipPath id="clip-path-5"><path class="cls-3" d="M273.66,270.76c0-7.79-37.79-14.11-84.4-14.11s-84.4,6.32-84.4,14.11,37.78,14.12,84.4,14.12,84.4-6.32,84.4-14.12"/></clipPath><radialGradient id="radial-gradient-2" cx="2045.41" cy="525.27" r="0.29" gradientTransform="matrix(292.59, 0, 0, -48.94, -598288.38, 25977.68)" gradientUnits="userSpaceOnUse"><stop offset="0"/><stop offset="0.13"/><stop offset="0.21" stop-color="#0d0e11"/><stop offset="0.39" stop-color="#24272e"/><stop offset="0.56" stop-color="#343943"/><stop offset="0.73" stop-color="#3e4350"/><stop offset="0.88" stop-color="#414754"/><stop offset="1" stop-color="#414754"/></radialGradient><clipPath id="clip-path-6"><path class="cls-3" d="M108.25,190.53a81.65,81.65,0,1,0,81.64-81.65,81.65,81.65,0,0,0-81.64,81.65"/></clipPath><linearGradient id="linear-gradient-18" x1="2053.13" y1="517.46" x2="2053.42" y2="517.46" gradientTransform="matrix(0, 583.64, 583.64, 0, -301817.8, -1198175.84)" gradientUnits="userSpaceOnUse"><stop offset="0" stop-color="#ffedd0"/><stop offset="0.09" stop-color="#fee6b0"/><stop offset="0.27" stop-color="#fdd360"/><stop offset="0.38" stop-color="#fcc72f"/><stop offset="0.47" stop-color="#f9c22d"/><stop offset="0.57" stop-color="#efb226"/><stop offset="0.69" stop-color="#df991c"/><stop offset="0.82" stop-color="#c9750d"/><stop offset="0.91" stop-color="#b75801"/><stop offset="0.99" stop-color="#d48518"/><stop offset="1" stop-color="#d48518"/></linearGradient><clipPath id="clip-path-7"><path class="cls-3" d="M109.74,190.53a80.16,80.16,0,1,0,80.15-80.16,80.15,80.15,0,0,0-80.15,80.16"/></clipPath><radialGradient id="radial-gradient-3" cx="2050.14" cy="520.92" r="0.29" gradientTransform="matrix(741.2, 0, 0, -741.2, -1519458.61, 386224.94)" gradientUnits="userSpaceOnUse"><stop offset="0" stop-color="#f0b22c"/><stop offset="0.09" stop-color="#f0b22c"/><stop offset="0.17" stop-color="#f3c33c"/><stop offset="0.32" stop-color="#fcee65"/><stop offset="0.33" stop-color="#fcf067"/><stop offset="0.44" stop-color="#fcd947"/><stop offset="0.51" stop-color="#fcc72f"/><stop offset="0.55" stop-color="#f9c22e"/><stop offset="0.59" stop-color="#efb22b"/><stop offset="0.65" stop-color="#df9927"/><stop offset="0.68" stop-color="#cf8023"/><stop offset="0.82" stop-color="#fbc72d"/><stop offset="0.85" stop-color="#fbd13b"/><stop offset="0.91" stop-color="#fceb5f"/><stop offset="0.91" stop-color="#fcee63"/><stop offset="1" stop-color="#fcee63"/></radialGradient><clipPath id="clip-path-8"><path class="cls-3" d="M124,190.53a65.9,65.9,0,1,0,65.89-65.9A65.9,65.9,0,0,0,124,190.53"/></clipPath><radialGradient id="radial-gradient-4" cx="2043.53" cy="521.17" r="0.29" gradientTransform="matrix(233.27, 0, 0, -233.27, -476510.26, 121765.18)" gradientUnits="userSpaceOnUse"><stop offset="0" stop-color="#fcc72f"/><stop offset="0.86" stop-color="#fcc72f"/><stop offset="0.88" stop-color="#fac42e"/><stop offset="0.9" stop-color="#f4ba2d"/><stop offset="0.92" stop-color="#e9a92a"/><stop offset="0.94" stop-color="#da9226"/><stop offset="0.95" stop-color="#cf8023"/><stop offset="0.98" stop-color="#e19a27"/><stop offset="1" stop-color="#e19a27"/></radialGradient><linearGradient id="linear-gradient-19" x1="169.29" y1="193.41" x2="208.5" y2="193.41" gradientUnits="userSpaceOnUse"><stop offset="0" stop-color="#17252d"/><stop offset="0.19" stop-color="#24323e"/><stop offset="0.53" stop-color="#111a21"/><stop offset="0.81" stop-color="#1b2630"/><stop offset="1" stop-color="#070c0f"/></linearGradient><linearGradient id="linear-gradient-20" y1="19.64" x2="188.89" y2="19.64" gradientUnits="userSpaceOnUse"><stop offset="0" stop-color="#44566a"/><stop offset="1" stop-color="#1f3848"/></linearGradient><linearGradient id="linear-gradient-21" x1="4798.01" y1="27.09" x2="4986.9" y2="27.09" gradientTransform="matrix(-1, 0, 0, 1, 5175.79, 0)" gradientUnits="userSpaceOnUse"><stop offset="0" stop-color="#111a21"/><stop offset="1" stop-color="#03070a"/></linearGradient><linearGradient id="linear-gradient-22" x1="4798.01" y1="8.95" x2="4986.9" y2="8.95" xlink:href="#linear-gradient-21"/><linearGradient id="linear-gradient-23" y1="38.44" x2="377.79" y2="38.44" gradientUnits="userSpaceOnUse"><stop offset="0" stop-color="#2e3d4d"/><stop offset="1" stop-color="#030407"/></linearGradient><linearGradient id="linear-gradient-24" x1="0" y1="30.87" x2="377.79" y2="30.87" xlink:href="#linear-gradient-23"/><linearGradient id="linear-gradient-25" x1="96.71" y1="84.86" x2="279.71" y2="86.74" xlink:href="#linear-gradient-19"/><linearGradient id="linear-gradient-26" x1="96.63" y1="92.25" x2="279.63" y2="94.13" xlink:href="#linear-gradient-19"/><linearGradient id="linear-gradient-27" x1="0" y1="60.55" x2="377.79" y2="60.55" xlink:href="#linear-gradient-23"/><linearGradient id="linear-gradient-28" x1="96.97" y1="59.61" x2="279.96" y2="61.49" xlink:href="#linear-gradient-19"/><linearGradient id="linear-gradient-29" x1="0" y1="52.57" x2="377.79" y2="52.57" xlink:href="#linear-gradient-23"/><linearGradient id="linear-gradient-30" x1="97.04" y1="52.56" x2="280.04" y2="54.44" xlink:href="#linear-gradient-19"/><radialGradient id="radial-gradient-5" cx="153.83" cy="14.28" r="134.46" gradientUnits="userSpaceOnUse"><stop offset="0" stop-color="#2e3d4d" stop-opacity="0"/><stop offset="1" stop-color="#030407"/></radialGradient><linearGradient id="linear-gradient-32" x1="96.9" y1="65.81" x2="279.9" y2="67.68" xlink:href="#linear-gradient-19"/><linearGradient id="linear-gradient-33" x1="96.9" y1="65.75" x2="279.9" y2="67.63" xlink:href="#linear-gradient-19"/><linearGradient id="linear-gradient-34" x1="96.93" y1="63.35" x2="279.93" y2="65.23" xlink:href="#linear-gradient-19"/><linearGradient id="linear-gradient-35" x1="0" y1="46.77" x2="377.79" y2="46.77" xlink:href="#linear-gradient-23"/><linearGradient id="linear-gradient-36" x1="97.11" y1="45.83" x2="280.11" y2="47.71" xlink:href="#linear-gradient-19"/><linearGradient id="linear-gradient-37" x1="0" y1="51.27" x2="377.79" y2="51.27" xlink:href="#linear-gradient-23"/><linearGradient id="linear-gradient-38" x1="97.07" y1="49.51" x2="280.07" y2="51.39" xlink:href="#linear-gradient-19"/><linearGradient id="linear-gradient-39" x1="268.53" y1="76.89" x2="264.56" y2="13.21" gradientUnits="userSpaceOnUse"><stop offset="0" stop-color="#a86403"/><stop offset="0.72" stop-color="#facc5e"/><stop offset="1" stop-color="#bf8423"/></linearGradient><linearGradient id="linear-gradient-40" x1="4798.01" y1="16.19" x2="4986.9" y2="16.19" xlink:href="#linear-gradient-21"/><linearGradient id="linear-gradient-41" x1="268.59" y1="76.88" x2="264.63" y2="13.21" xlink:href="#linear-gradient-39"/><linearGradient id="linear-gradient-42" x1="0" y1="30" x2="377.79" y2="30" xlink:href="#linear-gradient-23"/><linearGradient id="linear-gradient-43" x1="269.81" y1="76.81" x2="265.85" y2="13.13" xlink:href="#linear-gradient-39"/><linearGradient id="linear-gradient-44" x1="96.86" y1="70" x2="279.86" y2="71.87" xlink:href="#linear-gradient-19"/><linearGradient id="linear-gradient-45" x1="272.25" y1="76.66" x2="268.29" y2="12.98" xlink:href="#linear-gradient-39"/><linearGradient id="linear-gradient-46" x1="96.92" y1="63.99" x2="279.92" y2="65.87" xlink:href="#linear-gradient-19"/><linearGradient id="linear-gradient-47" x1="271.47" y1="76.71" x2="267.5" y2="13.03" xlink:href="#linear-gradient-39"/><linearGradient id="linear-gradient-48" x1="0" y1="51.17" x2="377.79" y2="51.17" xlink:href="#linear-gradient-23"/><linearGradient id="linear-gradient-49" x1="97.07" y1="49.42" x2="280.07" y2="51.3" xlink:href="#linear-gradient-19"/><linearGradient id="linear-gradient-50" x1="269.73" y1="76.81" x2="265.76" y2="13.14" xlink:href="#linear-gradient-39"/><linearGradient id="linear-gradient-51" x1="279.13" y1="132.23" x2="270.3" y2="76.3" gradientUnits="userSpaceOnUse"><stop offset="0" stop-color="#facc5e"/><stop offset="1" stop-color="#a86403"/></linearGradient><linearGradient id="linear-gradient-52" x1="96.52" y1="102.6" x2="279.52" y2="104.48" xlink:href="#linear-gradient-19"/><linearGradient id="linear-gradient-53" x1="278.24" y1="132.37" x2="269.41" y2="76.44" xlink:href="#linear-gradient-51"/><linearGradient id="linear-gradient-54" x1="96.78" y1="77.72" x2="279.78" y2="79.59" xlink:href="#linear-gradient-19"/><linearGradient id="linear-gradient-55" x1="169.1" y1="-289.21" x2="185.14" y2="-287.85" gradientTransform="matrix(1, -0.06, 0.06, 1, 113.64, 377.7)" xlink:href="#linear-gradient-39"/><linearGradient id="linear-gradient-56" x1="96.83" y1="72.69" x2="279.83" y2="74.57" xlink:href="#linear-gradient-19"/><linearGradient id="linear-gradient-57" x1="272.67" y1="76.63" x2="268.71" y2="12.96" xlink:href="#linear-gradient-39"/><linearGradient id="linear-gradient-58" x1="169.52" y1="-294.24" x2="185.57" y2="-292.87" gradientTransform="matrix(1, -0.06, 0.06, 1, 113.64, 377.7)" xlink:href="#linear-gradient-39"/><linearGradient id="linear-gradient-59" x1="96.73" y1="83.07" x2="279.72" y2="84.94" xlink:href="#linear-gradient-19"/><linearGradient id="linear-gradient-60" x1="280.7" y1="131.98" x2="271.87" y2="76.05" xlink:href="#linear-gradient-51"/><linearGradient id="linear-gradient-61" x1="168.64" y1="-283.91" x2="184.69" y2="-282.54" gradientTransform="matrix(1, -0.06, 0.06, 1, 113.64, 377.7)" xlink:href="#linear-gradient-39"/><linearGradient id="linear-gradient-62" x1="96.42" y1="112.95" x2="279.42" y2="114.83" xlink:href="#linear-gradient-19"/><linearGradient id="linear-gradient-63" x1="88.52" y1="156.08" x2="75.19" y2="178.63" gradientUnits="userSpaceOnUse"><stop offset="0" stop-color="#c38728"/><stop offset="0.17" stop-color="#facc5e"/><stop offset="1" stop-color="#a86403"/></linearGradient><linearGradient id="linear-gradient-64" x1="122.34" y1="156.08" x2="109.01" y2="178.63" gradientTransform="translate(179.2)" xlink:href="#linear-gradient-63"/></defs><g class="cls-1"><g id="Layer_2" data-name="Layer 2"><g id="Layer_1-2" data-name="Layer 1"><path class="cls-6" d="M429.67,204.1q7.21,2.81,10.87,7.43a17.15,17.15,0,0,1,3.66,11q0,9.27-6.48,14.93t-17.18,5.67q-8.73,0-14.63-4.06a19.9,19.9,0,0,1-8-11.54l8-3.57a17.62,17.62,0,0,0,5.32,9.24,13.93,13.93,0,0,0,9.31,3.14q6.6,0,10.69-3.46a11.26,11.26,0,0,0,4.09-9,11.65,11.65,0,0,0-2.85-7.82,21.77,21.77,0,0,0-8.6-5.61l-9-3.49q-7.36-2.79-11-7.2a16.1,16.1,0,0,1-3.61-10.55,14.52,14.52,0,0,1,5.85-11.83q5.85-4.68,14.93-4.68a24.4,24.4,0,0,1,11.53,2.57,18,18,0,0,1,7.59,7.57L433,187a18,18,0,0,0-5.55-5.81,13,13,0,0,0-7-1.9,11.88,11.88,0,0,0-8.1,2.75,8.92,8.92,0,0,0-3.15,7,8.82,8.82,0,0,0,2.42,6.19,20.32,20.32,0,0,0,7.52,4.63Z"/><path class="cls-6" d="M515.84,190.3a35.64,35.64,0,0,0-11.3-7.73,34.14,34.14,0,0,0-13.27-2.5,31.41,31.41,0,0,0-11.43,2.16,29.45,29.45,0,0,0-9.66,6,26.77,26.77,0,0,0-6.35,8.92,27.21,27.21,0,0,0-2.12,10.9,28.19,28.19,0,0,0,1.26,8.62,23.91,23.91,0,0,0,3.78,7.25,30,30,0,0,0,10.92,8.82,33.41,33.41,0,0,0,27.12.44,34.06,34.06,0,0,0,11.05-7.93v10.59A43.77,43.77,0,0,1,504,241.32a46.22,46.22,0,0,1-13.09,1.86,41.51,41.51,0,0,1-11.4-1.58,40.59,40.59,0,0,1-10.4-4.61,36,36,0,0,1-12.33-12.52,32.29,32.29,0,0,1-4.27-16.33,32.61,32.61,0,0,1,11.56-25.64,38.62,38.62,0,0,1,12.51-7.41,44.33,44.33,0,0,1,15-2.45A43.65,43.65,0,0,1,504,174.41a46.26,46.26,0,0,1,11.86,5.48Z"/><path class="cls-6" d="M530.82,241.39V174.24h8.78v25.83h39.25V174.24h8.93v67.15h-8.93V207.68H539.6v33.71Z"/><path class="cls-6" d="M681,208a32.14,32.14,0,0,1-2.92,13.57,34,34,0,0,1-8.54,11.33,40.26,40.26,0,0,1-12.89,7.64,43.72,43.72,0,0,1-15.12,2.68,43.23,43.23,0,0,1-15.07-2.68,40.51,40.51,0,0,1-12.85-7.64A34.46,34.46,0,0,1,605,221.48a31.71,31.71,0,0,1-3-13.52,32,32,0,0,1,3-13.6,34.33,34.33,0,0,1,8.61-11.4,40,40,0,0,1,12.82-7.57,44.39,44.39,0,0,1,30.27,0A39.89,39.89,0,0,1,669.55,183a34,34,0,0,1,8.54,11.35A32.43,32.43,0,0,1,681,208Zm-39.47,27.7a32.11,32.11,0,0,0,11.53-2.09,30.91,30.91,0,0,0,9.88-6.08,27.43,27.43,0,0,0,6.61-8.94A25.35,25.35,0,0,0,671.83,208a25.69,25.69,0,0,0-2.3-10.74,27.15,27.15,0,0,0-6.58-9,30.32,30.32,0,0,0-9.83-6,32.47,32.47,0,0,0-11.58-2.07,32.88,32.88,0,0,0-11.67,2.07,29,29,0,0,0-9.74,6,27.69,27.69,0,0,0-6.62,9A25.77,25.77,0,0,0,611.24,208a25.16,25.16,0,0,0,2.25,10.54,27.69,27.69,0,0,0,6.64,9,30.8,30.8,0,0,0,9.87,6.1A32.09,32.09,0,0,0,641.54,235.66Z"/><path class="cls-6" d="M770.92,208A32.15,32.15,0,0,1,768,221.53a34,34,0,0,1-8.53,11.33,40.42,40.42,0,0,1-12.9,7.64,43.67,43.67,0,0,1-15.12,2.68,43.23,43.23,0,0,1-15.07-2.68,40.51,40.51,0,0,1-12.85-7.64,34.46,34.46,0,0,1-8.61-11.38A31.86,31.86,0,0,1,692,208a32.18,32.18,0,0,1,2.95-13.6,34.33,34.33,0,0,1,8.61-11.4,40,40,0,0,1,12.82-7.57,44.39,44.39,0,0,1,30.27,0A40,40,0,0,1,759.46,183,34,34,0,0,1,768,194.31,32.44,32.44,0,0,1,770.92,208Zm-39.48,27.7A32.21,32.21,0,0,0,743,233.57a31,31,0,0,0,9.87-6.08,27.28,27.28,0,0,0,6.61-8.94A25.2,25.2,0,0,0,761.73,208a25.84,25.84,0,0,0-2.29-10.74,27.32,27.32,0,0,0-6.59-9,30.38,30.38,0,0,0-9.82-6,33.71,33.71,0,0,0-23.26,0,29.21,29.21,0,0,0-9.74,6,27.65,27.65,0,0,0-6.61,9A25.63,25.63,0,0,0,701.14,208a25.16,25.16,0,0,0,2.25,10.54,27.69,27.69,0,0,0,6.64,9,30.8,30.8,0,0,0,9.87,6.1A32.13,32.13,0,0,0,731.44,235.66Z"/><path class="cls-6" d="M785.24,241.39V174.24H794v59.54h27.9v7.61Z"/><path d="M429.67,204.1q7.21,2.81,10.87,7.43a17.15,17.15,0,0,1,3.66,11q0,9.27-6.48,14.93t-17.18,5.67q-8.73,0-14.63-4.06a19.9,19.9,0,0,1-8-11.54l8-3.57a17.62,17.62,0,0,0,5.32,9.24,13.93,13.93,0,0,0,9.31,3.14q6.6,0,10.69-3.46a11.26,11.26,0,0,0,4.09-9,11.65,11.65,0,0,0-2.85-7.82,21.77,21.77,0,0,0-8.6-5.61l-9-3.49q-7.36-2.79-11-7.2a16.1,16.1,0,0,1-3.61-10.55,14.52,14.52,0,0,1,5.85-11.83q5.85-4.68,14.93-4.68a24.4,24.4,0,0,1,11.53,2.57,18,18,0,0,1,7.59,7.57L433,187a18,18,0,0,0-5.55-5.81,13,13,0,0,0-7-1.9,11.88,11.88,0,0,0-8.1,2.75,8.92,8.92,0,0,0-3.15,7,8.82,8.82,0,0,0,2.42,6.19,20.32,20.32,0,0,0,7.52,4.63Z"/><path d="M515.84,190.3a35.64,35.64,0,0,0-11.3-7.73,34.14,34.14,0,0,0-13.27-2.5,31.41,31.41,0,0,0-11.43,2.16,29.45,29.45,0,0,0-9.66,6,26.77,26.77,0,0,0-6.35,8.92,27.21,27.21,0,0,0-2.12,10.9,28.19,28.19,0,0,0,1.26,8.62,23.91,23.91,0,0,0,3.78,7.25,30,30,0,0,0,10.92,8.82,33.41,33.41,0,0,0,27.12.44,34.06,34.06,0,0,0,11.05-7.93v10.59A43.77,43.77,0,0,1,504,241.32a46.22,46.22,0,0,1-13.09,1.86,41.51,41.51,0,0,1-11.4-1.58,40.59,40.59,0,0,1-10.4-4.61,36,36,0,0,1-12.33-12.52,32.29,32.29,0,0,1-4.27-16.33,32.61,32.61,0,0,1,11.56-25.64,38.62,38.62,0,0,1,12.51-7.41,44.33,44.33,0,0,1,15-2.45A43.65,43.65,0,0,1,504,174.41a46.26,46.26,0,0,1,11.86,5.48Z"/><path d="M530.82,241.39V174.24h8.78v25.83h39.25V174.24h8.93v67.15h-8.93V207.68H539.6v33.71Z"/><path d="M681,208a32.14,32.14,0,0,1-2.92,13.57,34,34,0,0,1-8.54,11.33,40.26,40.26,0,0,1-12.89,7.64,43.72,43.72,0,0,1-15.12,2.68,43.23,43.23,0,0,1-15.07-2.68,40.51,40.51,0,0,1-12.85-7.64A34.46,34.46,0,0,1,605,221.48a31.71,31.71,0,0,1-3-13.52,32,32,0,0,1,3-13.6,34.33,34.33,0,0,1,8.61-11.4,40,40,0,0,1,12.82-7.57,44.39,44.39,0,0,1,30.27,0A39.89,39.89,0,0,1,669.55,183a34,34,0,0,1,8.54,11.35A32.43,32.43,0,0,1,681,208Zm-39.47,27.7a32.11,32.11,0,0,0,11.53-2.09,30.91,30.91,0,0,0,9.88-6.08,27.43,27.43,0,0,0,6.61-8.94A25.35,25.35,0,0,0,671.83,208a25.69,25.69,0,0,0-2.3-10.74,27.15,27.15,0,0,0-6.58-9,30.32,30.32,0,0,0-9.83-6,32.47,32.47,0,0,0-11.58-2.07,32.88,32.88,0,0,0-11.67,2.07,29,29,0,0,0-9.74,6,27.69,27.69,0,0,0-6.62,9A25.77,25.77,0,0,0,611.24,208a25.16,25.16,0,0,0,2.25,10.54,27.69,27.69,0,0,0,6.64,9,30.8,30.8,0,0,0,9.87,6.1A32.09,32.09,0,0,0,641.54,235.66Z"/><path d="M770.92,208A32.15,32.15,0,0,1,768,221.53a34,34,0,0,1-8.53,11.33,40.42,40.42,0,0,1-12.9,7.64,43.67,43.67,0,0,1-15.12,2.68,43.23,43.23,0,0,1-15.07-2.68,40.51,40.51,0,0,1-12.85-7.64,34.46,34.46,0,0,1-8.61-11.38A31.86,31.86,0,0,1,692,208a32.18,32.18,0,0,1,2.95-13.6,34.33,34.33,0,0,1,8.61-11.4,40,40,0,0,1,12.82-7.57,44.39,44.39,0,0,1,30.27,0A40,40,0,0,1,759.46,183,34,34,0,0,1,768,194.31,32.44,32.44,0,0,1,770.92,208Zm-39.48,27.7A32.21,32.21,0,0,0,743,233.57a31,31,0,0,0,9.87-6.08,27.28,27.28,0,0,0,6.61-8.94A25.2,25.2,0,0,0,761.73,208a25.84,25.84,0,0,0-2.29-10.74,27.32,27.32,0,0,0-6.59-9,30.38,30.38,0,0,0-9.82-6,33.71,33.71,0,0,0-23.26,0,29.21,29.21,0,0,0-9.74,6,27.65,27.65,0,0,0-6.61,9A25.63,25.63,0,0,0,701.14,208a25.16,25.16,0,0,0,2.25,10.54,27.69,27.69,0,0,0,6.64,9,30.8,30.8,0,0,0,9.87,6.1A32.13,32.13,0,0,0,731.44,235.66Z"/><path d="M785.24,241.39V174.24H794v59.54h27.9v7.61Z"/><path class="cls-6" d="M445.09,149.13H419.42v-70H398.2V59.35h68.11V79.12H445.09Z"/><path class="cls-6" d="M526.69,112.34l31,36.79h-32L501.54,114.6h-.26v34.53H475.61V59.35H514q14.65.12,24.49,6.73t9.82,21a26.23,26.23,0,0,1-5.56,16.49q-5.58,7.2-16,8.87ZM501.28,99.6h2.49a7.26,7.26,0,0,0,1.31.12h1.18a27.67,27.67,0,0,0,10.54-2.44q4.79-2.2,4.78-8.75t-4.78-8.85a27.51,27.51,0,0,0-10.54-2.47h-5Z"/><path class="cls-7" d="M589.82,133.54,583,149.13H555.77l38-89.78h28L659,149.13H631.61l-6.42-15.59ZM607.77,87.1h-.26L596.9,115.67h21.35Z"/><path class="cls-6" d="M667,59.35h36.41q20.7.12,35.44,13.1t14.73,31.91q0,18.93-14.8,31.85t-35.37,12.92H667Zm25.67,70h5.77a32.86,32.86,0,0,0,20-5.91q8.45-6,8.45-19.16,0-12-7.86-18.62t-20.3-6.56h-6Z"/><path class="cls-8" d="M791.14,79.12v15h29v19.77h-29v15.48h30.52v19.76H765.47V59.35h56.19V79.12Z"/><path class="cls-9" d="M445.09,149.13H419.42v-70H398.2V59.35h68.11V79.12H445.09Z"/><path class="cls-9" d="M526.69,112.34l31,36.79h-32L501.54,114.6h-.26v34.53H475.61V59.35H514q14.65.12,24.49,6.73t9.82,21a26.23,26.23,0,0,1-5.56,16.49q-5.58,7.2-16,8.87ZM501.28,99.6h2.49a7.26,7.26,0,0,0,1.31.12h1.18a27.67,27.67,0,0,0,10.54-2.44q4.79-2.2,4.78-8.75t-4.78-8.85a27.51,27.51,0,0,0-10.54-2.47h-5Z"/><path class="cls-9" d="M589.82,133.54,583,149.13H555.77l38-89.78h28L659,149.13H631.61l-6.42-15.59ZM607.77,87.1h-.26L596.9,115.67h21.35Z"/><path class="cls-9" d="M667,59.35h36.41q20.7.12,35.44,13.1t14.73,31.91q0,18.93-14.8,31.85t-35.37,12.92H667Zm25.67,70h5.77a32.86,32.86,0,0,0,20-5.91q8.45-6,8.45-19.16,0-12-7.86-18.62t-20.3-6.56h-6Z"/><path class="cls-9" d="M791.14,79.12v15h29v19.77h-29v15.48h30.52v19.76H765.47V59.35h56.19V79.12Z"/><path class="cls-10" d="M445.09,149.13H419.42v-70H398.2V59.35h68.11V79.12H445.09Z"/><path class="cls-10" d="M526.69,112.34l31,36.79h-32L501.54,114.6h-.26v34.53H475.61V59.35H514q14.65.12,24.49,6.73t9.82,21a26.23,26.23,0,0,1-5.56,16.49q-5.58,7.2-16,8.87ZM501.28,99.6h2.49a7.26,7.26,0,0,0,1.31.12h1.18a27.67,27.67,0,0,0,10.54-2.44q4.79-2.2,4.78-8.75t-4.78-8.85a27.51,27.51,0,0,0-10.54-2.47h-5Z"/><path class="cls-10" d="M589.82,133.54,583,149.13H555.77l38-89.78h28L659,149.13H631.61l-6.42-15.59ZM607.77,87.1h-.26L596.9,115.67h21.35Z"/><path class="cls-10" d="M667,59.35h36.41q20.7.12,35.44,13.1t14.73,31.91q0,18.93-14.8,31.85t-35.37,12.92H667Zm25.67,70h5.77a32.86,32.86,0,0,0,20-5.91q8.45-6,8.45-19.16,0-12-7.86-18.62t-20.3-6.56h-6Z"/><path class="cls-10" d="M791.14,79.12v15h29v19.77h-29v15.48h30.52v19.76H765.47V59.35h56.19V79.12Z"/><path class="cls-10" d="M445.09,149.13H419.42v-70H398.2V59.35h68.11V79.12H445.09Z"/><path class="cls-10" d="M526.69,112.34l31,36.79h-32L501.54,114.6h-.26v34.53H475.61V59.35H514q14.65.12,24.49,6.73t9.82,21a26.23,26.23,0,0,1-5.56,16.49q-5.58,7.2-16,8.87ZM501.28,99.6h2.49a7.26,7.26,0,0,0,1.31.12h1.18a27.67,27.67,0,0,0,10.54-2.44q4.79-2.2,4.78-8.75t-4.78-8.85a27.51,27.51,0,0,0-10.54-2.47h-5Z"/><path class="cls-10" d="M589.82,133.54,583,149.13H555.77l38-89.78h28L659,149.13H631.61l-6.42-15.59ZM607.77,87.1h-.26L596.9,115.67h21.35Z"/><path class="cls-10" d="M667,59.35h36.41q20.7.12,35.44,13.1t14.73,31.91q0,18.93-14.8,31.85t-35.37,12.92H667Zm25.67,70h5.77a32.86,32.86,0,0,0,20-5.91q8.45-6,8.45-19.16,0-12-7.86-18.62t-20.3-6.56h-6Z"/><path class="cls-10" d="M791.14,79.12v15h29v19.77h-29v15.48h30.52v19.76H765.47V59.35h56.19V79.12Z"/><path class="cls-10" d="M445.09,149.13H419.42v-70H398.2V59.35h68.11V79.12H445.09Z"/><path class="cls-10" d="M526.69,112.34l31,36.79h-32L501.54,114.6h-.26v34.53H475.61V59.35H514q14.65.12,24.49,6.73t9.82,21a26.23,26.23,0,0,1-5.56,16.49q-5.58,7.2-16,8.87ZM501.28,99.6h2.49a7.26,7.26,0,0,0,1.31.12h1.18a27.67,27.67,0,0,0,10.54-2.44q4.79-2.2,4.78-8.75t-4.78-8.85a27.51,27.51,0,0,0-10.54-2.47h-5Z"/><path class="cls-10" d="M589.82,133.54,583,149.13H555.77l38-89.78h28L659,149.13H631.61l-6.42-15.59ZM607.77,87.1h-.26L596.9,115.67h21.35Z"/><path class="cls-10" d="M667,59.35h36.41q20.7.12,35.44,13.1t14.73,31.91q0,18.93-14.8,31.85t-35.37,12.92H667Zm25.67,70h5.77a32.86,32.86,0,0,0,20-5.91q8.45-6,8.45-19.16,0-12-7.86-18.62t-20.3-6.56h-6Z"/><path class="cls-10" d="M791.14,79.12v15h29v19.77h-29v15.48h30.52v19.76H765.47V59.35h56.19V79.12Z"/><g class="cls-11"><g class="cls-11"><g class="cls-12"><g class="cls-13"><g class="cls-14"><rect class="cls-15" x="104.86" y="256.65" width="168.81" height="28.24"/></g></g></g></g><g class="cls-16"><rect class="cls-17" x="108.25" y="108.88" width="163.3" height="163.3"/></g><g class="cls-18"><rect class="cls-19" x="109.74" y="110.37" width="160.31" height="160.31"/></g><g class="cls-20"><rect class="cls-21" x="124" y="124.63" width="131.79" height="131.79"/></g></g><path class="cls-22" d="M208.1,176.6a1.35,1.35,0,0,0-1-.39h-7.47a15.08,15.08,0,0,0-2.79-6.29H207a1.39,1.39,0,0,0,1-.39,1.35,1.35,0,0,0,.39-1v-4.46a1.36,1.36,0,0,0-.39-1,1.39,1.39,0,0,0-1-.39H170.69a1.39,1.39,0,0,0-1,.39,1.36,1.36,0,0,0-.39,1v5.81a1.44,1.44,0,0,0,1.4,1.4H177q9.21,0,11.7,4.93h-18a1.34,1.34,0,0,0-1.4,1.4v4.45a1.35,1.35,0,0,0,1.4,1.4h18.64a8.52,8.52,0,0,1-4.48,5.45,19.56,19.56,0,0,1-9.27,1.88h-4.89a1.44,1.44,0,0,0-1.4,1.4v5.54a1.3,1.3,0,0,0,.39,1q8.38,8.91,21.74,24.93a1.31,1.31,0,0,0,1.1.53H201a1.29,1.29,0,0,0,1.27-.79,1.19,1.19,0,0,0-.18-1.48q-12.75-15.63-20-23.4a22.18,22.18,0,0,0,12-4.81,16.29,16.29,0,0,0,5.63-10.21h7.34a1.32,1.32,0,0,0,1-.4,1.36,1.36,0,0,0,.4-1v-4.45A1.4,1.4,0,0,0,208.1,176.6Z"/><polygon class="cls-23" points="188.89 0 0.67 36 0 39.29 188.89 3.16 188.89 0"/><path class="cls-24" d="M268.06,18.27v0l109.73,21L377.12,36,266.74,14.89a5.35,5.35,0,0,1,.45.68A9.85,9.85,0,0,1,268.06,18.27Z"/><path class="cls-25" d="M265.94,17.89a7,7,0,0,0-.5-1.4,4.1,4.1,0,0,0-.85-1.07l-.17-.14,0,0-2.77-.53a7,7,0,0,1,.94-.63L188.89,0V3.16Z"/><path class="cls-26" d="M268.43,21.86a70.11,70.11,0,0,1-.62,10.76,60,60,0,0,0-.24,9.49c4,1.33,8,2.8,11.86,4.45l.67,12,97.69-19.29-109.73-21A23.61,23.61,0,0,1,268.43,21.86Z"/><path class="cls-27" d="M188.89,30.72s40.53-.59,76.67,10.75a62.19,62.19,0,0,1,.28-9.1,58.29,58.29,0,0,0,.49-12.24,15,15,0,0,0-.39-2.24L188.89,3.16,0,39.29,97.68,58.58l.67-12C137.05,30,188.89,30.72,188.89,30.72Z"/><path class="cls-28" d="M273.64,73.73c4.71,2,4.24,11,4.24,11l4.66,17.54-1.43-25.61c-2.44-1.81-5.13-3.68-8-5.55Z"/><path class="cls-29" d="M268.68,85.28s-1.35-8.23,2.5-11.1l-1-4.8c-3.6-2.21-7.48-4.42-11.65-6.55L188.89,76.59,115.51,62.1A182.46,182.46,0,0,0,96.88,73l.8-14.46h0L94.2,121.1s10.17,3,35.91,5.18a81.58,81.58,0,0,1,118.43-.07c7.88-.68,14.28-1.43,19.34-2.15Z"/><path class="cls-30" d="M115.51,62.1l73.38,14.49,69.68-13.76C238.39,52.5,212,43.86,183.7,44.54A158.58,158.58,0,0,0,115.51,62.1Z"/><path class="cls-31" d="M115.51,62.1l73.38,14.49,69.68-13.76C238.39,52.5,212,43.86,183.7,44.54A158.58,158.58,0,0,0,115.51,62.1Z"/><polygon class="cls-32" points="98.36 46.56 97.69 58.58 97.69 58.58 98.36 46.56"/><polygon class="cls-33" points="98.36 46.56 97.69 58.58 97.69 58.58 98.36 46.56"/><rect class="cls-34" x="280.61" y="58.56" height="18.14"/><polygon class="cls-32" points="280.1 58.58 280.1 58.58 279.43 46.56 280.1 58.58"/><polygon class="cls-34" points="280.1 58.58 280.1 58.58 279.43 46.56 280.1 58.58"/><path class="cls-35" d="M96.88,73A182.46,182.46,0,0,1,115.51,62.1L97.68,58.58Z"/><path class="cls-34" d="M96.88,73A182.46,182.46,0,0,1,115.51,62.1L97.68,58.58Z"/><path class="cls-36" d="M270.7,60.44l2.37,10.7c2.91,1.87,5.6,3.74,8,5.55l-1-18.11Z"/><path class="cls-34" d="M270.7,60.44l2.37,10.7c2.91,1.87,5.6,3.74,8,5.55l-1-18.11Z"/><path class="cls-37" d="M258.57,62.83c4.17,2.13,8.05,4.34,11.65,6.55l-1.69-8.52Z"/><path class="cls-34" d="M258.57,62.83c4.17,2.13,8.05,4.34,11.65,6.55l-1.69-8.52Z"/><path class="cls-38" d="M266.55,50.88a58.51,58.51,0,0,1-1-9.41c-36.14-11.34-76.67-10.75-76.67-10.75S137.05,30,98.35,46.56l-.67,12,17.83,3.52A158.58,158.58,0,0,1,183.7,44.54c28.3-.68,54.69,8,74.87,18.29l10-2Z"/><path class="cls-39" d="M266.55,50.88a58.51,58.51,0,0,1-1-9.41c-36.14-11.34-76.67-10.75-76.67-10.75S137.05,30,98.35,46.56l-.67,12,17.83,3.52A158.58,158.58,0,0,1,183.7,44.54c28.3-.68,54.69,8,74.87,18.29l10-2Z"/><path class="cls-34" d="M266.55,50.88a58.51,58.51,0,0,1-1-9.41c-36.14-11.34-76.67-10.75-76.67-10.75S137.05,30,98.35,46.56l-.67,12,17.83,3.52A158.58,158.58,0,0,1,183.7,44.54c28.3-.68,54.69,8,74.87,18.29l10-2Z"/><path class="cls-40" d="M270.7,60.44l9.4-1.86-.67-12c-3.84-1.65-7.82-3.12-11.86-4.45a55.64,55.64,0,0,0,.92,8.36Z"/><path class="cls-41" d="M270.7,60.44l9.4-1.86-.67-12c-3.84-1.65-7.82-3.12-11.86-4.45a55.64,55.64,0,0,0,.92,8.36Z"/><path class="cls-34" d="M270.7,60.44l9.4-1.86-.67-12c-3.84-1.65-7.82-3.12-11.86-4.45a55.64,55.64,0,0,0,.92,8.36Z"/><path class="cls-42" d="M262.55,14.09l4.19.8A3,3,0,0,0,262.55,14.09Z"/><path class="cls-43" d="M264.38,15.25l0,0,.17.14a4.1,4.1,0,0,1,.85,1.07,7,7,0,0,1,.5,1.4l2.12.41v0a9.85,9.85,0,0,0-.87-2.7,5.35,5.35,0,0,0-.45-.68l-4.19-.8a7,7,0,0,0-.94.63Z"/><path class="cls-44" d="M264.38,15.25l0,0,.17.14a4.1,4.1,0,0,1,.85,1.07,7,7,0,0,1,.5,1.4l2.12.41v0a9.85,9.85,0,0,0-.87-2.7,5.35,5.35,0,0,0-.45-.68l-4.19-.8a7,7,0,0,0-.94.63Z"/><path class="cls-45" d="M267.81,32.62a70.11,70.11,0,0,0,.62-10.76,23.61,23.61,0,0,0-.37-3.56l-2.12-.41a15,15,0,0,1,.39,2.24,58.29,58.29,0,0,1-.49,12.24,62.19,62.19,0,0,0-.28,9.1l2,.64A60,60,0,0,1,267.81,32.62Z"/><path class="cls-46" d="M267.81,32.62a70.11,70.11,0,0,0,.62-10.76,23.61,23.61,0,0,0-.37-3.56l-2.12-.41a15,15,0,0,1,.39,2.24,58.29,58.29,0,0,1-.49,12.24,62.19,62.19,0,0,0-.28,9.1l2,.64A60,60,0,0,1,267.81,32.62Z"/><path class="cls-47" d="M273.64,73.73l-.57-2.59c-.92-.59-1.89-1.17-2.85-1.76l1,4.8a4.58,4.58,0,0,1,1.44-.75A4.49,4.49,0,0,1,273.64,73.73Z"/><path class="cls-48" d="M273.64,73.73l-.57-2.59c-.92-.59-1.89-1.17-2.85-1.76l1,4.8a4.58,4.58,0,0,1,1.44-.75A4.49,4.49,0,0,1,273.64,73.73Z"/><path class="cls-49" d="M270.7,60.44l-2.17.42,1.69,8.52c1,.59,1.93,1.17,2.85,1.76Z"/><path class="cls-34" d="M270.7,60.44l-2.17.42,1.69,8.52c1,.59,1.93,1.17,2.85,1.76Z"/><path class="cls-50" d="M270.7,60.44l-2.17.42,1.69,8.52c1,.59,1.93,1.17,2.85,1.76Z"/><path class="cls-51" d="M268.53,60.86l2.17-.42-2.21-10a55.64,55.64,0,0,1-.92-8.36l-2-.64a58.51,58.51,0,0,0,1,9.41Z"/><path class="cls-52" d="M268.53,60.86l2.17-.42-2.21-10a55.64,55.64,0,0,1-.92-8.36l-2-.64a58.51,58.51,0,0,0,1,9.41Z"/><path class="cls-34" d="M268.53,60.86l2.17-.42-2.21-10a55.64,55.64,0,0,1-.92-8.36l-2-.64a58.51,58.51,0,0,0,1,9.41Z"/><path class="cls-53" d="M268.53,60.86l2.17-.42-2.21-10a55.64,55.64,0,0,1-.92-8.36l-2-.64a58.51,58.51,0,0,0,1,9.41Z"/><path class="cls-54" d="M283.59,121.1a124.23,124.23,0,0,1-15.71,3l-.12,5.55a48.5,48.5,0,0,0,21.72-1.17l-6.94-26.14Z"/><path class="cls-55" d="M283.59,121.1l-1-18.8-4.66-17.54c-1.65,1-7.44,1.36-9.2.52l-.8,38.78A124.23,124.23,0,0,0,283.59,121.1Z"/><path class="cls-56" d="M283.59,121.1l-1-18.8-4.66-17.54c-1.65,1-7.44,1.36-9.2.52l-.8,38.78A124.23,124.23,0,0,0,283.59,121.1Z"/><path class="cls-57" d="M273.64,73.73l.27,1.22-2.46.59-.27-1.36c-3.85,2.87-2.5,11.1-2.5,11.1,2.75-2.58,9.2-.52,9.2-.52S278.35,75.72,273.64,73.73Z"/><path class="cls-58" d="M273.64,73.73l.27,1.22-2.46.59-.27-1.36c-3.85,2.87-2.5,11.1-2.5,11.1,2.75-2.58,9.2-.52,9.2-.52S278.35,75.72,273.64,73.73Z"/><path class="cls-59" d="M273.91,75l-.27-1.22a4.49,4.49,0,0,0-1-.3,4.58,4.58,0,0,0-1.44.75l.27,1.36Z"/><path class="cls-60" d="M273.91,75l-.27-1.22a4.49,4.49,0,0,0-1-.3,4.58,4.58,0,0,0-1.44.75l.27,1.36Z"/><path class="cls-61" d="M273.91,75l-.27-1.22a4.49,4.49,0,0,0-1-.3,4.58,4.58,0,0,0-1.44.75l.27,1.36Z"/><path class="cls-62" d="M268.68,85.28c1.76.84,7.55.51,9.2-.52C277.88,84.76,271.43,82.7,268.68,85.28Z"/><path class="cls-63" d="M268.68,85.28c1.76.84,7.55.51,9.2-.52C277.88,84.76,271.43,82.7,268.68,85.28Z"/><path class="cls-64" d="M268.68,85.28c1.76.84,7.55.51,9.2-.52C277.88,84.76,271.43,82.7,268.68,85.28Z"/><path class="cls-65" d="M189.36,100.78a81.36,81.36,0,0,0-59.25,25.5l1.9.16a79.93,79.93,0,0,1,57.34-24.17h0a79.92,79.92,0,0,1,57.27,24.1l1.91-.16A81.38,81.38,0,0,0,189.36,100.78Z"/><polygon class="cls-66" points="86.33 161.74 82.49 153.95 78.64 161.74 70.04 162.99 76.26 169.06 74.79 177.63 82.49 173.59 90.18 177.63 88.71 169.06 94.94 162.99 86.33 161.74"/><polygon class="cls-67" points="299.35 161.74 295.5 153.95 291.66 161.74 283.05 162.99 289.28 169.06 287.81 177.63 295.5 173.59 303.2 177.63 301.73 169.06 307.95 162.99 299.35 161.74"/><text class="cls-68" transform="translate(657.64 335.54)">Initiative</text><text class="cls-68" transform="translate(398.2 335.54)">An</text><path class="cls-69" d="M480.82,315h6.63v20.16h-6.63v-2.26A8.44,8.44,0,0,1,474,336c-5.75,0-9.89-4.4-9.89-10.58s4.4-11.15,10.46-11.15a7.75,7.75,0,0,1,6.28,3V315Zm-9.67,10.24c0,3.09,2.09,5.48,4.79,5.48s5-2.53,5-5.57c0-3.22-2.05-5.44-4.93-5.44s-4.83,2.3-4.83,5.53"/><path class="cls-69" d="M499,306.14h-6.63v29H499Z"/><path class="cls-69" d="M510.58,315H504v20.17h6.62Z"/><path class="cls-70" d="M510.8,309.19a3.53,3.53,0,1,1-3.48-3.57,3.36,3.36,0,0,1,3.49,3.57"/><path class="cls-69" d="M533.29,333a11.21,11.21,0,0,1-7.88,3,11.72,11.72,0,0,1-8.07-3.18,10.09,10.09,0,0,1-3.05-7.57,10.61,10.61,0,0,1,11-11c3.09,0,5.58,1.05,8.41,3.49l-4.4,4a4.93,4.93,0,0,0-3.71-1.61A4.73,4.73,0,0,0,521,325a5,5,0,0,0,5,5.14,4.88,4.88,0,0,0,3.36-1.44l4,4.27Z"/><path class="cls-69" d="M541.27,326.52a4.42,4.42,0,0,0,4.62,3.61,4.2,4.2,0,0,0,4-2.22l6.1,1.57a10.16,10.16,0,0,1-3.27,4.1,10.83,10.83,0,0,1-6.93,2.39c-6.58,0-11.33-4.57-11.33-11s4.44-10.76,11-10.76,11.16,4.57,11.16,11.46v.82Zm8.54-3.53c-.43-2.09-2-3.27-4.36-3.27a3.9,3.9,0,0,0-4.23,3.27Z"/><path class="cls-71" d="M566.76,335.18h-6.62V306.13h6.62V317a7.78,7.78,0,0,1,6.28-2.78,10.73,10.73,0,0,1,7.58,3.17,11,11,0,0,1,2.84,7.8c0,6.48-4.05,10.75-10.2,10.75a7.33,7.33,0,0,1-6.49-3v2.18Zm-.08-9.84c0,3.09,2.05,5.4,4.79,5.4s4.93-2.26,4.93-5.49-2.1-5.52-4.8-5.52S566.68,322.29,566.68,325.34Z"/><path class="cls-71" d="M593.82,306.14H587.2v29h6.62Z"/><path class="cls-71" d="M617.14,315v12.67c0,3.09-.69,4.84-2.4,6.23a10.78,10.78,0,0,1-6.88,2.05,11.12,11.12,0,0,1-7.19-2.22c-1.53-1.31-2.22-3.27-2.22-6.06V315h6.62v12.2c0,2.09,1,3.26,2.79,3.26a2.51,2.51,0,0,0,2.66-2.79V315Z"/><path class="cls-71" d="M627.43,326.52a4.42,4.42,0,0,0,4.61,3.61,4.19,4.19,0,0,0,4-2.22l6.1,1.57a10,10,0,0,1-3.27,4.1,10.8,10.8,0,0,1-6.92,2.39c-6.58,0-11.33-4.57-11.33-11s4.44-10.76,11-10.76,11.15,4.57,11.15,11.46v.82ZM636,323c-.44-2.09-2-3.27-4.36-3.27a3.9,3.9,0,0,0-4.23,3.27Z"/><line class="cls-72" x1="398.2" y1="272.82" x2="821.92" y2="272.82"/></g></g></g></svg>